<svg width="88" height="89" viewBox="0 0 88 89" fill="none" xmlns="http://www.w3.org/2000/svg">
<path d="M41.0563 5.81266C42.5615 3.9181 45.4385 3.9181 46.9437 5.81266C48.7552 8.0927 51.9836 8.66194 54.4656 7.13898C56.5281 5.87349 59.2316 6.85748 59.9981 9.15261C60.9205 11.9147 63.7594 13.5538 66.6127 12.9716C68.9836 12.4878 71.1875 14.3371 71.1228 16.756C71.0449 19.667 73.152 22.1782 76.0323 22.607C78.4257 22.9633 79.8642 25.4548 78.9761 27.7057C77.9073 30.4145 79.0285 33.4949 81.5884 34.883C83.7156 36.0364 84.2152 38.8697 82.6108 40.681C80.6799 42.8609 80.6799 46.1391 82.6108 48.319C84.2152 50.1303 83.7156 52.9636 81.5884 54.117C79.0285 55.5051 77.9073 58.5855 78.9761 61.2943C79.8642 63.5452 78.4257 66.0367 76.0323 66.393C73.152 66.8218 71.0449 69.333 71.1228 72.244C71.1875 74.6629 68.9836 76.5122 66.6127 76.0284C63.7594 75.4462 60.9205 77.0853 59.9981 79.8474C59.2316 82.1425 56.5281 83.1265 54.4656 81.861C51.9836 80.3381 48.7552 80.9073 46.9437 83.1873C45.4385 85.0819 42.5615 85.0819 41.0563 83.1873C39.2448 80.9073 36.0164 80.3381 33.5344 81.861C31.4719 83.1265 28.7684 82.1425 28.0019 79.8474C27.0795 77.0853 24.2406 75.4462 21.3873 76.0284C19.0164 76.5122 16.8125 74.6629 16.8772 72.244C16.9551 69.333 14.848 66.8218 11.9676 66.393C9.57428 66.0367 8.13579 63.5452 9.02392 61.2943C10.0927 58.5855 8.97154 55.5051 6.41158 54.117C4.28442 52.9636 3.78483 50.1303 5.38923 48.319C7.32007 46.1391 7.32007 42.8609 5.38923 40.681C3.78483 38.8697 4.28442 36.0364 6.41158 34.883C8.97155 33.4949 10.0927 30.4145 9.02392 27.7057C8.13579 25.4548 9.57429 22.9633 11.9676 22.607C14.848 22.1782 16.9551 19.667 16.8772 16.756C16.8125 14.3371 19.0164 12.4878 21.3873 12.9716C24.2406 13.5538 27.0795 11.9147 28.0019 9.15261C28.7684 6.85748 31.4719 5.87349 33.5344 7.13898C36.0164 8.66194 39.2448 8.0927 41.0563 5.81266Z" fill="#FD591E" fill-opacity="0.1" stroke="#FD591E" stroke-width="2"/>
<path d="M11.5004 47.8899V44.9199H20.4704V47.8899H11.5004ZM30.3374 54.9099C28.7974 54.9099 27.4174 54.5699 26.1974 53.8899C24.9974 53.1899 24.0674 52.2399 23.4074 51.0399L25.3874 49.1499C25.9474 50.0099 26.6674 50.6999 27.5474 51.2199C28.4274 51.7199 29.3674 51.9699 30.3674 51.9699C31.1874 51.9699 31.9174 51.7999 32.5574 51.4599C33.1974 51.0999 33.6974 50.6099 34.0574 49.9899C34.4374 49.3699 34.6274 48.6499 34.6274 47.8299C34.6274 47.0299 34.4474 46.3299 34.0874 45.7299C33.7474 45.1099 33.2674 44.6299 32.6474 44.2899C32.0474 43.9499 31.3674 43.7799 30.6074 43.7799C29.8474 43.7799 29.1274 43.9499 28.4474 44.2899C27.7874 44.6299 27.2574 45.1099 26.8574 45.7299H23.9174L26.3474 33.3099H36.7574V36.3399H28.7474L27.6674 42.1299C28.0274 41.7699 28.4874 41.4799 29.0474 41.2599C29.6274 41.0399 30.2874 40.9299 31.0274 40.9299C32.3674 40.9299 33.5574 41.2199 34.5974 41.7999C35.6574 42.3799 36.4874 43.1799 37.0874 44.1999C37.7074 45.2199 38.0174 46.3999 38.0174 47.7399C38.0174 49.1599 37.6774 50.4099 36.9974 51.4899C36.3174 52.5499 35.3974 53.3899 34.2374 54.0099C33.0974 54.6099 31.7974 54.9099 30.3374 54.9099ZM49.6417 54.9099C48.1417 54.8699 46.8217 54.5199 45.6817 53.8599C44.5417 53.1999 43.5917 52.3399 42.8317 51.2799C42.0717 50.1999 41.4917 49.0399 41.0917 47.7999C40.7117 46.5399 40.5217 45.3099 40.5217 44.1099C40.5217 42.8299 40.7317 41.5499 41.1517 40.2699C41.5717 38.9899 42.1817 37.8299 42.9817 36.7899C43.7817 35.7299 44.7417 34.8899 45.8617 34.2699C46.9817 33.6299 48.2417 33.3099 49.6417 33.3099C51.1417 33.3099 52.4517 33.6499 53.5717 34.3299C54.7117 35.0099 55.6617 35.8899 56.4217 36.9699C57.1817 38.0499 57.7517 39.2199 58.1317 40.4799C58.5317 41.7399 58.7317 42.9499 58.7317 44.1099C58.7317 45.4099 58.5217 46.6999 58.1017 47.9799C57.6817 49.2399 57.0717 50.3899 56.2717 51.4299C55.4717 52.4699 54.5117 53.3099 53.3917 53.9499C52.2917 54.5699 51.0417 54.8899 49.6417 54.9099ZM43.9417 44.1099C43.9817 45.0299 44.1117 45.9499 44.3317 46.8699C44.5717 47.7699 44.9317 48.5999 45.4117 49.3599C45.8917 50.1199 46.4817 50.7299 47.1817 51.1899C47.8817 51.6499 48.7017 51.8799 49.6417 51.8799C50.6217 51.8799 51.4617 51.6399 52.1617 51.1599C52.8817 50.6599 53.4717 50.0199 53.9317 49.2399C54.3917 48.4399 54.7317 47.5899 54.9517 46.6899C55.1917 45.7899 55.3117 44.9299 55.3117 44.1099C55.3117 43.1899 55.1817 42.2799 54.9217 41.3799C54.6817 40.4599 54.3217 39.6199 53.8417 38.8599C53.3617 38.0999 52.7717 37.4899 52.0717 37.0299C51.3717 36.5699 50.5617 36.3399 49.6417 36.3399C48.6617 36.3399 47.8117 36.5899 47.0917 37.0899C46.3717 37.5699 45.7817 38.2099 45.3217 39.0099C44.8617 39.7899 44.5117 40.6299 44.2717 41.5299C44.0517 42.4299 43.9417 43.2899 43.9417 44.1099Z" fill="#FD591E"/>
<path d="M65 45.9732C64.3867 45.9732 63.8333 45.8399 63.34 45.5732C62.8467 45.2932 62.4467 44.9266 62.14 44.4732C61.8467 44.0066 61.7 43.4932 61.7 42.9332C61.7 42.3732 61.8467 41.8666 62.14 41.4132C62.4467 40.9466 62.8467 40.5799 63.34 40.3132C63.8333 40.0466 64.3867 39.9132 65 39.9132C65.6133 39.9132 66.1667 40.0466 66.66 40.3132C67.1667 40.5799 67.5667 40.9466 67.86 41.4132C68.1533 41.8666 68.3 42.3732 68.3 42.9332C68.3 43.4932 68.1533 44.0066 67.86 44.4732C67.5667 44.9266 67.1667 45.2932 66.66 45.5732C66.1667 45.8399 65.6133 45.9732 65 45.9732ZM65 44.6332C65.2667 44.6332 65.5067 44.5532 65.72 44.3932C65.9333 44.2332 66.1 44.0266 66.22 43.7732C66.3533 43.5199 66.42 43.2466 66.42 42.9532C66.42 42.6332 66.3533 42.3466 66.22 42.0932C66.0867 41.8399 65.9133 41.6399 65.7 41.4932C65.4867 41.3332 65.2533 41.2532 65 41.2532C64.7333 41.2532 64.4933 41.3332 64.28 41.4932C64.0667 41.6399 63.8933 41.8399 63.76 42.0932C63.64 42.3466 63.58 42.6266 63.58 42.9332C63.58 43.2399 63.6467 43.5266 63.78 43.7932C63.9133 44.0466 64.0867 44.2532 64.3 44.4132C64.5133 44.5599 64.7467 44.6332 65 44.6332ZM72.72 54.5132C72.1067 54.5132 71.5533 54.3799 71.06 54.1132C70.5667 53.8466 70.1667 53.4866 69.86 53.0332C69.5667 52.5666 69.42 52.0532 69.42 51.4932C69.42 50.9199 69.5667 50.4066 69.86 49.9532C70.1667 49.4999 70.5667 49.1399 71.06 48.8732C71.5533 48.5932 72.1067 48.4532 72.72 48.4532C73.3333 48.4532 73.8867 48.5932 74.38 48.8732C74.8867 49.1399 75.2867 49.4999 75.58 49.9532C75.8733 50.4066 76.02 50.9132 76.02 51.4732C76.02 52.0332 75.8733 52.5466 75.58 53.0132C75.2867 53.4666 74.8867 53.8332 74.38 54.1132C73.8867 54.3799 73.3333 54.5132 72.72 54.5132ZM72.72 53.1732C72.9867 53.1732 73.2267 53.0932 73.44 52.9332C73.6533 52.7732 73.82 52.5666 73.94 52.3132C74.0733 52.0599 74.14 51.7866 74.14 51.4932C74.14 51.1732 74.0733 50.8866 73.94 50.6332C73.82 50.3799 73.6467 50.1799 73.42 50.0332C73.2067 49.8732 72.9733 49.7932 72.72 49.7932C72.4667 49.7932 72.2267 49.8732 72 50.0332C71.7867 50.1799 71.6133 50.3866 71.48 50.6532C71.36 50.9066 71.3 51.1799 71.3 51.4732C71.3 51.7932 71.3667 52.0799 71.5 52.3332C71.6333 52.5866 71.8067 52.7932 72.02 52.9532C72.2333 53.0999 72.4667 53.1732 72.72 53.1732ZM62.84 53.3732L68.46 46.7932L73.66 39.9532L74.88 41.0332L69.4 47.5132L64.04 54.4532L62.84 53.3732Z" fill="#FD591E"/>
</svg>
