<svg width="120" height="120" viewBox="0 0 120 120" fill="none" xmlns="http://www.w3.org/2000/svg">
<circle cx="60" cy="60" r="60" fill="white"/>
<path d="M55.14 36.26L42.68 55.3C47.16 55.5333 50.8 56.98 53.6 59.64C56.4934 62.3933 57.94 65.8467 57.94 70C57.94 74.34 56.4234 77.8867 53.39 80.64C50.4034 83.3467 46.67 84.7 42.19 84.7C38.5967 84.7 35.47 83.9533 32.81 82.46C30.1967 80.92 28.26 78.7967 27 76.09L28.12 75.39C29.24 77.91 31.0134 79.8933 33.44 81.34C35.8667 82.74 38.7834 83.44 42.19 83.44C46.4834 83.44 49.9367 82.18 52.55 79.66C55.21 77.0467 56.54 73.8267 56.54 70C56.54 66.1267 55.1867 62.93 52.48 60.41C49.8667 57.8433 46.32 56.56 41.84 56.56H41.42L40.86 55.72L53.6 36.26H27.84V35H55.14V36.26Z" fill="#FD591E"/>
<path d="M71.2849 65.8L92.2849 84H90.3249L69.8149 66.22V84H68.4149V35H69.8149V65.38L89.6249 49H91.5849L71.2849 65.8Z" fill="#FD591E"/>
</svg>
