<svg width="120" height="120" viewBox="0 0 120 120" fill="none" xmlns="http://www.w3.org/2000/svg">
<circle cx="60" cy="60" r="60" fill="white"/>
<path d="M45.9013 38.4277H90.7409V90.0002H37.428" stroke="#FD591E" stroke-width="1.4" stroke-miterlimit="10"/>
<path d="M29 81.5725V38.4275C29 33.8015 32.8015 30 37.4275 30C42.0534 30 45.855 33.7557 45.855 38.4275V81.5725C45.855 76.9007 42.0992 73.145 37.4275 73.145C32.7557 73.145 29 76.9007 29 81.5725ZM29 81.5725C29 86.2443 32.7557 90 37.4275 90" stroke="#FD591E" stroke-width="1.4" stroke-miterlimit="10"/>
<path d="M82.4513 59.5874V81.8011H54.4666V46.6714H82.4513V53.2668" stroke="#FD591E" stroke-width="1.4" stroke-miterlimit="10"/>
<path d="M59.8711 67.0991H54.4666" stroke="#FD591E" stroke-width="1.4" stroke-miterlimit="10"/>
<path d="M82.4494 67.0991H65.0906" stroke="#FD591E" stroke-width="1.4" stroke-miterlimit="10"/>
<path d="M71.3673 72.1831V67.0991" stroke="#FD591E" stroke-width="1.4" stroke-miterlimit="10"/>
<path d="M71.3673 81.8016V76.397" stroke="#FD591E" stroke-width="1.4" stroke-miterlimit="10"/>
<path d="M62.9876 56.6108H74.2548" stroke="#FD591E" stroke-width="1.4" stroke-miterlimit="10"/>
<path d="M70.6802 60.0917L74.5733 56.6108L70.6802 53.1299" stroke="#FD591E" stroke-width="1.4" stroke-miterlimit="10"/>
</svg>
