<svg width="120" height="120" viewBox="0 0 120 120" fill="none" xmlns="http://www.w3.org/2000/svg">
<circle cx="60" cy="60" r="60" fill="white"/>
<path d="M32 39.34L44.67 35H45.72V84H44.32V36.47L32.35 40.53L32 39.34Z" fill="#FD591E"/>
<path d="M60.2384 55.3H71.5084C76.1751 55.3 80.0251 56.6767 83.0584 59.43C86.0918 62.1833 87.6084 65.7067 87.6084 70C87.6084 74.34 86.0918 77.8867 83.0584 80.64C80.0718 83.3467 76.2218 84.7 71.5084 84.7C68.0551 84.7 64.9984 83.93 62.3384 82.39C59.7251 80.8033 57.8118 78.6567 56.5984 75.95L57.7184 75.25C58.8384 77.8167 60.5884 79.8233 62.9684 81.27C65.3484 82.7167 68.1951 83.44 71.5084 83.44C75.9418 83.44 79.4884 82.18 82.1484 79.66C84.8551 77.0933 86.2084 73.8733 86.2084 70C86.2084 66.1267 84.8551 62.93 82.1484 60.41C79.5351 57.8433 75.9884 56.56 71.5084 56.56H58.8384L60.3084 35H85.5084V36.26H61.4984L60.2384 55.3Z" fill="#FD591E"/>
</svg>
