<svg width="120" height="120" viewBox="0 0 120 120" fill="none" xmlns="http://www.w3.org/2000/svg">
<circle cx="60" cy="60" r="60" fill="white"/>
<path d="M74.1 85.7H44V84.44L62.62 64.56C68.4067 58.3533 71.3 53.15 71.3 48.95C71.3 45.4967 70.1567 42.6967 67.87 40.55C65.5367 38.3567 62.48 37.26 58.7 37.26C52.3533 37.26 47.9433 40.06 45.47 45.66L44.35 44.96C45.5633 42.16 47.43 39.9667 49.95 38.38C52.47 36.7933 55.3867 36 58.7 36C62.6667 36 66.0033 37.1667 68.71 39.5C71.37 41.8333 72.7 44.9833 72.7 48.95C72.7 53.43 69.6433 58.9367 63.53 65.47L45.82 84.44H74.1V85.7Z" fill="#FD591E"/>
</svg>
