<svg width="120" height="120" viewBox="0 0 120 120" fill="none" xmlns="http://www.w3.org/2000/svg">
<circle cx="60" cy="60" r="60" fill="white"/>
<path d="M77.7 60.2C77.7 67.8533 76.1133 73.9667 72.94 78.54C69.7667 83.1133 65.4033 85.4 59.85 85.4C54.2967 85.4 49.9333 83.1133 46.76 78.54C43.5867 73.9667 42 67.8533 42 60.2C42 52.5467 43.5867 46.4333 46.76 41.86C49.9333 37.2867 54.2967 35 59.85 35C65.4033 35 69.7667 37.2867 72.94 41.86C76.1133 46.4333 77.7 52.5467 77.7 60.2ZM47.81 77.77C50.7967 82.0167 54.81 84.14 59.85 84.14C64.89 84.14 68.88 82.0167 71.82 77.77C74.8067 73.5233 76.3 67.6667 76.3 60.2C76.3 52.78 74.8067 46.9467 71.82 42.7C68.88 38.4067 64.89 36.26 59.85 36.26C54.8567 36.26 50.8433 38.4067 47.81 42.7C44.87 46.9933 43.4 52.8267 43.4 60.2C43.4 67.6667 44.87 73.5233 47.81 77.77Z" fill="#FD591E"/>
</svg>
