<svg width="112" height="36" viewBox="0 0 112 36" fill="none" xmlns="http://www.w3.org/2000/svg">
<path d="M45.8788 25.5386V27.7407H42.2053V25.5386C39.5387 25.2667 37.4253 24.4602 35.8653 23.1189C34.3052 21.7596 33.5251 19.9925 33.5251 17.8175C33.5251 15.6425 34.3052 13.8845 35.8653 12.5432C37.4072 11.1839 39.5206 10.3683 42.2053 10.0964V7.89429H45.8788V10.0964C48.5091 10.332 50.6225 11.1386 52.2189 12.5161C53.7971 13.8754 54.5862 15.6425 54.5862 17.8175C54.5862 19.9925 53.7971 21.7596 52.2189 23.1189C50.6225 24.4964 48.5091 25.303 45.8788 25.5386ZM45.8788 13.4948V22.113C49.1803 21.7324 50.8311 20.3006 50.8311 17.8175C50.8311 15.3163 49.1803 13.8754 45.8788 13.4948ZM37.253 17.8175C37.253 20.3006 38.9038 21.7234 42.2053 22.0858V13.522C38.9038 13.8845 37.253 15.3163 37.253 17.8175Z" fill="#1C1C1C"/>
<path d="M72.7176 24.8589C70.7947 26.762 68.4546 27.7135 65.6973 27.7135C62.9399 27.7135 60.5998 26.762 58.6769 24.8589C56.7722 22.9196 55.8198 20.5724 55.8198 17.8175C55.8198 15.0444 56.7722 12.7064 58.6769 10.8033C60.5998 8.88208 62.9399 7.92147 65.6973 7.92147C68.4546 7.92147 70.7947 8.88208 72.7176 10.8033C74.6405 12.7064 75.6019 15.0444 75.6019 17.8175C75.6019 20.5906 74.6405 22.9377 72.7176 24.8589ZM61.3164 22.3033C62.4773 23.4633 63.9376 24.0433 65.6973 24.0433C67.4569 24.0433 68.9172 23.4633 70.0782 22.3033C71.2573 21.1252 71.8469 19.63 71.8469 17.8175C71.8469 16.005 71.2573 14.5098 70.0782 13.3317C68.899 12.1536 67.4387 11.5645 65.6973 11.5645C63.9558 11.5645 62.4955 12.1536 61.3164 13.3317C60.1372 14.5098 59.5477 16.005 59.5477 17.8175C59.5477 19.63 60.1372 21.1252 61.3164 22.3033Z" fill="#1C1C1C"/>
<path d="M77.9691 8.30209H85.071C86.8851 8.30209 88.427 8.91833 89.6968 10.1508C90.9485 11.3833 91.5744 12.8967 91.5744 14.691C91.5744 16.4853 90.9485 17.9987 89.6968 19.2312C88.427 20.4637 86.8851 21.0799 85.071 21.0799H81.7241V27.3329H77.9691V8.30209ZM81.7241 17.5728H85.071C85.8692 17.5728 86.5313 17.301 87.0574 16.7572C87.5835 16.1953 87.8465 15.5066 87.8465 14.691C87.8465 13.8573 87.5835 13.1685 87.0574 12.6248C86.5313 12.0811 85.8692 11.8092 85.071 11.8092H81.7241V17.5728Z" fill="#1C1C1C"/>
<path d="M91.9866 8.30209H106V11.8908H100.857V27.3329H97.1022V11.8908H91.9866V8.30209Z" fill="#1C1C1C"/>
<path d="M18.7577 5H29.2769V8.66951L24.674 8.66208V22.9828H20.8493V8.66951H16.1523L18.7577 5Z" fill="#FD591E"/>
<path d="M20.8499 22.9751H24.6744V26.7983H20.8499V30.6351H17.0133V26.7983H6V22.9751L16.1593 8.66016H20.8499L10.7077 22.9751L17.0035 22.9752V8.66026L20.8499 8.66016V22.9751Z" fill="#1C1C1C"/>
</svg>
