<?xml version="1.0" standalone="no"?>
<!DOCTYPE svg PUBLIC "-//W3C//DTD SVG 20010904//EN"
 "http://www.w3.org/TR/2001/REC-SVG-20010904/DTD/svg10.dtd">
<svg version="1.0" xmlns="http://www.w3.org/2000/svg"
 width="513.000000pt" height="513.000000pt" viewBox="0 0 513.000000 513.000000"
 preserveAspectRatio="xMidYMid meet">
<metadata>
Created by potrace 1.14, written by Peter Selinger 2001-2017
</metadata>
<g transform="translate(0.000000,513.000000) scale(0.100000,-0.100000)"
fill="#000000" stroke="none">
<path d="M2741 5073 c-22 -32 -44 -62 -49 -68 -6 -8 -308 -434 -454 -640 -184
-260 -293 -414 -312 -440 -8 -11 -85 -119 -170 -240 -85 -121 -159 -224 -163
-230 -5 -5 -29 -39 -53 -75 -25 -35 -50 -71 -57 -80 -7 -8 -38 -52 -70 -97
-32 -45 -142 -201 -245 -345 -102 -145 -252 -355 -332 -468 -79 -113 -148
-209 -153 -215 -4 -5 -21 -30 -38 -55 -16 -25 -34 -49 -38 -55 -13 -17 -81
-112 -97 -135 -8 -12 -36 -52 -63 -89 -56 -78 -55 -77 -146 -206 l-71 -100 0
-382 0 -383 1103 0 1102 0 -2 -383 -1 -384 384 0 384 0 0 384 0 383 383 2 382
3 0 1810 0 1810 455 0 c250 0 457 3 460 6 3 4 5 168 5 366 l0 358 -1052 3
-1052 2 -40 -57z m-311 -2650 l0 -888 -628 0 -629 0 39 55 c91 129 144 204
158 224 30 42 510 721 520 736 6 8 83 116 171 240 87 124 192 271 232 328 39
57 84 119 100 139 15 20 27 40 27 44 0 5 2 9 5 9 3 0 5 -399 5 -887z"/>
</g>
</svg>
