<svg width="141" height="50" viewBox="0 0 141 50" fill="none" xmlns="http://www.w3.org/2000/svg">
<path d="M78.457 0.75535C81.1506 0.29421 83.91 -0.134547 86.6431 0.250168C88.5797 0.532552 90.4558 1.17374 92.191 2.05846C89.8989 1.84214 87.6042 2.21908 85.3674 2.6854C82.7054 3.25405 80.1052 4.06364 77.5341 4.93929C72.3562 6.63488 67.1348 8.23462 61.8042 9.40561C56.4249 10.5481 50.8863 10.9561 45.395 10.5727C47.3948 10.166 49.4091 9.824 51.3958 9.3525C54.9293 8.55457 58.3154 7.26183 61.7371 6.10898C64.8006 5.08177 67.8379 3.97815 70.8882 2.91468C73.3699 2.06882 75.8594 1.18929 78.457 0.75535Z" fill="#696969"/>
<path d="M97.5716 11.2657C99.7017 10.9703 101.857 10.9185 104.005 10.8965C107.407 10.9017 110.842 11.1439 114.131 12.0506C115.829 12.5377 117.518 13.1063 119.088 13.9211C120.201 14.5364 121.314 15.2372 122.121 16.2294C117.401 14.7812 112.506 13.8486 107.564 13.618C104.145 13.4444 100.726 13.7462 97.3254 14.0636C90.7072 14.719 84.1193 15.6348 77.5432 16.6154C76.124 16.8019 74.7167 17.1024 73.2896 17.2255C78.1949 15.6543 83.1714 14.2929 88.1821 13.083C91.2838 12.3524 94.408 11.6853 97.5716 11.2657Z" fill="#696969"/>
<path d="M0 21.7941C2.29076 21.8317 4.59205 21.6853 6.87227 21.9612C8.49818 22.1516 10.1307 22.8265 11.1839 24.0998C12.3701 25.4664 12.6913 27.4573 12.1239 29.149C11.7842 30.1982 10.9798 31.0039 10.1386 31.6892C11.4459 32.3239 12.7045 33.2151 13.368 34.5298C14.0118 35.7708 14.1487 37.2267 13.9117 38.5881C13.5365 40.6205 12.0883 42.4625 10.128 43.2371C8.91947 43.7021 7.60426 43.807 6.31801 43.8161C4.21157 43.8135 2.10644 43.8148 0 43.8148V21.7941ZM4.28661 25.7928C4.27345 27.3368 4.27345 28.8809 4.28661 30.4249C5.28849 30.421 6.38121 30.5 7.26723 29.9495C8.5232 29.1853 8.61667 27.1089 7.37913 26.2863C6.46941 25.6905 5.32403 25.8083 4.28661 25.7928ZM4.28529 34.184C4.27476 36.0544 4.27476 37.9249 4.28529 39.7954C5.5044 39.8006 6.74457 39.8498 7.93734 39.5544C8.47317 39.4249 8.99846 39.1697 9.34076 38.7306C9.87922 38.0583 9.92398 37.1166 9.68701 36.32C9.43818 35.4987 8.74174 34.8576 7.93207 34.5739C6.76826 34.1529 5.50703 34.1697 4.28529 34.184Z" fill="#696969"/>
<path d="M71.5071 21.7942C72.9947 21.7968 74.4837 21.7877 75.9714 21.7981C77.5552 21.8486 79.1982 21.9134 80.6595 22.5818C82.1169 23.2294 83.3084 24.5001 83.7125 26.0377C84.0575 27.3693 83.9429 28.8615 83.1978 30.0468C82.8002 30.697 82.2183 31.2074 81.6324 31.6893C82.9687 32.3227 84.2444 33.2463 84.904 34.5908C85.5451 35.8758 85.665 37.3797 85.3793 38.7735C84.9356 40.8045 83.4216 42.6232 81.4126 43.3188C80.2159 43.7281 78.9336 43.8175 77.675 43.8162C75.6186 43.8097 73.5622 43.8227 71.5057 43.8097C71.5031 36.4716 71.5005 29.1323 71.5071 21.7942ZM75.7884 25.7942C75.7779 27.3369 75.7779 28.881 75.7884 30.4237C76.8166 30.4237 77.9514 30.5027 78.8427 29.903C80.0645 29.0882 80.0908 26.9963 78.7993 26.2333C77.8961 25.697 76.7968 25.8071 75.7884 25.7942ZM75.7871 34.1854C75.7792 36.0545 75.7779 37.925 75.7871 39.7942C76.964 39.802 78.1568 39.8434 79.3127 39.5856C79.8604 39.4626 80.4133 39.2398 80.782 38.8058C81.3586 38.1556 81.4323 37.2048 81.2138 36.3978C80.9913 35.5662 80.3107 34.8978 79.5023 34.5999C78.3214 34.1504 77.0325 34.1698 75.7871 34.1854Z" fill="#696969"/>
<path d="M55.3338 28.4029C57.4982 27.1452 60.1431 26.8433 62.5905 27.2993C64.7957 27.7138 66.8442 28.9729 68.0975 30.8187C66.9522 31.4534 65.7989 32.0739 64.643 32.6918C64.0835 32.1775 63.5081 31.6555 62.7972 31.3498C61.7321 30.8874 60.5236 30.8459 59.3848 31.0014C57.8023 31.2242 56.3515 32.2514 55.6998 33.6957C54.9323 35.4612 55.1666 37.7449 56.6135 39.1167C57.6298 40.14 59.1346 40.5415 60.5578 40.4755C62.11 40.4599 63.649 39.8032 64.639 38.6115C65.7357 39.3433 66.8324 40.0778 67.9198 40.8252C66.5901 42.5778 64.5456 43.7578 62.3509 44.0843C60.1826 44.4016 57.8787 44.2591 55.871 43.3382C54.12 42.535 52.7389 41.0635 51.8937 39.3705C50.747 37.0027 50.8063 34.1011 52.0464 31.7786C52.7811 30.3718 53.9422 29.1918 55.3338 28.4029Z" fill="#696969"/>
<path d="M25.3854 28.0893C25.6289 27.8678 25.8198 27.4766 26.2082 27.5245C27.7986 27.531 29.3902 27.5142 30.9819 27.5349C28.5779 30.2111 26.0726 32.8004 23.6594 35.4701C26.1318 38.2538 28.6293 41.0142 31.0925 43.8056C29.2507 43.8212 27.4076 43.8212 25.5657 43.8056C23.9267 41.895 22.2968 39.9766 20.6446 38.0776C20.4695 38.3121 20.1772 38.5271 20.2246 38.8548C20.2246 40.5025 20.2246 42.1515 20.2272 43.7991C18.8396 43.8315 17.452 43.8108 16.0644 43.8121C16.0591 38.3846 16.063 32.9572 16.0617 27.531C17.4414 27.5142 18.8198 27.5388 20.1983 27.5181C20.272 29.5232 20.1851 31.5323 20.2417 33.5375C21.9927 31.7564 23.6699 29.9041 25.3854 28.0893Z" fill="#696969"/>
<path d="M32.5063 27.5259C33.9269 27.531 35.3487 27.5116 36.7693 27.5362C38.1951 30.9158 39.5932 34.3082 41.048 37.6761C42.6541 34.3108 44.1958 30.9132 45.7743 27.5349C47.1975 27.5142 48.6206 27.5285 50.0438 27.5272C46.9039 34.338 43.7113 41.1256 40.5516 47.9274C40.262 48.5181 40.0184 49.1308 39.7077 49.7098C39.5274 49.8147 39.3036 49.7577 39.1061 49.7772C37.8672 49.7655 36.6297 49.7836 35.3909 49.7668C36.5046 47.3717 37.6513 44.9935 38.7822 42.6062C36.71 37.5712 34.5759 32.5621 32.5063 27.5259Z" fill="#696969"/>
<path d="M88.5075 27.5337C89.832 27.5117 91.1577 27.5298 92.4835 27.5285C92.5006 30.6878 92.4637 33.8472 92.5019 37.0052C95.0165 34.2487 97.4573 31.4249 99.9429 28.6412C100.292 28.2772 100.576 27.8433 100.983 27.5376C101.637 27.5026 102.296 27.5324 102.951 27.5311C102.951 32.9573 102.955 38.3847 102.95 43.8122C101.596 43.8161 100.243 43.82 98.8897 43.8096C98.8752 40.7112 98.9107 37.6114 98.8712 34.5143C96.0973 37.5622 93.4327 40.7112 90.6627 43.763C89.932 43.8873 89.1684 43.7837 88.4259 43.8109C88.4114 38.5738 88.4299 33.3381 88.4167 28.1024C88.4509 27.9184 88.3443 27.671 88.5075 27.5337Z" fill="#696969"/>
<path d="M112.458 27.5377C113.363 27.517 114.271 27.5196 115.178 27.5364C117.509 32.9652 119.897 38.3719 122.214 43.8071C120.803 43.8214 119.392 43.8188 117.982 43.8084C116.599 40.4133 115.258 37.0027 113.855 33.6167C112.413 36.9975 111.058 40.4159 109.646 43.8097C108.238 43.8175 106.831 43.8214 105.425 43.8071C107.745 38.3745 110.129 32.9677 112.458 27.5377Z" fill="#696969"/>
<path d="M124.067 43.8074C126.398 38.3735 128.762 32.9525 131.118 27.5289C132.01 27.5212 132.901 27.5315 133.792 27.5225C136.179 32.9396 138.517 38.3787 140.871 43.81C139.461 43.823 138.051 43.8113 136.641 43.8165C135.227 40.4279 133.92 36.9965 132.489 33.6144C131.089 36.9538 129.738 40.3113 128.352 43.6546C128.292 43.8774 128.009 43.7945 127.843 43.8191C126.584 43.8074 125.325 43.8269 124.067 43.8074Z" fill="#696969"/>
<path d="M0 47.6208C10.6086 47.626 21.2171 47.6078 31.8257 47.6299C31.8283 48.341 31.8297 49.0534 31.8244 49.7659C21.2158 49.784 10.6086 49.7698 0 49.7724V47.6208Z" fill="#696969"/>
<path d="M44.8356 47.7046C44.8843 47.6839 44.9818 47.6438 45.0305 47.623C76.976 47.6179 108.922 47.6166 140.866 47.623C140.901 48.3381 140.9 49.0544 140.864 49.7707C115.675 49.7785 90.4875 49.7707 65.2997 49.7733C58.4748 49.7616 51.6487 49.7979 44.8251 49.7552C44.8396 49.0712 44.8067 48.3873 44.8356 47.7046Z" fill="#696969"/>
<path d="M96.7526 3.15688C99.6911 2.94574 102.655 2.90299 105.584 3.25403C107.879 3.54159 110.175 4.0688 112.24 5.11931C114.077 6.06361 115.657 7.43926 116.981 8.99755C117.452 9.5688 117.933 10.1439 118.278 10.802C114.452 9.17501 110.242 8.70999 106.111 8.61931C100.506 8.52605 94.9187 9.22683 89.4288 10.2968C76.9244 12.8253 64.4925 15.8628 51.7854 17.2657C46.0045 17.8926 40.1684 18.1271 34.3612 17.745C29.4532 17.4211 24.5478 16.6789 19.8649 15.1672C19.6371 15.0921 19.416 15.0053 19.1987 14.9056C23.9738 15.8305 28.8436 16.1919 33.7042 16.3253C36.9481 16.4056 40.2013 16.4444 43.4386 16.1932C51.2917 15.6115 58.996 13.811 66.512 11.5597C71.7571 9.99237 76.9179 8.17372 82.1063 6.44056C84.8578 5.53641 87.6173 4.63615 90.4478 3.99496C92.5161 3.51439 94.6396 3.33175 96.7526 3.15688Z" fill="#696969"/>
</svg>
