<svg width="120" height="53" viewBox="0 0 120 53" fill="none" xmlns="http://www.w3.org/2000/svg">
<g clip-path="url(#clip0_194_416)">
<path d="M0.0834245 0.125101C17.8847 0.124168 35.685 0.123235 53.4862 0.125101C53.4872 17.7504 53.4862 35.3748 53.4862 53.0001H0.0834245C0.0834245 35.3748 0.082487 17.7495 0.0834245 0.125101ZM9.62999 7.35195C9.62905 8.481 9.62905 9.60912 9.62999 10.7382C11.8612 10.74 14.0925 10.7382 16.3237 10.7391C16.3237 13.9079 16.3237 17.0758 16.3237 20.2436C13.5244 20.2446 10.7259 20.2427 7.92655 20.2446C7.92561 21.3279 7.92561 22.4112 7.92655 23.4946C13.0041 23.4946 18.0816 23.4955 23.159 23.4946C23.16 22.4112 23.16 21.3279 23.159 20.2446C22.0219 20.2427 20.8847 20.2446 19.7475 20.2436C19.7456 15.9458 19.7494 11.6489 19.7456 7.35102C16.3744 7.35102 13.0022 7.35008 9.62999 7.35195ZM32.1253 7.35195C32.1244 8.481 32.1244 9.61005 32.1253 10.7391C36.0609 10.7391 39.9956 10.741 43.9312 10.7382C43.9312 9.60912 43.9331 8.48007 43.9303 7.35195C39.9956 7.35195 36.06 7.35008 32.1253 7.35195ZM30.4228 20.2408C30.4219 21.326 30.4219 22.4103 30.4228 23.4946C35.4506 23.4946 40.4784 23.4974 45.5062 23.4936C45.5044 22.4094 45.5062 21.3251 45.5053 20.2408C40.4775 20.2399 35.4506 20.2399 30.4228 20.2408ZM7.88624 37.8083C9.02343 37.8102 10.1597 37.8083 11.2969 37.8092C11.6409 36.2024 11.9794 34.5947 12.3253 32.9879C14.5631 32.9888 16.8009 32.987 19.0378 32.9888C18.3694 36.153 17.6981 39.3162 17.0287 42.4803C13.6509 42.4813 10.2731 42.4803 6.8953 42.4803C6.66561 43.614 6.43967 44.7487 6.2128 45.8833C10.725 45.8843 15.2372 45.8833 19.7484 45.8833C20.8847 40.4984 22.0247 35.1144 23.16 29.7286C18.6497 29.7286 14.1403 29.7286 9.62999 29.7286C9.04686 32.4215 8.46561 35.1154 7.88624 37.8083ZM30.4228 29.7314C30.4219 35.1172 30.4219 40.5022 30.4237 45.8871C35.4506 45.8871 40.4775 45.888 45.5044 45.8871C45.5072 40.5022 45.5053 35.1163 45.5053 29.7314C40.4775 29.7305 35.4506 29.7305 30.4228 29.7314Z" fill="#696969"/>
<path d="M66.7284 0.124817C84.4856 0.122018 102.243 0.124817 120 0.123884V52.9998H66.7284C66.7284 35.3745 66.7275 17.7501 66.7284 0.124817ZM73.5103 7.347C73.5103 11.0878 73.5094 14.8286 73.5113 18.5684C73.5122 20.0763 74.1497 21.5796 75.2691 22.6013C76.3003 23.5661 77.715 24.0868 79.125 24.0887C80.5341 24.084 81.9488 23.5568 82.9678 22.5789C84.0638 21.5497 84.6666 20.0549 84.6722 18.5629C84.6741 14.8239 84.6731 11.0859 84.6722 7.347C83.5781 7.34607 82.4831 7.34607 81.3891 7.347C81.3881 11.0533 81.39 14.7605 81.3881 18.4667C81.4125 19.314 80.94 20.1622 80.1769 20.5522C79.4738 20.9376 78.556 20.8993 77.8903 20.4524C77.2219 20.0362 76.8253 19.2515 76.845 18.4723C76.8441 14.7633 76.8469 11.0551 76.8441 7.34607C75.7322 7.347 74.6213 7.34607 73.5103 7.347ZM89.2341 7.347C89.2331 12.9241 89.2331 18.5022 89.2341 24.0793C90.3694 24.0803 91.5038 24.0803 92.6391 24.0793C92.641 20.8863 92.6372 17.6932 92.641 14.4992C94.1156 17.6913 95.5819 20.8872 97.0557 24.0793C98.1938 24.0803 99.331 24.0812 100.469 24.0793C100.469 18.5013 100.471 12.9241 100.468 7.34607C99.33 7.347 98.1928 7.34514 97.0557 7.347C97.0547 10.5354 97.0566 13.7238 97.0538 16.9122C95.5781 13.7257 94.1138 10.5335 92.6381 7.347C91.5038 7.347 90.3685 7.34607 89.2341 7.347ZM106.04 7.35167C106.039 12.9297 106.039 18.5078 106.04 24.0868C107.179 24.0887 108.318 24.0868 109.457 24.0868C109.46 18.5087 109.459 12.9297 109.458 7.35167C108.318 7.35167 107.179 7.35073 106.04 7.35167ZM89.2341 29.1591C89.2341 34.7353 89.2331 40.3115 89.235 45.8877C92.9794 45.8877 96.7247 45.8886 100.47 45.8868C100.47 44.7531 100.47 43.6194 100.469 42.4847C97.8591 42.4828 95.25 42.4856 92.64 42.4838C92.6391 38.0422 92.64 33.6007 92.6391 29.1582C91.5038 29.1573 90.3694 29.1563 89.2341 29.1591ZM75.9338 30.1314C74.46 31.1158 73.5234 32.8411 73.5103 34.6094C73.5066 36.4485 73.5113 38.2876 73.5084 40.1268C73.4231 42.0601 74.4534 43.9786 76.0941 45.0069C77.3025 45.7767 78.8063 46.065 80.2144 45.7804C80.611 46.9431 80.9944 48.1094 81.3881 49.273C82.4822 49.2739 83.5763 49.2739 84.6703 49.273C84.1547 47.5972 83.6335 45.9232 83.1169 44.2473C84.0769 43.1341 84.7022 41.6953 84.6722 40.2126C84.6713 38.7831 84.6722 37.3545 84.6713 35.926C84.6628 35.046 84.7303 34.1493 84.4903 33.2909C84.0488 31.5021 82.636 29.9896 80.8706 29.4335C79.2338 28.8979 77.3513 29.1498 75.9338 30.1314ZM106.797 29.2347C105.64 29.4232 104.549 29.9933 103.738 30.8368C102.756 31.8371 102.2 33.2256 102.188 34.6215C102.178 36.2385 102.186 37.8547 102.184 39.4708C102.169 40.3778 102.172 41.3071 102.494 42.1693C102.984 43.5774 104.065 44.7773 105.435 45.3866C107.074 46.1527 109.089 46.0305 110.628 45.0815C112.216 44.1298 113.258 42.3466 113.297 40.5009C113.292 38.4155 113.323 36.3291 113.281 34.2454C113.18 33.0156 112.669 31.8175 111.818 30.9161C110.574 29.552 108.614 28.9174 106.797 29.2347Z" fill="#696969"/>
<path d="M78.5748 32.4938C79.1879 32.3519 79.8629 32.4565 80.3851 32.811C81.0169 33.2207 81.3985 33.9634 81.3863 34.7108C81.3891 36.451 81.3854 38.1922 81.3882 39.9334C81.3882 40.2777 81.4023 40.6322 81.2851 40.9626C80.9729 41.8835 80.011 42.5339 79.0341 42.4798C77.8913 42.4676 76.8179 41.4674 76.8441 40.3075C76.846 38.4105 76.8395 36.5136 76.847 34.6166C76.8545 33.6256 77.6063 32.7103 78.5748 32.4938Z" fill="#696969"/>
<path d="M107.096 32.5227C107.744 32.337 108.476 32.4406 109.032 32.8269C109.65 33.2375 110.032 33.9662 110.022 34.7052C110.024 36.4492 110.021 38.1932 110.023 39.9371C110.022 40.2628 110.039 40.5977 109.934 40.9122C109.64 41.835 108.698 42.5059 107.724 42.4807C106.558 42.5003 105.439 41.4916 105.464 40.3085C105.466 38.4096 105.46 36.5117 105.467 34.6138C105.478 33.6602 106.176 32.7756 107.096 32.5227Z" fill="#696969"/>
<path d="M33.8362 32.9948C36.6299 32.9939 39.4236 32.9939 42.2183 32.9948C42.2193 36.1571 42.2193 39.3203 42.2183 42.4835C39.4236 42.4835 36.6299 42.4845 33.8362 42.4835C33.8352 39.3203 33.8352 36.1571 33.8362 32.9948Z" fill="#696969"/>
</g>
<defs>
<clipPath id="clip0_194_416">
<rect width="120" height="53" fill="white"/>
</clipPath>
</defs>
</svg>
