<svg width="126" height="48" viewBox="0 0 126 48" fill="none" xmlns="http://www.w3.org/2000/svg">
<path d="M66.6658 11.179C67.2589 10.6301 68.0899 10.4907 68.8717 10.5111C73.2274 10.5536 77.5865 10.5145 81.9439 10.5349C82.469 10.5417 82.9942 10.506 83.5159 10.4363C84.1464 10.6063 84.8296 10.7303 85.3462 11.1586C85.8782 11.6259 86.2707 12.2921 86.2911 13.0127C86.388 16.3028 86.1976 19.6015 86.4237 22.8882C86.4254 26.6491 86.4084 30.41 86.456 34.1692C87.2751 34.3783 88.0721 34.7131 88.6381 35.3674C89.1751 34.0061 89.4402 32.5615 89.911 31.1799C91.4609 25.6685 93.072 20.1725 94.6423 14.6663C94.8938 13.808 95.0824 12.9209 95.4852 12.1171C95.9389 11.213 96.877 10.489 97.9222 10.5349C100.473 10.5315 103.026 10.5247 105.578 10.523C106.421 10.4839 107.254 10.8425 107.849 11.4305C108.583 12.3414 108.797 13.5259 109.084 14.6306C110.706 20.0637 112.201 25.5326 113.807 30.9709C114.174 32.0738 114.366 33.2328 114.839 34.3018C115.138 33.9636 115.437 33.6254 115.733 33.2838C115.359 32.8352 114.961 32.3712 114.806 31.7951C114.56 30.8893 114.704 29.9393 114.589 29.0165C114.438 27.8286 114.534 26.6253 114.39 25.4357C114.288 24.4704 114.358 23.4949 114.256 22.5297C114.087 21.1242 114.2 19.7035 114.043 18.2963C113.999 16.9877 113.8 15.6893 113.81 14.3791C113.804 13.3815 113.617 12.2377 114.327 11.4152C115.007 10.5944 116.128 10.4754 117.123 10.4312C118.538 10.3955 119.956 10.4074 121.371 10.3989C122.337 10.3989 123.372 10.4856 124.191 11.0481C124.921 11.6344 125.221 12.6269 125.202 13.5361C124.835 19.1987 124.553 24.8664 124.177 30.529C124.148 31.5011 123.871 32.4749 123.203 33.2073C124.522 34.3681 125.494 36.0386 125.406 37.8401C125.623 40.8073 123.117 43.574 120.19 43.8459C119.159 44.0176 118.144 43.5604 117.116 43.7457C116.049 43.9156 114.966 43.8374 113.894 43.812C112.538 43.8629 111.181 43.834 109.827 43.8459C108.991 43.8357 108.104 43.7814 107.376 43.3276C106.663 42.8773 106.212 42.1108 106.003 41.3104C105.701 40.1768 105.361 39.0552 105.097 37.9114C102.968 37.891 100.838 37.8639 98.7108 37.9182C98.3267 39.1045 98.0378 40.3196 97.6724 41.5109C97.4379 42.2077 97.0691 42.9146 96.4216 43.3072C95.7622 43.7304 94.9533 43.8086 94.1885 43.8408C92.5791 43.8459 90.9697 43.8357 89.362 43.8629C89.3807 44.7382 89.396 45.6933 88.8216 46.4206C88.2013 47.2007 87.1935 47.6425 86.1993 47.6102C83.8524 47.5966 81.5054 47.6153 79.1568 47.6017C79.1024 46.3577 79.133 45.1103 79.0854 43.8663C78.5127 43.7967 77.94 43.7219 77.3622 43.7236C74.9795 43.727 72.5969 43.7304 70.2143 43.7202C69.5634 43.7117 68.9176 43.795 68.2735 43.8782C68.2735 45.1188 68.2837 46.3577 68.265 47.5983C65.7447 47.6 63.2244 47.6187 60.7041 47.6017C59.8187 47.6068 58.9927 47.2381 58.3181 46.6857C57.9782 45.9822 57.5006 45.2854 57.5482 44.4696C57.5652 41.7454 57.5312 39.0212 57.5448 36.2987C57.5244 35.6495 57.7963 35.002 58.3113 34.5992C58.8041 34.1556 59.5026 34.1862 60.1212 34.1624C61.4705 33.119 62.1588 31.5096 62.6262 29.9172C64.0299 24.7372 64.8287 19.4213 65.5373 14.1088C65.6189 13.0569 65.8178 11.9012 66.6658 11.179ZM67.7959 12.6728C67.5512 13.3237 67.4764 14.0205 67.3983 14.707C66.744 19.4026 66.0438 24.1033 64.9323 28.7157C64.4514 30.6819 63.8838 32.6924 62.6687 34.3443C61.9022 35.3589 60.7942 36.3853 59.4176 36.2001C59.387 38.3312 59.4516 40.464 59.4295 42.5968C59.4448 43.4976 59.3513 44.4119 59.5689 45.2973C60.2809 46.0094 61.3278 45.8275 62.2387 45.8445C63.6374 45.8258 65.0377 45.8853 66.4347 45.8003C66.4228 44.5291 66.4364 43.2579 66.4245 41.9867C71.2917 41.9867 76.1573 41.9935 81.0228 41.985C81.0143 43.2528 81.0296 44.5223 81.0143 45.7918C82.6288 45.8666 84.2467 45.8394 85.8646 45.8445C86.337 45.8479 86.8162 45.7901 87.2462 45.5777C87.3125 45.4995 87.4434 45.3432 87.5096 45.265C87.5674 44.886 87.6014 44.5036 87.5929 44.1213C87.5742 41.9646 87.6014 39.808 87.5793 37.6531C87.5878 37.026 87.185 36.3445 86.5307 36.2426C85.8883 36.1882 85.2443 36.2188 84.6019 36.2171C84.607 28.8839 84.5577 21.5508 84.5798 14.2176C84.5645 13.7299 84.6358 13.1979 84.3656 12.7629C84.109 12.4706 83.6977 12.3788 83.3222 12.3958C78.4974 12.3975 73.6726 12.3992 68.8479 12.3958C68.4723 12.3635 68.129 12.5215 67.7959 12.6728ZM97.4532 12.7238C97.2101 13.0008 97.1116 13.3713 96.9977 13.7163C94.3075 23.1466 91.5679 32.5632 88.8845 41.9969C90.8712 41.9986 92.8578 42.0088 94.8445 41.9952C95.4036 42.0258 95.8608 41.5636 95.9865 41.0469C96.4879 39.3951 96.9416 37.7279 97.4141 36.0658C100.482 36.0556 103.551 36.0692 106.618 36.059C106.94 37.2572 107.283 38.4485 107.641 39.6347C107.874 40.3757 107.968 41.188 108.464 41.8168C108.794 41.9222 109.132 42.0241 109.484 42.0071C111.377 41.9969 113.27 42.0071 115.163 41.9969C112.396 32.4239 109.664 22.8407 106.895 13.2676C106.77 12.666 106.144 12.3618 105.573 12.3941C103.308 12.3958 101.042 12.3992 98.777 12.3958C98.3216 12.4043 97.7981 12.3669 97.4532 12.7238ZM116.173 12.4485C116.089 12.5351 115.923 12.7068 115.84 12.7935C115.823 13.7231 115.884 14.6527 115.962 15.5806C116.208 20.6874 116.501 25.7926 116.72 30.8995C116.728 31.3328 116.949 31.8835 117.468 31.8495C119.069 31.8495 120.675 31.9039 122.272 31.7866C122.379 31.3787 122.476 30.9675 122.495 30.546C122.846 24.8766 123.198 19.2089 123.494 13.5361C123.552 13.1385 123.424 12.7612 123.19 12.4434C121.97 12.2445 120.732 12.3244 119.502 12.3108C118.39 12.304 117.279 12.3414 116.173 12.4485ZM118.912 34.0401C116.949 34.397 115.484 36.3632 115.668 38.3448C115.802 40.4266 117.743 42.2298 119.852 42.0666C122.172 42.1108 124.123 39.7638 123.744 37.4934C123.521 35.2297 121.13 33.5183 118.912 34.0401Z" fill="#696969"/>
<path d="M70.9702 31.7137C72.1038 27.0079 72.7512 22.2053 73.3597 17.4077C74.935 17.423 76.5087 17.4128 78.0824 17.4128C78.0824 23.6685 78.079 29.9259 78.0841 36.1816C75.1169 36.2309 72.1513 36.185 69.1841 36.2105C70.1545 34.89 70.5504 33.2704 70.9702 31.7137ZM74.9418 19.3978C74.7838 21.2281 74.4371 23.0346 74.1822 24.853C73.6554 27.9953 73.1081 31.1461 72.1547 34.1916C73.4667 34.2119 74.7787 34.2035 76.0924 34.1984C76.0958 29.2546 76.0924 24.3126 76.0924 19.3689C75.7083 19.3774 75.3242 19.3859 74.9418 19.3978Z" fill="#696969"/>
<path d="M99.1206 30.2248C100.05 26.8174 101.092 23.4406 102.011 20.0298C102.966 23.4321 103.942 26.831 104.945 30.2197C103.004 30.2248 101.061 30.2061 99.1206 30.2248ZM101.542 28.228C101.739 28.2246 101.938 28.2229 102.137 28.2212C102.039 27.7929 101.935 27.3646 101.841 26.9364C101.75 27.3697 101.649 27.798 101.542 28.228Z" fill="#696969"/>
<path d="M30.3092 0.710886C31.3703 0.300579 32.5276 0.430748 33.6425 0.430748C33.9368 2.00123 34.0811 3.59435 34.0019 5.19596C33.8123 5.42516 33.6227 5.65437 33.4388 5.8864C33.4331 6.21465 33.4303 6.54289 33.4303 6.87397C34.2254 7.19372 35.0715 7.47387 35.7167 8.07093C36.9561 9.12358 37.5815 10.6686 38.3342 12.0693C38.4332 12.058 38.6285 12.0382 38.7247 12.0269C39.6641 10.5384 40.8752 9.22545 42.2675 8.15016C43.2437 7.34936 44.5652 7.52763 45.7366 7.58706C47.0694 7.72854 48.4107 7.74269 49.752 7.81626C50.3179 8.07659 50.8952 8.30862 51.4781 8.535C51.4979 8.82646 51.5206 9.11509 51.546 9.40938C51.73 9.59614 51.9167 9.78573 52.1063 9.97532C52.1063 10.745 52.0978 11.5147 52.095 12.2872C51.4244 13.0767 50.6632 13.7869 49.7944 14.35C49.5822 14.3359 49.1549 14.3048 48.9427 14.2906C48.8323 14.4151 48.6116 14.6613 48.5013 14.7858C48.4871 14.6613 48.4588 14.4123 48.4447 14.2878C47.6807 14.3981 46.9166 14.5198 46.1555 14.6302C45.2584 16.0224 44.3077 17.3863 43.5663 18.8747C42.9437 20.1481 41.9845 21.2856 41.7638 22.7259C41.6308 22.7571 41.362 22.8165 41.2261 22.8476C40.9403 23.5267 40.6347 24.203 40.3093 24.8652C40.2385 25.1821 40.1706 25.4962 40.1056 25.816C38.8209 27.5025 38.7926 29.8794 37.1457 31.3169C36.0704 32.4205 34.5876 32.9609 33.1304 33.343C33.1275 33.5835 33.1275 33.8268 33.1304 34.073C35.4309 34.9163 37.3325 36.4754 39.3331 37.845C40.298 38.5496 41.1865 39.3589 42.0665 40.1682C42.3693 40.7511 42.6947 41.3199 43.0428 41.8773C43.1135 42.9271 43.1192 43.9911 42.9098 45.0268C42.8673 45.1881 42.7853 45.5107 42.7428 45.672C42.1175 46.3652 41.4525 47.0217 40.7649 47.6527C40.6008 47.6952 40.2697 47.7772 40.1027 47.8197C39.0699 48.0602 37.9918 48.0687 36.9674 47.7942C36.6533 47.7433 36.3449 47.6924 36.0365 47.6471C35.3036 46.9878 34.6471 46.252 34.0585 45.4625C33.9821 45.1258 33.9029 44.7891 33.8265 44.4552C33.7161 44.1298 33.6086 43.8043 33.501 43.4846C30.8157 43.0743 28.0992 42.8111 25.3798 42.879C22.8331 42.93 20.2666 42.6923 17.7396 43.0715C17.0294 43.1535 16.3163 43.1648 15.6089 43.1875C15.3627 43.8921 15.1391 44.6052 14.9637 45.3324C14.5279 45.9125 14.0667 46.4699 13.5885 47.0189C12.9942 47.316 12.4113 47.6301 11.8369 47.964C10.8493 48.0036 9.86459 48.0065 8.87703 47.9782C7.4452 46.9934 5.99074 45.7285 5.7304 43.9062C5.51818 41.9056 6.817 40.0833 8.44691 39.0561C9.96362 38.6232 11.3502 37.8337 12.8782 37.4375C13.9195 37.1489 14.9694 36.8914 15.9824 36.515C16.8398 36.2406 17.7198 36.0481 18.6055 35.8784C16.9388 34.9955 15.1052 34.5484 13.3168 34.0023C10.8918 33.2439 8.05924 32.9949 6.25672 31.0028C3.6817 27.2223 1.71223 23.0202 0.597329 18.5776C0.104961 17.6297 0.427542 16.6251 0.928398 15.762C1.48302 15.6347 2.03481 15.5045 2.59226 15.3829C2.86957 14.6924 3.10727 13.985 3.29403 13.2634C4.06937 11.0223 5.66531 9.14339 7.64893 7.87003C7.68006 6.70702 7.66591 5.54684 7.68289 4.38667C6.69815 3.60284 5.70776 2.79637 5.03712 1.7126C5.31161 1.39284 5.58608 1.07592 5.86056 0.756162C6.17183 0.739184 6.48309 0.725037 6.79719 0.713718C7.20749 1.11836 7.62063 1.52301 8.03376 1.93332C8.60536 1.88521 9.21941 1.84843 9.60991 1.35889C9.72593 1.3221 9.95796 1.2457 10.074 1.20608C12.2896 -0.299317 15.0203 0.623171 17.1426 1.82296C18.8941 2.20497 20.7221 1.96728 22.4539 2.46813C23.8405 2.90108 25.0403 3.80375 25.9599 4.92148C26.1778 4.94694 26.3957 4.97524 26.6164 5.00071C26.6334 4.57342 26.656 4.14614 26.6815 3.71886C26.7805 3.59718 26.9758 3.35382 27.0748 3.23215C27.5078 1.77768 29.016 1.19193 30.3092 0.710886ZM9.61841 6.9815C12.649 5.88923 16.0588 6.46367 18.7357 8.18978C20.0317 6.57403 21.9785 5.59494 24.0301 5.39686C23.1557 4.7715 22.1936 4.23669 21.1324 4.02163C19.6299 3.62265 17.9971 4.15463 16.5512 3.48682C15.2042 2.89258 13.8346 2.12007 12.3123 2.23043C10.1334 2.43134 8.76667 5.01203 9.61841 6.9815ZM28.8802 3.53209C28.1727 4.34139 28.334 5.49874 28.5944 6.45518C29.6244 6.45518 30.844 6.52308 31.5995 5.67983C32.4795 4.71774 32.3267 3.30289 32.256 2.1031C31.0477 2.29552 29.6866 2.50774 28.8802 3.53209ZM19.5535 10.3121C18.6451 11.9222 19.0922 13.7954 19.5874 15.4536C25.1449 15.4762 30.7053 15.4989 36.2628 15.4423C36.2911 14.3415 36.4383 13.2182 36.1836 12.1372C35.8016 10.8865 35.0291 9.69518 33.8717 9.03586C32.2418 8.01434 30.0941 8.06528 28.4048 8.91418C27.2276 8.14168 26.0193 7.1343 24.5196 7.23617C22.4426 7.19089 20.3599 8.35108 19.5535 10.3121ZM10.0655 8.75006C7.0943 9.68952 5.2352 12.5334 4.4825 15.4225C8.86287 15.4621 13.2461 15.5159 17.6236 15.4112C16.9417 13.4304 17.6066 11.3958 17.5642 9.37825C16.7011 9.15753 15.8636 8.84061 15.0684 8.43313C13.4045 8.09074 11.6388 7.98321 10.0655 8.75006ZM43.3088 9.69801C40.9715 11.8967 39.1972 14.6075 37.5051 17.3127C25.6996 17.3212 13.8969 17.3354 2.09423 17.3099C2.36022 18.2861 2.62339 19.268 2.929 20.2358C13.8771 20.2584 24.8252 20.233 35.7761 20.2443C34.2792 22.7655 32.9011 25.3547 31.5542 27.958C28.2718 28.1731 24.9808 28.026 21.6956 28.026C16.6304 28.1137 11.5681 27.9269 6.50291 28.0769C7.03489 28.906 7.57537 29.7408 8.31109 30.4086C8.91381 30.6463 9.51653 30.8783 10.1419 31.0594C15.9682 32.6893 21.7917 34.5031 27.2021 37.2536C21.6757 37.1546 16.0899 38.0544 10.9851 40.2163C9.86175 40.7002 8.42993 41.0199 7.95171 42.3018C7.40841 43.3997 7.84984 44.7438 8.78647 45.4767C10.0853 46.6425 12.3972 46.17 13.1301 44.5797C13.6932 43.595 13.3876 42.4065 12.7594 41.5406C14.2308 41.484 15.6824 41.2293 17.1482 41.1077C23.4641 40.6323 29.814 40.9662 36.1129 41.5462C35.6658 42.497 35.3234 43.6431 35.8837 44.6278C36.6562 46.2011 38.9454 46.6171 40.2527 45.471C41.4299 44.5797 41.5968 42.7008 40.6177 41.6028C39.3783 40.1456 37.7428 39.1071 36.1893 38.0233C31.424 34.9134 26.0731 32.7459 20.5552 31.399C24.429 31.3395 28.3029 31.3961 32.1767 31.3707C33.5605 31.3622 34.9668 30.8358 35.9091 29.803C36.9137 28.7192 37.1485 27.1969 37.7654 25.898C39.8254 21.1385 42.3155 16.5289 45.4565 12.3891C46.6818 12.3692 47.9127 12.4598 49.138 12.3438C50.5302 12.2787 50.5528 9.82535 49.1663 9.68386C47.2194 9.5254 45.2556 9.59897 43.3088 9.69801ZM3.49494 21.7412C3.69867 22.2817 3.90808 22.8221 4.11747 23.3654C13.3904 23.3683 22.6661 23.3683 31.9391 23.3654C32.2249 22.8278 32.5163 22.2902 32.8049 21.7525C23.034 21.7469 13.2631 21.7667 3.49494 21.7412ZM4.79659 24.8737C5.07673 25.4085 5.32292 25.9688 5.68229 26.464C13.9054 26.5375 22.137 26.4583 30.3657 26.4979C30.6233 25.9461 30.8779 25.3915 31.1383 24.8425C22.3577 24.902 13.5771 24.8369 4.79659 24.8737Z" fill="#696969"/>
<path d="M11.0729 10.0772C12.7792 10.0602 14.6043 9.78856 16.155 10.6912C16.1578 11.0704 16.1607 11.4524 16.1663 11.8344C15.5409 11.7552 14.9184 11.6816 14.3072 11.5288C13.3961 11.4468 12.482 11.4468 11.5709 11.5203C10.8578 11.8769 10.1108 12.1655 9.36089 12.4258C9.35806 11.8344 9.36656 11.243 9.3807 10.6545C9.73442 10.646 10.091 10.6375 10.4475 10.6318C10.6541 10.445 10.8635 10.2611 11.0729 10.0772Z" fill="#696969"/>
</svg>
