<svg width="129" height="34" viewBox="0 0 129 34" fill="none" xmlns="http://www.w3.org/2000/svg">
<path d="M15.1085 0.0802549C17.9186 -0.196605 20.7981 0.244969 23.388 1.37227C26.5269 2.72678 29.2249 5.07017 31.0151 7.98129C32.1576 9.83053 32.9339 11.9052 33.2808 14.0512C33.7136 16.7141 33.4981 19.4821 32.6418 22.041C31.5186 25.427 29.2739 28.4222 26.3523 30.4654C24.7408 31.598 22.9289 32.4437 21.0242 32.9455C18.3146 33.6621 15.4245 33.682 12.7049 33.005C9.20739 32.1435 6.02174 30.1033 3.75429 27.3072C1.98682 25.1408 0.773076 22.5252 0.273092 19.7736C-0.226893 17.0382 -0.0399832 14.1774 0.8309 11.5349C1.91089 8.22194 4.06503 5.27577 6.87978 3.22326C9.27573 1.46456 12.1489 0.36354 15.1085 0.0802549ZM12.0443 2.83659C8.71675 3.95046 5.83191 6.31078 4.06736 9.34223C2.84778 11.4204 2.15738 13.8041 2.07561 16.2123C1.95236 19.3244 2.85537 22.4668 4.62225 25.0333C5.79803 26.7517 7.34179 28.2172 9.12036 29.299C10.7108 30.2686 12.4877 30.9303 14.3252 31.2335C16.8835 31.6587 19.5558 31.4017 21.9792 30.4736C25.2799 29.2254 28.0871 26.7377 29.7313 23.6157C30.8428 21.5247 31.4286 19.1597 31.431 16.7918C31.4409 14.5202 30.9158 12.2463 29.8989 10.2143C29.0677 8.53852 27.9071 7.03039 26.5129 5.78451C26.1239 6.63028 25.5889 7.41414 24.9061 8.05021C24.1976 8.71608 23.3401 9.21139 22.4307 9.549C21.3863 9.93684 20.2795 10.1308 19.1726 10.2289C17.6318 10.3644 16.0839 10.3101 14.5396 10.2925C14.2341 11.4823 13.931 12.6721 13.6266 13.8619C14.473 13.1698 15.4747 12.6529 16.5518 12.4391C17.6943 12.2055 18.9039 12.3264 19.9798 12.7749C21.5832 13.4315 22.8653 14.8006 23.4447 16.4302C23.8968 17.6632 23.9382 19.0212 23.6713 20.3004C23.3103 22.1514 22.2981 23.8698 20.8349 25.0625C19.276 26.3569 17.2136 27.035 15.1897 26.8756C13.3813 26.7511 11.6092 25.9299 10.4223 24.5468C9.68693 23.715 9.21849 22.6899 8.8581 21.6503C9.96963 21.3635 11.0817 21.079 12.1939 20.7928C12.5192 21.5977 13.1086 22.2986 13.8369 22.7705C14.4613 23.1677 15.216 23.3535 15.9537 23.288C16.9227 23.2086 17.835 22.7262 18.5027 22.0282C19.2649 21.2361 19.7199 20.1643 19.7865 19.0691C19.828 18.3373 19.6317 17.5902 19.2129 16.9863C18.6604 16.1755 17.7451 15.6382 16.7772 15.5085C15.9817 15.3946 15.1552 15.5576 14.4531 15.9437C13.6021 16.4051 12.9485 17.165 12.4871 18.0049C11.4836 17.575 10.4772 17.1516 9.47549 16.7187C10.0713 14.3526 10.6524 11.9829 11.2453 9.61617C11.5566 8.33292 12.0759 7.07536 12.931 6.05612C13.511 5.35929 14.237 4.78863 15.0431 4.37568C16.1055 3.82722 17.2825 3.53926 18.4624 3.38389C19.7631 3.21041 21.0779 3.20282 22.388 3.19055C19.1341 1.82553 15.3842 1.7017 12.0443 2.83659ZM18.1417 5.06666C16.9297 5.27402 15.7084 5.67879 14.7627 6.49302C14.0717 7.07887 13.5636 7.85688 13.2254 8.69272C15.6546 8.6162 18.1113 8.87963 20.5154 8.41294C21.6299 8.19624 22.7391 7.79146 23.6135 7.04732C24.3413 6.4387 24.8617 5.61571 25.2057 4.73782C22.8542 4.90721 20.4769 4.66656 18.1417 5.06666Z" fill="#696969"/>
<path d="M76.7709 11.108C77.6473 10.695 78.7627 11.533 78.5454 12.4959C78.4481 13.4335 77.2259 13.8801 76.5031 13.3243C75.7179 12.7936 75.8644 11.4273 76.7709 11.108Z" fill="#696969"/>
<path d="M80.1244 11.0907C80.8303 10.8049 81.7284 11.2576 81.8508 12.0248C82.0321 12.8028 81.3634 13.636 80.553 13.5628C79.8146 13.5748 79.1987 12.8592 79.3043 12.1316C79.3415 11.6622 79.6777 11.2384 80.1244 11.0907Z" fill="#696969"/>
<path d="M40.3256 11.2603C43.41 11.2591 46.4943 11.2603 49.5787 11.2603C49.5799 15.059 49.5799 18.8565 49.5787 22.6552C48.8223 22.6564 48.0671 22.654 47.3107 22.6576C47.3047 19.5853 47.3107 16.513 47.3083 13.4418C45.7367 13.4406 44.1663 13.4406 42.596 13.4418C42.5948 16.513 42.5972 19.5841 42.596 22.6552C41.8384 22.6552 41.082 22.6564 40.3256 22.6552C40.3244 18.8565 40.3244 15.059 40.3256 11.2603Z" fill="#696969"/>
<path d="M62.0202 15.5017C62.7862 14.1606 64.67 13.7284 65.9894 14.4824C66.4288 14.7225 66.7626 15.1151 66.9955 15.5545C68.2117 13.8365 71.0692 13.5855 72.5039 15.1547C73.1066 15.7898 73.3527 16.6831 73.3587 17.5427C73.3647 19.2464 73.3599 20.9512 73.3611 22.6561C72.6408 22.6561 71.9204 22.6561 71.2013 22.6573C71.1977 21.1097 71.2025 19.5621 71.1989 18.0158C71.1977 17.4275 71.0296 16.7803 70.5361 16.413C69.7881 15.8715 68.6043 16.0564 68.0785 16.8248C67.8107 17.2029 67.7099 17.6748 67.7171 18.1334C67.7183 19.6414 67.7183 21.1481 67.7171 22.6573C66.9979 22.6561 66.2776 22.6561 65.5584 22.6573C65.5536 21.1109 65.562 19.5657 65.5548 18.0206C65.55 17.4575 65.3939 16.85 64.9509 16.4718C64.263 15.8991 63.1224 16.0095 62.5473 16.6915C62.2015 17.0853 62.0646 17.6232 62.0743 18.1394C62.0767 19.645 62.0755 21.1505 62.0743 22.6573C61.3551 22.6561 60.6347 22.6561 59.9156 22.6573C59.9132 19.8851 59.9144 17.1141 59.9144 14.3419C60.6179 14.3419 61.3215 14.3419 62.025 14.3431C62.025 14.7285 62.0274 15.1151 62.0202 15.5017Z" fill="#696969"/>
<path d="M77.4438 14.3104C78.2734 14.0822 79.1631 14.0714 79.9999 14.2719C81.1429 14.5493 82.161 15.3585 82.622 16.4486C83.0026 17.3287 83.0254 18.3168 82.8982 19.2544C80.8139 19.2568 78.7296 19.2496 76.6454 19.258C76.8339 19.9424 77.2829 20.5943 77.9781 20.8332C79.2531 21.2726 80.6926 20.8692 81.742 20.0756C82.0325 20.5331 82.3267 20.9881 82.6136 21.4479C81.796 22.2103 80.7347 22.7109 79.6169 22.8046C78.2494 22.9355 76.721 22.6881 75.7197 21.67C74.5119 20.4958 74.1986 18.6265 74.6644 17.0477C75.051 15.7463 76.1315 14.6717 77.4438 14.3104ZM77.6767 16.2109C77.1364 16.5087 76.8075 17.0705 76.6454 17.6504C78.0573 17.6564 79.4692 17.6552 80.8811 17.6504C80.7875 17.3107 80.6806 16.9637 80.4573 16.6851C79.8282 15.8507 78.5556 15.7103 77.6767 16.2109Z" fill="#696969"/>
<path d="M87.9799 14.2593C89.2609 13.9136 90.7185 14.2737 91.6658 15.2114C93.4535 16.8719 93.4643 20.0331 91.7042 21.7187C90.6332 22.8197 88.8527 23.1762 87.4528 22.5303C87.0038 22.3262 86.6244 22.002 86.2942 21.6419C86.3014 23.1138 86.2954 24.5857 86.2978 26.0565C85.5775 26.0565 84.8571 26.0577 84.1367 26.0565C84.1367 22.1521 84.1367 18.2466 84.1367 14.3422C84.8499 14.3398 85.5642 14.341 86.2774 14.3422C86.2774 14.6988 86.2774 15.0541 86.275 15.4119C86.7276 14.8861 87.3015 14.443 87.9799 14.2593ZM88.0579 16.1791C86.4335 16.4408 85.7407 18.5767 86.6376 19.8698C87.3424 21.0428 89.1673 21.2217 90.1194 20.2624C91.0739 19.3559 91.0715 17.6559 90.1206 16.7482C89.5923 16.2127 88.7819 16.0422 88.0579 16.1791Z" fill="#696969"/>
<path d="M97.0579 14.248C98.285 13.9791 99.6489 14.104 100.719 14.8015C101.561 15.3574 102.234 16.199 102.515 17.1763C102.744 17.9771 102.752 18.8379 102.562 19.6471C102.222 21.0542 101.091 22.232 99.7101 22.6546C98.1337 23.1265 96.2607 22.8383 95.0697 21.6449C93.4273 20.1118 93.3313 17.2603 94.8332 15.6011C95.4119 14.936 96.1947 14.4425 97.0579 14.248ZM97.7807 16.1774C97.0159 16.3083 96.3628 16.887 96.0915 17.6061C95.7661 18.4814 95.9498 19.5475 96.6245 20.209C97.2224 20.8321 98.1889 21.0122 98.9945 20.7409C100.142 20.3483 100.793 18.9892 100.448 17.8378C100.16 16.7021 98.9357 15.9121 97.7807 16.1774Z" fill="#696969"/>
<path d="M121.239 15.4818C122.202 14.3496 123.843 13.861 125.268 14.2764C125.931 14.4721 126.492 14.9055 126.95 15.4109C126.947 15.0532 126.948 14.6978 126.949 14.3424C127.632 14.3412 128.316 14.3412 129 14.3424C129 17.1134 129 19.8844 129 22.6554C128.316 22.6566 127.632 22.6554 126.949 22.6554C126.947 22.2952 126.946 21.935 126.952 21.5772C126.461 22.1427 125.822 22.6074 125.079 22.7658C123.927 23.0012 122.656 22.7454 121.743 21.9878C119.843 20.4559 119.632 17.2959 121.239 15.4818ZM123.959 16.1961C122.375 16.6236 121.829 18.8122 122.852 20.0309C123.642 21.1138 125.428 21.1894 126.313 20.1857C127.174 19.3117 127.204 17.7785 126.371 16.8769C125.801 16.1793 124.805 15.9524 123.959 16.1961Z" fill="#696969"/>
<path d="M51.9619 15.2263C52.7447 14.5216 53.8481 14.3475 54.8662 14.3427C56.002 14.3403 57.1377 14.3415 58.2735 14.3427C58.2735 17.1137 58.2735 19.8847 58.2735 22.6556C57.5724 22.6556 56.8712 22.658 56.17 22.6532C56.1761 21.694 56.1725 20.7347 56.1713 19.7754C55.7258 19.8666 55.2756 19.9339 54.823 19.9687C54.2491 20.8667 53.674 21.7624 53.0953 22.6568C52.3089 22.6532 51.5237 22.6604 50.7373 22.652C51.4217 21.6555 52.112 20.665 52.7987 19.6709C52.1756 19.3948 51.5909 18.9434 51.346 18.2867C50.9654 17.2674 51.1191 15.9755 51.9619 15.2263ZM53.8541 16.2829C53.1253 16.5902 53.1025 17.7932 53.8313 18.115C54.5684 18.4307 55.4005 18.2867 56.1713 18.2038C56.1737 17.4991 56.1737 16.7955 56.1713 16.0932C55.4017 16.1376 54.5828 15.9647 53.8541 16.2829Z" fill="#696969"/>
<path d="M103.497 14.3413C104.21 14.3413 104.924 14.3413 105.637 14.3413C105.647 15.291 105.621 16.2419 105.649 17.1903C105.659 17.7114 105.992 18.2313 106.516 18.3585C107.253 18.5434 108.036 18.4054 108.74 18.146C108.739 16.8782 108.74 15.6103 108.74 14.3425C109.459 14.3413 110.179 14.3413 110.9 14.3425C110.901 17.1135 110.901 19.8845 110.9 22.6555C110.179 22.6555 109.459 22.6567 108.74 22.6555C108.741 21.7274 108.736 20.7994 108.741 19.8713C107.658 20.5016 106.304 20.5508 105.144 20.1102C104.682 19.9289 104.247 19.6384 103.985 19.2098C103.584 18.5734 103.488 17.8002 103.495 17.0631C103.498 16.1554 103.495 15.249 103.497 14.3413Z" fill="#696969"/>
<path d="M112.541 14.3315C113.261 14.3315 113.982 14.3315 114.702 14.3315C114.703 15.4241 114.702 16.5166 114.702 17.6104C115.708 16.5226 116.71 15.4301 117.714 14.3424C118.624 14.3412 119.535 14.3411 120.445 14.3411C119.212 15.6294 117.97 16.9092 116.734 18.1927C118.043 19.6802 119.353 21.1678 120.661 22.6565C119.775 22.6541 118.889 22.6565 118.003 22.6553C116.903 21.3815 115.804 20.1076 114.703 18.8362C114.702 20.1088 114.702 21.3815 114.702 22.6553C113.982 22.6565 113.261 22.6553 112.542 22.6553C112.541 19.8807 112.541 17.1061 112.541 14.3315Z" fill="#696969"/>
</svg>
