<svg width="146" height="31" viewBox="0 0 146 31" fill="none" xmlns="http://www.w3.org/2000/svg">
<path d="M63.6167 0H85.1636C85.1506 10.3341 85.1876 20.6659 85.144 31H63.6886C63.6363 30.4927 63.6167 29.9833 63.6123 29.4738C63.621 19.6492 63.6145 9.82462 63.6167 0ZM69.57 7.70231C68.3867 12.9441 67.1664 18.1773 65.9897 23.4213C65.8241 23.8483 66.3427 24.2342 66.6827 23.8635C67.1533 22.1899 67.4693 20.473 67.8812 18.7843C69.3455 18.7843 70.8121 18.7843 72.2764 18.7843C72.6643 20.421 72.9999 22.0729 73.4204 23.7009C73.5141 24.2624 74.4098 23.9307 74.1701 23.4299C72.9803 18.1469 71.7556 12.8704 70.5593 7.58741C70.4787 7.29042 70.422 6.81133 69.9884 6.95007C69.607 6.91538 69.6985 7.46818 69.57 7.70231ZM77.6871 7.21454C76.2707 7.80636 75.7281 9.43657 75.6824 10.8522C75.6431 13.6682 75.678 16.4842 75.6649 19.3002C75.6497 20.5315 75.8022 21.8583 76.5976 22.8576C77.5913 24.115 79.498 24.2342 80.8991 23.6597C82.4768 22.8858 82.941 20.9131 82.7971 19.3067C82.832 18.9273 82.2807 19.0184 82.0802 19.1528C81.9473 20.1847 81.993 21.3055 81.3655 22.1986C80.557 23.3627 78.7462 23.4624 77.6239 22.7124C76.6956 22.0382 76.5061 20.7938 76.4647 19.7316C76.4538 17.0565 76.469 14.3814 76.4581 11.7085C76.4538 10.811 76.5039 9.87881 76.9048 9.05937C77.7133 7.28608 80.7422 7.24923 81.5572 9.03336C82.0214 9.88531 81.932 10.876 82.1042 11.7995C82.285 11.8017 82.6468 11.8082 82.8276 11.8103C82.8625 10.4641 82.7361 8.97916 81.8056 7.92126C80.7902 6.80483 79.0316 6.71594 77.6871 7.21454ZM75.0962 23.1069C74.7715 23.3064 74.8783 23.9177 75.2661 23.9567C75.5647 24.0434 75.9395 23.7464 75.8262 23.4299C75.8567 23.0766 75.3381 22.8901 75.0962 23.1069Z" fill="#696969"/>
<path d="M3.58027 7.83904C3.72627 7.451 3.73498 6.65324 4.34949 6.97191C4.70904 7.71764 4.79839 8.55226 4.99669 9.34569C6.01433 13.8049 7.02325 18.2663 8.06051 22.719C8.13242 23.0637 8.20869 23.4127 8.20215 23.7683C8.07794 24.0089 7.55931 24.0956 7.50701 23.7726C7.00582 22.1359 6.73997 20.4363 6.31722 18.7801C4.85069 18.7801 3.38415 18.7801 1.91761 18.7801C1.47961 20.5339 1.19851 22.331 0.618866 24.0501C0.464149 24.0002 0.154716 23.9005 0 23.8506V23.5472C1.18543 18.3097 2.39701 13.0787 3.58027 7.83904ZM4.10543 9.12673C3.43645 12.0772 2.76528 15.0276 2.0963 17.978C3.44516 17.9802 4.79185 17.9802 6.13854 17.9802C5.46301 15.0276 4.78531 12.0772 4.10543 9.12673Z" fill="#696969"/>
<path d="M9.86471 7.011C10.1545 6.78121 10.6318 7.02401 10.5555 7.39904C10.5947 9.94408 10.5555 12.4913 10.5686 15.0385C12.2574 15.0385 13.9462 15.0385 15.635 15.0385C15.6546 12.4783 15.5979 9.91373 15.6568 7.35352C15.6306 6.97632 16.0207 6.83107 16.3257 6.97632C16.4587 7.30366 16.4521 7.66352 16.4609 8.01254C16.4456 12.9942 16.4521 17.9781 16.4565 22.9619C16.3606 23.2762 16.6417 23.9266 16.1514 23.9634C16.0359 23.9504 15.8071 23.9223 15.6916 23.9071C15.5565 21.232 15.6742 18.546 15.635 15.8666C13.9462 15.8666 12.2574 15.8666 10.5686 15.8666C10.5511 18.4463 10.6012 21.0282 10.5489 23.6079C10.5838 24.009 10.0216 23.9006 9.78626 24.0176C9.70127 18.83 9.78408 13.6424 9.74268 8.45478C9.75357 7.97352 9.70999 7.47492 9.86471 7.011Z" fill="#696969"/>
<path d="M18.3654 7.71942C18.1301 7.34872 18.2608 6.85228 18.762 6.85228C19.0017 7.15795 19.176 7.50697 19.3395 7.85599C20.2177 9.78536 21.1176 11.7017 22.0067 13.6224C22.0307 11.5305 21.9697 9.43634 22.0307 7.34655C22.0045 6.97368 22.3793 6.85879 22.68 6.95851C22.8173 7.36823 22.7999 7.80613 22.8064 8.23319C22.7934 10.026 22.7999 11.8166 22.7999 13.6094C23.872 11.3484 24.8788 9.05914 25.9836 6.81543C26.1949 6.92816 26.3998 7.05389 26.5981 7.19263C26.5196 7.56984 26.3584 7.92102 26.1993 8.27005C25.0705 10.6482 23.9766 13.0436 22.8609 15.4282C23.872 17.6069 24.8744 19.7899 25.892 21.9642C26.1405 22.5127 26.439 23.046 26.5915 23.6313C26.4869 24.1082 25.8485 24.0324 25.7569 23.5945C24.7458 21.4917 23.7957 19.3585 22.7999 17.247C22.7737 19.3845 22.85 21.522 22.7672 23.6573C22.8566 24.0822 21.937 24.0844 22.035 23.6378C21.9653 21.5068 22.0329 19.3715 22.0089 17.2384C21.1002 19.1916 20.1893 21.1448 19.2915 23.1045C19.0649 23.4926 18.8797 24.2578 18.2913 23.8633C18.141 23.5316 18.3741 23.2086 18.4766 22.9029C19.6446 20.4142 20.8038 17.9212 21.9675 15.4326C20.7733 12.8572 19.5487 10.297 18.3654 7.71942Z" fill="#696969"/>
<path d="M28.0798 7.79316C28.0885 7.47883 28.0275 6.90218 28.5091 6.94337C30.2633 6.91302 32.024 6.88484 33.776 6.96072C34.1312 6.84149 34.3077 7.72596 33.9198 7.66309C32.2397 7.81051 30.5466 7.67827 28.8599 7.72379C28.8599 10.1626 28.8599 12.5993 28.8599 15.0381C30.4899 15.0641 32.1242 14.9904 33.7542 15.0641C34.2423 15.0251 34.2707 15.8488 33.7804 15.8033C32.1438 15.8944 30.4986 15.8098 28.8599 15.838C28.8599 18.2855 28.8599 20.733 28.8599 23.1826C30.5749 23.2216 32.2964 23.0981 34.007 23.2433C34.0353 23.4059 34.092 23.7267 34.1203 23.8893C32.9959 24.0823 31.8475 23.9435 30.7122 23.9825C29.8558 23.95 28.9754 24.0844 28.1343 23.8785C28.0972 23.5837 28.0776 23.2867 28.0776 22.9897C28.0864 17.9234 28.0842 12.8594 28.0798 7.79316Z" fill="#696969"/>
<path d="M39.6468 7.57233C39.6969 7.19946 40.0259 6.55345 40.4312 7.0152C40.708 7.68289 40.8191 8.40478 41 9.10282C42.1222 13.6661 43.2314 18.2337 44.3667 22.7948C44.4386 23.2046 44.687 23.714 44.2403 24.0067C43.7892 23.9395 43.726 23.4886 43.6258 23.133C42.4687 18.4137 41.292 13.6986 40.124 8.98142C38.9298 13.7918 37.7684 18.6131 36.5612 23.4192C36.4609 23.6208 36.3345 24.2039 36.0055 23.9243C35.55 23.8679 35.829 23.3065 35.8312 23.0225C37.1059 17.8739 38.3807 12.7231 39.6468 7.57233Z" fill="#696969"/>
<path d="M45.8351 7.57419C45.9026 7.36174 45.7872 6.81545 46.1903 6.94118C46.5629 6.82412 46.6414 7.30971 46.6283 7.56335C46.6414 12.2025 46.6261 16.8438 46.6348 21.483C48.4021 17.0259 50.1715 12.5667 51.9366 8.10748C52.1153 7.65873 52.3136 7.2165 52.5228 6.78076C52.8257 6.96286 53.17 7.1623 53.085 7.57636C53.1024 12.5624 53.0741 17.5506 53.0959 22.5366C53.085 22.9831 53.1307 23.4427 52.9978 23.8763C52.7777 23.9348 52.5533 23.9608 52.3288 23.9912C52.2286 19.1396 52.3092 14.2815 52.2874 9.42769C50.5986 13.6398 48.9251 17.8584 47.2472 22.077C46.9878 22.6861 46.8135 23.3387 46.4518 23.898C46.0116 24.273 45.7305 23.575 45.8264 23.2064C45.8351 17.9971 45.8155 12.7857 45.8351 7.57419Z" fill="#696969"/>
<path d="M54.7412 8.02303C54.7586 7.56778 54.6584 6.71366 55.3862 6.93694C55.5714 7.34883 55.5388 7.80624 55.5497 8.24415C55.5322 11.0211 55.5431 13.7981 55.5431 16.5751C57.3147 13.8957 59.0885 11.2162 60.8558 8.53464C61.211 8.00569 61.5226 7.44422 61.9497 6.96946C62.2264 6.87841 62.4313 7.12338 62.6514 7.24044C61.0345 9.76597 59.3696 12.2611 57.7331 14.7737C59.2302 17.4791 60.7163 20.1889 62.2221 22.8879C62.3833 23.2369 62.7276 23.6596 62.3267 23.9826C61.8146 24.078 61.6686 23.5274 61.4463 23.1957C60.0495 20.6333 58.6309 18.0839 57.2232 15.5281C56.6937 16.4104 55.9964 17.2038 55.5845 18.149C55.4233 20.0285 55.6782 21.9297 55.469 23.8027C55.164 24.2276 54.6519 23.9046 54.763 23.4276C54.726 18.2921 54.7674 13.1565 54.7412 8.02303Z" fill="#696969"/>
<path d="M86.5629 7.37514C86.5499 6.98059 86.8201 6.84185 87.1883 6.95024C87.3583 7.35779 87.3256 7.8087 87.3365 8.2401C87.3256 10.1174 87.3256 11.9948 87.3278 13.8721C87.3518 14.8932 87.4433 16.0096 88.1232 16.8312C88.9033 17.7395 90.3175 17.8111 91.3722 17.3884C92.4073 16.9504 92.793 15.769 92.8584 14.7349C92.9761 12.2896 92.8475 9.83562 92.9499 7.38814C92.9107 7.01528 93.1765 6.88521 93.5208 6.90472C93.7605 7.3101 93.7061 7.79569 93.7235 8.2466C93.6973 12.0728 93.7366 15.8991 93.7039 19.7253C93.7039 21.2124 93.231 22.9662 91.7666 23.6556C90.42 24.2084 88.6244 24.1195 87.5937 22.9965C86.7024 21.9603 86.454 20.5057 86.5847 19.1833C86.8114 19.1118 87.0445 19.0511 87.2799 19.0056C87.3975 19.9746 87.3474 21.0021 87.8029 21.8953C88.6745 23.7401 91.8865 23.5992 92.562 21.659C93.0806 20.2412 92.8322 18.7021 92.9129 17.2279C91.7579 18.5655 89.6289 18.8039 88.1384 17.9108C86.831 17.035 86.5324 15.3397 86.5412 13.8786C86.5542 11.7108 86.4976 9.5408 86.5629 7.37514Z" fill="#696969"/>
<path d="M95.242 7.34661C95.1919 6.88703 95.7824 6.93689 96.0853 6.92171C97.4887 6.95857 99.0554 6.70927 100.291 7.53521C101.474 8.36766 101.699 9.9415 101.72 11.2791C101.771 12.816 101.405 14.5438 100.034 15.4521C101.531 16.4125 101.792 18.331 101.712 19.9591C101.659 21.2619 101.337 22.7924 100.106 23.4926C98.7525 24.2253 97.1422 23.9435 95.6691 23.9652C95.1047 24.0367 95.2573 23.3344 95.2202 22.9897C95.2442 17.776 95.2006 12.5602 95.242 7.34661ZM96.0308 7.72381C96.0308 10.1626 96.0308 12.5993 96.0308 15.0359C97.1988 14.986 98.4496 15.2288 99.5479 14.7237C100.563 14.21 100.836 12.9786 100.892 11.9424C100.921 10.7371 100.943 9.33668 100.067 8.39367C98.9661 7.42248 97.371 7.79752 96.0308 7.72381ZM96.0308 15.8402C96.0308 18.2877 96.0308 20.733 96.0308 23.1805C97.2381 23.1263 98.5433 23.3886 99.6634 22.8184C100.666 22.2548 100.849 20.9866 100.901 19.9482C100.919 18.7277 100.901 17.2688 99.9053 16.3951C98.7961 15.5692 97.3165 15.9095 96.0308 15.8402Z" fill="#696969"/>
<path d="M105.974 7.06261C107.192 6.77646 108.654 6.90653 109.561 7.8517C110.535 8.87275 110.674 10.3621 110.674 11.7018C110.659 14.4527 110.696 17.2059 110.655 19.9547C110.62 21.3573 110.127 22.9593 108.781 23.6313C107.345 24.2557 105.349 24.1126 104.368 22.7686C103.577 21.715 103.488 20.3493 103.503 19.0832C103.527 16.3279 103.477 13.5726 103.525 10.8173C103.551 9.25863 104.29 7.43765 105.974 7.06261ZM105.976 7.89939C104.704 8.35464 104.331 9.85044 104.301 11.0536C104.263 13.8739 104.287 16.6965 104.287 19.5168C104.311 20.7048 104.494 22.1442 105.608 22.8293C106.713 23.4232 108.31 23.317 109.145 22.3111C109.755 21.5199 109.831 20.4728 109.853 19.5125C109.855 16.8352 109.851 14.1601 109.855 11.4828C109.835 10.4726 109.772 9.35618 109.097 8.54107C108.345 7.66527 107.018 7.56772 105.976 7.89939Z" fill="#696969"/>
<path d="M112.272 7.00417C113.337 6.85026 114.423 6.92396 115.497 6.93914C116.608 6.95648 117.813 7.36403 118.421 8.35039C119.147 9.53403 119.18 10.9973 119.071 12.3414C118.968 13.5055 118.513 14.778 117.417 15.359C116.059 16.0809 114.46 15.7752 112.987 15.8381C112.965 18.433 113.028 21.03 112.96 23.6249C113.122 24.0975 112.019 24.1084 112.198 23.638C112.126 18.5804 112.2 13.5163 112.161 8.45662C112.165 7.97102 112.139 7.47676 112.272 7.00417ZM112.987 7.72606C112.987 10.1627 112.987 12.5993 112.987 15.036C114.346 14.9623 115.843 15.3026 117.088 14.6003C118.192 13.9131 118.304 12.4584 118.308 11.2878C118.29 10.128 118.112 8.6734 116.955 8.08158C115.715 7.51361 114.305 7.78459 112.987 7.72606Z" fill="#696969"/>
<path d="M123.396 6.99994C124.56 6.80483 125.913 6.97826 126.745 7.88875C127.685 8.9098 127.824 10.3687 127.822 11.6933C127.804 14.4399 127.839 17.1866 127.804 19.9354C127.776 21.3835 127.244 23.0592 125.808 23.6879C124.446 24.2082 122.636 24.102 121.644 22.9248C120.842 21.9818 120.655 20.6985 120.655 19.5018C120.65 16.9048 120.659 14.3055 120.65 11.7063C120.65 10.579 120.735 9.39106 121.322 8.39602C121.753 7.64595 122.548 7.14518 123.396 6.99994ZM122.999 7.95161C121.821 8.46756 121.487 9.87882 121.452 11.0429C121.431 13.8698 121.45 16.6988 121.444 19.5278C121.457 20.6876 121.635 22.0599 122.67 22.7753C123.795 23.4473 125.49 23.3367 126.331 22.2658C126.904 21.4767 126.985 20.4578 127.002 19.517C127.002 16.8376 126.998 14.1603 127.002 11.4808C126.992 10.4793 126.918 9.37805 126.266 8.56294C125.488 7.63728 124.069 7.54623 122.999 7.95161Z" fill="#696969"/>
<path d="M129.513 7.01735C130.57 6.83308 131.655 6.92196 132.723 6.95882C133.869 7.01085 135.03 7.64168 135.46 8.74078C136.031 10.152 136.026 11.7497 135.723 13.2239C135.551 14.1387 134.969 14.8996 134.237 15.4502C135.865 16.5168 136.026 18.6521 135.88 20.4059C135.795 21.7413 135.222 23.2609 133.832 23.7183C132.418 24.1649 130.892 23.9655 129.434 23.9264C129.408 18.6976 129.441 13.471 129.417 8.24217C129.419 7.83462 129.417 7.4184 129.513 7.01735ZM130.243 7.72406C130.243 10.1629 130.243 12.5995 130.243 15.0362C131.407 14.9885 132.655 15.2291 133.749 14.724C134.908 14.117 135.091 12.6602 135.109 11.4918C135.094 10.3471 135.039 8.95756 134.039 8.20532C132.917 7.48343 131.502 7.78693 130.243 7.72406ZM130.243 15.8404C130.243 18.2879 130.243 20.7332 130.243 23.1807C131.444 23.1243 132.749 23.3888 133.862 22.8187C134.93 22.2095 135.072 20.8394 135.107 19.736C135.107 18.5372 135.041 17.0761 133.976 16.2978C132.867 15.602 131.481 15.9033 130.243 15.8404Z" fill="#696969"/>
<path d="M141.67 6.7334C142.466 7.20815 142.477 8.18368 142.684 8.97927C143.771 13.8374 144.904 18.6868 146 23.5428V24.0067C145.723 23.8961 145.257 23.9677 145.207 23.584C144.762 22.0014 144.479 20.3756 144.083 18.78C142.616 18.78 141.15 18.78 139.685 18.78C139.228 20.5555 138.981 22.3895 138.341 24.1129C138.188 24.0262 137.885 23.8506 137.735 23.7617C138.042 22.2377 138.41 20.7289 138.753 19.2136C139.744 15.0579 140.574 10.861 141.67 6.7334ZM139.862 17.9779C141.208 17.9801 142.557 17.9801 143.904 17.9779C143.226 15.0232 142.544 12.0684 141.871 9.11151C141.208 12.0684 140.528 15.0232 139.862 17.9779Z" fill="#696969"/>
<path d="M68.0601 17.978C68.729 15.0276 69.4024 12.0793 70.0648 9.12891C70.7404 12.0793 71.4202 15.0297 72.0979 17.978C70.7513 17.9758 69.4067 17.978 68.0601 17.978Z" fill="#696969"/>
<path d="M42.5121 26.6989C43.2661 26.3282 44.1051 26.6165 44.8438 26.868C44.8656 27.1953 44.8874 27.5248 44.9092 27.8544C44.3273 27.501 43.6649 26.9721 42.9436 27.2777C41.6797 27.6896 41.6035 29.7014 42.8281 30.2173C43.5755 30.6227 44.3186 30.0764 44.9157 29.6623C44.8939 29.981 44.8743 30.2997 44.8569 30.6162C44.4842 30.7527 44.1138 30.8893 43.7324 30.9999H43.0569C42.4119 30.8243 41.78 30.4623 41.4836 29.8401C40.8778 28.7475 41.3463 27.2018 42.5121 26.6989Z" fill="#696969"/>
<path d="M45.1182 30.9978C45.7196 29.4022 46.4409 27.8544 47.099 26.2827C47.7636 27.8262 48.426 29.3719 49.0907 30.9175C48.9011 30.9175 48.5241 30.9197 48.3367 30.9197C48.158 30.4991 47.9815 30.0786 47.805 29.658C47.3365 29.658 46.8702 29.6602 46.4017 29.6602C46.1249 30.252 45.9811 31.1061 45.1182 30.9978ZM47.099 27.9151C46.9377 28.2836 46.7808 28.6522 46.6217 29.0229C46.9355 29.0207 47.2493 29.0207 47.5631 29.0207C47.4084 28.6522 47.2537 28.2836 47.099 27.9151Z" fill="#696969"/>
<path d="M93.7495 30.9175C94.4098 29.3719 95.07 27.8262 95.7347 26.2827C96.3993 27.8262 97.0617 29.3719 97.7242 30.9175C97.5368 30.9175 97.1598 30.9197 96.9724 30.9197C96.7937 30.4992 96.6172 30.0786 96.4407 29.6602C95.9657 29.658 95.4928 29.658 95.0199 29.658C94.8456 30.0786 94.6713 30.4992 94.4969 30.9197C94.3117 30.9175 93.9369 30.9175 93.7495 30.9175ZM95.7347 27.9151C95.5734 28.2836 95.4143 28.6522 95.2553 29.0207C95.5691 29.0207 95.8828 29.0207 96.1966 29.0207C96.0419 28.6522 95.8872 28.2836 95.7347 27.9151Z" fill="#696969"/>
<path d="M98.3932 27.2061C99.1515 26.2935 100.457 26.4474 101.431 26.8809C101.455 27.2083 101.481 27.5378 101.507 27.8651C100.932 27.5335 100.306 27.011 99.596 27.2516C98.853 27.4576 98.4259 28.2792 98.5326 29.0119C98.6111 29.7446 99.2844 30.3451 100.021 30.3625C100.601 30.3646 101.043 29.9224 101.505 29.6363C101.483 29.9614 101.461 30.2866 101.444 30.6118C101.069 30.7483 100.692 30.8849 100.311 30.9998H99.6592C97.9268 30.757 97.1838 28.4288 98.3932 27.2061Z" fill="#696969"/>
<path d="M50.1279 26.6079C50.969 26.6101 51.8102 26.6101 52.6535 26.6101C52.6535 28.0474 52.6535 29.4825 52.6535 30.9197C52.4791 30.9197 52.1305 30.9197 51.9583 30.9176C51.9562 29.6992 51.9562 28.4809 51.9583 27.2626C51.5857 27.2604 51.2153 27.2604 50.8448 27.2583C50.7751 28.2598 50.8252 29.3047 50.4395 30.2499C50.2543 30.742 49.6724 30.8265 49.2432 30.9978C49.4676 30.3388 49.9361 29.7621 50.0102 29.0554C50.1061 28.2446 50.1061 27.4252 50.1279 26.6079Z" fill="#696969"/>
<path d="M53.1636 29.2529C52.8411 27.9934 53.8173 26.619 55.1313 26.5496C56.4519 26.3589 57.7136 27.5078 57.6221 28.8345C57.6526 29.9314 56.7461 30.7899 55.7175 31.0002H55.0311C54.1442 30.8159 53.3227 30.1786 53.1636 29.2529ZM54.5626 27.4319C53.4818 28.0368 53.6604 29.8252 54.8175 30.2393C55.9224 30.7097 57.208 29.5542 56.8681 28.4118C56.7003 27.4016 55.4124 26.864 54.5626 27.4319Z" fill="#696969"/>
<path d="M58.291 26.6104C58.461 26.6104 58.8009 26.6104 58.9731 26.6104C58.9709 27.135 58.9731 27.6574 58.9731 28.182C59.6159 28.182 60.2609 28.182 60.9059 28.182C60.9059 27.6574 60.9059 27.135 60.9059 26.6104C61.0824 26.6104 61.4376 26.6104 61.6142 26.6104C61.6142 28.0455 61.6142 29.4827 61.6142 30.92C61.4376 30.92 61.0824 30.92 60.9059 30.9178C60.9059 30.2328 60.9059 29.5456 60.9059 28.8606C60.2609 28.8584 59.6159 28.8584 58.9731 28.8606C58.9731 29.5456 58.9709 30.2328 58.9731 30.92C58.8009 30.92 58.461 30.92 58.291 30.92C58.291 29.4827 58.291 28.0476 58.291 26.6104Z" fill="#696969"/>
<path d="M87.395 26.6101C87.5693 26.6101 87.9158 26.6101 88.0902 26.6101C88.0902 27.1629 88.0902 27.7135 88.0902 28.2663C88.6022 27.7135 89.1122 27.1607 89.6221 26.6079C89.84 26.6101 90.2736 26.6122 90.4915 26.6144C89.8857 27.2648 89.2799 27.9151 88.6742 28.5655C89.3344 29.3481 89.9925 30.1328 90.6506 30.9176C90.4262 30.9176 89.9751 30.9197 89.7506 30.9197C89.1971 30.2477 88.6436 29.5757 88.0902 28.9058C88.0902 29.5757 88.0902 30.2477 88.0902 30.9176C87.9158 30.9197 87.5693 30.9197 87.395 30.9197C87.395 29.4825 87.395 28.0452 87.395 26.6101Z" fill="#696969"/>
<path d="M91.2632 26.5947C91.8995 26.6272 92.5663 26.5384 93.1743 26.7638C93.8585 27.1497 93.9304 28.2401 93.3943 28.7799C92.976 29.0834 92.4181 29.0465 91.93 29.1463C91.9322 29.7381 91.93 30.3277 91.9322 30.9196C91.7644 30.9196 91.431 30.9195 91.2632 30.9174C91.2632 29.4779 91.2632 28.0363 91.2632 26.5947ZM91.9344 27.1974C91.9322 27.6331 91.9322 28.071 91.9365 28.5089C92.3179 28.3723 93.159 28.3962 92.9956 27.7827C92.9672 27.2472 92.2983 27.3275 91.9344 27.1974Z" fill="#696969"/>
<path d="M102.268 29.8294C101.614 28.6783 102.224 27.0134 103.534 26.6557C104.793 26.194 106.343 27.0524 106.489 28.4095C106.752 29.617 105.831 30.7464 104.669 31H103.891C103.235 30.8158 102.573 30.4711 102.268 29.8294ZM103.571 27.3689C102.47 27.8632 102.462 29.5823 103.51 30.1394C104.534 30.7941 105.979 29.7969 105.8 28.6176C105.756 27.564 104.497 26.8508 103.571 27.3689Z" fill="#696969"/>
<path d="M106.628 26.6104C107.62 26.6104 108.613 26.6104 109.609 26.6104C109.609 26.7794 109.609 27.1198 109.609 27.2889C109.232 27.2889 108.855 27.2889 108.48 27.2889C108.478 28.4985 108.478 29.7082 108.48 30.92C108.3 30.92 107.938 30.9178 107.757 30.9178C107.755 29.7082 107.757 28.4985 107.757 27.2889C107.378 27.2889 106.999 27.2867 106.626 27.2889C106.626 27.1198 106.626 26.7794 106.628 26.6104Z" fill="#696969"/>
<path d="M110.236 26.5972C110.413 26.5972 110.768 26.5972 110.945 26.5972C110.943 27.1825 110.943 27.7678 110.936 28.3553C111.381 28.416 111.849 28.4095 112.272 28.5807C113.113 29.0035 113.126 30.4776 112.195 30.8028C111.557 30.9762 110.888 30.909 110.236 30.9285C110.234 29.4847 110.234 28.0409 110.236 26.5972ZM110.936 28.9298C110.932 29.4045 110.938 29.8836 110.953 30.3605C111.376 30.2153 112.195 30.2998 112.174 29.669C112.272 28.9861 111.376 29.0533 110.936 28.9298Z" fill="#696969"/>
<path d="M113.205 26.6104C113.381 26.6104 113.736 26.6104 113.913 26.6104C113.913 28.0455 113.913 29.4827 113.913 30.92C113.736 30.92 113.381 30.9178 113.205 30.9178C113.202 29.4827 113.205 28.0476 113.205 26.6104Z" fill="#696969"/>
</svg>
