<svg width="142" height="35" viewBox="0 0 142 35" fill="none" xmlns="http://www.w3.org/2000/svg">
<path d="M114.918 1.37203C115.588 0.810476 116.721 0.854025 117.264 1.57679C117.531 1.90532 117.612 2.34463 117.608 2.75873C117.609 7.9197 117.608 13.0807 117.609 18.2409C116.495 18.2462 115.381 18.2424 114.267 18.2432C114.264 14.1748 114.268 10.1056 114.265 6.03715C109.46 9.89623 104.667 13.7714 99.8664 17.635C99.4683 17.9422 99.0993 18.3417 98.5797 18.4242C97.9777 18.5847 97.3038 18.344 96.9333 17.8451C96.6934 17.5342 96.62 17.1308 96.6177 16.7465C96.6162 11.5694 96.6193 6.39242 96.6162 1.21541C97.734 1.2177 98.851 1.21388 99.9687 1.2177C99.9611 1.88469 99.9779 2.55168 99.9596 3.21867C99.9672 3.37148 99.9672 3.52428 99.9596 3.67709C99.9749 4.21114 99.9687 4.74595 99.9626 5.28077C99.9626 6.14717 99.9787 7.01357 99.9596 7.87921C99.9726 8.56683 99.9726 9.25445 99.9596 9.94207C99.9726 10.2477 99.971 10.5533 99.9603 10.8589C99.9825 11.7123 99.9412 12.565 99.971 13.4176C104.952 9.40114 109.934 5.38544 114.918 1.37203Z" fill="#696969"/>
<path d="M0.131529 18.2459C0.133821 12.5693 0.128472 6.89181 0.133821 1.21436C7.12157 1.22123 14.1093 1.21512 21.0971 1.21741C21.0902 6.89333 21.0978 12.5693 21.0932 18.2452C19.9831 18.2421 18.8738 18.2459 17.7636 18.2436C17.7675 13.6809 17.7621 9.11817 17.7659 4.55542C13.0053 4.54778 8.24392 4.55695 3.48253 4.55008C3.47947 9.11358 3.47947 13.6771 3.48253 18.2406C2.36553 18.2505 1.24853 18.2391 0.131529 18.2459Z" fill="#696969"/>
<path d="M24.4863 1.21703C29.7275 1.21856 34.9687 1.21168 40.2107 1.22009C41.5752 1.26058 43.0452 1.44777 44.1416 2.33632C45.076 3.09958 45.4228 4.34188 45.4649 5.50396C45.4725 6.44753 45.4687 7.39186 45.4664 8.33619C45.4373 9.52043 45.089 10.7956 44.1347 11.5718C43.0192 12.4726 41.5217 12.6476 40.1373 12.6842C36.0299 12.6873 31.9233 12.6858 27.8167 12.685C27.819 14.537 27.8167 16.3897 27.8175 18.2425C26.7073 18.2448 25.598 18.244 24.4879 18.2433C24.4863 12.5673 24.4909 6.89219 24.4863 1.21703ZM27.8175 4.55657C27.8167 6.23131 27.8198 7.90605 27.8159 9.58078C31.8698 9.58308 35.9245 9.58078 39.9792 9.58231C40.4628 9.57009 40.9632 9.51661 41.4003 9.29428C41.7769 9.09945 42.0306 8.6907 42.0275 8.2659C42.0352 7.57675 42.0275 6.88837 42.0313 6.19998C42.029 5.93105 42.0497 5.64836 41.9259 5.40005C41.7746 5.04478 41.4331 4.80412 41.0687 4.70403C40.4452 4.50844 39.7859 4.56039 39.1433 4.55352C35.3675 4.55581 31.5925 4.55046 27.8175 4.55657Z" fill="#696969"/>
<path d="M52.217 1.35385C53.2233 1.18652 54.2455 1.21938 55.2617 1.21632C57.6553 1.21632 60.0498 1.21632 62.4442 1.21632C63.7454 1.22855 65.0709 1.14603 66.3446 1.47227C67.2545 1.6862 68.1538 2.13544 68.713 2.90863C69.2738 3.67877 69.471 4.6506 69.5015 5.58653C69.5069 7.92979 69.5023 10.273 69.5038 12.6163C69.4969 13.4598 69.555 14.3178 69.3357 15.1414C69.1546 15.9902 68.6748 16.7848 67.959 17.2868C67.2965 17.749 66.5027 17.9935 65.7097 18.1058L65.6615 18.131C64.3917 18.2899 63.1105 18.2349 61.8338 18.2433C59.259 18.2433 56.685 18.2441 54.1103 18.2433C52.8229 18.2242 51.4714 18.1196 50.3337 17.4602C49.5109 16.9957 48.9249 16.1682 48.7102 15.2529C48.4535 14.3445 48.5192 13.3941 48.5115 12.462C48.5131 10.1722 48.5092 7.88242 48.5138 5.59264C48.5536 4.57267 48.7766 3.4954 49.4696 2.70769C50.1549 1.90165 51.2032 1.53034 52.217 1.35385ZM53.7611 4.56121C53.2943 4.59559 52.7977 4.6697 52.4111 4.95468C52.0956 5.18542 51.9366 5.585 51.9481 5.96931C51.9504 8.48905 51.9466 11.0096 51.9504 13.5293C51.942 13.9319 52.1383 14.3323 52.4791 14.5516C52.9421 14.8427 53.5067 14.8969 54.0415 14.8931C57.352 14.8946 60.6625 14.8946 63.9731 14.8931C64.5209 14.8954 65.1069 14.8465 65.5721 14.5271C65.893 14.3071 66.0749 13.9197 66.0657 13.5331C66.0703 11.0119 66.068 8.49134 66.0672 5.97083C66.0932 5.50172 65.8334 5.02574 65.4048 4.82327C64.912 4.59101 64.3551 4.54593 63.818 4.55281C60.4654 4.55968 57.1129 4.54364 53.7611 4.56121Z" fill="#696969"/>
<path d="M81.3722 1.21561C82.4861 1.21637 83.6 1.2179 84.714 1.21484C84.7163 1.98192 84.7148 2.74976 84.7148 3.51684C85.7454 3.51761 86.7768 3.51761 87.8083 3.51684C88.9299 3.52601 90.0767 3.59477 91.1302 4.01422C91.9409 4.31907 92.6507 4.91195 93.0403 5.69201C93.3872 6.39033 93.5239 7.17804 93.5262 7.95429C93.53 9.12782 93.53 10.3014 93.527 11.4749C93.527 12.2718 93.3864 13.0816 93.0235 13.7975C92.6698 14.4851 92.0662 15.0284 91.3625 15.3431C90.3471 15.8069 89.2141 15.9108 88.1108 15.9368C86.9785 15.9437 85.8463 15.9383 84.7148 15.9391C84.7155 16.7085 84.7148 17.4771 84.7155 18.2464C83.6 18.238 82.4853 18.251 81.3699 18.2396C81.376 17.4732 81.3683 16.7062 81.3745 15.9398C80.2101 15.936 79.0465 15.946 77.8821 15.9353C76.6597 15.9009 75.3822 15.7672 74.3134 15.1246C73.4661 14.6242 72.8892 13.7395 72.7028 12.7806C72.4675 11.8004 72.566 10.7865 72.5454 9.78947C72.5676 8.57238 72.4331 7.31556 72.851 6.14661C73.1268 5.33522 73.7136 4.63766 74.4738 4.23961C75.6053 3.63145 76.921 3.5306 78.1824 3.51684C79.2459 3.51914 80.3094 3.51531 81.3737 3.51837C81.3699 2.75053 81.3737 1.98345 81.3722 1.21561ZM76.7086 7.09705C76.2868 7.28195 75.9843 7.71667 75.9873 8.1812C75.9812 9.2027 75.9843 10.2234 75.9858 11.2449C75.9774 11.6728 76.2173 12.0915 76.5932 12.297C77.0073 12.5201 77.4856 12.5904 77.9509 12.5896C79.0923 12.5934 80.233 12.5911 81.3745 12.5911C81.3691 10.6796 81.3737 8.76873 81.3722 6.85715C80.2834 6.85562 79.1955 6.85715 78.1075 6.85638C77.6323 6.85486 77.1494 6.91369 76.7086 7.09705ZM84.7155 6.85409C84.714 8.76644 84.7163 10.678 84.714 12.5904C85.7966 12.5927 86.8792 12.5904 87.9618 12.5919C88.5165 12.595 89.1079 12.5491 89.5862 12.2389C89.917 12.0219 90.0965 11.6338 90.0996 11.2434C90.1172 10.351 90.0996 9.45712 90.108 8.56474C90.1042 8.18426 90.1019 7.75793 89.839 7.45385C89.4616 6.99314 88.8237 6.90681 88.2667 6.86403C87.0832 6.84569 85.899 6.86402 84.7155 6.85409Z" fill="#696969"/>
<path d="M123.458 1.63922C125.037 1.07919 126.739 1.24498 128.383 1.21671C132.859 1.21671 137.336 1.21748 141.814 1.21671C141.809 2.32836 141.81 3.44002 141.813 4.55091C137.257 4.54938 132.702 4.55091 128.148 4.55014C127.438 4.55778 126.728 4.53333 126.019 4.56771C125.533 4.61508 125.006 4.706 124.641 5.05898C124.378 5.31493 124.294 5.69465 124.301 6.04992C124.303 8.34046 124.301 10.631 124.302 12.9223C124.308 13.3853 124.237 13.9193 124.56 14.3006C124.981 14.8041 125.693 14.8866 126.309 14.8919C131.492 14.8973 136.675 14.8942 141.858 14.8935C141.862 16.0105 141.857 17.1267 141.86 18.2437C137.266 18.2445 132.672 18.2437 128.077 18.2437C126.555 18.2307 124.984 18.3377 123.518 17.8403C122.805 17.5935 122.125 17.1833 121.674 16.5659C121.073 15.7675 120.886 14.7407 120.872 13.762C120.869 11.6235 120.872 9.48496 120.871 7.34646C120.885 6.44644 120.822 5.54108 120.958 4.64717C121.073 4.05124 121.264 3.45683 121.624 2.96021C122.064 2.32836 122.737 1.88829 123.458 1.63922Z" fill="#696969"/>
<path d="M5.8708 8.19945C6.98703 8.19411 8.10327 8.19869 9.21951 8.19716C9.22256 8.64794 9.21339 9.09871 9.22332 9.54948C9.06059 9.5724 8.89632 9.57317 8.73282 9.56782C8.60523 9.56705 8.47764 9.56629 8.35005 9.56553C8.22246 9.56782 8.09486 9.56705 7.96727 9.564C7.68688 9.57317 7.40724 9.57622 7.12761 9.56247C6.7074 9.56935 6.2849 9.59303 5.86621 9.54184C5.87767 9.09412 5.87003 8.64641 5.8708 8.19945Z" fill="#696969"/>
<path d="M12.0264 8.19782C13.1365 8.19552 14.2474 8.19858 15.3575 8.19629C15.3537 8.65317 15.356 9.11006 15.3567 9.56618C14.854 9.5402 14.3528 9.57764 13.8501 9.56542C13.2465 9.5807 12.6422 9.55854 12.0378 9.57459C12.0172 9.11617 12.0325 8.65699 12.0264 8.19782Z" fill="#696969"/>
<path d="M5.87061 13.2464C6.98684 13.2418 8.10384 13.248 9.22008 13.2441C9.21779 13.7018 9.22008 14.1594 9.21779 14.6179C8.10308 14.6156 6.98837 14.6179 5.87366 14.6163C5.86908 14.1594 5.87366 13.7033 5.87061 13.2464Z" fill="#696969"/>
<path d="M12.0275 13.2437C13.1376 13.2467 14.2477 13.2444 15.3586 13.2452C15.354 13.7021 15.3571 14.159 15.3556 14.6166C14.2485 14.6204 13.1407 14.6128 12.0336 14.6204C12.0221 14.1612 12.0305 13.7028 12.0275 13.2437Z" fill="#696969"/>
<path d="M0.130371 21.9495C47.379 21.948 94.6269 21.9465 141.876 21.9495C141.873 22.4064 141.874 22.8633 141.874 23.3202C94.6269 23.3194 47.379 23.3209 0.131135 23.3194C0.130371 22.8625 0.131899 22.4056 0.130371 21.9495Z" fill="#696969"/>
<path d="M12.9204 27.7275C13.621 27.153 14.5707 26.9268 15.4608 27.0628C16.2386 27.1446 16.9942 27.5533 17.4228 28.218C17.9286 28.9622 17.9744 29.9111 17.83 30.7729C16.2821 30.7867 14.7334 30.7775 13.1855 30.7782C13.2497 31.417 13.7532 31.9281 14.3384 32.1397C15.3638 32.5111 16.5182 32.356 17.4962 31.9143C17.4946 32.3086 17.4969 32.7021 17.4954 33.0963C16.4296 33.5371 15.211 33.6456 14.0917 33.3538C13.1817 33.1093 12.3535 32.4568 12.0258 31.5568C11.7866 30.9784 11.779 30.3389 11.8332 29.7254C11.9295 28.9545 12.31 28.215 12.9204 27.7275ZM13.8441 28.4984C13.4338 28.778 13.1878 29.2601 13.1733 29.7545C14.3148 29.7522 15.4562 29.7568 16.5977 29.7522C16.6382 29.1501 16.3027 28.529 15.732 28.3013C15.12 28.0751 14.3904 28.1294 13.8441 28.4984Z" fill="#696969"/>
<path d="M104.045 27.1217C105.28 26.8436 106.714 27.1645 107.543 28.1676C108.505 29.3519 108.499 31.2329 107.514 32.4011C106.542 33.5234 104.82 33.7916 103.481 33.2316C102.657 32.8931 101.973 32.1895 101.733 31.3231C101.37 30.1373 101.626 28.6971 102.591 27.8613C102.999 27.4915 103.512 27.2523 104.045 27.1217ZM104.424 28.3289C103.95 28.4366 103.511 28.72 103.259 29.1402C102.905 29.7377 102.873 30.5025 103.132 31.1412C103.344 31.6768 103.841 32.0833 104.404 32.1994C104.997 32.3087 105.663 32.2513 106.148 31.8594C107.034 31.1504 107.085 29.6796 106.341 28.8499C105.859 28.3304 105.096 28.2028 104.424 28.3289Z" fill="#696969"/>
<path d="M116.013 27.1776C117.003 26.9102 118.112 26.9843 119.014 27.4947C119.008 27.9149 119.014 28.3359 119.011 28.7561C118.322 28.2809 117.43 28.1373 116.618 28.3214C116.137 28.4413 115.676 28.7149 115.41 29.1419C115.088 29.6493 115.057 30.2918 115.184 30.8648C115.348 31.544 115.943 32.0598 116.612 32.2133C117.446 32.4081 118.335 32.2233 119.081 31.8237C119.077 32.2469 119.078 32.6694 119.078 33.0927C117.836 33.6428 116.299 33.7131 115.11 32.9911C114.38 32.5564 113.879 31.7794 113.762 30.9412C113.661 30.1734 113.719 29.3551 114.097 28.6644C114.486 27.9226 115.217 27.4046 116.013 27.1776Z" fill="#696969"/>
<path d="M0.124512 27.1877C0.582925 27.1846 1.04057 27.1862 1.49899 27.1839C1.50128 28.0136 1.49135 28.8426 1.50434 29.6723C2.52813 29.6708 3.55268 29.6685 4.57723 29.6731C4.5864 28.8441 4.57876 28.0159 4.58105 27.1869C5.03718 27.1846 5.4933 27.1869 5.94942 27.1831C5.95706 29.2391 5.95171 31.2951 5.95247 33.3511C5.49482 33.3495 5.03794 33.3465 4.58105 33.3526C4.57953 32.5229 4.58487 31.6939 4.57876 30.8642C3.55268 30.8672 2.52736 30.8611 1.50204 30.8665C1.49593 31.6947 1.4967 32.5221 1.50128 33.3503C1.04287 33.3488 0.584453 33.3503 0.12604 33.3511C0.122984 31.2966 0.126804 29.2421 0.124512 27.1877Z" fill="#696969"/>
<path d="M25.4485 27.9737C25.4576 27.7071 25.4263 27.4374 25.4859 27.1753C27.0781 27.1952 28.6703 27.1829 30.2626 27.1822C30.2672 28.8577 30.2656 30.5332 30.2633 32.2087C30.5674 32.2186 30.873 32.2163 31.1779 32.214C31.1794 33.1408 31.1802 34.0668 31.1771 34.9935C30.7447 34.989 30.3122 34.9974 29.8798 34.9874C29.8806 34.4419 29.8806 33.8964 29.8821 33.3509C28.2364 33.3471 26.5914 33.3532 24.9457 33.3478C24.9404 33.8933 24.9434 34.4396 24.9457 34.9859C24.5125 35.021 24.0778 34.9767 23.6446 34.9897C23.6438 34.0645 23.6416 33.1393 23.6446 32.214C23.9265 32.2155 24.2085 32.2163 24.4904 32.2148C25.2101 30.9289 25.4362 29.4292 25.4485 27.9737ZM26.7481 28.3152C26.6984 29.6469 26.5143 31.0023 25.9237 32.2125C26.9108 32.2194 27.8979 32.2125 28.885 32.2155C28.8835 30.9152 28.8881 29.6156 28.882 28.3152C28.1707 28.3167 27.4594 28.3183 26.7481 28.3152Z" fill="#696969"/>
<path d="M37.2461 27.1812C38.4372 27.1911 39.6291 27.1796 40.8202 27.1865C41.3627 27.2064 41.9495 27.3492 42.3192 27.7756C42.9855 28.496 42.77 29.8583 41.8234 30.2319C42.2787 30.3633 42.6799 30.7155 42.8097 31.1785C43 31.802 42.8189 32.5667 42.2765 32.9595C41.8593 33.262 41.3283 33.356 40.8225 33.3506C39.6284 33.3445 38.4334 33.3575 37.2393 33.343C37.2522 31.2893 37.2393 29.2348 37.2461 27.1812ZM38.6183 28.2332C38.6183 28.7398 38.6214 29.2455 38.6176 29.7521C39.2242 29.7536 39.8316 29.7559 40.439 29.7528C40.7171 29.7422 41.0502 29.691 41.2084 29.4304C41.4078 29.1027 41.3489 28.6061 41.0212 28.3807C40.8309 28.247 40.591 28.2332 40.3672 28.2317C39.7842 28.2317 39.2013 28.2317 38.6183 28.2332ZM38.6191 30.7354C38.6168 31.2587 38.6237 31.7821 38.616 32.3062C39.2502 32.3062 39.8851 32.31 40.5192 32.3062C40.7958 32.3009 41.1067 32.2672 41.3123 32.0617C41.5522 31.7783 41.5583 31.3298 41.3474 31.028C41.1686 30.8041 40.8684 30.7392 40.5956 30.7384C39.9363 30.7316 39.2777 30.7384 38.6191 30.7354Z" fill="#696969"/>
<path d="M49.0603 27.1852C49.5172 27.183 49.9749 27.1883 50.4318 27.1822C50.4394 28.5253 50.4325 29.8693 50.4348 31.2132C51.5472 29.8792 52.6329 28.5215 53.7415 27.1837C54.1327 27.1852 54.5231 27.1868 54.9143 27.1807C54.9204 29.2374 54.9166 31.2934 54.9166 33.3501C54.4589 33.3486 54.0013 33.3486 53.5444 33.3517C53.5474 32.007 53.5467 30.6623 53.5436 29.3176C52.4465 30.6638 51.3386 32.0009 50.2476 33.3517C49.8511 33.3486 49.4553 33.3486 49.0596 33.3501C49.0657 31.2949 49.0642 29.2397 49.0603 27.1852Z" fill="#696969"/>
<path d="M60.8727 27.1857C61.3724 27.1812 61.8729 27.1873 62.3733 27.1819C62.9341 28.0262 63.4956 28.8696 64.0488 29.7185C64.3108 29.7223 64.5737 29.7215 64.8365 29.7208C64.8334 28.8742 64.8311 28.0269 64.8373 27.1812C65.2941 27.1873 65.7518 27.185 66.2087 27.1834C66.2056 28.0285 66.2087 28.8735 66.2072 29.7192C66.4707 29.7238 66.7351 29.7315 66.9994 29.7162C67.5457 28.8635 68.1157 28.0262 68.6726 27.1812C69.167 27.1888 69.6613 27.1819 70.1556 27.1827C69.4741 28.2111 68.7789 29.231 68.1027 30.2625C68.8721 31.2862 69.633 32.3169 70.3948 33.3468C69.892 33.3506 69.3893 33.3499 68.8866 33.3476C68.2937 32.5217 67.6672 31.7194 67.0659 30.8996C66.7802 30.8974 66.4944 30.8951 66.2087 30.8974C66.2071 31.7149 66.2064 32.5324 66.2094 33.3506C65.7518 33.3491 65.2941 33.3476 64.8365 33.3522C64.8311 32.5339 64.8334 31.7164 64.8357 30.8996C64.55 30.8951 64.2635 30.8951 63.9785 30.9027C63.3665 31.7179 62.7591 32.5362 62.1456 33.3499C61.649 33.3499 61.1524 33.3468 60.6558 33.3514C61.4068 32.3123 62.1762 31.2878 62.944 30.2617C62.261 29.231 61.5657 28.2088 60.8727 27.1857Z" fill="#696969"/>
<path d="M76.3998 27.1845C76.8574 27.1852 77.3158 27.1868 77.7735 27.1807C77.7819 28.5261 77.7742 29.8716 77.7773 31.2162C78.8805 29.8731 79.9738 28.5223 81.0809 27.1822C81.4706 27.1868 81.8602 27.186 82.2506 27.1814C82.2468 29.2374 82.2491 31.2942 82.2491 33.3509C81.7915 33.3479 81.3346 33.3509 80.8777 33.3486C80.8716 32.007 80.8823 30.6646 80.8731 29.3222C79.7821 30.6692 78.6773 32.0047 77.5825 33.3479C77.1875 33.3479 76.7925 33.3524 76.3975 33.3501C76.4066 31.2949 76.4013 29.2397 76.3998 27.1845Z" fill="#696969"/>
<path d="M88.7681 27.185C89.2311 27.1827 89.6941 27.185 90.1578 27.185C90.8004 28.2072 91.4681 29.2142 92.1129 30.2357C92.1588 30.2907 92.1809 30.39 92.2658 30.4007C92.9625 29.3273 93.657 28.2523 94.3569 27.1812C94.8168 27.188 95.2768 27.185 95.7375 27.1827C95.739 29.2379 95.7382 31.2931 95.7375 33.3491C95.2959 33.3522 94.855 33.3445 94.4142 33.3506C94.4081 31.9616 94.4234 30.5726 94.4065 29.1837C93.8335 30.0791 93.2384 30.9592 92.6722 31.8593C92.3956 31.8807 92.1183 31.8761 91.8425 31.8745C91.245 30.9822 90.6819 30.0676 90.0837 29.176C90.086 30.5681 90.0852 31.9601 90.0845 33.3514C89.6452 33.3476 89.2066 33.3506 88.7681 33.3491C88.7696 31.2939 88.7696 29.2394 88.7681 27.185Z" fill="#696969"/>
<path d="M124.89 27.1837C126.761 27.1852 128.632 27.1882 130.503 27.1821C130.507 27.5878 130.509 27.9935 130.504 28.3992C129.798 28.3946 129.093 28.4007 128.388 28.3954C128.386 30.0472 128.386 31.699 128.388 33.3508C127.928 33.3478 127.469 33.3493 127.01 33.3501C127.013 31.699 127.013 30.0472 127.011 28.3962C126.302 28.4007 125.594 28.3946 124.886 28.3985C124.886 27.9935 124.882 27.5886 124.89 27.1837Z" fill="#696969"/>
<path d="M136.377 27.1844C136.832 27.1813 137.288 27.1936 137.744 27.1768C137.763 27.8628 137.748 28.5497 137.752 29.2366C138.473 29.258 139.197 29.2014 139.915 29.2709C140.521 29.3535 141.135 29.617 141.502 30.1251C141.974 30.77 141.991 31.7028 141.562 32.3736C141.29 32.7977 140.839 33.0819 140.361 33.2202C139.772 33.4074 139.148 33.3348 138.541 33.3493C137.819 33.3493 137.098 33.3493 136.377 33.3493C136.378 31.2948 136.378 29.2396 136.377 27.1844ZM137.751 30.3199C137.753 30.9655 137.754 31.6111 137.751 32.2567C138.192 32.2575 138.634 32.2636 139.077 32.2567C139.436 32.2422 139.827 32.2323 140.128 32.0061C140.568 31.6937 140.59 30.9678 140.185 30.6172C139.898 30.3742 139.507 30.3199 139.144 30.3199C138.68 30.3199 138.215 30.3215 137.751 30.3199Z" fill="#696969"/>
</svg>
