<svg width="97" height="60" viewBox="0 0 97 60" fill="none" xmlns="http://www.w3.org/2000/svg">
<path d="M13.3631 43.8302C14.5962 43.5656 15.9438 43.8167 16.9685 44.5632C17.7635 45.1487 18.3859 45.996 18.6137 46.9655C18.8619 47.9641 18.7388 49.0528 18.2472 49.9592C17.5812 51.205 16.2666 52.0736 14.8609 52.2074C13.7567 52.3373 12.6059 52.0504 11.7072 51.394C10.7668 50.7241 10.1085 49.6597 9.9767 48.5089C9.81286 47.3552 10.1832 46.1473 10.9452 45.2709C11.5666 44.5447 12.4285 44.0299 13.3631 43.8302ZM13.7479 44.8899C12.5351 45.1254 11.4852 46.1104 11.2574 47.3387C10.9617 48.6563 11.6355 50.1105 12.8299 50.7377C13.8478 51.2874 15.175 51.235 16.1251 50.5642C17.2041 49.8371 17.7373 48.4042 17.3718 47.1516C16.9675 45.6247 15.3107 44.5457 13.7479 44.8899Z" fill="#696969"/>
<path d="M53.9778 43.8177C55.2546 43.5608 56.6458 43.8555 57.6705 44.6718C58.229 45.1294 58.7069 45.7033 58.9793 46.3771C59.4282 47.4571 59.4069 48.7309 58.8959 49.7848C58.4325 50.7668 57.5658 51.5366 56.5605 51.9321C55.3428 52.4014 53.9167 52.3345 52.7679 51.7053C51.6046 51.0945 50.7359 49.9253 50.5507 48.6185C50.4014 47.6975 50.574 46.728 51.0471 45.9233C51.6588 44.8414 52.7621 44.0629 53.9778 43.8177ZM54.5236 44.855C53.2245 45.0111 52.0554 46.0348 51.8188 47.3368C51.5658 48.4876 52.0292 49.7479 52.9657 50.4624C53.9332 51.2244 55.3554 51.3223 56.4296 50.7261C57.5707 50.0998 58.2445 48.7251 57.9953 47.4396C57.7355 45.8535 56.131 44.6194 54.5236 44.855Z" fill="#696969"/>
<path d="M90.3573 44.6105C91.9918 43.3996 94.2866 43.5295 96.0452 44.4011C96.0268 44.8199 96.0297 45.2397 96.0316 45.6585C95.0457 45.1292 93.9327 44.7336 92.7975 44.8538C91.9259 44.9266 91.0893 45.357 90.5444 46.0453C89.9434 46.7744 89.7679 47.7875 89.9666 48.6978C90.1518 49.6256 90.8343 50.4118 91.6806 50.8103C93.1368 51.4569 94.8421 50.9925 96.1043 50.1268V51.4685C94.7694 52.1617 93.1707 52.4778 91.7068 52.0299C90.1906 51.582 88.9487 50.2635 88.6966 48.6881C88.4077 47.1563 89.0825 45.5063 90.3573 44.6105Z" fill="#696969"/>
<path d="M0.863281 43.8545C1.2055 43.8535 1.54773 43.8545 1.88995 43.8535C2.8856 45.0033 3.86573 46.1667 4.86041 47.3165C5.8483 46.1744 6.82068 45.0169 7.81827 43.8836C8.15467 43.8138 8.51047 43.8719 8.85463 43.8535C8.86142 46.601 8.85463 49.3485 8.85754 52.096C8.47459 52.094 8.09165 52.096 7.70968 52.0911C7.71453 49.9534 7.71453 47.8157 7.70968 45.6781C6.75087 46.7726 5.81049 47.8817 4.86332 48.9849C3.90645 47.8904 2.98351 46.7658 2.01017 45.6868C2.01501 47.8216 2.01017 49.9573 2.01308 52.093C1.63014 52.096 1.24816 52.095 0.866193 52.093C0.865223 49.3465 0.871037 46.601 0.863281 43.8545Z" fill="#696969"/>
<path d="M19.8447 52.0862C19.867 49.3387 19.8312 46.5903 19.8622 43.8438C20.2529 43.8612 20.6445 43.8438 21.0362 43.868C21.0188 45.0973 21.0411 46.3275 21.0236 47.5568C22.1811 46.3304 23.3212 45.0866 24.4759 43.8573C24.9703 43.8525 25.4657 43.8564 25.9621 43.8534C24.7638 45.1293 23.5966 46.4342 22.378 47.6896C23.7662 49.1865 25.2321 50.6136 26.6427 52.092C26.0871 52.0939 25.5326 52.1017 24.979 52.0862C23.6799 50.7115 22.3431 49.3726 21.0255 48.0163C21.0333 49.3755 21.0294 50.7347 21.0294 52.0939C20.6339 52.092 20.2393 52.1007 19.8447 52.0862Z" fill="#696969"/>
<path d="M32.1561 43.8697C32.4489 43.8687 32.764 43.8028 33.0451 43.8871C34.256 46.6191 35.4504 49.3598 36.6574 52.0937C36.2483 52.0947 35.8391 52.0937 35.432 52.0956C35.082 51.2832 34.7291 50.4718 34.3704 49.6632C33.2002 49.6642 32.0311 49.6671 30.8619 49.6623C30.5032 50.4727 30.1687 51.2939 29.7993 52.0995C29.3989 52.0898 28.9995 52.0937 28.6011 52.0966C29.7809 49.352 30.9898 46.6201 32.1561 43.8697ZM32.572 45.6719C32.1581 46.6491 31.7354 47.6225 31.3243 48.6007C32.1804 48.6046 33.0364 48.6104 33.8924 48.5997C33.4358 47.6312 33.0635 46.622 32.572 45.6719Z" fill="#696969"/>
<path d="M37.0346 43.8525C37.8819 43.8584 38.7293 43.8477 39.5766 43.8574C40.1999 43.8729 40.8602 44.0067 41.3497 44.4177C41.9915 44.9519 42.1495 45.902 41.9101 46.6718C41.754 47.1798 41.3013 47.5191 40.8272 47.7091C41.3594 47.8729 41.8985 48.1075 42.2494 48.5603C42.9086 49.3814 42.8127 50.7251 42.0061 51.4173C41.4525 51.9079 40.6915 52.0863 39.9682 52.0901C38.9881 52.0989 38.008 52.093 37.0288 52.094C37.0424 49.3465 37.0298 46.6 37.0346 43.8525ZM38.2009 44.9141C38.1999 45.7391 38.1999 46.5641 38.2019 47.3901C38.8533 47.3756 39.5465 47.4561 40.1563 47.171C40.992 46.7978 41.0133 45.2777 40.0817 45.0188C39.4709 44.8424 38.8262 44.9364 38.2009 44.9141ZM38.2019 48.4682C38.2009 49.3194 38.1961 50.1706 38.2048 51.0218C39.0288 50.982 39.881 51.1245 40.6847 50.8899C41.6784 50.6214 41.6803 48.9665 40.7244 48.6456C39.9159 48.3557 39.0405 48.507 38.2019 48.4682Z" fill="#696969"/>
<path d="M42.9819 43.8565C45.3949 43.8565 47.8089 43.8516 50.2219 43.8594C50.2181 44.2132 50.2181 44.5681 50.2229 44.9229C49.2098 44.9355 48.1967 44.9161 47.1836 44.9336C47.1914 47.3214 47.1885 49.7092 47.1856 52.096C46.7929 52.0941 46.4013 52.096 46.0096 52.0902C46.0212 49.7024 46.0115 47.3146 46.0144 44.9268C45.0042 44.9258 43.9931 44.9277 42.9829 44.9258C42.9839 44.569 42.9829 44.2123 42.9819 43.8565Z" fill="#696969"/>
<path d="M59.5698 43.8557C61.9828 43.8576 64.3958 43.8508 66.8089 43.8596C66.8079 44.2144 66.8069 44.5702 66.8098 44.925C65.7987 44.9289 64.7875 44.926 63.7764 44.9269C63.7793 47.3148 63.7715 49.7026 63.7802 52.0904C63.3866 52.0981 62.993 52.0972 62.5994 52.0923C62.6081 49.7045 62.6014 47.3157 62.6033 44.9279C61.5931 44.925 60.582 44.9289 59.5718 44.925C59.5737 44.5692 59.5737 44.2124 59.5698 43.8557Z" fill="#696969"/>
<path d="M67.5331 43.8623C68.364 43.8448 69.1948 43.8584 70.0257 43.8535C70.6713 43.8526 71.3509 43.9476 71.8996 44.314C73.2036 45.141 73.1696 47.396 71.8066 48.1502C70.8671 48.7067 69.7367 48.5051 68.6994 48.5467C68.7033 49.7285 68.7004 50.9113 68.7014 52.094C68.3107 52.096 67.9219 52.096 67.5331 52.0911C67.5331 49.3485 67.5322 46.6049 67.5331 43.8623ZM68.7004 44.92C68.7043 45.7799 68.6975 46.6398 68.7033 47.4997C69.4294 47.4706 70.1798 47.5841 70.8875 47.3698C71.2869 47.2603 71.5661 46.8783 71.5933 46.4711C71.6699 45.9602 71.5429 45.3077 71.0106 45.0945C70.2758 44.8104 69.4682 44.9393 68.7004 44.92Z" fill="#696969"/>
<path d="M72.0264 52.0988C73.2227 49.3465 74.3996 46.5854 75.6182 43.8438C75.8936 43.8564 76.1709 43.8573 76.4491 43.8457C77.6745 46.5893 78.8679 49.3474 80.0846 52.0949C79.6755 52.0959 79.2683 52.0939 78.8611 52.0959C78.5073 51.2844 78.1534 50.474 77.7967 49.6644C76.6275 49.6654 75.4573 49.6644 74.2881 49.6644C73.9343 50.4749 73.5843 51.2873 73.2324 52.0978C72.8301 52.091 72.4277 52.0939 72.0264 52.0988ZM76.0012 45.6547C75.5911 46.6407 75.1665 47.6198 74.7486 48.6019C75.6037 48.6077 76.4598 48.6019 77.3168 48.6068C76.8679 47.6276 76.4762 46.6213 76.0012 45.6547Z" fill="#696969"/>
<path d="M80.459 43.8525C80.8487 43.8574 81.2394 43.8535 81.6301 43.8574C81.6223 45.0372 81.6311 46.2171 81.6253 47.3969C83.2123 47.4037 84.7983 47.3989 86.3844 47.3998C86.3892 46.218 86.3834 45.0363 86.3873 43.8545C86.777 43.8554 87.1677 43.8516 87.5594 43.8593C87.5565 46.6049 87.5584 49.3504 87.5584 52.0959C87.1667 52.095 86.7761 52.095 86.3873 52.0959C86.3863 50.9016 86.3863 49.7081 86.3873 48.5138C84.8012 48.5147 83.2152 48.5128 81.6291 48.5147C81.6272 49.7062 81.6233 50.8986 81.6311 52.0901C81.2394 52.0959 80.8487 52.0959 80.459 52.094C80.4609 49.3465 80.46 46.6 80.459 43.8525Z" fill="#696969"/>
<path d="M60.4577 55.832C60.5682 55.8611 60.6729 55.896 60.7883 55.9299C60.7728 57.2581 60.7834 58.5863 60.7825 59.9145C60.5168 59.9164 60.2522 59.9154 59.9885 59.9087C60.0175 58.9489 59.9342 57.9833 60.0815 57.0293C59.7703 57.7768 59.3476 58.4661 58.9492 59.1689C58.8852 59.1709 58.7582 59.1748 58.6942 59.1777C58.2909 58.468 57.7926 57.8059 57.5347 57.0235C57.6559 57.9833 57.6307 58.9518 57.6113 59.9174C57.3651 59.9154 57.1208 59.9145 56.8765 59.9145C56.8765 58.5776 56.8784 57.2416 56.8765 55.9047C57.115 55.9018 57.3554 55.9009 57.5958 55.9018C58.0156 56.6687 58.5401 57.3832 58.861 58.2004C59.176 57.3958 59.6559 56.6726 60.0641 55.9154C60.194 55.8931 60.3278 55.8757 60.4577 55.832Z" fill="#696969"/>
<path d="M0.780153 55.9012C1.8233 55.8974 2.86646 55.8993 3.91058 55.9003C3.91252 56.1329 3.91251 56.3666 3.91154 56.5993C3.52569 56.6012 3.14081 56.6012 2.75593 56.5964C2.72103 57.7035 2.76757 58.8126 2.7317 59.9207C2.47673 59.9158 2.22175 59.9139 1.96678 59.9187C1.9377 58.8116 1.96485 57.7045 1.95225 56.5983C1.56058 56.6022 1.16891 56.6022 0.778212 56.5993C0.777243 56.3666 0.778214 56.1339 0.780153 55.9012Z" fill="#696969"/>
<path d="M4.72556 55.935C5.40806 55.8584 6.13226 55.7489 6.79247 55.998C7.71056 56.3354 7.76582 57.7848 6.96794 58.284C6.54331 58.5797 5.99847 58.5594 5.50598 58.5468C5.50792 59.0024 5.50501 59.4581 5.51276 59.9147C5.2481 59.9147 4.98441 59.9137 4.72168 59.9108C4.72362 58.5855 4.71877 57.2603 4.72556 55.935ZM5.50792 56.5361C5.50598 56.9801 5.50695 57.4241 5.50889 57.8681C5.77743 57.8691 6.05761 57.8904 6.31452 57.7935C6.78568 57.6161 6.8293 56.8318 6.37171 56.6127C6.10123 56.4857 5.79488 56.5273 5.50792 56.5361Z" fill="#696969"/>
<path d="M9.06122 55.8836C9.25414 55.8739 9.44804 55.8672 9.64194 55.8623C10.1267 57.2128 10.624 58.5594 11.0864 59.9176C10.8131 59.9157 10.5406 59.9137 10.2692 59.9127C10.1635 59.618 10.054 59.3253 9.9512 59.0296C9.5382 59.017 9.12521 59.0247 8.71318 59.0228C8.61139 59.3223 8.50766 59.6209 8.40005 59.9186C8.13926 59.9157 7.87847 59.9147 7.61865 59.9166C8.10145 58.5729 8.58715 57.2302 9.06122 55.8836ZM8.91483 58.3955C9.19889 58.3955 9.48391 58.3965 9.76894 58.4004C9.61188 57.9127 9.44416 57.429 9.35594 56.9239C9.19695 57.4086 9.10097 57.9156 8.91483 58.3955Z" fill="#696969"/>
<path d="M11.8438 55.9011C12.1046 55.9001 12.3664 55.8992 12.6281 55.8992C12.6311 56.444 12.6272 56.9889 12.6301 57.5337C13.1187 57.5337 13.6073 57.5356 14.0959 57.525C14.0988 56.983 14.094 56.4401 14.0998 55.8982C14.3596 55.8972 14.6204 55.8992 14.8822 55.903C14.8899 57.237 14.8773 58.571 14.8889 59.905C14.6262 59.9157 14.3635 59.9176 14.1017 59.9157C14.0872 59.3544 14.1124 58.7911 14.0833 58.2298C13.5996 58.2346 13.1158 58.2346 12.633 58.2337C12.6214 58.795 12.6369 59.3563 12.6243 59.9176C12.3693 59.9137 12.1143 59.9147 11.8613 59.9234C11.8157 58.5836 11.8506 57.2409 11.8438 55.9011Z" fill="#696969"/>
<path d="M16.4896 56.2358C17.0762 55.7239 17.9419 55.753 18.6467 55.9682C18.5934 56.1873 18.5439 56.4064 18.4964 56.6265C18.0592 56.5092 17.5376 56.4268 17.144 56.705C16.7853 56.9512 16.699 57.4205 16.6845 57.8267C16.6738 58.2881 16.7659 58.8262 17.1741 59.1073C17.5774 59.3865 18.1174 59.3119 18.5459 59.1287C18.6011 59.3429 18.6525 59.5562 18.7039 59.7724C18.0592 60.0574 17.2575 60.0981 16.6418 59.72C16.1106 59.3759 15.8798 58.7234 15.8604 58.1146C15.8188 57.4428 15.9574 56.6963 16.4896 56.2358Z" fill="#696969"/>
<path d="M19.5964 55.899C20.5881 55.9029 21.5809 55.8932 22.5726 55.9029C22.5707 57.2398 22.5678 58.5767 22.5746 59.9136C22.3109 59.9146 22.0472 59.9136 21.7845 59.9117C21.7864 58.8103 21.7825 57.71 21.7874 56.6087C21.3211 56.5932 20.8557 56.6048 20.3904 56.597C20.3613 57.7032 20.3904 58.8103 20.3758 59.9165C20.1189 59.9136 19.863 59.9146 19.608 59.9204C19.5741 58.5806 19.5954 57.2388 19.5964 55.899Z" fill="#696969"/>
<path d="M24.6688 55.9001C25.2776 55.7285 26.026 55.8167 26.4613 56.315C26.8084 56.696 26.915 57.2253 26.9412 57.7236C26.9606 58.2607 26.9063 58.8288 26.6145 59.2932C26.0376 60.2423 24.4245 60.2336 23.8573 59.2787C23.5112 58.697 23.5035 57.9844 23.581 57.331C23.6508 56.7086 24.0415 56.0804 24.6688 55.9001ZM24.883 56.601C24.5447 56.7736 24.4167 57.1672 24.3847 57.521C24.345 57.9999 24.3459 58.5196 24.5999 58.9452C24.8442 59.3843 25.5461 59.4105 25.8467 59.0179C26.0832 58.7067 26.1094 58.2976 26.1181 57.9214C26.1142 57.5239 26.0696 57.0886 25.8089 56.7687C25.5907 56.4963 25.1835 56.4604 24.883 56.601Z" fill="#696969"/>
<path d="M27.9097 55.9381C28.6116 55.8538 29.361 55.7442 30.0357 56.0195C30.9567 56.4132 30.9247 57.9362 30.0415 58.355C29.6266 58.5751 29.1448 58.5567 28.691 58.5518C28.7027 59.0065 28.6959 59.4602 28.7007 59.9149C28.4351 59.9188 28.1714 59.9178 27.9077 59.9091C27.9145 58.5857 27.9097 57.2614 27.9097 55.9381ZM28.6978 56.5392C28.6969 56.9813 28.6988 57.4233 28.6969 57.8654C28.9867 57.8703 29.295 57.9003 29.5655 57.7665C29.9921 57.5445 29.994 56.798 29.5413 56.6041C29.2756 56.4868 28.978 56.5256 28.6978 56.5392Z" fill="#696969"/>
<path d="M31.268 55.8989C32.3122 55.8979 33.3572 55.9018 34.4023 55.897C34.4062 56.1316 34.4062 56.3652 34.4052 56.5998C34.0126 56.6008 33.6209 56.5979 33.2293 56.6047C33.2399 57.707 33.2351 58.8093 33.2341 59.9115C32.9714 59.9145 32.7087 59.9154 32.4479 59.9135C32.4479 58.8141 32.4411 57.7147 32.4537 56.6154C32.064 56.5901 31.6743 56.595 31.2855 56.6115C31.27 56.3749 31.2661 56.1364 31.268 55.8989Z" fill="#696969"/>
<path d="M35.2244 55.8989C35.4804 55.8989 35.7373 55.8989 35.9961 55.8989C36.0029 56.4399 36.0039 56.9818 36 57.5237C36.4896 57.5344 36.9791 57.5334 37.4697 57.5334C37.4736 56.9876 37.4687 56.4428 37.4726 55.897C37.7324 55.8989 37.9923 55.8999 38.254 55.9008C38.2637 57.2377 38.2559 58.5747 38.2588 59.9115C37.9932 59.9174 37.7286 59.9154 37.4658 59.9057C37.4755 59.3493 37.4707 58.7928 37.4707 58.2363C36.9791 58.2344 36.4876 58.2295 35.9971 58.2353C36.0039 58.7937 36.001 59.3522 36.0039 59.9115C35.7402 59.9135 35.4774 59.9145 35.2157 59.9145C35.2166 58.5756 35.2021 57.2368 35.2244 55.8989Z" fill="#696969"/>
<path d="M40.4557 55.8701C40.6487 55.8701 40.8426 55.8701 41.0374 55.8721C41.5144 57.2216 42.0069 58.5662 42.481 59.9167C42.2047 59.9147 41.9284 59.9147 41.654 59.9167C41.5483 59.6152 41.4446 59.3137 41.3225 59.019C40.9153 59.0257 40.5091 59.0238 40.1029 59.0199C39.9991 59.3137 39.8993 59.6094 39.8043 59.906C39.5396 59.9147 39.2749 59.9167 39.0122 59.9177C39.4843 58.5652 39.9778 57.2206 40.4557 55.8701ZM40.7098 56.9026C40.6399 57.4184 40.4596 57.906 40.3055 58.4004C40.5905 58.3995 40.8775 58.3966 41.1644 58.3936C40.9735 57.9079 40.8629 57.399 40.7098 56.9026Z" fill="#696969"/>
<path d="M43.7537 56.0758C44.4032 55.7501 45.1652 55.8354 45.8613 55.9256C45.8603 57.2586 45.8729 58.5906 45.8545 59.9237C45.5957 59.9159 45.3387 59.914 45.0818 59.912C45.076 59.3837 45.0789 58.8563 45.0789 58.3279C44.9393 58.3638 44.7997 58.3996 44.6621 58.4355C44.3848 58.9309 44.1066 59.4273 43.8167 59.9159C43.5161 59.9169 43.2175 59.9188 42.9199 59.9062C43.299 59.3837 43.5103 58.7089 44.0619 58.3337C43.0682 58.102 42.8831 56.5664 43.7537 56.0758ZM44.1114 56.8243C43.9611 57.0976 44.0018 57.5126 44.2801 57.6929C44.5195 57.8374 44.8094 57.8102 45.0799 57.8131C45.078 57.3962 45.076 56.9794 45.0818 56.5635C44.7483 56.5373 44.315 56.4946 44.1114 56.8243Z" fill="#696969"/>
<path d="M48.8172 55.9011C49.0771 55.9011 49.3378 55.9011 49.6006 55.9011C49.6025 56.4847 49.5977 57.0684 49.6025 57.652C49.7024 57.6365 49.7809 57.589 49.84 57.5075C50.2075 56.9918 50.5138 56.4343 50.889 55.9253C51.1847 55.8711 51.4911 55.9089 51.7926 55.8963C51.4368 56.4091 51.079 56.9191 50.7242 57.4319C50.6263 57.5822 50.477 57.6849 50.3354 57.7877C50.5129 57.9409 50.6903 58.0989 50.8211 58.2957C51.1983 58.8357 51.589 59.367 51.9632 59.9099C51.6423 59.9157 51.3224 59.9157 51.0034 59.9205C50.6088 59.3524 50.2094 58.7882 49.8274 58.2123C49.7702 58.2123 49.6568 58.2123 49.5996 58.2123C49.6035 58.7775 49.5967 59.3437 49.6015 59.9099C49.3427 59.9137 49.0848 59.9176 48.8279 59.9244C48.7988 58.5836 48.8221 57.2419 48.8172 55.9011Z" fill="#696969"/>
<path d="M53.4977 55.9463C53.9514 55.7748 54.473 55.7757 54.9258 55.9531C55.5084 56.1994 55.8254 56.8305 55.8787 57.4345C55.9466 58.0753 55.9156 58.7762 55.5559 59.3317C55.0499 60.1063 53.8574 60.1965 53.1507 59.6584C52.5622 59.1708 52.474 58.3361 52.5127 57.6226C52.5389 56.9536 52.8404 56.2149 53.4977 55.9463ZM53.8671 56.592C53.5055 56.7481 53.3862 57.1708 53.3504 57.5285C53.3097 58.0288 53.3087 58.5862 53.6141 59.0118C53.9078 59.4219 54.6097 59.3715 54.8676 58.9459C55.0654 58.6085 55.0828 58.2013 55.0828 57.8203C55.0683 57.4587 55.0208 57.0671 54.7842 56.7772C54.5729 56.5057 54.1676 56.4602 53.8671 56.592Z" fill="#696969"/>
<path d="M61.8847 55.897C62.8746 55.9028 63.8644 55.895 64.8542 55.9018C64.8484 57.2397 64.8533 58.5785 64.8504 59.9174C64.5867 59.9164 64.3239 59.9135 64.0622 59.9057C64.068 58.8034 64.0641 57.7012 64.0641 56.5979C63.5978 56.6018 63.1315 56.6037 62.6661 56.594C62.6477 57.7012 62.6642 58.8073 62.6574 59.9145C62.3947 59.9145 62.132 59.9145 61.8712 59.9115C61.8789 58.5737 61.8557 57.2348 61.8847 55.897Z" fill="#696969"/>
<path d="M67.0368 55.8778C67.2288 55.872 67.4217 55.8691 67.6166 55.8662C68.111 57.2118 68.5919 58.5633 69.0659 59.9167C68.7906 59.9176 68.5163 59.9167 68.2438 59.9147C68.1401 59.6171 68.0315 59.3224 67.9278 59.0257C67.5138 59.0218 67.0999 59.0218 66.6869 59.0247C66.587 59.3214 66.4842 59.6181 66.3854 59.9157C66.1217 59.9176 65.8589 59.9167 65.5981 59.9118C66.0751 58.5662 66.5686 57.2264 67.0368 55.8778ZM66.8934 58.3936C67.1774 58.3936 67.4634 58.3946 67.7504 58.3994C67.5933 57.9147 67.413 57.4358 67.3403 56.9287C67.1658 57.4048 67.0824 57.9176 66.8934 58.3936Z" fill="#696969"/>
<path d="M69.8228 55.9009C70.0826 55.899 70.3434 55.899 70.6061 55.9C70.609 56.4419 70.5955 56.9838 70.6139 57.5258C71.0986 57.5393 71.5843 57.5316 72.07 57.5326C72.0739 56.9887 72.07 56.4438 72.0749 55.9C72.3357 55.898 72.5984 55.8971 72.8611 55.899C72.8572 57.2369 72.8601 58.5747 72.8592 59.9126C72.5955 59.9165 72.3318 59.9155 72.07 59.9087C72.0739 59.3503 72.072 58.7929 72.0729 58.2354C71.5824 58.2325 71.0918 58.2296 70.6022 58.2393C70.6003 58.7987 70.6158 59.3571 70.5984 59.9165C70.3434 59.9126 70.0894 59.9155 69.8373 59.9233C69.7966 58.5835 69.8257 57.2417 69.8228 55.9009Z" fill="#696969"/>
<path d="M73.9594 55.8999C74.2202 55.8999 74.4829 55.9018 74.7457 55.9047C74.7389 56.8131 74.7641 57.7225 74.7098 58.629C75.1907 57.6537 75.9119 56.8267 76.483 55.9057C76.6836 55.8999 76.8853 55.8989 77.0889 55.9018C77.085 57.2387 77.0869 58.5766 77.0879 59.9145C76.8223 59.9184 76.5576 59.9164 76.2939 59.9019C76.3133 58.9935 76.2765 58.0841 76.3259 57.1767C75.8198 58.1442 75.1393 59.0061 74.545 59.9203C74.3463 59.9164 74.1504 59.9135 73.9546 59.9087C73.9614 58.5718 73.9536 57.2358 73.9594 55.8999Z" fill="#696969"/>
<path d="M78.7417 56.0592C79.3874 55.7587 80.1368 55.8217 80.8193 55.9399C80.8125 57.2652 80.8202 58.5905 80.8154 59.9157C80.5527 59.9148 80.2899 59.9148 80.0291 59.9138C80.0311 59.3864 80.0272 58.859 80.034 58.3316C79.8983 58.3627 79.7625 58.3937 79.6297 58.4237C79.336 58.9123 79.0626 59.4126 78.7902 59.9138C78.4828 59.9157 78.1775 59.9167 77.8721 59.9167C78.2414 59.3835 78.4683 58.7175 79.0151 58.3326C78.0039 58.1057 77.8352 56.5197 78.7417 56.0592ZM79.1256 56.7388C78.89 57.017 78.9317 57.5124 79.2594 57.7054C79.4921 57.8411 79.7703 57.8081 80.0301 57.8188C80.0301 57.3971 80.0321 56.9753 80.0282 56.5536C79.7238 56.5527 79.3622 56.5013 79.1256 56.7388Z" fill="#696969"/>
<path d="M59.2713 0.00146484H60.361C62.9679 0.116832 65.5631 0.726629 67.9054 1.88902C71.0581 3.41885 73.7794 5.84058 75.6204 8.82655C76.6578 10.4873 77.4304 12.3118 77.919 14.2081C78.906 18.1984 78.5385 22.5145 76.8633 26.2712C75.443 29.5257 73.0785 32.3711 70.1012 34.3149C67.2723 36.1879 63.9315 37.2601 60.5442 37.423H59.1772C56.2863 37.2941 53.4128 36.5282 50.8815 35.1147C51.9469 35.6043 53.024 36.0774 54.1564 36.3925C59.5301 38.027 65.6184 36.9984 70.1749 33.7206C73.124 31.612 75.4314 28.6183 76.7033 25.2222C78.1304 21.4878 78.2564 17.2784 77.0795 13.4597C76.0189 9.95502 73.8967 6.77031 71.0261 4.49011C67.44 1.61951 62.7614 0.137191 58.1758 0.479414C54.2989 0.758621 50.5228 2.28845 47.5484 4.78871C46.0981 5.99376 44.8727 7.44894 43.8257 9.01172C45.1684 6.7005 47.0695 4.73151 49.2683 3.22205C52.2029 1.21427 55.724 0.115862 59.2713 0.00146484Z" fill="#696969"/>
<path d="M29.8732 19.0796C33.0075 18.0267 36.2154 17.2066 39.3459 16.1411C39.2945 16.5367 39.2479 16.9332 39.2237 17.3307C37.374 17.7504 35.562 18.3147 33.7326 18.811C29.7946 19.8503 25.8547 20.8809 21.9061 21.8765C20.9608 22.0966 20.0282 22.3709 19.0771 22.5658C19.5919 22.2565 20.1707 22.0743 20.7446 21.9114C23.8111 21.0457 26.8416 20.0607 29.8732 19.0796Z" fill="#696969"/>
<path d="M35.1897 22.5272C36.6119 22.2489 38.0302 21.9503 39.4573 21.7002C39.529 22.057 39.6104 22.4108 39.6851 22.7676C38.671 22.9334 37.6608 23.1195 36.6477 23.2853C35.6201 23.4414 34.5857 23.5451 33.5561 23.6779C32.512 23.8456 31.4805 24.0909 30.4305 24.2247C29.3738 24.3691 28.3083 24.4574 27.2584 24.6484C25.1488 25.0012 23.048 25.4036 20.9316 25.7157C20.3791 25.7875 19.8255 25.9455 19.2642 25.8631C19.9903 25.5422 20.7891 25.4249 21.5637 25.2717C26.1067 24.3585 30.6496 23.453 35.1897 22.5272Z" fill="#696969"/>
<path d="M58.4457 0.82442C58.7452 0.822481 59.0564 0.760435 59.3482 0.855443C59.9522 1.05128 60.5581 1.24323 61.1379 1.50208C61.2717 1.57091 61.4239 1.54086 61.5673 1.5331C62.5746 1.43713 63.5887 1.57091 64.5708 1.79195C66.0414 2.14387 67.4598 2.75076 68.6881 3.63782C69.3289 4.11771 69.9513 4.65964 70.3478 5.36542C70.4428 5.52344 70.5088 5.72024 70.6939 5.79683C71.1874 6.06538 71.6615 6.36688 72.1317 6.6742C72.8811 7.09883 73.5025 7.70572 74.1142 8.30582C74.3236 8.51717 74.5825 8.71106 74.6571 9.01644C74.8132 9.55062 74.9063 10.1129 74.8598 10.6704C74.8026 10.9069 75.011 11.0717 75.1225 11.254C75.5655 11.9006 76.0532 12.5502 76.2248 13.3316L76.2034 13.412C76.0813 13.1328 75.9649 12.8429 75.7575 12.6141C75.4191 12.1362 75.1196 11.6311 74.788 11.1473C74.6629 11.4692 74.5389 11.7979 74.3304 12.0771C74.2354 12.2157 74.0948 12.3427 74.1103 12.5259C74.0716 12.5443 73.994 12.5802 73.9552 12.5977L73.931 12.5589C72.9722 11.0678 71.8612 9.67084 70.5689 8.45318C70.3808 8.29419 70.2257 8.07509 70.0027 7.96942C69.6896 8.14101 69.3755 8.31552 69.0303 8.41537C70.1578 9.79105 71.1796 11.2627 71.9969 12.8449C71.9552 12.8788 71.8709 12.9457 71.8292 12.9796C70.9741 11.3771 69.9494 9.86667 68.786 8.4716C68.2926 8.57824 67.7894 8.61702 67.2872 8.62672C67.992 10.1313 68.6096 11.6776 69.0924 13.2685C69.0992 13.2918 69.1127 13.3383 69.1185 13.3616C69.0584 13.3529 68.9382 13.3364 68.8781 13.3277C68.8723 13.3102 68.8616 13.2744 68.8558 13.2569C68.3808 11.6689 67.7429 10.1352 67.0497 8.63156C66.4302 8.57049 65.8097 8.50553 65.2 8.37078C65.2911 9.51378 65.3609 10.6587 65.3977 11.8046C65.3415 11.7775 65.229 11.7222 65.1728 11.6951C65.1205 10.5686 65.0662 9.4401 64.9663 8.31649C64.4428 8.18464 63.9261 8.02661 63.4258 7.82593C63.2901 8.19821 63.1786 8.58018 63.0235 8.9447L63.0128 8.96312C62.9139 9.06007 62.8083 9.14926 62.7007 9.23651C62.8548 8.73433 63.0458 8.24475 63.2145 7.74741C62.7084 7.54382 62.2295 7.28303 61.7506 7.02418C60.8965 7.90834 60.0831 8.82837 59.2775 9.75615C59.2687 9.76585 59.2513 9.78523 59.2426 9.79493C59.1912 9.77748 59.0884 9.74258 59.037 9.72513C59.8175 8.74015 60.6909 7.82303 61.5509 6.90397C61.0652 6.60149 60.6027 6.26121 60.1849 5.87148C58.4292 6.66936 56.7287 7.60199 55.1601 8.7256C55.3579 9.01838 55.6604 9.22003 55.9018 9.47597L55.6924 9.51572C55.671 9.52057 55.6274 9.52929 55.6061 9.53414C55.3928 9.30438 55.1669 9.08625 54.942 8.86715C54.6279 9.10176 54.3147 9.33831 53.9958 9.5671C53.8533 9.67084 53.7117 9.77554 53.5712 9.88218C53.48 9.89963 53.2978 9.93356 53.2066 9.95101C53.6846 9.47694 54.2469 9.10176 54.7869 8.70427C54.2023 8.03243 53.6526 7.31696 53.2919 6.49485C52.1286 7.02031 50.9972 7.62138 49.9376 8.33491L49.9017 8.3572C49.8503 8.32521 49.7476 8.26026 49.6952 8.22826C49.9415 8.10805 50.1664 7.94906 50.3806 7.7794C51.2832 7.20644 52.2391 6.72171 53.2134 6.28448C53.0137 5.72606 52.9129 5.13759 52.9323 4.54428C51.227 5.04646 49.5895 5.77744 48.0801 6.71783C48.0374 6.91269 48.1043 7.22583 47.8096 7.2142C47.8125 7.13082 47.8193 6.96408 47.8232 6.8807C47.1242 7.34411 46.4494 7.84145 45.8105 8.38435L45.764 8.42216C45.6108 8.55982 45.4189 8.64805 45.2095 8.64514C45.86 7.96554 46.6404 7.4207 47.4111 6.88458C47.5827 6.74498 47.8794 6.66936 47.8833 6.40469C48.0161 5.82786 48.0752 5.093 48.6676 4.79052C48.4165 5.31404 48.1896 5.855 48.0985 6.43281C49.6225 5.51666 51.259 4.78858 52.9672 4.29512C53.0467 3.79875 53.2658 3.34407 53.5353 2.92429C52.2333 3.1589 50.9642 3.54766 49.7398 4.04694C50.115 3.80942 50.4873 3.56027 50.8925 3.37413C51.7776 3.07165 52.6899 2.84964 53.6109 2.68289C53.8019 2.66447 53.9124 2.48997 54.051 2.37848C54.4931 1.94513 55.069 1.70082 55.6177 1.43519C55.8436 1.34503 56.0763 1.22675 56.3264 1.24905C57.5508 1.35472 58.7598 1.60581 59.9357 1.96161C60.2411 1.82104 60.562 1.71536 60.8819 1.6126C60.087 1.3014 59.2745 1.03383 58.4457 0.82442ZM56.0734 1.50499C55.3821 1.74445 54.689 2.05953 54.1703 2.58983C55.8417 2.3494 57.544 2.34649 59.2193 2.56171C59.3579 2.41047 59.5053 2.26602 59.6546 2.12448C58.5979 1.79583 57.5043 1.61066 56.4088 1.473C56.2934 1.4507 56.181 1.46136 56.0734 1.50499ZM61.7389 1.77547C62.6202 2.24663 63.4607 2.79923 64.1752 3.50307C63.8718 2.87291 63.4685 2.28541 62.9605 1.80455C62.562 1.72409 62.1442 1.76771 61.7389 1.77547ZM60.3293 2.09055C61.6342 2.50839 62.8819 3.09007 64.0695 3.77064C63.3085 2.91557 62.308 2.31643 61.2901 1.81522C60.9634 1.88308 60.6318 1.94513 60.3293 2.09055ZM63.3153 1.822C63.8136 2.40272 64.2576 3.04063 64.5194 3.76482C64.721 3.24907 64.8422 2.70616 65.0284 2.18556C64.4728 2.00136 63.8931 1.90344 63.3153 1.822ZM59.5256 2.60049C60.6541 2.77887 61.7641 3.0542 62.8538 3.39545C61.9629 2.88842 60.9837 2.55395 60.0152 2.2224C59.8456 2.34067 59.6827 2.4667 59.5256 2.60049ZM65.2455 2.235C65.0759 2.77693 64.9062 3.31887 64.7491 3.86565C65.5111 3.38576 66.4021 3.11625 67.2969 3.05226C66.626 2.74688 65.9523 2.44731 65.2455 2.235ZM53.8707 2.86709C53.5518 3.26264 53.3181 3.72508 53.2134 4.22241C55.0622 3.72895 56.9721 3.47107 58.8858 3.45265C58.9188 3.22386 58.9721 2.99797 59.0642 2.78469C57.3424 2.54523 55.5857 2.59564 53.8707 2.86709ZM59.3473 2.81862C59.2619 3.02221 59.196 3.23355 59.1543 3.44975C60.5465 3.45265 61.9396 3.57481 63.3095 3.82299C62.0385 3.32565 60.7006 2.997 59.3473 2.81862ZM65.2222 3.87922C66.469 3.75125 67.7264 3.88504 68.944 4.16231C68.5262 3.78809 68.0424 3.49919 67.5625 3.21223C66.7647 3.33535 65.9174 3.43714 65.2222 3.87922ZM53.1679 4.48417C53.133 5.06391 53.2212 5.6456 53.4248 6.19044C55.2532 5.41486 57.1708 4.8516 59.1282 4.51325C59.0157 4.2515 58.9323 3.97714 58.8974 3.69405C56.9653 3.69502 55.0273 3.95484 53.1679 4.48417ZM59.1495 3.68727C59.1989 3.95096 59.2794 4.20593 59.3744 4.45606C60.2653 4.34166 61.1544 4.20205 62.0521 4.14583C62.4796 4.10705 62.912 4.13031 63.3357 4.05566C61.9542 3.81427 60.5523 3.66109 59.1495 3.68727ZM65.6159 4.1148C67.2009 4.27089 68.7104 4.84772 70.1501 5.50308C69.9106 5.13275 69.6469 4.76435 69.3008 4.48611C68.5834 4.27476 67.8369 4.16618 67.0933 4.09444C66.6018 4.06342 66.1016 4.01107 65.6159 4.1148ZM59.5072 4.67516C59.7186 5.01253 59.9668 5.32858 60.2644 5.59518C61.3638 5.08621 62.5126 4.69939 63.6575 4.30773C62.2673 4.32421 60.88 4.45315 59.5072 4.67516ZM65.5141 4.30191C65.8369 4.44442 66.1801 4.5307 66.5116 4.65092C67.6721 5.07167 68.788 5.61263 69.8398 6.25733C70.0425 6.38918 70.247 6.52297 70.4681 6.62282C70.4545 6.36397 70.4041 6.109 70.3323 5.86082C68.8229 5.09009 67.198 4.52683 65.5141 4.30191ZM60.4302 5.75708C60.8441 6.09737 61.2581 6.47934 61.7545 6.6839C62.5213 5.93353 63.2756 5.16765 64.0802 4.45606C62.8277 4.77695 61.6216 5.25878 60.4302 5.75708ZM61.9425 6.84095C62.3875 7.07653 62.8383 7.30242 63.3037 7.49535C63.6488 6.50842 63.9988 5.52344 64.3449 4.53749C63.5034 5.26169 62.7065 6.03629 61.9425 6.84095ZM65.7128 4.6548C67.2455 5.48079 68.6813 6.48128 69.9949 7.62235C70.1636 7.41197 70.4196 7.17542 70.3934 6.89233C69.9746 6.58307 69.5199 6.32326 69.0672 6.06732C67.9998 5.49339 66.8936 4.94661 65.7128 4.6548ZM53.5043 6.40954C53.8659 7.2045 54.3816 7.92094 54.9711 8.56273C56.5591 7.45947 58.2459 6.50067 60.0084 5.70473C59.7147 5.40614 59.4597 5.07361 59.2377 4.71975C57.2726 5.07167 55.3385 5.61651 53.5043 6.40954ZM63.515 7.57678C63.9804 7.76195 64.4593 7.91125 64.945 8.03243C64.8248 6.93499 64.7084 5.83658 64.5165 4.74884C64.1694 5.68631 63.8514 6.63543 63.515 7.57678ZM64.7598 4.71587C64.9169 5.84143 65.07 6.96892 65.1796 8.10126C65.7477 8.21954 66.3216 8.31358 66.9014 8.34848C66.2664 7.09301 65.5722 5.8647 64.7598 4.71587ZM65.1282 4.83027C65.8776 5.96649 66.5533 7.15021 67.166 8.36593C67.6459 8.36496 68.1278 8.33781 68.6009 8.2525C67.5325 7.02709 66.405 5.84046 65.1282 4.83027ZM65.5267 4.83318C66.7046 5.87924 67.835 6.98347 68.8481 8.19143C69.1913 8.10223 69.5189 7.96069 69.8185 7.7697C68.5 6.64124 67.0798 5.61457 65.5267 4.83318ZM70.6658 6.04017C70.7182 6.29417 70.7405 6.55302 70.7259 6.81187C72.2053 7.8715 73.5287 9.1386 74.6503 10.5715C74.6814 10.0102 74.5902 9.44107 74.3799 8.92047C73.297 7.78037 72.0493 6.79345 70.6658 6.04017ZM70.6668 7.08332C70.564 7.35477 70.3963 7.59229 70.1956 7.79976C71.645 9.08528 72.9179 10.5705 73.962 12.2031C74.2626 11.8269 74.4826 11.3936 74.6058 10.9282C73.5112 9.44786 72.1918 8.12162 70.6668 7.08332Z" fill="#696969"/>
<path d="M51.485 9.75637C52.0279 9.62258 52.6173 9.70208 53.0711 10.0424C53.136 10.085 53.201 10.1277 53.2679 10.1694C53.5519 10.3497 53.9038 10.2915 54.2228 10.3061C54.2315 10.3187 54.2509 10.3439 54.2606 10.3565C54.4836 10.2973 54.7114 10.372 54.9218 10.4466C55.2863 10.5998 55.6421 10.7704 56.0008 10.9382L56.1501 11.0118C56.5912 11.2397 57.0275 11.4791 57.4725 11.7011L57.6334 11.7835C58.6009 12.309 59.6324 12.7637 60.4371 13.5344C60.6533 13.7312 60.7977 13.9881 60.9519 14.2324C60.9907 14.277 61.0682 14.3652 61.107 14.4098C61.6315 14.9624 61.8031 15.7535 61.8593 16.4913C61.8923 17.0051 61.9301 17.5199 61.9543 18.0347C61.9776 18.5466 62.1851 19.0264 62.2393 19.5344C62.2422 19.5975 62.2481 19.7216 62.251 19.7836C62.2384 20.1491 62.2859 20.5252 62.1938 20.883C62.0513 21.2601 61.6102 21.263 61.2728 21.2834C61.6829 21.4201 62.1744 21.5791 62.3159 22.0396C62.409 22.7385 62.3217 23.4482 62.2403 24.1452C62.2209 24.4157 62.0803 24.6552 61.9126 24.8607C61.8768 24.8859 61.805 24.9383 61.7691 24.9635C62.0231 25.1777 62.0803 25.5015 62.0212 25.8156C62.3877 25.8176 62.6591 26.0997 62.6455 26.4671C62.9471 26.5146 63.2486 26.5592 63.5491 26.6096C63.6935 26.1443 63.7711 25.6615 63.9117 25.1962C63.9698 25.1894 64.0872 25.1758 64.1453 25.169C64.0232 25.6567 63.9088 26.1462 63.7876 26.6348C65.4134 26.8336 67.0566 26.8588 68.6902 26.7492C68.5797 26.8278 68.5002 26.9819 68.3519 26.9858C66.8114 27.1196 65.2612 27.0294 63.7284 26.853C63.5064 27.6993 63.2389 28.5321 62.9829 29.3688C63.0876 29.6945 63.1555 30.0842 62.9567 30.3906C62.8346 30.6184 62.6213 30.7716 62.4449 30.9519C62.3334 31.1119 62.283 31.3067 62.2074 31.4841C64.1899 31.7158 66.2045 31.7352 68.1822 31.4492C68.792 30.1628 69.1856 28.789 69.5084 27.4075L69.5123 27.3978C69.6044 27.2689 69.7072 27.1467 69.8119 27.0265C69.5084 28.5292 69.0906 30.0144 68.4498 31.4095C69.9205 31.1574 71.394 30.7677 72.7096 30.0503C73.5337 28.7153 73.8546 27.1516 74.095 25.6218C72.7726 26.2257 71.3572 26.6077 69.9224 26.8268C69.9699 26.7473 70.0184 26.6678 70.0668 26.5893L70.0853 26.5592C70.4062 26.5214 70.7241 26.4613 71.0392 26.3876L71.0993 26.3741C72.1434 26.1501 73.1595 25.8021 74.1279 25.3513C74.2007 24.9208 74.2307 24.4846 74.2714 24.0502C74.3286 24.0502 74.443 24.0512 74.5002 24.0512C74.4663 24.4429 74.4265 24.8345 74.3761 25.2243C75.1769 24.8093 75.9147 24.2781 76.571 23.6605C76.5032 23.8311 76.5032 24.0531 76.3413 24.1714C75.7363 24.7008 75.0509 25.1283 74.3403 25.5015C74.1241 26.9994 73.809 28.5108 73.0926 29.8593C73.3495 29.7023 73.6035 29.5423 73.8555 29.3765C73.7479 29.5239 73.6432 29.6751 73.5298 29.8176C73.3398 30.059 72.9753 30.0833 72.8085 30.3479C72.3974 30.9858 71.9845 31.6412 71.4028 32.1395C70.888 32.5981 70.3683 33.0605 69.7886 33.4357C70.8192 32.567 71.7615 31.5782 72.4895 30.4381C71.204 31.0198 69.841 31.4211 68.4469 31.6354C68.3102 31.6305 68.282 31.7808 68.2258 31.8719C67.711 32.9577 67.0625 33.9757 66.3577 34.9481C66.9665 34.8443 67.5559 34.6562 68.1599 34.5302C67.8574 34.6698 67.5734 34.8463 67.2641 34.9704C66.8986 35.0838 66.5157 35.1303 66.1424 35.2127C65.9825 35.4861 65.7449 35.6975 65.4308 35.7731C65.5598 35.5966 65.6955 35.425 65.8341 35.2554C64.0668 35.522 62.2675 35.4968 60.4924 35.3203C60.2316 35.8264 59.9659 36.3305 59.6993 36.8346C59.6344 36.8317 59.5064 36.8279 59.4414 36.825C59.7207 36.3169 59.9863 35.8022 60.2529 35.2874C58.2102 35.0363 56.1976 34.5506 54.2596 33.8584C54.0318 34.5254 53.7923 35.1895 53.5606 35.8555C53.5083 35.8468 53.4036 35.8293 53.3522 35.8216C53.5471 35.1303 53.8156 34.4633 54.0531 33.7866C53.55 33.5782 53.0362 33.3959 52.5408 33.1681C52.2451 33.0081 51.9009 33.0692 51.58 33.0605C50.4787 33.0557 49.3774 33.0731 48.277 33.0537C48.0734 32.9364 47.9125 32.7609 47.737 32.6068C50.6028 32.6087 53.4685 32.6068 56.3353 32.6078C56.8035 32.6155 57.3018 32.4759 57.6169 32.1094C57.9746 31.7226 58.0444 31.1826 58.2383 30.7134C59.3813 30.6989 60.5263 30.7202 61.6693 30.7018C62.1977 30.694 62.7735 30.2035 62.6048 29.6373C62.4594 29.7788 62.3673 29.9718 62.2074 30.0988C61.9194 30.2403 61.583 30.2035 61.2728 30.1899C60.2713 30.0862 59.2631 30.0823 58.2597 29.9979C57.1012 29.9097 55.9407 29.8467 54.7822 29.7691C54.598 29.742 54.374 29.775 54.2335 29.6286C54.1375 29.5035 54.1375 29.3387 54.1278 29.1894C54.088 27.6363 54.056 26.0823 54.0018 24.5292C53.993 24.2412 53.9862 23.9514 54.0308 23.6654C54.0589 23.4114 54.3236 23.2116 54.5766 23.2514C55.1903 23.3096 55.7623 23.5558 56.3081 23.8253C56.0396 23.4947 55.7293 23.1767 55.3319 23.0071C54.9344 22.8452 54.5001 22.82 54.0783 22.7948C53.9765 21.7225 53.9213 20.6455 53.8137 19.5742C53.7284 20.6755 53.7196 21.7846 53.6023 22.8849C53.0934 22.9489 52.5815 22.9974 52.0774 23.0992C51.2106 23.2766 50.3226 23.3115 49.4501 23.4579C48.0996 23.7148 46.723 23.7924 45.3715 24.0522L45.3793 24.1326C45.992 24.0687 46.5998 23.962 47.2164 23.9417C48.3565 23.9145 49.4792 23.6721 50.6183 23.6217C51.5936 23.5684 52.5611 23.3794 53.5393 23.3823C53.3784 24.7812 53.5461 26.185 53.6091 27.584C52.8054 27.5752 52.0017 27.5801 51.198 27.5791C50.9731 26.3673 50.3682 25.1341 49.261 24.5069C49.6236 25.0149 50.1394 25.422 50.3721 26.0154C50.5912 26.629 50.7618 27.264 50.8015 27.9175C50.817 28.1792 51.1564 28.06 51.3037 28.1879C51.6382 28.505 51.7826 29.0013 52.1733 29.2582C52.6649 29.3145 53.1603 29.3387 53.6527 29.3862C53.6557 29.5859 53.55 29.8031 53.3163 29.7808C52.3449 29.804 51.3716 29.7236 50.4011 29.7769C50.2887 28.8792 50.3691 27.901 49.865 27.106C49.5335 26.5844 49.2921 25.9407 48.7152 25.6373C48.2344 25.3745 47.6847 25.1651 47.1292 25.2727C46.2043 25.4327 45.2833 25.9766 44.9004 26.8656C44.6386 27.5093 44.5494 28.2054 44.4573 28.8898C43.4626 27.3949 42.7268 25.74 42.2111 24.0231C42.0666 23.9009 42.117 23.7216 42.1354 23.5597C42.1083 23.5965 42.053 23.6702 42.0249 23.707C41.6759 22.8675 41.5935 21.9465 41.6284 21.0459C41.6032 20.5301 41.5382 20.0163 41.5421 19.4995C40.5833 19.6779 39.6284 19.8738 38.6676 20.0444C36.4621 20.4739 34.3108 21.1583 32.0917 21.5238C31.0117 21.7245 29.9473 21.9921 28.877 22.2296C26.7567 22.7221 24.6016 23.041 22.4804 23.5296C21.3684 23.739 20.27 24.0386 19.1464 24.1782L19.1328 24.0832C19.9365 23.7468 20.7955 23.5917 21.6399 23.3978C23.5526 22.978 25.4363 22.438 27.3374 21.9688C32.1082 20.9072 36.7898 19.4869 41.5567 18.4108C41.6042 17.6013 41.6429 16.787 41.7942 15.9901C41.9939 15.1234 42.1752 14.2489 42.4883 13.4152C43.3783 13.0894 44.2392 12.6473 45.1776 12.4796C44.8887 13.3172 44.6512 14.1713 44.4748 15.04C44.2557 15.7991 44.1946 16.5882 44.1355 17.3725C44.3012 17.3405 44.3032 17.1554 44.3487 17.0264C44.6832 15.7041 44.8344 14.3139 45.4627 13.0846C45.5935 12.8141 45.7952 12.564 46.088 12.4612C46.9876 12.1044 47.8951 11.7622 48.8219 11.4801C49.7419 11.2416 50.6639 11.0099 51.5868 10.7801C52.0172 10.6657 52.5117 10.7355 52.8403 11.0535C53.2388 11.3715 53.2572 11.9193 53.4986 12.3361C53.5665 12.3332 53.7032 12.3293 53.772 12.3274C53.7497 12.1791 53.7303 12.0307 53.7128 11.8824C53.7865 12.0172 53.8525 12.1548 53.9164 12.2944C54.4564 12.3768 55.0265 12.3827 55.5248 12.6357C55.9223 12.8354 56.3411 12.9847 56.7512 13.1573C57.9097 13.6837 59.0411 14.2712 60.1433 14.9062C60.3847 15.0477 60.598 15.2513 60.8831 15.2979C61.1545 15.9251 61.1991 16.6154 61.2233 17.2892C61.0333 16.7734 60.8927 16.2412 60.7066 15.7244C60.6349 15.5034 60.44 15.3628 60.2422 15.263C59.329 14.7889 58.4642 14.214 57.5025 13.8398C56.3653 13.357 55.2659 12.6842 54.0027 12.6124C53.8321 12.6027 53.5636 12.6716 53.6178 12.8994C54.12 14.5989 54.4749 16.3391 54.9625 18.0444C55.0381 18.2722 55.0837 18.531 55.2698 18.6997C55.5432 18.9634 55.9543 18.9343 56.2897 19.0652C57.8874 19.6159 59.4822 20.1724 61.0663 20.7599C61.2902 20.8141 61.647 20.9499 61.7914 20.7046C61.8205 20.3284 61.8137 19.9474 61.7924 19.5713C61.7624 19.0487 61.52 18.565 61.5084 18.0415C61.4318 16.9964 61.5142 15.8737 60.9819 14.9275C60.9383 14.8083 60.8065 14.7899 60.7047 14.7491C60.5321 14.4612 60.4323 14.1229 60.1773 13.8902C59.6887 13.4239 59.1099 13.0613 58.5166 12.7443C57.4938 12.2169 56.4865 11.6614 55.4511 11.1611C55.0779 10.9876 54.6969 10.8073 54.2839 10.7549C53.9969 10.7152 53.7041 10.7889 53.421 10.722C52.9906 10.6221 52.7056 10.2043 52.2548 10.1606C51.5218 10.0811 50.8287 10.3885 50.1404 10.5872C48.9615 10.9236 47.7826 11.3734 46.5368 11.3376C45.3609 11.4442 44.2101 11.7351 43.0496 11.9464C43.1243 11.7806 43.198 11.6139 43.2687 11.4452C43.3715 11.4219 43.4752 11.3996 43.579 11.3793C44.3604 11.228 45.1476 11.1059 45.928 10.9498C46.2867 10.8897 46.6503 10.8693 47.0128 10.8635C47.5839 10.8751 48.1335 10.7094 48.6755 10.5523C48.7307 10.5368 48.8393 10.5077 48.8946 10.4922C49.7681 10.2838 50.6028 9.93088 51.485 9.75637ZM51.0856 12.1015C49.867 12.5329 48.6377 12.9362 47.4375 13.419C47.3211 13.4733 47.1554 13.5218 47.1457 13.675C47.1234 13.9891 47.1195 14.3061 47.1486 14.6202C47.2843 14.8025 47.5111 14.69 47.6798 14.6318C48.6881 14.247 49.707 13.8892 50.7036 13.4743C51.1932 13.26 51.7293 13.2048 52.2499 13.1107C52.3672 13.0739 52.5805 13.0632 52.5921 12.9023C52.6212 12.563 52.4438 12.2489 52.3401 11.9338C51.9155 11.8747 51.485 11.9542 51.0856 12.1015ZM51.2262 13.9532C51.2 14.8907 51.2029 15.8311 51.2213 16.7685C51.2349 17.0138 51.5238 17.0352 51.7109 17.0526C51.5587 16.1558 51.4792 15.2484 51.3648 14.3458C51.3357 14.2111 51.3658 14.0346 51.2262 13.9532ZM47.6798 15.2048C47.3589 15.3124 47.0022 15.5393 46.9867 15.9135C46.9411 16.6512 46.9014 17.39 46.8548 18.1277C46.8674 18.2741 46.8112 18.5446 47.0235 18.564C48.1597 18.3847 49.2659 18.0386 50.4031 17.865C50.7947 17.992 51.1612 18.2179 51.582 18.2392C51.9697 18.2567 52.3546 18.182 52.7414 18.1607C53.0546 18.1733 53.3057 17.8544 53.2572 17.5529C53.2078 16.7356 53.0934 15.9241 53.01 15.1098C52.9954 14.9382 52.9479 14.7714 52.8888 14.6105C52.881 15.3299 52.8907 16.0492 52.8849 16.7685C52.8927 17.0012 52.7841 17.261 52.5456 17.3347C52.3071 17.3793 52.0657 17.3134 51.8282 17.2911C51.8534 17.358 51.9029 17.4927 51.9271 17.5596C51.6353 17.4181 51.325 17.2969 51.0769 17.0836C51.0041 16.9624 51.0138 16.8151 51.008 16.6803C51.009 15.8185 51.04 14.9547 50.9906 14.0947C49.8767 14.4331 48.7928 14.8626 47.6798 15.2048ZM56.1802 20.312C56.0939 20.5534 56.2693 20.82 56.5175 20.8636C58.1918 21.4288 59.8835 21.9416 61.5714 22.4613C61.4386 22.4535 61.3048 22.4419 61.1758 22.4109C60.0464 22.1239 58.9092 21.8718 57.7837 21.5723C57.3222 21.4598 56.8733 21.294 56.4022 21.2174C56.4768 21.4462 56.4555 21.8049 56.7502 21.8699C58.3207 22.3256 59.9049 22.7385 61.4618 23.2417C59.8641 22.8859 58.282 22.4632 56.6872 22.0939C56.7037 22.2635 56.6814 22.4613 56.8122 22.5941C56.9751 22.7686 57.2281 22.7919 57.4453 22.8568C58.6213 23.137 59.7846 23.4686 60.9655 23.7284C59.6014 23.517 58.2655 23.1467 56.9082 22.8956C56.9102 23.3862 57.2902 23.803 57.7788 23.8486C58.884 24.0687 59.9844 24.313 61.0721 24.6096C61.3542 24.7182 61.7129 24.5582 61.7769 24.2529C61.869 23.7419 61.8835 23.2204 61.9243 22.7046C61.8428 22.6455 61.7624 22.5873 61.6819 22.5301C62.1288 22.6038 61.9097 21.9426 61.6111 21.8786C60.8976 21.614 60.1695 21.3881 59.4618 21.1079C58.662 20.8132 57.8215 20.6552 57.0168 20.3789C56.7473 20.31 56.4468 20.152 56.1802 20.312ZM56.9751 24.3062C56.9111 24.6106 56.9548 25.0973 57.3329 25.1564C58.4904 25.4075 59.6499 25.6518 60.7939 25.9562C59.5907 25.7817 58.4041 25.5054 57.2049 25.3096C57.1981 25.5675 57.2727 25.8913 57.5772 25.931C58.5146 26.1472 59.4647 26.3081 60.4003 26.5331C59.393 26.3925 58.4012 26.1259 57.3871 26.0493C57.5965 27.0886 57.8234 28.1249 57.9795 29.1739C59.0314 29.2844 60.0949 29.2165 61.1448 29.3629C61.3532 28.2781 61.362 27.1681 61.5103 26.0755C61.5336 25.8573 61.6034 25.6363 61.5694 25.4172C61.3872 25.2408 61.108 25.2592 60.8792 25.1952C59.5714 24.9286 58.2761 24.6028 56.9751 24.3062ZM54.5311 24.9014C54.6183 25.2883 54.7114 25.6731 54.7977 26.06C55.4627 26.2063 56.1288 26.3518 56.7948 26.4962C56.885 26.5156 57.0808 26.5563 57.0585 26.3973C56.9024 25.9407 56.8006 25.3455 56.3042 25.1351C55.8757 24.9635 55.4288 24.8307 54.9761 24.7454C54.8103 24.7085 54.6746 24.8452 54.5311 24.9014ZM61.7701 26.946C61.7391 27.1332 61.6286 27.3561 61.7507 27.5306C61.9107 27.5491 62.0716 27.5151 62.2326 27.5006C62.2267 27.0827 62.1909 26.6659 62.1434 26.25C61.8981 26.3934 61.8506 26.6979 61.7701 26.946ZM62.6446 26.6959C62.6805 27.0343 62.694 27.3746 62.6775 27.7148C62.7008 28.2161 62.9548 28.7939 62.5593 29.2165C62.6155 29.2195 62.7289 29.2253 62.7861 29.2282C63.0382 28.4322 63.2835 27.6344 63.5026 26.8287C63.2166 26.7841 62.9306 26.7396 62.6446 26.6959ZM54.9538 26.8762C55.0556 27.3397 55.3425 27.7972 55.803 27.9708C56.2907 28.1666 56.8122 28.2568 57.3135 28.4109C57.2708 28.0299 57.2272 27.6499 57.1826 27.2708C57.0003 27.2127 56.819 27.1564 56.6377 27.0992C56.6377 27.3387 56.6397 27.5772 56.6387 27.8176C56.2335 27.7827 55.7836 27.613 55.6101 27.2136C55.8913 27.2524 56.1685 27.3115 56.4458 27.3697C56.4293 27.3018 56.3973 27.1642 56.3808 27.0953C55.9368 26.9092 55.4278 26.9276 54.9538 26.8762ZM61.6984 28.0454C61.6092 28.3731 61.4802 28.7018 61.5229 29.0488C61.7856 28.9674 62.124 28.9955 62.3227 28.7783C62.3489 28.4788 62.2645 28.1831 62.2326 27.8874C62.059 27.9533 61.8787 28.0028 61.6984 28.0454ZM62.1249 31.0779C61.4929 31.2389 60.8346 31.1274 60.1908 31.1584C60.7813 31.298 61.3843 31.3736 61.9853 31.4589C62.0309 31.331 62.0774 31.204 62.1249 31.0779ZM58.5689 31.1545C58.4264 31.5879 58.2839 32.0387 57.9776 32.3887C57.645 32.7842 57.1419 33.012 56.631 33.0479C55.9455 33.0886 55.2572 33.0343 54.5718 33.0741C54.4312 33.2195 54.4225 33.4619 54.3391 33.6461C56.2946 34.3315 58.3169 34.8492 60.3799 35.0663C60.9034 33.9485 61.4327 32.8327 61.8884 31.6858C61.0343 31.5433 60.1763 31.4211 59.3338 31.2185C59.0837 31.1545 58.8239 31.1565 58.5689 31.1545ZM62.1366 31.6965C61.6557 32.8453 61.1632 33.9902 60.6 35.1022C62.4051 35.2893 64.2365 35.2854 66.0319 35.0014C66.8152 33.9679 67.4968 32.8598 68.0697 31.6965C66.1036 31.9631 64.1036 31.9475 62.1366 31.6965ZM52.8869 33.0789C53.2911 33.2495 53.7051 33.3988 54.1113 33.5637C54.1801 33.3979 54.2441 33.2302 54.3071 33.0615C53.8331 33.0644 53.36 33.0489 52.8869 33.0789Z" fill="#696969"/>
<path d="M35.9639 14.5233C38.1113 13.7147 40.2722 12.944 42.4303 12.1655C42.2877 12.5611 42.1743 12.9653 42.059 13.3686C42.0454 13.5092 41.8835 13.5267 41.7817 13.5713C38.6435 14.5892 35.5199 15.6517 32.3856 16.6803C31.2649 17.0216 30.1374 17.3415 29.0138 17.6721C26.086 18.5747 23.194 19.5897 20.2672 20.4952C19.8804 20.6106 19.4945 20.8084 19.0806 20.7095C20.6181 20.09 22.1722 19.5093 23.7437 18.979C26.2905 18.1268 28.7782 17.1069 31.3182 16.2344C32.879 15.6963 34.4205 15.1088 35.9639 14.5233Z" fill="#696969"/>
<path d="M75.9649 16.4624C76.154 16.762 76.2005 17.1216 76.3314 17.4474C76.5728 17.1352 76.7977 16.8095 76.9945 16.4663C77.0042 16.5613 77.0255 16.7503 77.0362 16.8444C76.8374 17.1401 76.6406 17.4377 76.3954 17.6975C76.6707 18.8347 76.9092 19.9835 77.0197 21.1498C77.0352 21.5046 76.9421 21.8536 76.8869 22.2017C76.7715 20.7591 76.5883 19.3156 76.2044 17.9166C75.8796 18.2026 75.5655 18.508 75.1855 18.7222C75.1321 18.5041 75.2785 18.3558 75.4433 18.253C75.7041 18.0901 75.9213 17.8701 76.1394 17.6558C76.0822 17.4639 76.0202 17.2739 75.9717 17.08C75.9581 17.0072 75.9455 16.9355 75.9329 16.8628C75.9407 16.7629 75.9562 16.5623 75.9649 16.4624Z" fill="#696969"/>
<path d="M19.1173 27.4037C25.8725 26.4138 32.6297 25.4337 39.385 24.4468C39.862 26.2694 40.5871 28.028 41.5508 29.647C40.8867 29.6654 40.2226 29.6509 39.5585 29.6557C39.4131 29.6654 39.2056 29.6519 39.1436 29.8206C38.9962 30.1473 38.8702 30.4846 38.7006 30.8017C39.892 30.7939 41.0835 30.8007 42.274 30.7968C42.6124 31.2815 42.9633 31.7566 43.3385 32.2132C36.9061 32.1977 30.4736 32.2084 24.0412 32.1948C23.5807 32.1822 23.0785 32.2723 22.6626 32.0203C22.1837 31.7314 21.7639 31.2864 21.6146 30.7357C21.3616 29.8167 21.0387 28.9189 20.744 28.0125C19.9374 27.9601 19.1318 27.902 18.3252 27.8486V27.4715C18.5879 27.5239 18.8555 27.4308 19.1173 27.4037ZM37.3607 26.8928C36.9982 27.0324 36.7762 27.3988 36.7093 27.7682C36.622 28.2355 36.5377 28.7105 36.5929 29.1875C36.6239 29.679 36.719 30.2132 37.0961 30.5651C37.2619 30.7512 37.5653 30.887 37.7883 30.7144C38.1693 30.377 38.4165 29.8952 38.4708 29.3891C38.6007 28.6145 38.5183 27.7527 38.0287 27.1119C37.8823 26.9034 37.6051 26.7735 37.3607 26.8928ZM27.2666 28.1424C27.0398 28.2326 26.904 28.4652 26.8594 28.6969C26.745 29.2049 26.7208 29.7634 26.9283 30.251C27.0398 30.4507 27.2579 30.7163 27.5158 30.6213C27.8027 30.3974 27.9724 30.0416 27.9966 29.6809C28.0626 29.1904 28.0063 28.6475 27.6825 28.2539C27.5924 28.1288 27.4062 28.0639 27.2666 28.1424ZM24.8352 28.4216C24.5783 28.6281 24.5337 28.9858 24.4833 29.2903C24.4426 29.7265 24.4542 30.2491 24.8042 30.5641C24.9603 30.7299 25.2889 30.7493 25.412 30.538C25.7407 29.9243 25.793 29.1148 25.38 28.5292C25.2598 28.3499 25.0174 28.3528 24.8352 28.4216ZM22.8982 28.6068C22.3708 29.1613 22.428 30.1288 22.9224 30.6921C23.159 30.9073 23.5458 30.6853 23.6001 30.3993C23.7474 29.8167 23.7164 29.1283 23.3199 28.6456C23.2123 28.5263 23.0271 28.5215 22.8982 28.6068Z" fill="#696969"/>
<path d="M48.6763 26.6494C49.6428 27.5568 49.7727 29.0256 49.4363 30.2461C49.4984 29.012 49.4073 27.6945 48.6763 26.6494Z" fill="#696969"/>
<path d="M46.5747 27.1942C46.8297 27.0769 47.1409 27.1224 47.3619 27.293C47.8069 27.6188 48.0221 28.1694 48.0929 28.7007C48.2034 29.4317 48.0464 30.2218 47.582 30.8083C47.3483 31.106 46.9218 31.2165 46.5718 31.0769C46.3498 30.9945 46.1918 30.8054 46.0754 30.6077C45.646 29.8873 45.5732 28.9809 45.8243 28.1879C45.9669 27.7962 46.185 27.3851 46.5747 27.1942Z" fill="#696969"/>
<path d="M48.4932 27.1309C49.166 27.8395 49.1951 28.872 49.1088 29.7882C48.9692 28.8904 48.9634 27.9404 48.4932 27.1309Z" fill="#696969"/>
<path d="M49.9258 31.9116C50.0819 31.6353 50.1953 31.167 50.6034 31.2194C51.4672 31.2649 52.332 31.2872 53.1977 31.2746C53.316 31.4831 53.4343 31.6934 53.5487 31.9048C52.3407 31.9174 51.1328 31.9058 49.9258 31.9116Z" fill="#696969"/>
<path d="M49.9997 5.97708C50.2304 5.68624 50.6182 5.83069 50.9207 5.88886C50.816 6.53646 50.7278 7.20734 50.3807 7.77932C50.1664 7.94898 49.9415 8.10797 49.6953 8.22819C49.5285 8.23885 49.3627 8.25145 49.197 8.266C49.1747 7.94995 49.1834 7.63293 49.2163 7.31882C48.9546 7.81228 48.5736 8.21752 48.1771 8.60337C48.0869 8.16517 48.0423 7.71922 48.02 7.27229C48.5464 6.63341 49.5033 6.6431 49.9997 5.97708Z" fill="#696969"/>
<path d="M46.2315 8.14195C46.8296 8.20496 47.4016 7.95968 47.803 7.52148C47.8282 8.05178 47.9736 8.5656 48.0289 9.09203C48.0502 9.19091 48.2257 9.32373 48.0996 9.4071C47.5664 9.87536 47.038 10.3504 46.53 10.8468C46.3284 10.8759 46.1267 10.9069 45.928 10.9495C45.1476 11.1056 44.3604 11.2278 43.579 11.379L43.5625 11.3005C43.7341 11.2113 44.0123 11.2016 44.0501 10.9699C44.1587 10.4871 44.6551 10.1206 44.5184 9.58743C44.8994 9.16377 45.3463 8.80797 45.7642 8.42212L45.8107 8.38431C45.9348 8.45315 46.0434 8.54525 46.1481 8.64122C46.1733 8.47447 46.2014 8.30772 46.2315 8.14195Z" fill="#696969"/>
<path d="M50.0347 8.77107C50.499 8.5161 50.8277 8.07402 51.3115 7.84717C51.3435 7.97126 51.3764 8.09632 51.4094 8.22138C51.3231 8.33675 51.2358 8.45212 51.1505 8.56748C51.0429 8.51222 50.9353 8.45793 50.8287 8.40267C50.7686 8.50932 50.7094 8.61596 50.6503 8.72357C50.691 8.77204 50.7724 8.86899 50.8141 8.91746C51.3134 8.84572 51.8524 8.77592 52.3275 8.99211C52.4516 8.99502 52.5757 8.9989 52.7007 9.00278C52.5563 9.12299 52.3953 9.21994 52.2334 9.31495C52.6125 9.43225 52.9916 9.54956 53.3832 9.61645C53.2931 9.76866 53.1884 9.91117 53.0711 10.042C52.6173 9.70176 52.0279 9.62227 51.485 9.75606C50.6028 9.93056 49.7681 10.2834 48.8946 10.4919C48.7201 10.1468 48.563 9.79386 48.4331 9.43031C48.912 9.05901 49.3997 8.69739 49.9019 8.35711L49.9377 8.33481C49.9707 8.48023 50.0017 8.62565 50.0347 8.77107Z" fill="#696969"/>
<path d="M48.4139 8.57031C48.4701 8.57031 48.5806 8.57031 48.6368 8.57031C48.6349 8.82141 48.5864 9.07928 48.3508 9.2121C48.3266 9.13648 48.2772 8.98428 48.2529 8.90866C48.3063 8.79523 48.3605 8.68277 48.4139 8.57031Z" fill="#696969"/>
<path d="M63.2517 8.74072C63.3651 8.77078 63.5037 8.77756 63.5619 8.90262C63.5328 8.9734 63.4747 9.11397 63.4456 9.18474C63.5309 9.22158 63.6162 9.25842 63.7025 9.29429C63.6918 9.37379 63.6695 9.53278 63.6589 9.61228C63.8266 9.59676 64.005 9.52599 64.1707 9.59483C64.4306 9.7005 64.5634 9.96419 64.7233 10.1775C64.6652 10.4111 64.5876 10.6409 64.4684 10.8513C63.9798 11.0597 63.4979 11.3311 63.1547 11.7461C63.4165 11.6695 63.6821 11.6074 63.9526 11.5648C63.9749 11.4892 64.0205 11.3379 64.0437 11.2623C64.1911 11.4155 64.3627 11.5454 64.5857 11.5444C64.5847 11.6104 64.5818 11.7422 64.5808 11.8081C64.7679 11.7364 64.9638 11.6966 65.1654 11.6947C65.1848 12.3879 65.1887 13.0801 65.1916 13.7732C63.9982 13.5348 62.8222 13.211 61.6802 12.7892C62.1174 11.5105 62.5973 10.2473 63.0132 8.96273L63.0239 8.94431C63.0975 8.87451 63.1732 8.80665 63.2517 8.74072Z" fill="#696969"/>
<path d="M55.9116 9.44194C56.1753 9.29459 56.4477 9.1608 56.7289 9.04834C56.8888 9.14626 57.0507 9.2432 57.2156 9.33627C57.1215 9.64553 56.8006 9.7958 56.6087 10.0372C56.3673 9.85009 56.1239 9.66298 55.9116 9.44194Z" fill="#696969"/>
<path d="M60.1281 9.51474C60.6671 9.37805 61.2343 9.37805 61.7626 9.19385C61.8615 9.29079 61.9604 9.38871 62.0622 9.48372C62.1989 9.48857 62.3356 9.5002 62.4713 9.52056C62.514 9.48857 62.5983 9.42458 62.641 9.39162C62.2386 10.4929 61.8654 11.604 61.4669 12.7062C60.447 12.3117 59.4475 11.8531 58.5052 11.2966C58.4907 11.2404 58.4625 11.127 58.449 11.0698C58.3733 11.094 58.2221 11.1415 58.1475 11.1648C58.2396 11.0426 58.3394 10.9263 58.4451 10.8158C58.4587 10.903 58.4858 11.0775 58.4994 11.1648C58.639 11.0019 58.6264 10.8012 58.575 10.6073C58.8057 10.3427 59.021 10.0654 59.243 9.79492C59.2517 9.78522 59.2691 9.76584 59.2779 9.75614C59.4446 9.9035 59.6589 9.98203 59.8295 10.1274C60.1572 10.141 60.0331 9.72415 60.1281 9.51474Z" fill="#696969"/>
<path d="M55.6063 9.53405C55.6276 9.5292 55.6713 9.52047 55.6926 9.51562C55.8865 9.81034 56.1958 9.99454 56.4624 10.2156C56.2966 10.4492 56.1415 10.6897 56.0009 10.9378C55.6422 10.7701 55.2864 10.5995 54.9219 10.4463C55.2011 10.1807 55.3717 9.83361 55.6063 9.53405Z" fill="#696969"/>
<path d="M48.2439 9.59326C48.3806 9.9161 48.5241 10.236 48.6753 10.5521C48.1334 10.7091 47.5837 10.8749 47.0127 10.8633L46.8789 10.8652C47.2987 10.4047 47.7737 10.0004 48.2439 9.59326Z" fill="#696969"/>
<path d="M53.5715 9.88246C53.7121 9.77582 53.8536 9.67112 53.9961 9.56738C54.318 9.67209 54.4334 9.98426 54.5022 10.2848C54.4324 10.2906 54.2928 10.3003 54.223 10.3061C53.904 10.2916 53.5521 10.3497 53.2681 10.1694C53.3679 10.0725 53.4678 9.97553 53.5715 9.88246Z" fill="#696969"/>
<path d="M58.7039 9.73392C58.8086 9.73198 58.9133 9.73295 59.019 9.73586C58.8658 9.91909 58.7049 10.0965 58.543 10.272C58.5866 10.0897 58.6428 9.91036 58.7039 9.73392Z" fill="#696969"/>
<path d="M56.7378 10.1103C56.9152 10.0618 57.0965 9.95809 57.2855 10.0143C57.2846 10.1549 57.2041 10.3536 57.0519 10.373C56.9365 10.2984 56.8367 10.2043 56.7378 10.1103Z" fill="#696969"/>
<path d="M57.3736 10.2041C57.6227 10.2283 57.8738 10.2293 58.1239 10.208C58.1714 10.3699 58.375 10.558 58.2034 10.7121C58.1336 10.811 58.0522 10.9012 57.9737 10.9933C57.6877 10.8178 57.3581 10.5822 57.3736 10.2041Z" fill="#696969"/>
<path d="M56.1504 11.0118C56.3472 10.8179 56.545 10.6231 56.7398 10.4272C57.0801 10.6832 57.4504 10.8965 57.7888 11.1563C57.719 11.355 57.5619 11.5101 57.4727 11.7011C57.0278 11.4791 56.5915 11.2397 56.1504 11.0118Z" fill="#696969"/>
<path d="M58.0007 11.3018C59.1243 11.8505 60.2218 12.4632 61.3881 12.9217C61.2523 13.3619 61.0652 13.7855 60.9518 14.2325C60.7977 13.9882 60.6532 13.7313 60.437 13.5344C59.6323 12.7637 58.6008 12.309 57.6333 11.7836C57.7661 11.6314 57.8892 11.4704 58.0007 11.3018Z" fill="#696969"/>
<path d="M66.4014 11.8286C66.6825 11.942 66.9782 12.0225 67.2487 12.164C67.3243 12.3919 67.0761 12.5741 66.9743 12.7583C67.4096 12.9677 67.494 13.5291 67.937 13.7259C67.9826 13.5223 68.0282 13.3187 68.0708 13.1141C68.1823 13.2111 68.3006 13.3032 68.4237 13.3875C68.5022 13.3245 68.5807 13.2615 68.6593 13.1994C68.7087 13.214 68.8066 13.2421 68.8561 13.2566C68.8619 13.2741 68.8726 13.31 68.8784 13.3274C68.954 13.5688 69.0228 13.8131 69.0946 14.0555C67.8624 14.1214 66.6205 14.0254 65.4086 13.7976C65.4271 13.1636 65.396 12.5305 65.4057 11.8965C65.494 12.0002 65.5764 12.1078 65.651 12.2222C65.8507 12.2707 66.0514 12.3143 66.253 12.3609C66.3025 12.1834 66.3519 12.006 66.4014 11.8286Z" fill="#696969"/>
<path d="M69.0986 12.6704C69.18 12.5832 69.2624 12.495 69.3439 12.4067C69.5921 12.4358 69.8393 12.4668 70.0865 12.5066C70.1156 12.6714 70.1456 12.8362 70.1737 13.002C70.2464 12.8333 70.3192 12.6656 70.4006 12.5008C70.5189 12.5347 70.6381 12.5686 70.7574 12.6035C70.7632 12.6733 70.7738 12.8139 70.7797 12.8837C71.0007 13.0282 71.2276 13.1629 71.4612 13.287C71.5814 13.1823 71.7036 13.0786 71.8296 12.9797C71.8713 12.9458 71.9556 12.8789 71.9973 12.8449L72.0022 12.8411C72.1631 13.0097 72.3967 13.1048 72.5082 13.3209C72.4481 13.3316 72.3289 13.3539 72.2697 13.3655C72.2154 13.2453 72.1621 13.1261 72.1088 13.0068C72.0419 13.0039 71.9071 13.0001 71.8403 12.9971C71.9207 13.1571 71.9992 13.318 72.0768 13.4799C71.1936 13.8067 70.262 13.9782 69.3245 14.0481C69.2527 13.8202 69.1839 13.5914 69.119 13.3617C69.1131 13.3384 69.0996 13.2919 69.0928 13.2686C69.404 13.1464 69.1325 12.8711 69.0986 12.6704Z" fill="#696969"/>
<path d="M74.1436 12.4948C74.7097 12.1294 75.2517 12.6994 75.6191 13.0833C75.59 12.936 75.5629 12.7876 75.5367 12.6403C75.5919 12.6335 75.7025 12.6209 75.7577 12.6141C75.9652 12.8429 76.0815 13.1328 76.2037 13.412L76.225 13.3315L76.2376 13.2879C76.3569 13.5244 76.3433 13.7842 76.2803 14.0344C76.0757 13.9413 75.8527 13.8996 75.6647 14.0489C75.7219 14.3349 75.7383 14.6277 75.8013 14.9117C76.0379 15.1483 76.2027 15.4391 76.2997 15.7581C76.1426 15.919 76.035 16.1178 75.9468 16.3233C75.5018 14.9806 74.8687 13.7067 74.1436 12.4948Z" fill="#696969"/>
<path d="M73.9311 12.5591L73.9553 12.5979C74.5118 13.5654 75.0411 14.5523 75.4396 15.5964C75.617 16.0133 75.7372 16.4525 75.933 16.8626C75.9456 16.9353 75.9583 17.007 75.9718 17.0797C75.9224 17.3415 75.8739 17.6042 75.8342 17.8679C75.5889 17.5528 75.4522 17.9804 75.4105 18.1849C75.1429 18.4011 74.9306 18.6823 74.6165 18.8364C74.6815 18.5378 74.8269 18.2528 74.8375 17.9435C74.8065 17.6701 74.7503 17.3996 74.7038 17.1282C74.4372 17.5431 74.7765 18.1578 74.3955 18.5378C74.3247 18.3429 74.2617 18.1461 74.2016 17.9484C74.1473 17.9736 74.0406 18.023 73.9873 18.0473C73.6364 16.499 73.0654 15.008 72.3877 13.5741C72.5632 13.5227 72.7958 13.4384 72.8996 13.6575C72.951 13.5266 73.0217 13.4064 73.1032 13.292C73.172 13.2939 73.3097 13.2959 73.3785 13.2978C73.4056 13.2426 73.459 13.133 73.4851 13.0787C73.6296 13.2057 73.7886 13.3172 73.964 13.3986C74.03 13.1398 73.8409 12.976 73.6703 12.8208C73.7566 12.7336 73.8438 12.6463 73.9311 12.5591Z" fill="#696969"/>
<path d="M61.6023 13.0059C62.7705 13.4441 63.9834 13.7494 65.2 14.0199C65.1564 16.0355 65.0275 18.049 64.7996 20.0529C63.9378 19.923 63.0827 19.7543 62.2393 19.5343C62.185 19.0263 61.9775 18.5464 61.9542 18.0345C61.93 17.5197 61.8922 17.0049 61.8592 16.4911C61.803 15.7533 61.6314 14.9622 61.1069 14.4097C61.2776 13.9433 61.4356 13.4731 61.6023 13.0059Z" fill="#696969"/>
<path d="M69.3813 14.2721C70.3382 14.1964 71.2883 14.0161 72.1899 13.6836C72.7929 14.9565 73.3038 16.276 73.6645 17.639C73.8748 18.2042 73.617 18.7898 73.551 19.3589C72.5166 19.769 71.4289 20.0385 70.3246 20.1684C70.2199 18.1771 69.8884 16.2003 69.3813 14.2721Z" fill="#696969"/>
<path d="M65.4035 14.3428C65.4258 14.2546 65.3511 13.9929 65.5295 14.0617C66.7288 14.2488 67.9445 14.3457 69.1592 14.2953C69.6517 16.2178 70.0094 18.1848 70.087 20.1703C70.0628 20.181 70.0153 20.2013 69.991 20.212C68.34 20.3836 66.6686 20.3196 65.0254 20.0918C65.2232 18.181 65.3918 16.2643 65.4035 14.3428Z" fill="#696969"/>
<path d="M74.4965 19.1463C74.671 19.0474 74.8455 18.9505 75.0229 18.8564C75.0122 19.0823 75.0006 19.3072 74.9851 19.5331C75.0588 19.5874 75.1324 19.6417 75.2081 19.697C75.1974 20.1788 75.2381 20.6597 75.2972 21.1376C75.1828 21.2695 75.0685 21.4013 74.9541 21.5322C75.0781 22.0925 74.7495 22.5908 74.5798 23.1018C74.5052 22.0615 74.5362 21.0087 74.3569 19.9762C74.2832 19.6882 74.4121 19.4139 74.4965 19.1463Z" fill="#696969"/>
<path d="M62.2511 19.7837C63.0849 19.9747 63.9215 20.1492 64.7679 20.2801C64.5604 21.9068 64.289 23.5268 63.9148 25.1245C63.6297 24.9587 63.3331 24.8152 63.0306 24.6853C62.6622 24.7677 62.2928 24.8724 61.9128 24.8608C62.0805 24.6553 62.2211 24.4158 62.2405 24.1453C62.3219 23.4483 62.4092 22.7386 62.3161 22.0396C62.1746 21.5792 61.683 21.4202 61.2729 21.2835C61.6103 21.2631 62.0514 21.2602 62.1939 20.8831C62.286 20.5253 62.2385 20.1492 62.2511 19.7837Z" fill="#696969"/>
<path d="M70.346 20.3847C70.6397 20.3479 70.9335 20.3062 71.2243 20.2471C70.9819 20.6921 70.7095 21.1225 70.3721 21.5025C70.3537 21.1303 70.3421 20.758 70.346 20.3847Z" fill="#696969"/>
<path d="M64.1436 25.1579C64.5187 23.5592 64.7718 21.9354 65.0035 20.3115C66.6942 20.5481 68.4131 20.6082 70.1126 20.4211C70.1359 20.8816 70.1397 21.3421 70.1339 21.8035C69.8741 22.1332 69.5929 22.4628 69.4756 22.8738C69.5755 22.867 69.7742 22.8515 69.8741 22.8447C69.8634 22.9281 69.844 23.0958 69.8334 23.1792C69.9216 23.153 70.0098 23.1269 70.099 23.1007C70.0253 24.2825 69.876 25.4584 69.6618 26.6237C69.3486 26.6645 69.0355 26.7013 68.7233 26.7449C68.8901 26.4725 69.0481 26.1855 69.0753 25.8598C68.7253 25.9664 68.3772 26.0789 68.0205 26.1545C67.9536 25.9558 67.8838 25.758 67.8072 25.5631C67.527 25.471 67.1353 25.408 67.05 25.0736C66.9153 24.6169 66.8775 24.1351 66.6933 23.693C66.1591 23.6271 65.5541 23.3498 65.0801 23.7473C65.1363 23.7919 65.2468 23.8831 65.3021 23.9276C65.1033 24.2999 64.7727 24.5859 64.6215 24.9853C64.4625 25.0435 64.3025 25.1007 64.1436 25.1579Z" fill="#696969"/>
<path d="M74.1385 20.3281C74.3149 21.1018 74.2946 21.9122 74.3091 22.7033C74.0212 21.953 73.837 21.1037 74.1385 20.3281Z" fill="#696969"/>
<path d="M70.3896 22.8623C70.5117 22.9088 70.6339 22.9573 70.757 23.0048C70.8481 23.2259 70.9421 23.445 71.0372 23.665C71.0944 23.4566 71.1613 23.2491 71.2824 23.0669C71.455 23.2239 71.4792 23.4605 71.5229 23.6757C71.613 24.1914 71.7032 24.7062 71.7633 25.2268C71.6518 25.1764 71.5413 25.126 71.4317 25.0756C71.1884 25.4459 71.3493 25.8706 71.4637 26.2525C71.3396 26.2845 71.2175 26.3253 71.0992 26.3737L71.0391 26.3873L70.9402 26.3476C71.0856 25.5633 71.3154 24.7179 71.0187 23.9404C70.7773 24.8361 70.5185 25.7339 70.0851 26.5589L70.0667 26.5889L69.9097 26.619C70.0047 25.8522 70.1608 25.094 70.2218 24.3233C70.2945 23.8376 70.2529 23.3364 70.3896 22.8623Z" fill="#696969"/>
<path d="M67.9283 27.2171C68.4304 26.8953 69.0441 26.9612 69.6064 26.8623C69.5754 27.0407 69.5473 27.22 69.5124 27.3975L69.5085 27.4071C69.2797 27.6738 69.0121 27.9142 68.7038 28.0848C68.4178 28.2535 68.0649 27.92 67.8032 28.1439C67.6907 28.2196 67.5812 28.2981 67.4707 28.3747C67.3941 28.1343 67.6287 28.0441 67.7314 27.8783C67.8168 27.6641 67.8429 27.4314 67.9283 27.2171Z" fill="#696969"/>
</svg>
