<svg width="126" height="38" viewBox="0 0 126 38" fill="none" xmlns="http://www.w3.org/2000/svg">
<path d="M39.2554 0.410087C39.788 0.377056 40.3138 0.293104 40.8436 0.236677C45.7046 0.236677 50.5656 0.227043 55.4252 0.240805C56.0115 0.35366 56.6047 0.379809 57.202 0.394947C58.8494 0.743144 60.5725 0.971604 62.0368 1.86343C63.5548 2.67955 64.9132 3.9182 65.5408 5.55596C65.7445 6.18078 66.1284 6.77671 66.0954 7.45658C66.083 7.94103 66.1271 8.43098 66.0541 8.91268C65.7844 9.97791 65.4032 11.0514 64.66 11.884C63.2342 13.7792 60.9812 14.8485 58.7241 15.3894C58.091 15.4995 57.4635 15.6839 56.8152 15.655C51.2138 15.6591 45.6124 15.655 40.011 15.6564C39.1082 15.7293 38.6444 14.7949 38.0347 14.298C38.2686 14.1742 38.4847 13.9677 38.771 14.0007C43.5452 13.9952 48.3195 13.9966 53.0938 13.9994C53.4461 13.987 53.8108 14.0407 54.1563 13.9498C54.9972 13.625 55.8408 13.164 56.328 12.374C56.9088 11.4326 57.5213 10.4211 57.5667 9.28702C57.6176 9.05856 57.407 8.87552 57.1868 8.91405C53.7998 8.90717 50.4128 8.91268 47.0258 8.91268C46.5607 8.94158 46.1946 8.61265 45.7968 8.42823C45.216 8.09242 44.5967 7.8268 44.0311 7.46347C44.0751 7.16894 44.4329 7.11665 44.6793 7.1194C48.5411 7.11802 52.4015 7.11527 56.262 7.1194C56.701 7.12903 57.14 7.11114 57.5777 7.08637C57.608 6.25648 57.2625 5.48577 56.9542 4.7357C56.6019 3.86039 55.9165 3.17914 55.2064 2.58322C54.8568 2.34925 54.5169 1.99555 54.0641 2.02996C48.7531 2.03133 43.4407 2.02583 38.1296 2.03408C38.1406 1.75883 38.1338 1.4822 38.1806 1.2097C38.4943 0.890404 38.8618 0.622032 39.2554 0.410087Z" fill="#696969"/>
<path d="M10.6954 0.233947C15.1022 0.236699 19.5104 0.238076 23.9172 0.233947C24.7856 0.17752 25.4506 0.233971 26.5005 0.379831C27.3262 0.569756 28.1823 1.23449 28.163 2.1621C22.8038 2.20752 17.4432 2.16072 12.084 2.1855C11.8404 2.21853 11.4138 2.27771 11.4537 2.61352C11.4565 6.30192 11.4468 9.98894 11.4592 13.676C11.3821 14.0586 11.8115 14.0902 12.0785 14.1205C16.5321 14.126 20.9844 14.1191 25.438 14.1246C25.877 14.1398 26.3023 14.0145 26.7344 13.9622C26.7275 13.6127 26.7606 13.259 26.711 12.9121C26.2101 12.235 25.5591 11.6625 24.8008 11.2909C24.1154 10.9441 23.4713 10.5257 22.8244 10.1156C21.1192 9.19759 19.3452 8.39522 17.7556 7.27769C21.6023 7.2364 25.449 7.28044 29.2957 7.25705C29.8888 7.20613 30.4008 7.55707 30.9389 7.74562C32.3689 8.25071 33.7328 8.93334 35.0196 9.73296C35.7517 10.1913 36.5541 10.8202 36.6408 11.7451C36.4605 12.6603 35.6678 13.2851 34.9136 13.7475C33.7314 14.415 32.4721 14.9339 31.1922 15.3812C30.7999 15.5119 30.4063 15.6826 29.9838 15.6578C20.1008 15.6482 10.2178 15.6716 0.334831 15.6454C0.288038 11.3817 0.337584 7.11667 0.310059 2.85299C1.78817 2.13457 3.24977 1.32258 4.86413 0.949607C6.01607 0.714265 9.51179 0.180272 10.6954 0.233947Z" fill="#696969"/>
<path d="M67.2998 2.14957C67.3383 1.31142 68.0127 0.579243 68.8192 0.398952C69.2624 0.332891 69.7041 0.228295 70.1569 0.2338C79.883 0.237929 89.6105 0.235176 99.3366 0.235176C99.8885 0.243434 100.447 0.189759 100.992 0.302613C101.482 0.412715 102.035 0.286098 102.454 0.628789C103.043 0.920558 103.328 1.5385 103.448 2.15369C100.106 2.21976 96.7616 2.16333 93.4186 2.1826C92.5241 2.21563 91.5965 2.05598 90.7432 2.39592C90.7624 6.77658 90.7418 11.1586 90.7528 15.5407C90.4583 15.6315 90.1514 15.6673 89.8458 15.659C86.5648 15.648 83.2838 15.6687 80.0028 15.648C79.9931 11.3114 80.0138 6.97476 79.9931 2.63814C79.9973 2.25279 79.5266 2.24178 79.2472 2.19223C75.2657 2.14819 71.2814 2.23077 67.2998 2.14957Z" fill="#696969"/>
<path d="M0.246682 20.3228H7.59442C7.60545 20.5933 7.60471 20.8638 7.60251 21.1343C5.65531 21.1365 3.70812 21.1313 1.76092 21.1365C1.7646 21.7289 1.76092 22.3207 1.76313 22.9124C3.37219 22.9139 4.98125 22.9109 6.59105 22.9139C7.02842 22.9183 7.52606 22.9896 7.81347 23.3586C8.1222 23.7695 8.15895 24.3105 8.16998 24.8059C8.16483 25.3264 8.13837 25.8938 7.82376 26.3319C7.54076 26.7112 7.03356 26.7877 6.59179 26.7899C4.47553 26.7928 2.35853 26.7906 0.242272 26.7914C0.245212 24.6347 0.235656 22.4787 0.246682 20.3228ZM1.76166 23.7063C1.76313 24.4663 1.76239 25.2264 1.76239 25.9865C3.10169 25.9938 4.44098 25.9872 5.78027 25.9901C6.01991 25.9865 6.29629 25.9806 6.47271 25.7939C6.67044 25.5623 6.64765 25.2359 6.65574 24.9515C6.64471 24.628 6.69249 24.2782 6.53078 23.9819C6.39553 23.7496 6.1015 23.7085 5.85746 23.7063C4.49243 23.7033 3.12741 23.7048 1.76166 23.7063Z" fill="#696969"/>
<path d="M9.34217 22.4874C9.79718 22.0435 10.4734 22.0148 11.0711 22.0096C11.9061 22.0199 12.7426 21.9891 13.5769 22.0288C14.115 22.0486 14.6993 22.2383 15.0022 22.7138C15.3866 23.3188 15.3609 24.0656 15.3734 24.7544C13.668 24.7551 11.9634 24.7544 10.2588 24.7551C10.2691 25.0962 10.2595 25.4799 10.4881 25.7592C10.6859 25.9945 11.0159 26.0231 11.3026 26.0261C12.5485 26.0268 13.7945 26.0261 15.0404 26.0268C15.0404 26.2811 15.0404 26.5362 15.0412 26.7905C13.646 26.7891 12.2501 26.7971 10.8549 26.7869C10.2779 26.7817 9.62444 26.681 9.23632 26.2069C8.80631 25.6725 8.78867 24.9448 8.79234 24.2898C8.80778 23.6621 8.87393 22.9564 9.34217 22.4874ZM11.2423 22.7763C10.9748 22.7822 10.6726 22.8219 10.4881 23.038C10.2684 23.3019 10.2706 23.6658 10.2588 23.9914C11.4724 23.9921 12.686 23.9899 13.8996 23.9921C13.8886 23.6628 13.8922 23.2923 13.6673 23.0262C13.4769 22.8131 13.1726 22.7822 12.9036 22.7763C12.3501 22.7734 11.7958 22.7727 11.2423 22.7763Z" fill="#696969"/>
<path d="M24.6327 22.0698C25.4258 21.9617 26.2292 22.0286 27.0275 22.0103C27.692 22.0235 28.4168 21.947 29.0107 22.3087C29.465 22.5836 29.6642 23.1195 29.7348 23.6215C29.8017 24.1633 29.8017 24.7138 29.7355 25.2556C29.6679 25.7268 29.4959 26.2244 29.0967 26.5148C28.6917 26.8161 28.1683 26.8617 27.681 26.8713C26.9489 26.8771 26.216 26.872 25.4839 26.8735C24.9649 26.8654 24.407 26.8536 23.9601 26.5537C23.5448 26.2847 23.3492 25.7929 23.2757 25.3217C23.2 24.7918 23.2015 24.2515 23.2529 23.7186C23.3103 23.2474 23.4543 22.7468 23.8285 22.427C24.0549 22.233 24.3423 22.1249 24.6327 22.0698ZM25.6529 22.7769C25.3523 22.7791 24.9987 22.8482 24.8422 23.1349C24.6297 23.5348 24.701 24.0052 24.6863 24.4397C24.7003 24.8734 24.6312 25.3416 24.8407 25.7415C24.9943 26.0296 25.3449 26.1046 25.6456 26.1068C26.2381 26.109 26.8305 26.1141 27.423 26.1039C27.7251 26.1009 28.0684 25.987 28.1926 25.6856C28.3742 25.2446 28.2984 24.755 28.3161 24.2904C28.3058 23.8935 28.355 23.4591 28.1426 23.1033C27.9677 22.8255 27.6112 22.7777 27.3098 22.7755C26.7577 22.774 26.205 22.7718 25.6529 22.7769Z" fill="#696969"/>
<path d="M56.4271 22.3882C56.9057 22.0192 57.54 22.0163 58.1171 22.0096C58.9271 22.0199 59.7386 21.9891 60.5487 22.0288C61.086 22.0493 61.6704 22.2383 61.9732 22.7131C62.3577 23.3181 62.3319 24.0656 62.3444 24.7544C60.6398 24.7551 58.9352 24.7544 57.2306 24.7551C57.2387 25.0969 57.2306 25.4806 57.4599 25.7607C57.6562 25.9937 57.984 26.0231 58.2692 26.0261C59.5166 26.0275 60.764 26.0261 62.0122 26.0268C62.0114 26.2811 62.0114 26.5362 62.0122 26.7913C60.7876 26.792 59.5629 26.7905 58.3391 26.7913C57.7753 26.7839 57.1776 26.8185 56.658 26.5605C56.2816 26.3826 56.0199 26.0224 55.9045 25.6299C55.7318 25.0514 55.7479 24.4368 55.7862 23.8407C55.8325 23.3092 55.9846 22.7293 56.4271 22.3882ZM58.2134 22.7763C57.9451 22.7822 57.6415 22.8219 57.4577 23.0402C57.2387 23.3041 57.2409 23.6672 57.2298 23.9914C58.4434 23.9921 59.657 23.9907 60.8714 23.9921C60.8596 23.6636 60.8633 23.2945 60.6405 23.0285C60.4494 22.8131 60.1422 22.7822 59.8717 22.7763C59.3189 22.7741 58.7661 22.7727 58.2134 22.7763Z" fill="#696969"/>
<path d="M79.5626 22.733C79.814 22.3206 80.2889 22.1082 80.7534 22.0516C81.3415 21.9854 81.934 22.0177 82.5242 22.0104C83.1071 22.0177 83.693 21.9847 84.2737 22.0552C84.7375 22.1177 85.208 22.3412 85.4505 22.7587C85.8048 23.3585 85.7806 24.0818 85.7931 24.7544C84.0877 24.7551 82.3831 24.7544 80.6785 24.7551C80.688 25.0962 80.6792 25.4792 80.9071 25.7592C81.1041 25.9937 81.4319 26.0231 81.7179 26.0261C82.9653 26.0275 84.2134 26.0253 85.4608 26.0268C85.4594 26.2811 85.4601 26.5362 85.4608 26.7905C84.1862 26.792 82.9116 26.7905 81.6377 26.792C81.0085 26.7876 80.2999 26.7942 79.7986 26.3539C79.3076 25.9129 79.2245 25.2079 79.212 24.5853C79.2105 23.9576 79.2216 23.2835 79.5626 22.733ZM80.9056 23.0402C80.6873 23.3041 80.6895 23.6672 80.6785 23.9914C81.8921 23.9921 83.1057 23.9899 84.3193 23.9921C84.309 23.679 84.3112 23.3365 84.1223 23.0696C83.9532 22.8373 83.6474 22.7859 83.3799 22.7778C82.8241 22.7705 82.2684 22.7756 81.7134 22.7756C81.429 22.7793 81.1026 22.8079 80.9056 23.0402Z" fill="#696969"/>
<path d="M95.5696 22.5607C95.9768 22.0932 96.6384 22.0175 97.222 22.0123C98.0821 22.0145 98.9428 21.9947 99.8029 22.0241C100.363 22.0366 100.983 22.2159 101.3 22.7143C101.684 23.3185 101.658 24.0654 101.671 24.7541C99.9653 24.7549 98.2607 24.7541 96.5568 24.7549C96.5649 25.0945 96.5568 25.476 96.7825 25.756C96.9787 25.9935 97.3095 26.0229 97.5977 26.0258C98.8443 26.0273 100.091 26.0258 101.338 26.0265C101.337 26.2809 101.338 26.5359 101.338 26.7903C100.137 26.7917 98.937 26.791 97.7366 26.791C97.0522 26.7829 96.2797 26.841 95.7122 26.3853C95.1697 25.931 95.0962 25.168 95.0874 24.5079C95.0933 23.8412 95.1153 23.0958 95.5696 22.5607ZM97.5381 22.7761C97.2698 22.7819 96.967 22.8224 96.7839 23.0392C96.5649 23.3031 96.5671 23.6662 96.5561 23.9911C97.7697 23.9919 98.9833 23.9897 100.197 23.9919C100.186 23.6626 100.19 23.2914 99.9646 23.0253C99.7727 22.8128 99.4691 22.7819 99.2008 22.7761C98.6466 22.7739 98.0924 22.7724 97.5381 22.7761Z" fill="#696969"/>
<path d="M16.0625 22.0923C18.1508 22.0923 20.2392 22.0923 22.3267 22.0923C22.3275 22.3474 22.3275 22.6017 22.3267 22.8568C21.5277 22.859 20.7287 22.8538 19.9297 22.8597C19.9334 24.1696 19.9312 25.4802 19.9312 26.7908C19.4401 26.7908 18.9491 26.7908 18.4581 26.7908C18.4581 25.4802 18.4566 24.1696 18.4588 22.859C17.6605 22.8538 16.8615 22.8582 16.0625 22.8568C16.0625 22.6017 16.0625 22.3474 16.0625 22.0923Z" fill="#696969"/>
<path d="M31.0776 22.0934C31.5687 22.092 32.0597 22.0927 32.5514 22.0927C32.5514 22.7065 32.5514 23.3203 32.5514 23.9341C33.5636 23.9363 34.5766 23.9326 35.5887 23.9363C35.5961 23.3217 35.5895 22.7072 35.5924 22.0927C36.0834 22.0934 36.5752 22.0905 37.0662 22.0942C37.064 23.6599 37.0662 25.2256 37.0655 26.7913C36.5745 26.7913 36.0827 26.7913 35.5924 26.7913C35.5902 26.0929 35.5954 25.3954 35.5895 24.6978C34.5766 24.7029 33.5629 24.6963 32.5507 24.7015C32.5529 25.3976 32.5507 26.0944 32.5514 26.7913C32.0597 26.7913 31.5687 26.792 31.0776 26.7905C31.0784 25.2248 31.0784 23.6591 31.0776 22.0934Z" fill="#696969"/>
<path d="M38.5752 22.0934C39.0662 22.092 39.5572 22.0927 40.049 22.0927C40.049 22.7065 40.049 23.3203 40.049 23.9341C41.0627 23.9355 42.0771 23.9348 43.0907 23.9348C43.0878 23.3203 43.09 22.7065 43.09 22.0927C43.581 22.0934 44.0728 22.0905 44.5638 22.0942C44.5616 23.6599 44.5638 25.2256 44.5631 26.7913C44.072 26.7913 43.5803 26.7913 43.09 26.7913C43.0878 26.0929 43.0937 25.3954 43.0863 24.6978C42.0734 24.7037 41.0605 24.6963 40.0475 24.7015C40.0505 25.3976 40.0483 26.0944 40.049 26.7913C39.5572 26.7913 39.0662 26.792 38.5752 26.7905C38.5759 25.2248 38.5767 23.6591 38.5752 22.0934Z" fill="#696969"/>
<path d="M46.0728 22.0926C46.5638 22.0919 47.0548 22.0926 47.5466 22.0926C47.5473 22.6241 47.5458 23.1555 47.5473 23.687C48.5213 23.6884 49.496 23.684 50.4699 23.6892C50.9595 23.7031 51.4968 23.7348 51.9018 24.0435C52.2591 24.3287 52.3319 24.8197 52.3333 25.249C52.3311 25.6944 52.2392 26.2068 51.8452 26.4766C51.4233 26.7588 50.8919 26.7794 50.4008 26.7904C48.9579 26.7919 47.5157 26.7912 46.0728 26.7904C46.0735 25.2247 46.0735 23.659 46.0728 22.0926ZM47.5466 24.4514C47.5466 24.977 47.5451 25.5019 47.548 26.0274C48.3779 26.0238 49.2085 26.0296 50.0384 26.0245C50.2942 26.0186 50.5905 25.9738 50.7544 25.7533C50.911 25.5188 50.8647 25.2152 50.85 24.9491C50.8117 24.5926 50.4207 24.4537 50.109 24.4559C49.2549 24.4448 48.4007 24.4544 47.5466 24.4514Z" fill="#696969"/>
<path d="M53.0562 22.0926C53.5472 22.0919 54.0382 22.0926 54.53 22.0926C54.53 23.659 54.53 25.2247 54.53 26.7912C54.0382 26.7912 53.5472 26.7919 53.0562 26.7904C53.0569 25.2247 53.0569 23.659 53.0562 22.0926Z" fill="#696969"/>
<path d="M65.2656 22.094C66.4844 22.094 67.7031 22.0859 68.9211 22.0977C69.4952 22.1043 70.145 22.2102 70.5272 22.685C70.9323 23.1988 70.9609 23.8883 70.9646 24.5146C70.9514 25.1247 70.897 25.801 70.4633 26.2721C70.0531 26.7088 69.4173 26.7823 68.8506 26.7882C67.6561 26.794 66.4608 26.7911 65.2656 26.7896C65.2671 26.5346 65.2664 26.2802 65.2678 26.0252C66.3359 26.0266 67.4039 26.0266 68.472 26.0259C68.7565 26.0222 69.0843 25.9891 69.2769 25.7517C69.4886 25.4812 69.4842 25.1181 69.4989 24.7925C68.2934 24.7902 67.0886 24.7917 65.8838 24.7917C65.8831 24.5381 65.8838 24.2845 65.8823 24.0309C67.0871 24.0236 68.2926 24.0302 69.4974 24.0272C69.4827 23.7207 69.4768 23.3811 69.2754 23.1297C69.0821 22.896 68.7579 22.8622 68.4749 22.8585C67.4054 22.8555 66.3359 22.8578 65.2671 22.857C65.2664 22.6027 65.2671 22.3484 65.2656 22.094Z" fill="#696969"/>
<path d="M73.2654 22.0918C74.8369 22.0933 76.4085 22.0918 77.9808 22.0925C77.9808 23.659 77.9808 25.2247 77.9808 26.7911C77.4891 26.7911 76.998 26.7918 76.507 26.7904C76.5085 25.4797 76.507 24.1691 76.5077 22.8577C75.6587 22.8585 74.8105 22.8533 73.9615 22.8607C73.8564 23.7295 73.7432 24.5984 73.6329 25.4665C73.5682 25.8899 73.5182 26.4169 73.1029 26.65C72.6479 26.8624 72.1282 26.769 71.6438 26.7911C71.6431 26.5051 71.6423 26.2192 71.6445 25.9333C71.9342 25.9252 72.2304 25.9634 72.5156 25.898C72.7905 25.8142 72.8214 25.4915 72.864 25.2519C73.0029 24.1992 73.1286 23.1451 73.2654 22.0918Z" fill="#696969"/>
<path d="M87.0161 22.093C87.5321 22.093 88.0474 22.093 88.5634 22.093C89.2066 23.2008 89.8446 24.3122 90.4922 25.4177C91.1237 24.31 91.7771 23.214 92.4012 22.1018C92.8871 22.0812 93.3737 22.0981 93.8603 22.093C93.8603 23.6594 93.8603 25.2251 93.8603 26.7916C93.3686 26.7916 92.8775 26.793 92.3865 26.7908C92.3872 25.7176 92.3887 24.6444 92.3858 23.5712C91.7595 24.6393 91.1545 25.7198 90.5341 26.7916C90.2416 26.7908 89.9498 26.7923 89.6579 26.7901C89.0464 25.7191 88.4392 24.6452 87.8195 23.5786C87.8159 24.6496 87.8188 25.7206 87.8181 26.7916C87.5498 26.7916 87.2829 26.7923 87.0161 26.7908C87.0168 25.2251 87.0168 23.6587 87.0161 22.093Z" fill="#696969"/>
<path d="M102.894 22.0933C103.385 22.0918 103.876 22.0925 104.368 22.0925C104.368 22.7063 104.367 23.3201 104.368 23.9339C105.379 23.9368 106.391 23.9317 107.404 23.9368C107.415 23.3216 107.404 22.7063 107.41 22.0918C107.9 22.094 108.392 22.0903 108.883 22.094C108.88 23.659 108.881 25.2247 108.883 26.7896C108.391 26.7926 107.899 26.7904 107.408 26.7911C107.407 26.0935 107.411 25.3959 107.407 24.6983C106.393 24.702 105.38 24.6969 104.367 24.7006C104.369 25.3974 104.367 26.0942 104.368 26.7911C103.876 26.7911 103.385 26.7918 102.894 26.7904C102.895 25.2247 102.895 23.659 102.894 22.0933Z" fill="#696969"/>
<path d="M109.931 22.0928C112.019 22.0928 114.107 22.0928 116.195 22.0928C116.195 22.3478 116.195 22.6022 116.195 22.8572C115.396 22.8594 114.597 22.8543 113.799 22.8594C113.801 24.1701 113.799 25.4807 113.8 26.7906C113.308 26.7921 112.817 26.7913 112.326 26.7913C112.327 25.4807 112.325 24.1701 112.328 22.8594C111.528 22.8543 110.73 22.8594 109.931 22.8572C109.93 22.6022 109.93 22.3478 109.931 22.0928Z" fill="#696969"/>
<path d="M117.301 22.0932C117.792 22.0917 118.283 22.0925 118.775 22.0925C118.775 22.6239 118.774 23.1554 118.776 23.6868C119.751 23.6883 120.725 23.6839 121.7 23.689C122.174 23.7015 122.686 23.7339 123.089 24.011C123.476 24.2874 123.562 24.7983 123.562 25.2422C123.56 25.6899 123.469 26.2059 123.073 26.4771C122.65 26.7587 122.119 26.7793 121.629 26.7903C120.186 26.7918 118.743 26.7918 117.301 26.7903C117.302 25.2246 117.302 23.6589 117.301 22.0932ZM118.775 24.452C118.776 24.9769 118.773 25.5017 118.777 26.0273C119.628 26.0221 120.482 26.0332 121.334 26.0221C121.642 26.0207 122.02 25.8825 122.075 25.5377C122.095 25.2709 122.137 24.971 121.995 24.7292C121.798 24.4542 121.42 24.4528 121.116 24.4506C120.335 24.452 119.555 24.4498 118.775 24.452Z" fill="#696969"/>
<path d="M124.284 22.0932C124.775 22.0917 125.266 22.0925 125.758 22.0925C125.758 23.6589 125.758 25.2246 125.758 26.791C125.266 26.791 124.775 26.7918 124.284 26.7903C124.285 25.2246 124.285 23.6589 124.284 22.0932Z" fill="#696969"/>
<path d="M45.4221 31.4359C46.2873 31.3249 47.1628 31.3984 48.0331 31.3763C48.688 31.3822 49.4304 31.3462 49.9626 31.7983C50.5007 32.279 50.5558 33.0582 50.5705 33.733C50.5639 34.4085 50.5433 35.1656 50.078 35.7037C49.6583 36.1734 48.9857 36.2359 48.3955 36.2395C47.5626 36.2351 46.7298 36.2535 45.8977 36.2285C45.3655 36.2175 44.7789 36.0771 44.4378 35.6368C44.0541 35.1391 44.0152 34.482 44.002 33.8778C44.0064 33.2772 44.024 32.6355 44.3467 32.107C44.5738 31.727 44.9958 31.5086 45.4221 31.4359ZM46.435 32.1437C46.1351 32.1459 45.7845 32.2158 45.6287 32.5003C45.4243 32.8773 45.4831 33.3228 45.4721 33.7337C45.4861 34.174 45.4184 34.6386 45.5978 35.0546C45.7257 35.3575 46.0726 35.4692 46.3784 35.4714C46.9716 35.4802 47.5656 35.4765 48.1602 35.4729C48.4601 35.4707 48.8123 35.3869 48.9578 35.0936C49.143 34.718 49.0908 34.2843 49.1019 33.8785C49.0864 33.4397 49.1533 32.9766 48.9784 32.5605C48.8527 32.2569 48.5028 32.1489 48.2014 32.1459C47.6119 32.1364 47.0231 32.1408 46.435 32.1437Z" fill="#696969"/>
<path d="M0.24206 31.4595C2.33039 31.4595 4.41798 31.4595 6.50631 31.4595C6.50631 31.7145 6.50557 31.9689 6.50631 32.2239C5.70729 32.2254 4.90827 32.221 4.10999 32.2261C4.11293 33.536 4.10852 34.8459 4.11219 36.1558C3.62043 36.1602 3.12867 36.1566 2.63764 36.158C2.63764 34.8474 2.63617 33.5368 2.63838 32.2261C1.83936 32.2217 1.04034 32.2254 0.24206 32.2239C0.24059 31.9689 0.241325 31.7145 0.24206 31.4595Z" fill="#696969"/>
<path d="M7.53906 31.4599C8.76001 31.4584 9.98243 31.4592 11.2041 31.4592C11.9157 31.4783 12.6904 31.3768 13.3351 31.7495C13.8886 32.0759 14.0745 32.7573 14.1047 33.3601C14.1348 34.0709 14.1547 34.85 13.7526 35.4712C13.4078 35.9879 12.747 36.143 12.1619 36.1489C11.1122 36.1695 10.0618 36.1511 9.01213 36.1585C9.0136 36.7722 9.01213 37.386 9.01287 37.9991C8.52111 37.9998 8.03009 37.9998 7.5398 37.9998C7.53906 35.8196 7.54053 33.6394 7.53906 31.4599ZM9.01434 32.2229C9.0114 33.2799 9.01213 34.337 9.01434 35.394C9.90598 35.3903 10.7984 35.3969 11.6907 35.391C11.9745 35.3859 12.306 35.3286 12.4728 35.0691C12.6897 34.7155 12.6419 34.2804 12.6522 33.8842C12.6375 33.4527 12.7036 32.9874 12.4978 32.589C12.3427 32.3001 11.9884 32.2288 11.6885 32.2266C10.7969 32.22 9.90598 32.2273 9.01434 32.2229Z" fill="#696969"/>
<path d="M15.5065 31.4585C16.6444 31.4592 17.783 31.4592 18.9216 31.4585C19.5435 31.4717 20.23 31.4519 20.763 31.826C21.1805 32.1237 21.2849 32.6692 21.2952 33.1499C21.3062 34.1525 21.2966 35.1552 21.3003 36.1578C20.0911 36.1578 18.8819 36.1578 17.6735 36.1578C16.9884 36.1409 16.2541 36.2313 15.6234 35.9093C15.2485 35.7307 15.0684 35.3088 15.0478 34.9133C15.0184 34.4818 15.0662 33.9805 15.4109 33.6755C15.8138 33.3425 16.3643 33.2998 16.8664 33.2866C17.8536 33.2785 18.8415 33.2859 19.8294 33.2829C19.8169 32.9992 19.8199 32.6758 19.6119 32.4552C19.4097 32.2553 19.1076 32.2333 18.84 32.2252C17.7286 32.2215 16.6172 32.2252 15.5058 32.2237C15.505 31.9686 15.505 31.7136 15.5065 31.4585ZM16.6216 34.3032C16.4805 34.5039 16.4827 34.7766 16.5547 35.003C16.6672 35.3 17.0163 35.3867 17.3037 35.3904C18.1447 35.3948 18.9863 35.3948 19.828 35.3904C19.825 34.9427 19.8265 34.4958 19.8265 34.0481C19.0091 34.0474 18.191 34.0467 17.3736 34.0489C17.1082 34.054 16.7987 34.0797 16.6216 34.3032Z" fill="#696969"/>
<path d="M22.6816 31.4592C23.1727 31.4585 23.6637 31.4592 24.1555 31.4592C24.1555 32.073 24.1547 32.6868 24.1555 33.3006C25.1684 33.302 26.1813 33.3006 27.1942 33.3013C27.1979 32.6875 27.1935 32.073 27.1964 31.4585C27.6875 31.4607 28.1785 31.457 28.6703 31.4607C28.6688 33.0257 28.6673 34.5899 28.671 36.1548C28.1792 36.1607 27.6875 36.1563 27.1964 36.1578C27.1942 35.4602 27.1979 34.7626 27.1942 34.065C26.1806 34.068 25.1676 34.0643 24.1547 34.0673C24.1555 34.7641 24.1547 35.4609 24.1555 36.1578C23.6637 36.1578 23.1727 36.1585 22.6816 36.157C22.6824 34.5914 22.6824 33.0257 22.6816 31.4592Z" fill="#696969"/>
<path d="M30.3851 32.0363C30.7762 31.5658 31.4289 31.4695 32.006 31.4636C33.2144 31.4534 34.4236 31.4622 35.6328 31.4592C35.6321 31.7143 35.6321 31.9686 35.6328 32.2237C34.5684 32.2244 33.5048 32.223 32.4411 32.2244C32.1581 32.2281 31.8369 32.2553 31.6384 32.4802C31.4282 32.7213 31.4135 33.0602 31.4054 33.3638C31.4054 33.7328 31.3937 34.1025 31.4157 34.4715C31.4341 34.7354 31.4958 35.0265 31.7112 35.2037C31.9156 35.3705 32.1927 35.3889 32.447 35.3926C33.5084 35.3941 34.5706 35.3926 35.6328 35.3933C35.6321 35.6477 35.6321 35.9027 35.6328 36.1578C34.5449 36.1585 33.4577 36.1571 32.3706 36.1585C31.7421 36.1534 31.0342 36.1637 30.5299 35.7292C30.0316 35.2889 29.9493 34.5767 29.9368 33.9511C29.9338 33.2969 29.9522 32.5692 30.3851 32.0363Z" fill="#696969"/>
<path d="M36.7212 31.46C38.7169 31.4593 40.7134 31.4578 42.7098 31.4607C42.7076 33.0264 42.7091 34.5914 42.7091 36.1571C42.2173 36.1586 41.7263 36.1578 41.236 36.1578C41.2353 34.8465 41.236 33.5351 41.2353 32.2237C40.2223 32.223 39.2094 32.2252 38.1965 32.223C38.1921 33.5344 38.1957 34.8457 38.195 36.1578C37.7032 36.1578 37.2122 36.1586 36.7212 36.1571C36.7219 34.5914 36.7219 33.0257 36.7212 31.46Z" fill="#696969"/>
<path d="M51.8638 31.4592C53.2567 31.4585 54.6489 31.46 56.0419 31.4585C56.602 31.4651 57.207 31.4585 57.6973 31.7731C58.1339 32.048 58.3324 32.5648 58.4 33.0543C58.4625 33.5711 58.4625 34.0959 58.3926 34.6112C58.3191 35.0986 58.103 35.6058 57.6613 35.8645C57.1555 36.171 56.5425 36.1519 55.9735 36.1585C55.0944 36.1578 54.2153 36.1563 53.3368 36.1585C53.3376 36.7723 53.3368 37.3861 53.3376 37.9999C52.8458 37.9999 52.3548 37.9999 51.8645 37.9999C51.8638 35.8197 51.8645 33.6394 51.8638 31.4592ZM53.3376 32.2244C53.3383 33.2807 53.3354 34.3378 53.3391 35.3941C54.2307 35.3896 55.1231 35.397 56.0154 35.3911C56.3175 35.3896 56.6755 35.3139 56.8277 35.0192C57.0276 34.6215 56.9615 34.1591 56.9769 33.7299C56.9644 33.316 57.0203 32.8478 56.7586 32.4957C56.53 32.2244 56.1455 32.2252 55.8229 32.2237C54.9937 32.2244 54.1653 32.223 53.3376 32.2244Z" fill="#696969"/>
<path d="M59.1945 31.4595C61.2828 31.4595 63.3704 31.4595 65.4587 31.4595C65.458 31.7145 65.458 31.9689 65.4587 32.2239C64.6597 32.2261 63.8607 32.2203 63.0617 32.2269C63.0668 33.536 63.0595 34.8452 63.0653 36.1551C62.5721 36.1588 62.0789 36.1624 61.5864 36.1529C61.5945 34.8437 61.5871 33.5346 61.5908 32.2254C60.7918 32.2217 59.9927 32.2254 59.1945 32.2239C59.193 31.9689 59.193 31.7145 59.1945 31.4595Z" fill="#696969"/>
<path d="M66.5202 31.4585C67.6574 31.4592 68.7953 31.4592 69.9331 31.4585C70.4021 31.4614 70.8807 31.4681 71.3342 31.6055C71.6547 31.7047 71.9539 31.9106 72.1112 32.2149C72.2913 32.5684 72.3089 32.9757 72.314 33.3653C72.3133 34.2959 72.3133 35.2265 72.314 36.1578C70.8579 36.1571 69.4017 36.16 67.9463 36.1563C67.4449 36.1453 66.9017 36.1159 66.482 35.8108C66.1586 35.569 66.0549 35.1405 66.0535 34.756C66.0483 34.3561 66.1277 33.8997 66.4666 33.6416C66.89 33.3248 67.4442 33.2954 67.9543 33.2844C68.9173 33.2807 69.8802 33.2851 70.8432 33.2829C70.8307 32.9992 70.8336 32.6765 70.6263 32.456C70.422 32.2538 70.1177 32.2333 69.8479 32.2252C68.7387 32.2215 67.6287 32.2252 66.5195 32.2237C66.518 31.9686 66.518 31.7136 66.5202 31.4585ZM67.5655 34.4333C67.4795 34.709 67.5015 35.078 67.7676 35.2485C68.0609 35.4337 68.4248 35.3852 68.7563 35.3933C69.4509 35.3904 70.1463 35.3977 70.8424 35.3896C70.838 34.9427 70.841 34.4951 70.8402 34.0481C69.9978 34.0496 69.1547 34.0437 68.3131 34.0511C68.0271 34.0555 67.6721 34.1312 67.5655 34.4333Z" fill="#696969"/>
</svg>
