<svg width="104" height="45" viewBox="0 0 104 45" fill="none" xmlns="http://www.w3.org/2000/svg">
<path d="M17.0737 0.859449C17.6954 0.564105 18.3555 0.352935 18.9492 0C24.7807 2.47055 30.5872 4.99721 36.4172 7.46775C36.7643 7.62428 37.1246 7.74537 37.4908 7.8517C37.5765 8.7392 37.5174 9.62966 37.5203 10.5186C37.5366 14.7509 37.5277 18.9817 37.5218 23.214C37.6104 25.0909 37.3609 26.9988 36.6919 28.7605C36.4113 29.6037 36.085 30.4381 35.6552 31.2163C35.4012 31.5707 35.2344 31.9739 35.0084 32.3445C34.8076 32.6531 34.6186 32.9692 34.3912 33.2586C34.0471 33.7784 33.6735 34.279 33.294 34.7722C33.1699 34.8963 33.0488 35.0233 32.9278 35.1503C32.5246 35.7661 31.9561 36.2416 31.4481 36.7658C30.8987 37.3004 30.404 37.8999 29.7513 38.3134C28.7708 39.2157 27.6913 40.0087 26.5823 40.7455C26.3549 40.9065 26.126 41.066 25.906 41.2358C25.8587 41.2535 25.7612 41.2919 25.7125 41.3111C25.5279 41.4514 25.3389 41.5858 25.1528 41.7231C24.3451 42.1794 23.5683 42.6904 22.7428 43.1127C21.5024 43.7994 20.2442 44.4802 18.9241 45C17.4222 44.2764 15.9485 43.5011 14.5057 42.6727C13.9889 42.3537 13.4543 42.0643 12.9522 41.7231C12.3748 41.3658 11.7797 41.0335 11.251 40.6038C10.3104 39.9939 9.4524 39.2703 8.55013 38.6102C8.05986 38.0594 7.45145 37.6415 6.91392 37.1438C6.52259 36.7436 6.12093 36.3523 5.72664 35.9566C5.66019 35.834 5.59669 35.7114 5.5332 35.5889C4.56447 34.6541 3.80248 33.5303 3.08184 32.3991C3.00801 32.2869 2.93417 32.1732 2.86033 32.061C1.24924 29.3645 0.370594 26.2176 0.459197 23.0707C0.447383 18.0307 0.493163 12.9892 0.432617 7.94916C1.85026 7.37029 3.26348 6.77665 4.6767 6.18449C5.51105 5.77101 6.3956 5.46828 7.23142 5.05923C7.25357 4.32973 7.50609 3.64306 7.79405 2.98297C7.9299 2.78952 8.06281 2.59311 8.19719 2.39671C8.34191 2.14272 8.52206 1.77058 8.87795 1.82227C9.32835 2.0039 9.74774 2.283 10.2365 2.36275C10.6707 2.42034 11.1107 2.38342 11.5464 2.35832C11.6749 2.08069 11.8698 1.84737 12.1223 1.6746C13.0748 0.951006 14.426 0.886029 15.5084 1.35267C16.0799 1.38664 16.5643 1.06028 17.0737 0.859449ZM18.6774 1.42503C17.9214 1.73957 17.183 2.09398 16.4195 2.3908C17.1653 3.27388 17.1992 4.65609 16.5288 5.58789C16.1744 6.1136 16.0873 6.7545 15.9337 7.357C15.854 7.39392 15.6959 7.46923 15.6162 7.50615C16.2453 7.68335 16.8094 8.00971 17.2805 8.46158C18.4028 9.05079 19.9002 8.98582 20.7493 10.0609C22.2304 9.58832 23.7795 9.39487 25.2887 9.03307C26.4701 8.81452 27.5407 8.24007 28.7073 7.95802C29.3822 8.38775 30.1013 8.85143 30.5502 9.52334C30.5783 10.3725 29.7129 10.9055 29.363 11.6218C29.6583 11.9009 30.0068 12.1519 30.1944 12.524C30.3848 13.0291 30.2711 13.5814 30.1929 14.0982C30.4779 14.5575 30.7481 15.0418 30.8249 15.5867C30.9681 16.5983 30.9755 17.7103 30.3775 18.5904C30.1264 19.1161 29.5594 19.3465 29.1976 19.7717C28.9702 20.3211 28.855 20.9192 28.5316 21.4257C28.2037 22.0031 27.6603 22.4062 27.1272 22.7783C27.8538 23.8401 29.0617 24.4145 29.868 25.4039C30.3701 25.9754 30.5753 26.7212 30.8426 27.4167C31.355 26.3446 31.5706 25.147 31.6209 23.9671C31.6297 18.199 31.612 12.4325 31.6297 6.66589C27.5481 4.9662 23.5004 3.1838 19.4291 1.46047C19.1913 1.3571 18.9196 1.30246 18.6774 1.42503ZM12.3394 3.12768C12.3305 3.18971 12.3113 3.31375 12.3025 3.37725C11.2097 3.75972 10.0564 3.51901 8.99314 3.16313C8.88091 3.42598 8.76868 3.68884 8.66088 3.95317C8.89715 3.99304 9.13195 4.02996 9.3697 4.07131C9.83782 4.22636 10.3384 4.15696 10.8228 4.154C10.8228 4.22488 10.8198 4.36813 10.8198 4.44048C10.0298 4.4523 9.22498 4.53499 8.45266 4.32382C8.45413 4.5217 8.45562 4.72106 8.45857 4.92042C8.40541 4.98982 8.2976 5.13011 8.24297 5.19952C9.08912 5.22314 9.96187 5.26745 10.749 4.89679C10.8228 4.98687 10.9705 5.16408 11.0443 5.25416C10.6205 5.4033 10.1819 5.50224 9.75217 5.62481C9.29587 5.63072 8.83956 5.64548 8.38621 5.67059C8.42756 5.95707 8.47334 6.24355 8.52355 6.52856C9.31802 6.45177 10.0903 6.20368 10.7741 5.7902C10.873 5.80202 11.0724 5.82269 11.1713 5.83303C11.1285 5.91277 11.0443 6.07373 11.0015 6.15347C10.2661 6.53299 9.49817 6.91398 8.64611 6.87264C8.94883 7.21671 9.25009 7.56522 9.54839 7.91372C9.66948 7.83545 9.78908 7.75719 9.91017 7.67744C10.1081 7.53863 10.303 7.39687 10.495 7.24772C11.0664 6.88593 11.4489 6.3233 11.8727 5.81235C12.1415 5.50815 11.8609 5.11534 11.8521 4.77275C11.9244 4.43753 12.0795 4.12742 12.2818 3.85127C12.6318 3.86752 12.9906 3.87195 13.3258 3.99747C13.6684 4.01224 14.014 4.00485 14.3581 4.02996C15.0432 4.09936 15.5896 4.64427 16.2955 4.61326C16.3324 4.25294 16.4919 3.86161 16.3221 3.51458C16.1345 3.17642 15.848 2.90618 15.5586 2.65514C15.1348 2.31254 14.5796 2.26528 14.073 2.12942C13.3657 2.20031 12.775 2.57982 12.3394 3.12768ZM12.5432 4.3637C12.5742 4.71515 12.5269 5.10944 12.7942 5.38558C12.8016 5.44317 12.8134 5.55688 12.8193 5.61447C12.4738 6.12394 12.4708 6.82538 12.7543 7.36291C13.1309 7.86351 13.7984 7.97131 14.3448 8.20463C14.4393 8.16919 14.6283 8.09536 14.7243 8.05992C14.7509 7.87976 14.7774 7.70255 14.807 7.52387C14.5899 7.43526 14.4688 7.26101 14.3979 7.04984C14.6017 7.07052 14.807 7.09267 15.0137 7.11629C14.9753 7.0395 14.897 6.88445 14.8572 6.80766C14.2414 6.84605 13.6094 6.87707 13.0157 6.67919C13.0157 6.05454 12.9212 5.3974 13.2328 4.82295C13.0984 4.77422 12.9655 4.72549 12.8356 4.67676C12.7617 4.59849 12.6155 4.44196 12.5432 4.3637ZM13.7053 4.61031C13.5547 5.14192 13.3819 5.67354 13.3037 6.22288C13.698 6.45325 14.1587 6.51822 14.6047 6.57582C14.6209 6.43257 14.6519 6.14609 14.6682 6.00285C14.8941 6.12394 15.0669 6.30705 15.1688 6.5448C15.2441 6.53594 15.3962 6.5197 15.4715 6.51084C15.5601 6.06044 15.6768 5.61447 15.7919 5.16851C15.7181 5.17589 15.5719 5.18918 15.4981 5.19656C14.9561 4.86726 14.3566 4.57634 13.7053 4.61031ZM6.34539 6.78846C6.39707 11.5775 6.35277 16.3664 6.36606 21.1554C6.3823 22.291 6.30847 23.4311 6.44728 24.5607C6.69242 27.1612 7.96534 29.5757 9.69162 31.4998C10.111 30.472 10.2306 29.3305 10.0165 28.2392C9.85554 27.3709 9.87179 26.479 10.0283 25.6107C9.83044 25.59 9.63256 25.5679 9.43763 25.5472C9.64585 24.4677 9.89541 23.3941 10.0874 22.3102C10.272 21.1835 10.6677 20.0863 10.6648 18.9315C10.6855 17.9923 10.6736 16.932 10.018 16.1833C9.32983 15.4125 8.61215 14.6239 8.25626 13.6345C7.97864 12.843 7.58288 12.0869 7.41601 11.2614C7.23733 10.018 7.98159 8.93561 8.55603 7.90486C8.23115 7.33337 7.9491 6.73825 7.72611 6.11951C7.24914 6.30853 6.7884 6.53299 6.34539 6.78846ZM9.8201 8.50441C9.57201 8.66389 9.28553 8.58267 9.02858 8.50145C8.50878 9.22061 8.11893 10.0461 8.02589 10.9366C8.09382 11.3175 8.21934 11.6853 8.33157 12.0559C8.74062 13.0719 9.05369 14.1883 9.87031 14.9709C10.7209 15.7861 11.4489 16.9143 11.2289 18.1459C12.1755 18.3748 13.1604 18.4279 14.1203 18.2581C14.0435 18.2123 13.8899 18.1193 13.8131 18.072C13.7009 17.6911 13.5518 17.3219 13.4277 16.9453C13.2062 16.7962 12.995 16.6337 12.7853 16.4698C12.5269 15.8156 12.5506 15.1098 12.5771 14.4201C12.2286 14.2592 11.8846 14.0893 11.5508 13.9033C11.1137 13.5991 10.7371 13.2196 10.4359 12.781C10.176 12.4029 9.71083 12.2715 9.31802 12.0795C8.95327 11.7576 8.65645 11.3633 8.52945 10.8878C8.70665 10.8081 8.88829 10.7283 9.06845 10.6471C9.41696 11.2541 9.96777 11.7871 10.6781 11.9215C10.7504 12.0574 10.8243 12.1932 10.8981 12.3321C11.4297 12.7662 11.827 13.5503 12.5816 13.5843C12.5786 12.9921 12.5594 12.4 12.6008 11.8093C12.6805 11.8226 12.8415 11.8492 12.9212 11.8625C13.9579 12.2597 14.8926 13.1044 15.1097 14.2267C15.1776 14.4127 15.2426 14.6003 15.3105 14.7893C15.6915 14.9444 16.0577 15.1363 16.4181 15.3357C16.8079 15.1585 17.2317 15.0965 17.6393 14.9695C18.4796 14.6594 19.2209 14.1366 19.912 13.5725C20.5307 13.063 21.2587 12.719 21.9956 12.4177C22.3235 12.2892 22.5331 11.988 22.7679 11.7399C23.1105 11.6513 23.4561 11.5686 23.809 11.5302C23.8208 11.6247 23.8445 11.8152 23.8578 11.9112C24.1959 12.1637 24.5976 12.3025 25.0155 12.3527C25.0185 12.2996 25.0214 12.1918 25.0244 12.1386C24.76 11.4342 23.9774 11.35 23.3616 11.1315C22.7207 11.3914 22.0872 11.7059 21.3857 11.7502C19.8071 12.0426 18.2226 12.3616 16.7149 12.9242C16.4476 12.8489 16.1833 12.7633 15.9248 12.6658C15.7727 12.3764 15.696 12.0057 15.3829 11.8418C14.5559 11.257 13.5769 10.969 12.651 10.5866C12.6377 9.95454 12.2552 9.46427 11.8078 9.05965C11.8993 8.88392 11.9909 8.70672 12.0824 8.53099C12.6657 8.689 12.9079 9.28264 13.1826 9.75666C13.1914 9.83493 13.2092 9.99146 13.2165 10.0697C13.9815 10.3872 14.7464 10.7003 15.4877 11.0709C15.9367 11.381 16.297 11.799 16.5894 12.2582C16.7754 12.1962 16.9615 12.1357 17.1505 12.0751C17.0073 11.8285 16.8714 11.576 16.74 11.3235C16.867 10.7771 16.9541 10.176 16.737 9.64C16.9704 9.59718 17.2037 9.54401 17.4385 9.49085C17.499 10.2942 17.2495 11.1861 17.7663 11.8861C18.5091 11.6897 19.2519 11.4829 20.0109 11.3486C20.4273 11.2496 20.8526 11.1802 21.2779 11.1211C22.0193 11.0724 22.6808 10.6899 23.3365 10.3754C23.9818 10.6279 24.6286 10.876 25.2843 11.1005C25.8292 10.6589 26.6606 10.5378 26.9027 9.79506C27.5776 9.76995 28.2525 9.77586 28.9288 9.77881C28.7693 9.68578 28.6098 9.59422 28.4533 9.50267C28.2938 9.47313 28.1358 9.4436 27.9793 9.41406C27.9734 9.30479 27.9601 9.08476 27.9542 8.97548C28.4001 9.0626 28.8313 9.20732 29.2537 9.37271C29.2685 9.44507 29.2965 9.58684 29.3098 9.6592C29.3836 9.91762 29.3999 10.1864 29.4235 10.4522C29.5372 10.2661 29.6539 10.0815 29.7794 9.90286C29.7912 9.83493 29.8148 9.69759 29.8267 9.62966C29.4619 9.3358 29.0765 9.06704 28.7413 8.74068C28.2229 8.72591 27.7445 8.92527 27.2616 9.08328C26.8983 9.28854 26.5144 9.46132 26.1038 9.54106C24.9343 9.85265 23.7337 10.0107 22.5538 10.2676C22.164 10.3872 21.7653 10.4714 21.371 10.5718C21.0047 10.7136 20.609 10.6501 20.2309 10.6102C19.9164 10.2012 19.5162 9.8364 18.9994 9.7227C18.3511 9.4879 17.6792 9.3358 17.0235 9.13053C16.6145 8.60039 15.9736 8.37741 15.3903 8.10569C15.3223 8.26961 15.2559 8.435 15.1909 8.60039C14.5869 8.81009 13.9032 8.83519 13.3081 8.5812C12.7691 8.40694 12.4309 7.92849 12.0307 7.56079C11.9835 7.32303 11.9377 7.08528 11.8875 6.84753C11.2791 7.48843 10.6146 8.10422 9.8201 8.50441ZM4.99567 7.29645C3.87632 7.72765 2.79536 8.25041 1.68044 8.689C1.60956 13.9712 1.67454 19.2534 1.64648 24.5342C1.6258 25.1027 1.76166 25.6579 1.83993 26.2176C2.36121 29.1784 3.89552 31.8469 5.7547 34.1697C6.3129 34.6954 6.75739 35.3216 7.27867 35.8827C8.05395 36.5901 8.84399 37.2797 9.6488 37.9531C10.0785 38.2898 10.4905 38.6501 10.938 38.9646C11.2363 39.1507 11.5183 39.3633 11.7767 39.604C11.8299 39.6277 11.9362 39.6779 11.9909 39.7015C12.425 40.0101 12.8666 40.3129 13.317 40.5993C13.8131 40.9021 14.3093 41.2048 14.8099 41.5031C16.1833 42.3286 17.6364 43.0064 19.0555 43.7492C19.751 43.4199 20.4347 43.0625 21.0919 42.6608C21.8686 42.2813 22.6321 41.8752 23.366 41.4189C24.5961 40.7278 25.7583 39.9289 26.9072 39.1138C27.4757 38.7254 27.9542 38.2174 28.5552 37.8748C28.7856 37.6503 29.013 37.4215 29.236 37.1896C29.295 37.1719 29.4132 37.1335 29.4737 37.1158C29.5387 37.0493 29.6701 36.9164 29.7351 36.8485C30.119 36.4468 30.5207 36.0599 30.9135 35.6642C32.9189 33.6573 34.5315 31.2488 35.574 28.604C36.0008 27.2912 36.3463 25.9311 36.3655 24.543C36.5885 23.2745 36.4601 21.9839 36.4925 20.7036C36.4674 16.6972 36.5442 12.6894 36.4512 8.68604C35.2698 8.31391 34.183 7.68926 33.0045 7.30236C32.9455 7.30384 32.8273 7.30679 32.7683 7.30827C32.8524 8.18248 32.7845 9.06113 32.7948 9.93682C32.8022 14.4659 32.783 18.9965 32.8067 23.5256C32.7003 24.4884 32.6501 25.463 32.4257 26.4096C31.5057 30.1929 28.7634 33.2113 25.7332 35.5062C25.5264 35.6538 25.3241 35.8059 25.1292 35.9669C24.986 36.0525 24.8472 36.1397 24.7098 36.2297C23.2582 37.2561 21.6929 38.1052 20.098 38.8819C19.6447 39.0813 19.1707 39.4785 18.6523 39.2541C17.4783 38.6988 16.3383 38.0801 15.2116 37.4377C14.8276 37.1896 14.4348 36.9592 14.0524 36.7126C13.5178 36.3331 12.9566 35.992 12.4354 35.5948C12.3276 35.515 12.2198 35.4367 12.1134 35.3585C11.9215 35.202 11.7265 35.0484 11.5257 34.9081C11.1639 34.5699 10.7947 34.2436 10.4049 33.9394C9.36232 33.0194 8.46891 31.9399 7.64638 30.822C6.39855 28.9584 5.45788 26.8127 5.33383 24.5504C5.34122 18.741 5.3176 12.9301 5.35008 7.12072C5.23047 7.17832 5.11233 7.23738 4.99567 7.29645ZM27.1567 10.4256C27.4772 10.4906 27.805 10.5319 28.1329 10.5718C28.0826 11.2157 27.9173 11.8433 27.6913 12.4472C27.6825 12.3882 27.6633 12.27 27.6529 12.2095C27.554 12.1652 27.3546 12.0736 27.2557 12.0279C27.1494 12.0116 26.9352 11.9776 26.8289 11.9614C26.9264 11.6971 27.0312 11.4357 27.1405 11.1758C27.2247 10.972 27.3177 10.7741 27.4152 10.5762C27.0829 10.8406 26.9057 11.2349 26.6547 11.5671C26.5483 11.9053 26.4538 12.2464 26.3741 12.592C25.584 13.1103 24.5592 12.8858 23.6894 12.716C23.5728 12.5801 23.4576 12.4458 23.3439 12.3129C23.1785 12.3793 23.016 12.4472 22.8536 12.5166C22.7502 12.7308 22.6469 12.9434 22.5464 13.1575C23.4664 13.1251 24.382 13.255 25.2769 13.4691C25.9916 13.6537 26.7521 13.794 27.3443 14.2695C27.3591 14.5708 27.3901 14.8705 27.4285 15.1703C27.7696 15.3224 28.1329 15.4007 28.502 15.4568C28.5109 15.1703 28.5168 14.8853 28.5198 14.5988C28.3411 14.3138 28.1624 14.0318 28.0014 13.7379C28.4297 13.7896 28.8372 13.9328 29.2389 14.0879C29.3098 14.0421 29.453 13.9505 29.5239 13.9048C29.5771 13.6183 29.7115 13.3362 29.6878 13.0394C29.611 12.7603 29.4279 12.5314 29.2581 12.3055C29.0957 12.177 28.9362 12.0456 28.7782 11.9186C28.8786 12.0899 28.9761 12.2626 29.0735 12.4384C28.9938 12.7529 28.7398 13.0394 28.412 13.1088C28.378 12.6023 28.3248 12.0899 28.406 11.5863C28.5286 11.4933 28.6571 11.4062 28.79 11.3264C28.8092 11.0163 28.8299 10.7062 28.8491 10.3961C28.285 10.3695 27.7164 10.3281 27.1567 10.4256ZM27.5333 11.2939C27.613 11.3766 27.613 11.3766 27.5333 11.2939V11.2939ZM25.5117 12.2405C25.8882 12.1253 25.9222 11.7192 26.0152 11.4017C25.7051 11.5848 25.5146 11.8713 25.5117 12.2405ZM27.3768 11.7074C27.4565 11.7916 27.4565 11.7916 27.3768 11.7074V11.7074ZM13.2151 12.6983C13.2106 12.7943 13.2018 12.9862 13.1973 13.0822C13.3731 13.1782 13.5518 13.2727 13.7334 13.3598C13.9638 13.5961 14.1188 13.887 14.2621 14.1824C14.0937 14.2533 13.9254 14.3227 13.757 14.3906C14.0273 14.6475 14.0819 15.0034 14.076 15.3623C13.98 15.3564 13.7866 15.346 13.6906 15.3416C13.6359 15.1541 13.5842 14.9665 13.5326 14.779C13.41 14.6667 13.2874 14.556 13.1663 14.4438C13.1767 14.8366 13.1368 15.2323 13.1914 15.6237C13.3554 15.9987 13.6684 16.2749 13.9579 16.554C14.1336 17.0398 14.3772 17.4976 14.5367 17.9894C14.8808 18.6539 15.1968 19.3332 15.5468 19.9947C15.7447 20.3802 16.1316 20.643 16.5569 20.7124C17.7058 20.9753 18.8517 21.2544 20.0065 21.4892C20.7567 21.656 21.5098 21.8096 22.2673 21.9381C22.4327 21.1805 22.6985 20.4171 22.5996 19.6315C22.5302 19.2121 22.3988 18.8045 22.2437 18.4087C20.4465 17.8181 18.5903 18.5992 16.7666 18.4457C16.7562 18.3659 16.7356 18.2079 16.7252 18.1296C16.6086 18.0145 16.4934 17.9007 16.3797 17.787C16.0843 17.3426 15.7698 16.9084 15.4095 16.5141C15.3858 16.4477 15.3401 16.3148 15.3164 16.2483C15.1614 16.1257 15.0108 16.0032 14.8587 15.8806C14.5604 15.1851 14.6135 14.3847 14.2237 13.7172C14.0095 13.2712 13.5842 13.0025 13.2151 12.6983ZM19.184 14.9207C18.8103 15.1659 18.3939 15.3578 18.0705 15.6709C18.0188 16.393 18.0218 17.1196 17.911 17.8373C18.2713 17.3499 18.4367 16.7563 18.7572 16.2468C19.2002 15.5351 19.7111 14.8484 20.3963 14.3507C20.9383 13.8989 21.6043 13.6227 22.1197 13.1354C20.9782 13.4307 20.1674 14.3315 19.184 14.9207ZM13.0585 13.5725C13.1841 13.9195 13.4366 14.1868 13.7807 14.3241C13.7216 14.1558 13.661 13.9889 13.6005 13.8221C13.4189 13.7379 13.2372 13.6552 13.0585 13.5725ZM22.5523 13.7719C22.0828 14.0406 21.5836 14.271 21.1849 14.6446C21.1317 14.6712 21.0254 14.7243 20.9737 14.7524C20.606 15.1349 20.2029 15.4834 19.85 15.8791C19.3907 16.4506 19.0186 17.0856 18.6996 17.7427C19.5856 17.4503 20.5396 17.6689 21.4551 17.5906C21.6205 17.3854 21.7963 17.1875 21.9853 17.0029C22.6026 17.5655 22.957 18.329 23.2228 19.1057C23.2021 19.9283 23.239 20.7552 23.084 21.5689C22.9511 21.6442 22.8181 21.7181 22.6852 21.7875C22.7561 22.0149 22.827 22.2438 22.8757 22.48C23.1534 22.5406 23.4295 22.6056 23.7101 22.6661C23.8932 22.2881 24.0497 21.8997 24.2077 21.5128C24.4499 20.4968 24.5031 19.3996 24.1738 18.3969C23.9877 17.8299 23.5388 17.3824 23.4236 16.7873C24.3318 17.0531 24.5474 18.1134 24.7349 18.9153C24.9697 19.7747 24.7497 20.6519 24.6508 21.5128C24.4972 21.8835 24.3761 22.2659 24.252 22.6469C24.6552 22.6218 25.0598 22.607 25.4644 22.5864C25.838 21.4877 26.2205 20.2886 25.9134 19.1294C25.7923 18.3644 25.5767 17.5921 25.0938 16.9734C25.2104 16.8552 25.3286 16.7386 25.4482 16.6219C25.6726 17.0634 25.9045 17.5035 26.0728 17.9716C26.1644 18.233 26.253 18.5003 26.2884 18.7764C26.3505 20.0435 26.3756 21.3326 25.968 22.5509C26.3106 22.4062 26.6443 22.2438 26.981 22.0828C27.3502 21.148 27.6131 20.1247 27.4506 19.1161C27.328 18.3718 27.1508 17.6349 26.8835 16.9291C26.9559 16.8626 27.0991 16.7312 27.1715 16.6647C27.7179 17.6335 27.7873 18.7543 27.9246 19.8308C27.8597 20.4215 27.7209 21.0033 27.6278 21.5925C27.7179 21.4419 27.8095 21.2913 27.9025 21.1421C28.3219 20.4776 28.5832 19.7171 28.6645 18.9359C28.728 18.2035 28.4533 17.505 28.3411 16.7903C28.6084 16.8582 28.8358 17.0251 28.8919 17.3086C28.9879 17.886 29.0115 18.4737 29.0588 19.057C29.2921 18.8237 29.5283 18.5948 29.772 18.3703C30.088 17.7767 30.3213 17.1166 30.2889 16.4358C30.3243 15.8171 30.0068 15.2678 29.8444 14.6904C29.6051 14.6786 29.3659 14.6712 29.1282 14.6638C29.1163 15.1038 29.1739 15.5794 28.8845 15.9485C28.1461 16.0416 27.2911 16.0608 26.7964 15.4021C26.758 15.129 26.7211 14.8587 26.6842 14.587C26.0093 14.398 25.3625 14.1085 24.664 14.0126C24.2875 13.9387 23.8991 13.921 23.5358 13.7925C23.208 13.7719 22.8802 13.7704 22.5523 13.7719ZM15.5941 15.665C15.8082 15.9116 16.0238 16.1597 16.2231 16.4196C16.5894 16.8862 16.9526 17.3588 17.2421 17.8786C17.2834 17.1284 17.4739 16.393 17.4636 15.6384C17.118 15.7713 16.7887 15.9781 16.4092 15.9884C16.1198 15.9308 15.8628 15.7758 15.5941 15.665ZM11.2156 18.8207C11.2185 18.9492 11.223 19.2076 11.2259 19.3361C11.954 19.6152 12.741 19.4528 13.4868 19.6344C13.8486 19.6979 14.1927 19.5133 14.5397 19.4292C14.4393 19.2564 14.3448 19.0836 14.2517 18.9093C13.2402 18.9492 12.2168 18.992 11.2156 18.8207ZM11.2141 20.0272C10.9985 21.0919 10.8272 22.1655 10.5466 23.2155C10.3901 23.7988 10.4019 24.4249 10.145 24.9801C11.1344 24.893 12.1563 24.6877 13.1353 24.9432C13.2623 24.9432 13.3908 24.9432 13.5207 24.9417C13.8176 24.0483 13.7496 23.1062 13.7807 22.1817C14.0081 22.1714 14.2355 22.1611 14.4658 22.1507C14.5382 23.18 14.3005 24.1989 14.169 25.2164C14.0863 25.3611 14.011 25.5088 13.9328 25.6565C14.0214 25.7096 14.1986 25.8174 14.2872 25.8721C14.5264 25.8573 14.7656 25.8425 15.0063 25.8263C15.2647 24.7704 15.4744 23.6983 15.3726 22.6056C15.5867 22.6794 16.0386 22.4564 16.0814 22.7769C15.9411 23.7751 15.9942 24.7941 15.7181 25.7746C15.975 25.6978 16.2335 25.6166 16.4919 25.5398C16.5731 25.5014 16.7341 25.4217 16.8153 25.3833C16.9497 24.6567 17.0309 23.9228 17.0324 23.183C17.2066 23.1815 17.3809 23.1815 17.5566 23.18C17.5921 23.9243 17.6807 24.6907 17.471 25.4187C17.5241 25.3464 17.6334 25.2031 17.6866 25.1308C17.8077 25.1278 18.0484 25.1204 18.168 25.1175C18.5121 25.0082 18.8694 24.9609 19.2224 24.89C18.7513 23.8741 18.1916 22.8773 17.9952 21.7609C17.5005 21.5807 16.9792 21.4877 16.4727 21.3504C16.1301 21.2677 15.7934 21.1672 15.4582 21.0668C15.2485 20.7508 15.0373 20.4363 14.8276 20.1217C14.7878 20.1631 14.7095 20.2443 14.6696 20.2856C13.5104 20.2945 12.3571 20.2281 11.2141 20.0272ZM18.7439 21.8982C18.8074 22.1685 18.8812 22.4343 18.9536 22.703C19.1574 23.2332 19.3848 23.7559 19.6875 24.2373C20.4406 25.4674 21.3385 26.6193 22.5228 27.4625C23.2449 27.8066 23.9537 28.1979 24.7453 28.3692C25.3315 28.8816 25.8439 29.5284 26.0049 30.3081C26.2884 31.4348 26.1644 32.6074 26.0241 33.7444C26.6089 33.3324 27.1169 32.8303 27.6116 32.3164C27.9645 31.9975 28.2805 31.6386 28.5508 31.2458C28.8062 30.952 29.044 30.6404 29.2921 30.3391C29.6657 29.7706 30.0762 29.2213 30.345 28.5922C30.5724 28.1122 30.1811 27.653 30.0718 27.1967C29.7528 26.1349 28.8815 25.3892 28.0945 24.6685C27.5008 24.2314 26.9471 23.722 26.5734 23.0781C25.838 23.1741 25.1144 23.4502 24.3657 23.3557C23.6008 23.2509 22.8388 23.1372 22.0798 23.0013C22.0665 22.8404 22.0562 22.6809 22.0458 22.5214C21.7608 22.4845 21.4773 22.452 21.1997 22.3841C20.3727 22.2615 19.5546 22.102 18.7439 21.8982ZM10.6559 25.6122C10.6796 26.1334 10.6205 26.6518 10.5658 27.1686C10.6397 27.6323 10.6618 28.1004 10.6781 28.5685C10.8243 28.8314 10.8346 29.1341 10.7593 29.4206C10.6323 29.9183 10.65 30.4336 10.6382 30.9431C10.4654 31.3344 10.3118 31.7331 10.1745 32.1378C10.9808 32.8909 11.821 33.6101 12.6731 34.313C12.7765 33.8892 12.8695 33.4639 12.9611 33.0371C13.1944 32.1171 12.6406 31.1971 12.9374 30.2786C13.0364 29.5018 13.6153 28.9348 13.9032 28.2333C14.1351 27.6722 14.3551 27.1066 14.5677 26.5381C14.0671 26.5011 13.5916 26.3535 13.1516 26.1157C13.1501 25.94 13.1501 25.7643 13.1501 25.5885C12.3305 25.336 11.4799 25.463 10.6559 25.6122ZM16.3634 26.1955C17.0147 26.9368 17.5817 27.7549 18.3009 28.4356C18.645 28.796 18.958 29.2124 19.1027 29.6968C18.7941 30.1412 18.354 30.475 17.9937 30.8766C17.2524 31.9473 16.6337 33.2232 16.8936 34.5625C17.121 35.4559 17.2657 36.3686 17.3617 37.2871C17.8195 37.5027 18.2773 37.7227 18.7099 37.9885C18.7808 37.6046 18.8827 37.2265 19.0289 36.8633C19.4128 35.261 20.0966 33.7548 20.4923 32.1555C20.6858 31.5751 20.8704 30.9889 21.1332 30.4336C21.4876 29.9256 21.8007 29.3911 22.096 28.8462C21.8849 28.2023 21.625 27.5363 21.0993 27.083C20.5721 26.606 20.0641 26.098 19.6905 25.4881C18.5608 25.6269 17.4739 25.968 16.3634 26.1955ZM15.2928 26.4273C14.9148 27.4787 14.5781 28.5597 13.9667 29.5063C13.7201 29.8725 13.5355 30.2904 13.5739 30.7423C13.6153 32.0787 13.7186 33.4535 13.2151 34.7264C14.2724 35.5062 15.3844 36.2238 16.5613 36.8116C16.6868 35.8488 16.1626 34.9642 16.2527 34.0043C16.1537 32.2781 17.0974 30.6507 18.3334 29.5122C17.818 28.9156 17.3307 28.2939 16.7518 27.7564C16.2527 27.3089 16.0976 26.414 15.2928 26.4273ZM22.2245 30.032C21.7874 30.7186 21.3857 31.4496 21.1657 32.2382C21.0993 32.9588 21.1406 33.6883 21.1642 34.4104C21.656 34.6157 22.0458 34.9804 22.4342 35.3349C22.4519 35.4205 22.4859 35.5948 22.5036 35.6819C22.5671 35.8547 22.6306 36.0274 22.6926 36.2017C23.208 35.7542 23.8504 35.4766 24.3406 35.0041C24.258 34.4222 24.0748 33.8389 24.2269 33.2512C24.3022 32.3962 24.8797 31.6992 25.525 31.1838C25.4216 30.5016 25.2208 29.8031 24.7586 29.2744C24.1295 28.8092 23.3512 28.6394 22.6483 28.3234C22.6646 28.9259 22.5848 29.5299 22.2245 30.032ZM24.89 33.1597C24.7246 33.6558 24.8501 34.1801 24.9609 34.6718C25.1307 34.471 25.4393 34.3144 25.3965 34.0043C25.395 33.3354 25.4142 32.662 25.6195 32.0196C25.3212 32.3593 25.0155 32.7152 24.89 33.1597ZM20.4628 34.3927C20.1453 35.608 19.6742 36.7761 19.3774 37.9959C19.7377 37.8172 20.0951 37.6341 20.4465 37.4377C21.0417 37.0877 21.7269 36.8234 22.1182 36.2179C21.7446 35.6272 21.2144 35.1695 20.6178 34.8151C20.5662 34.6733 20.5145 34.533 20.4628 34.3927Z" fill="#696969"/>
<path d="M45.4872 6.73395C46.4714 6.02942 47.6933 5.73835 48.8864 5.69824C50.0887 5.80006 51.2849 6.10964 52.336 6.71543C52.121 7.15358 51.8979 7.58761 51.6839 8.02575C51.6459 8.02267 51.5708 8.01444 51.5327 8.01033C50.9084 7.19163 49.8748 6.85325 48.8895 6.74012C48.0697 6.77406 47.2079 7.04662 46.6422 7.66783C46.0364 8.25923 45.7515 9.09746 45.6044 9.91306C45.6003 10.6834 45.5262 11.4743 45.7248 12.2293C45.8297 12.4936 45.9161 12.7641 46.0096 13.0336C46.2781 13.4295 46.5136 13.8615 46.9024 14.1577C47.4393 14.566 48.0924 14.8664 48.7794 14.8561C49.3749 14.8581 49.9992 14.9003 50.5546 14.6411C50.8971 14.4848 51.1964 14.2431 51.5574 14.1248C51.6922 14.4159 51.8382 14.7018 51.9986 14.9805C51.9585 15.0206 51.8793 15.1009 51.8392 15.141C51.7477 15.1914 51.6572 15.2438 51.5667 15.2973C51.3723 15.3755 51.1789 15.4547 50.9897 15.5452C50.2852 15.8188 49.5282 15.8877 48.7835 15.971C47.9216 15.8908 47.033 15.8342 46.2441 15.4413C45.4337 15.1214 44.7868 14.5023 44.2756 13.8121C43.9917 13.3493 43.7552 12.8577 43.5988 12.3373C43.2368 10.9189 43.4086 9.31447 44.2437 8.08849C44.2632 8.05661 44.3013 7.99181 44.3208 7.95993C44.3918 7.85194 44.4617 7.74291 44.5317 7.63389C44.8392 7.32225 45.1447 7.00753 45.4872 6.73395Z" fill="#696969"/>
<path d="M55.7672 6.36214C56.4162 6.04845 57.1341 5.93839 57.8118 5.70801C58.0258 6.26649 58.1718 6.84965 58.4176 7.39682C58.6974 8.2186 58.9586 9.04757 59.2415 9.86832C59.5284 10.8187 59.9162 11.7351 60.2114 12.6823C60.5621 13.682 60.8727 14.6951 61.2255 15.6938C60.525 15.6712 59.8236 15.6578 59.1242 15.6969C58.8496 15.1106 58.7077 14.4771 58.4783 13.8744C58.358 13.5308 58.2479 13.1832 58.179 12.8253C57.0477 12.7574 55.9132 12.8222 54.7808 12.7883C54.7685 12.8459 54.7438 12.961 54.7325 13.0197C54.4281 13.8816 54.1288 14.7465 53.8829 15.628C53.4787 15.6928 53.0684 15.6876 52.6621 15.6712C53.0139 14.8556 53.2535 13.9968 53.5415 13.1575C53.9591 12.0776 54.3026 10.9729 54.6667 9.87449C55.0832 8.95501 55.293 7.95838 55.6777 7.02656C55.7744 6.8188 55.7579 6.5843 55.7672 6.36214ZM55.1408 11.8657C56.0387 11.8749 56.9366 11.8564 57.8345 11.8852C57.3819 10.5142 56.9952 9.1206 56.4984 7.764C56.0696 9.13808 55.5954 10.4988 55.1408 11.8657Z" fill="#696969"/>
<path d="M77.4224 6.07565C77.9973 5.86069 78.6093 5.78664 79.2141 5.70539C79.6779 5.65911 80.1284 5.8031 80.5892 5.82984C80.8658 5.91623 81.1507 5.98103 81.4377 6.03143C81.9458 6.24536 82.5001 6.38729 82.9486 6.72258C82.7922 7.1741 82.5588 7.59682 82.3201 8.00925C82.2965 8.01748 82.2502 8.03393 82.2276 8.04216C82.0383 7.88891 81.8769 7.70481 81.7102 7.52996C81.1507 7.08359 80.4555 6.89229 79.7684 6.75035C78.8448 6.70304 77.8554 7.01468 77.2383 7.72949C76.9092 8.07199 76.6654 8.48956 76.5132 8.93799C76.4042 9.29283 76.2653 9.6456 76.2447 10.02C76.2221 10.7564 76.1717 11.5072 76.3671 12.2272C76.6366 13.2084 77.2517 14.1566 78.2174 14.565C78.9487 14.9578 79.7962 14.8499 80.5912 14.8406C80.9008 14.7172 81.2351 14.6442 81.5148 14.457C81.7339 14.3109 81.9684 14.1834 82.2317 14.1402C82.3705 14.4426 82.5197 14.7429 82.6225 15.0617C81.9653 15.4022 81.2916 15.7519 80.5449 15.8362C80.006 15.8856 79.465 16.046 78.9271 15.9102C78.3768 15.8979 77.8307 15.8187 77.3175 15.614C76.8228 15.4258 76.3497 15.1821 75.9125 14.8848C75.5279 14.4786 75.0671 14.1278 74.8079 13.6208C74.596 13.2042 74.3554 12.7969 74.235 12.3423C73.9995 11.2501 73.9707 10.0652 74.415 9.02027C74.918 7.65955 76.0411 6.53642 77.4224 6.07565Z" fill="#696969"/>
<path d="M87.3022 5.92784C87.619 5.85173 87.9409 5.78488 88.2701 5.79928C89.0003 5.81882 89.7573 5.71494 90.4536 5.99469C91.4831 6.25902 92.3193 6.98206 92.9477 7.81412C93.6594 8.87143 93.9443 10.192 93.8065 11.453C93.6759 12.321 93.3159 13.1418 92.8202 13.8628C92.4869 14.2125 92.1609 14.5683 91.7927 14.882C91.081 15.3706 90.2715 15.7357 89.4138 15.8643C88.5899 15.9075 87.7404 15.9476 86.9464 15.6832C86.3683 15.5362 85.8644 15.2163 85.3769 14.8861C84.9778 14.4902 84.5283 14.1271 84.2476 13.6324C83.9935 13.2374 83.8372 12.79 83.7004 12.3437C83.4206 11.2267 83.4782 10.0069 83.9154 8.93725C84.3669 7.71744 85.3604 6.73933 86.5411 6.21479C86.7921 6.114 87.0523 6.03686 87.3022 5.92784ZM86.3879 7.94783C86.0073 8.49808 85.8428 9.15735 85.7204 9.80531C85.6916 10.6106 85.6535 11.4293 85.8335 12.2223C86.066 12.9392 86.3755 13.6334 86.8569 14.2197C87.2107 14.4645 87.546 14.7668 87.9862 14.8399C88.8234 15.1104 89.7778 14.8882 90.433 14.3081C90.5101 14.2588 90.5873 14.2114 90.6665 14.1641C90.901 13.8 91.1324 13.4329 91.3443 13.0554C91.6806 12.0259 91.7464 10.9346 91.6168 9.86497C91.4625 8.98662 91.0871 8.14324 90.4844 7.47986C90.2088 7.27313 89.9188 7.088 89.6256 6.90904C88.4788 6.51306 87.0317 6.87407 86.3879 7.94783Z" fill="#696969"/>
<path d="M62.647 6.0243C63.5325 6.03561 64.4283 5.95436 65.3077 6.04076C65.5782 6.62186 65.7212 7.25337 65.9444 7.85402C66.2529 8.81464 66.5882 9.76601 66.8988 10.7266C67.0644 11.3509 67.266 11.966 67.4851 12.5738C67.8173 11.8755 67.9613 11.1062 68.275 10.3985C68.7758 8.95041 69.2562 7.4961 69.7241 6.03664C70.6261 5.98316 71.5312 6.01813 72.4353 6.00579C72.4476 6.79671 72.4198 7.58763 72.4476 8.37753C72.6451 9.50169 72.4754 10.6495 72.5659 11.7829C72.7942 13.0634 72.46 14.3902 72.7839 15.6583C72.0794 15.6871 71.3738 15.6871 70.6693 15.6542C70.7033 14.8324 70.6961 14.0086 70.6683 13.1868C70.5377 12.868 70.5922 12.5173 70.5829 12.182C70.5716 11.46 70.6385 10.7318 70.5037 10.018C70.441 9.13142 70.5089 8.24074 70.476 7.35313C69.7694 9.41426 69.0494 11.4682 68.3377 13.5273C68.1526 14.1403 67.8708 14.7203 67.7124 15.3416C67.2629 15.3734 66.8114 15.3786 66.3619 15.3457C66.22 14.8499 66.0626 14.3583 65.8837 13.8749C65.6122 13.0511 65.3406 12.2272 65.0619 11.4065C64.6135 10.055 64.1671 8.70459 63.7135 7.35519C63.659 8.31376 63.7351 9.27336 63.6858 10.2309C63.5232 11.1463 63.6107 12.0802 63.5983 13.0048C63.6333 13.4892 63.48 13.9592 63.4862 14.4426C63.4852 14.8479 63.4955 15.2552 63.477 15.6614C63.0944 15.683 62.7097 15.682 62.3281 15.6573C62.3508 15.32 62.3806 14.9836 62.4382 14.6504C62.5307 13.4542 62.3477 12.2416 62.5565 11.0537C62.5924 10.0561 62.5246 9.05429 62.5853 8.05663C62.7159 7.38707 62.6686 6.70106 62.647 6.0243Z" fill="#696969"/>
<path d="M95.2471 15.6605C95.3119 12.4351 95.2234 9.20759 95.2923 5.98219C95.9763 6.04493 96.6654 5.96985 97.3504 6.04287C97.3123 7.44062 97.3154 8.84042 97.3473 10.2382C98.6422 10.2073 99.9381 10.232 101.233 10.2227C101.235 8.81779 101.235 7.41285 101.233 6.0079C101.876 6.00379 102.521 6.03053 103.162 5.97705C103.227 7.63295 103.175 9.29296 103.191 10.9509C103.175 12.5317 103.227 14.1146 103.163 15.6944C102.522 15.6677 101.879 15.6707 101.237 15.679C101.23 14.1691 101.239 12.6593 101.231 11.1504C99.9227 11.1556 98.6134 11.1299 97.3051 11.1669C97.3658 12.6634 97.2917 14.1619 97.3442 15.6584C96.6458 15.6872 95.9454 15.6851 95.2471 15.6605Z" fill="#696969"/>
<path d="M53.714 18.0463C54.3682 18.0432 55.0223 18.0381 55.6764 18.0432C55.6744 18.3158 55.6713 18.5873 55.6692 18.8598C56.5147 18.9195 57.393 18.7333 58.2107 19.0141C58.6087 19.1684 58.9831 19.3823 59.3225 19.6405C59.5775 19.7989 59.7349 20.058 59.9108 20.2936C60.5094 21.0588 60.7398 22.0266 60.82 22.977C60.8035 23.9119 60.5402 24.8509 60.0291 25.6387C59.7822 25.9504 59.4737 26.2065 59.2001 26.4955C58.7506 26.8236 58.2261 27.0149 57.6882 27.1373C57.0207 27.271 56.3357 27.1506 55.662 27.2175C55.6682 27.5456 55.6785 27.8737 55.697 28.2018C55.0305 28.2532 54.363 28.211 53.6955 28.211C53.7151 27.85 53.7192 27.488 53.7223 27.127C52.5035 27.3183 51.151 27.2247 50.1297 26.4646C49.7049 26.2075 49.4611 25.7642 49.1608 25.3857C48.7299 24.5526 48.5149 23.6013 48.5797 22.6643C48.698 21.5926 49.1423 20.5435 49.8849 19.7557C50.1883 19.516 50.5195 19.3113 50.8589 19.1272C51.7578 18.7035 52.7688 18.9164 53.7243 18.8619C53.7223 18.5893 53.7192 18.3178 53.714 18.0463ZM55.6867 19.7197C55.6569 21.8908 55.6569 24.0641 55.6877 26.2353C55.7258 26.2126 55.8019 26.1684 55.84 26.1458C56.2678 26.3134 56.7553 26.3247 57.176 26.1273C57.8507 25.9154 58.1911 25.2273 58.4359 24.6174C58.7403 23.8584 58.656 23.0304 58.6365 22.2333C58.549 21.9515 58.5028 21.6615 58.4318 21.3766C58.2209 20.921 57.9371 20.5075 57.5637 20.1712C57.0464 19.8472 56.4324 19.7444 55.8307 19.8112C55.7947 19.7886 55.7227 19.7433 55.6867 19.7197ZM52.7205 19.8112C52.3255 19.8822 51.9748 20.0899 51.6395 20.2997C51.4595 20.5538 51.2662 20.7986 51.0749 21.0454C51.0605 21.103 51.0337 21.2182 51.0193 21.2758C50.6429 21.9958 50.7334 22.8165 50.7324 23.5992C50.7437 24.1875 50.9381 24.7583 51.2086 25.2767L51.2744 25.3291C51.7413 26.1561 52.8326 26.5078 53.6945 26.1026C53.7541 24.0055 53.6924 21.9073 53.7284 19.8102C53.3921 19.7999 53.0548 19.7701 52.7205 19.8112Z" fill="#696969"/>
<path d="M65.0927 18.2776C65.3889 18.2128 65.679 18.1223 65.968 18.0308C66.545 19.52 66.9924 21.0546 67.521 22.5613C68.1124 24.0691 68.5197 25.6417 69.1204 27.1454C69.2181 27.4354 69.3189 27.7265 69.3435 28.034C68.6082 27.9929 67.8728 28.0474 67.1384 27.9929C67.1528 27.9507 67.1816 27.8684 67.196 27.8263C66.907 27.022 66.6108 26.2187 66.4246 25.3815C66.3506 25.2931 66.3465 25.0812 66.1809 25.1336C65.0999 25.1522 64.0179 25.111 62.938 25.1635C62.6449 26.1241 62.3168 27.0755 61.9794 28.0217C61.6153 28.0351 61.2512 28.0155 60.8882 28.0114C60.9293 27.7255 61.0065 27.4478 61.1134 27.1814C61.5248 26.2156 61.7645 25.1881 62.1512 24.2142C62.5266 23.2597 62.7683 22.259 63.1602 21.3117C63.2548 21.0659 63.336 20.8149 63.4173 20.565C63.6343 19.9284 63.8914 19.2969 63.949 18.6201C64.3409 18.545 64.7245 18.4308 65.0927 18.2776ZM63.3463 24.0126C63.3011 24.0455 63.2116 24.1134 63.1663 24.1473C63.6086 24.2429 64.0642 24.21 64.5137 24.2142C65.0135 24.2111 65.5144 24.2327 66.0122 24.1751C65.6327 23.2309 65.4218 22.2312 65.0619 21.2798C64.9148 20.8725 64.7811 20.4611 64.6926 20.0374C64.2195 21.3539 63.7515 22.6724 63.3463 24.0126Z" fill="#696969"/>
<path d="M95.5486 18.0608C95.6031 18.0546 95.7111 18.0423 95.7645 18.0361C95.852 18.3365 95.9425 18.6378 96.0659 18.9268C96.3899 19.9975 96.828 21.0291 97.153 22.1008C97.4318 22.9236 97.7084 23.7464 97.9758 24.5733C98.2967 25.2902 98.487 26.0564 98.7513 26.7949C98.883 27.2001 99.0712 27.5992 99.0661 28.0353C98.38 27.9983 97.694 28.0445 97.0101 27.9921C96.7509 27.0335 96.3601 26.1181 96.1019 25.1596C94.9829 25.1071 93.8628 25.1462 92.7428 25.1452C92.4456 26.0935 92.102 27.0284 91.8274 27.9849C91.4016 28.0384 90.9717 28.0322 90.5459 27.9849C90.5798 27.9509 90.6467 27.882 90.6806 27.8471C90.9943 26.9008 91.2977 25.9505 91.6618 25.0228C92.0763 23.6497 92.6225 22.3219 93.0452 20.9519C93.2673 20.2104 93.7281 19.5131 93.6129 18.7057C94.2228 18.3879 94.9222 18.3334 95.5486 18.0608ZM94.3133 20.4644C93.8937 21.7079 93.4813 22.9565 93.0637 24.201C93.9657 24.2298 94.8697 24.1876 95.7728 24.237C95.4498 22.9977 94.9592 21.8066 94.6229 20.5693C94.5612 20.4048 94.5057 20.2392 94.4481 20.0767C94.4018 20.2042 94.3565 20.3338 94.3133 20.4644Z" fill="#696969"/>
<path d="M70.7083 18.3294C71.5836 18.1792 72.4732 18.2759 73.3567 18.2492C74.4521 18.208 75.605 18.313 76.5718 18.8725C77.0861 19.2489 77.5376 19.7621 77.6775 20.3998C77.9428 21.2607 77.6281 22.1699 77.1972 22.9207C76.94 23.1377 76.7168 23.3907 76.4607 23.6077C75.9177 24.0037 75.2594 24.2043 74.6022 24.2989C73.9419 24.3256 73.2816 24.3133 72.6213 24.3338C72.6799 25.5547 72.61 26.7786 72.6604 28.0005C72.0073 28.0324 71.3542 28.018 70.7011 28.0087C70.6774 25.4765 70.6918 22.9443 70.6867 20.4121C70.6949 19.7179 70.6672 19.0226 70.7083 18.3294ZM72.6244 19.289C72.6779 20.6322 72.6038 21.9775 72.6686 23.3208C73.116 23.3989 73.5706 23.4 74.0221 23.3835C74.3019 23.2601 74.5827 23.1377 74.8604 23.0081C75.1628 22.6707 75.4775 22.3139 75.5731 21.8562C75.6996 21.2247 75.6564 20.5026 75.2245 19.9905C74.954 19.5688 74.448 19.4515 74.0119 19.288C73.549 19.2715 73.0862 19.2818 72.6244 19.289Z" fill="#696969"/>
<path d="M79.4401 19.7886C79.51 19.3011 79.5367 18.8105 79.5614 18.3188C80.4449 18.398 81.3325 18.3055 82.216 18.3692C82.2664 18.5544 82.3178 18.7416 82.3806 18.9257C82.6161 19.8709 82.9822 20.7759 83.2774 21.7037C83.6096 22.7764 83.9994 23.8296 84.3502 24.8962C84.5579 24.2729 84.7965 23.6609 85.0125 23.0397C85.3128 22.2262 85.5504 21.392 85.8333 20.5723C86.0945 19.8472 86.3403 19.1149 86.5368 18.3703C87.4665 18.3497 88.3973 18.3281 89.3271 18.3713C89.2963 19.3618 89.2942 20.3553 89.3189 21.3457C89.538 22.6314 89.2685 23.9468 89.4937 25.2315C89.5441 26.153 89.4721 27.0786 89.5308 28.0012C88.8818 28.0485 88.2318 27.993 87.5838 28.0352C87.5046 27.3049 87.6249 26.5634 87.4881 25.8383C87.3812 24.9527 87.5293 24.0548 87.3976 23.1703C87.2362 22.0852 87.5005 20.9662 87.2115 19.8966C86.7857 21.3694 86.1861 22.7815 85.7459 24.2502C85.3324 25.2026 85.137 26.2384 84.6813 27.1733C84.6412 27.344 84.6073 27.5158 84.5795 27.6886C84.1445 27.7204 83.7084 27.7235 83.2723 27.7204C83.2723 27.6628 83.2713 27.5466 83.2713 27.489C83.262 27.5466 83.2425 27.6608 83.2332 27.7184C82.65 25.7951 81.9651 23.9026 81.35 21.9896C81.063 21.2583 80.8193 20.5127 80.5632 19.7711C80.5581 20.3933 80.5673 21.0156 80.5673 21.6378C80.5683 21.8394 80.5581 22.0462 80.4789 22.2354C80.4233 23.2403 80.4861 24.2482 80.448 25.2541C80.2865 26.1725 80.3955 27.1085 80.3297 28.0352C79.9543 28.0259 79.5799 28.0249 79.2056 28.0002C79.2395 27.4222 79.1788 26.838 79.3053 26.2682C79.365 25.2746 79.3053 24.277 79.328 23.2824C79.3341 23.1487 79.3609 23.0212 79.4102 22.8978C79.4596 21.8621 79.4041 20.8243 79.4401 19.7886Z" fill="#696969"/>
<path d="M55.9476 34.1635C56.6285 33.1433 58.164 33.0044 59.1154 33.7223C59.0691 33.8509 59.0239 33.9815 58.9786 34.1121C58.9303 34.1419 58.8336 34.2006 58.7853 34.2304C58.1126 33.6832 57.0142 33.7604 56.467 34.4515C56.3549 34.864 56.2284 35.298 56.3384 35.7248C56.4413 36.0313 56.6727 36.2658 56.8784 36.5065C57.2518 36.6443 57.6508 36.67 58.0447 36.6464C58.3893 36.6515 58.6762 36.4376 58.992 36.3358C59.0198 36.5487 59.0465 36.7626 59.0712 36.9786C58.1692 37.4167 56.9689 37.462 56.1687 36.7873C55.9641 36.4602 55.6607 36.1527 55.672 35.7392C55.6617 35.2075 55.5825 34.6048 55.9476 34.1635Z" fill="#696969"/>
<path d="M91.2421 33.3456C91.4282 33.2705 91.6278 33.3065 91.8221 33.3188C91.8561 33.4834 91.889 33.6469 91.925 33.8135C91.6905 33.8783 91.4591 33.9483 91.2318 34.0336C91.1022 34.2578 90.9675 34.48 90.8502 34.7124C90.8008 34.7628 90.7021 34.8636 90.6517 34.914C90.7659 35.1249 90.8944 35.3296 91.025 35.5322C91.1516 35.7194 91.276 35.9096 91.3953 36.103C91.5702 36.3509 91.7368 36.6039 91.9157 36.8497C91.9538 36.9474 91.9918 37.0451 92.032 37.1438C91.7995 37.1603 91.5671 37.1757 91.3367 37.1932C90.9232 36.5411 90.4748 35.9107 90.1035 35.2329C89.8659 35.2236 89.6294 35.2226 89.3928 35.2257C89.4206 35.8613 89.3722 36.5 89.4411 37.1356C89.2303 37.1593 89.0205 37.1829 88.8117 37.2107C88.7531 35.9425 88.8312 34.6723 88.7695 33.4042C88.9752 33.3774 89.1809 33.3548 89.3887 33.3332C89.4031 33.7888 89.4031 34.2455 89.4267 34.7011C89.6612 34.697 89.8957 34.6919 90.1323 34.6857C90.4604 34.2146 90.6198 33.507 91.2421 33.3456Z" fill="#696969"/>
<path d="M59.9727 33.3945C60.8356 33.3358 61.7006 33.378 62.5655 33.3646C62.5645 33.5374 62.5645 33.7112 62.5645 33.8861C61.9505 33.8892 61.3354 33.8738 60.7224 33.9026C60.7173 34.245 60.7214 34.5875 60.741 34.9311C61.2686 34.9012 61.7972 34.9064 62.3249 34.893C62.3475 35.0956 62.3711 35.2982 62.3938 35.5029C61.8363 35.5471 61.2778 35.5204 60.7204 35.5492C60.7173 35.9102 60.7132 36.2712 60.7008 36.6332C61.3447 36.6692 61.9906 36.6662 62.6344 36.6425C62.6581 36.8091 62.6787 36.9737 62.7023 37.1434C61.7952 37.201 60.8819 37.1907 59.9737 37.1485C59.9994 35.8979 60.0025 34.6451 59.9727 33.3945Z" fill="#696969"/>
<path d="M63.3838 33.364C64.3208 33.3712 65.2577 33.3578 66.1937 33.364C66.3336 33.4812 66.2564 33.7003 66.313 33.8566C65.9129 33.8896 65.5128 33.8926 65.1127 33.8906C65.1569 34.9901 65.1456 36.0926 65.1137 37.1921C64.9214 37.1839 64.7311 37.1818 64.5398 37.1787C64.4915 36.07 64.5419 34.9592 64.4936 33.8515C64.1243 33.8813 63.7541 33.8885 63.3848 33.8885C63.3838 33.7127 63.3838 33.5378 63.3838 33.364Z" fill="#696969"/>
<path d="M67.4207 37.1906C67.3754 35.9122 67.3847 34.6306 67.4166 33.3522C67.6089 33.3522 67.8012 33.3522 67.9935 33.3491C68.0121 33.7955 68.011 34.2419 68.0378 34.6882C68.6199 34.6862 69.2103 34.7067 69.7646 34.9073C69.9241 35.0472 70.0835 35.1871 70.2408 35.3311C70.2624 35.616 70.283 35.9019 70.3025 36.1888C70.1997 36.3986 70.0979 36.6085 69.9981 36.8193C69.238 37.3541 68.2826 37.1207 67.4207 37.1906ZM68.0121 35.3269C68.0162 35.7239 67.9863 36.123 68.0203 36.52C68.5047 36.5622 69.0303 36.6383 69.4797 36.4007C69.5456 36.2783 69.6145 36.1569 69.6844 36.0376C69.6443 35.8638 69.6062 35.6921 69.5682 35.5193C69.1002 35.222 68.5345 35.3352 68.0121 35.3269Z" fill="#696969"/>
<path d="M74.566 33.3953C74.8149 33.3851 75.0638 33.3758 75.3137 33.3799C75.4433 33.7882 75.6079 34.1863 75.8064 34.5678C76.1643 35.4266 76.5192 36.2875 76.9048 37.134C76.6724 37.1556 76.44 37.1761 76.2085 37.1998C76.0543 36.809 75.8763 36.4294 75.721 36.0407C75.1852 36.0509 74.6514 36.0365 74.1166 36.0396C73.9479 36.4212 73.809 36.8162 73.6177 37.1885C73.447 37.1864 73.2763 37.1874 73.1066 37.1895C73.0839 37.134 73.0397 37.0239 73.0171 36.9684C73.556 35.7876 74.0343 34.5791 74.566 33.3953ZM74.8869 34.1225C74.7162 34.5863 74.528 35.044 74.3243 35.4955C74.7162 35.5223 75.1101 35.5264 75.503 35.5254C75.3271 35.0461 75.1924 34.5401 74.8869 34.1225Z" fill="#696969"/>
<path d="M77.6484 37.1415C77.7338 35.8775 77.6382 34.6083 77.703 33.3433C78.7304 33.4039 79.761 33.3114 80.7885 33.3957C80.736 34.6628 80.7967 35.933 80.7473 37.2012C80.5067 37.1796 80.266 37.1652 80.0263 37.1518C80.0644 36.0554 80.0562 34.957 80.0222 33.8606C79.4411 33.8987 78.858 33.8843 78.2769 33.8894C78.3231 34.993 78.3108 36.0997 78.2779 37.2022C78.067 37.1796 77.8583 37.1611 77.6484 37.1415Z" fill="#696969"/>
<path d="M81.5464 33.3858C82.5101 33.3282 83.4769 33.3971 84.4416 33.3467C84.4663 33.5184 84.4931 33.6912 84.5198 33.864C84.1341 33.8836 83.7495 33.8794 83.3658 33.863C83.3267 34.9553 83.3298 36.0486 83.3545 37.1408C83.1539 37.1614 82.9534 37.182 82.7549 37.2056C82.6757 36.0907 82.7559 34.9717 82.7035 33.8558C82.3435 33.8712 81.9845 33.8866 81.6256 33.8949C81.5988 33.7241 81.5721 33.5544 81.5464 33.3858Z" fill="#696969"/>
<path d="M85.3116 33.3496C86.1015 33.3866 86.8914 33.3465 87.6813 33.3661C87.8788 33.4617 87.7091 33.724 87.7379 33.8927C87.1341 33.8834 86.5294 33.8885 85.9267 33.8546C85.9174 34.2125 85.9205 34.5704 85.9359 34.9294C86.4666 34.9129 87.0025 34.8749 87.5332 34.9273C87.5599 35.0837 87.5836 35.2421 87.6042 35.4025C87.0405 35.4344 86.4769 35.4231 85.9133 35.4385C85.9154 35.8067 85.9205 36.1759 85.9277 36.5442C86.5623 36.5586 87.1969 36.5544 87.8315 36.537C87.8541 36.7406 87.8767 36.9432 87.9014 37.1479C87.022 37.1911 86.1396 37.1983 85.2612 37.1407C85.3332 35.8777 85.252 34.6126 85.3116 33.3496Z" fill="#696969"/>
<path d="M68.2847 41.6554C68.5881 41.4949 68.8884 41.3252 69.2134 41.209C69.2823 42.1038 69.2576 43.0058 69.2268 43.9026C69.1239 43.8821 68.9203 43.8409 68.8185 43.8204C68.8349 43.1611 68.8431 42.5028 68.8246 41.8446C68.7094 41.9248 68.5984 42.0102 68.4873 42.0966C68.4153 41.9505 68.3453 41.8045 68.2847 41.6554Z" fill="#696969"/>
<path d="M71.5245 41.5111C71.9421 41.1305 72.7155 41.2138 73.0004 41.7188C73.1732 42.193 73.2576 42.7535 73.0015 43.2153C72.875 43.3963 72.7104 43.5475 72.5633 43.7121C72.2177 43.8324 71.8526 43.8818 71.4896 43.8283C71.4906 43.7388 71.4927 43.5609 71.4947 43.4724C71.7128 43.4478 71.938 43.4529 72.1509 43.3912C72.3977 43.3007 72.5489 43.0723 72.7094 42.879C72.2517 42.9633 71.757 42.9839 71.3651 42.6928C71.3631 42.3071 71.1656 41.7898 71.5245 41.5111ZM71.7323 41.9256C71.7323 42.0603 71.7333 42.1971 71.7343 42.3349C72.0069 42.6239 72.3977 42.5334 72.7042 42.3534C72.6333 42.122 72.5479 41.8978 72.4358 41.6849C72.264 41.6962 72.0933 41.7085 71.9236 41.724C71.8598 41.7898 71.7961 41.8577 71.7323 41.9256Z" fill="#696969"/>
<path d="M74.8745 42.6497C74.4888 42.2136 74.7285 41.4042 75.3168 41.3034C75.6695 41.253 76.1509 41.2263 76.3473 41.5945C76.6271 41.9863 76.5664 42.4903 76.5345 42.9418C76.442 43.3933 76.0696 43.6772 75.6726 43.8562C75.4165 43.8592 75.1604 43.8603 74.9043 43.8623C74.9033 43.7266 74.9033 43.5929 74.9043 43.4592C75.1707 43.4386 75.4587 43.4602 75.6983 43.3172C75.8423 43.2144 75.939 43.0611 76.047 42.9233C75.6562 42.9079 75.1111 43.0724 74.8745 42.6497ZM75.1769 41.7971C75.2026 42.0223 75.2293 42.2507 75.2551 42.479C75.4618 42.5068 75.6675 42.5345 75.8752 42.5664C75.9966 42.3967 76.2414 42.2167 76.0491 42.0059C75.9256 41.6171 75.4752 41.6552 75.1769 41.7971Z" fill="#696969"/>
<path d="M78.3129 41.4543C78.8024 41.1838 79.4154 41.2219 79.8474 41.5849C79.8371 41.84 79.8926 42.1259 79.7085 42.3358C79.6983 42.3615 79.6787 42.4129 79.6684 42.4376C79.7281 42.4767 79.8474 42.5538 79.907 42.5929C79.9698 42.9559 79.9646 43.3303 79.8361 43.68C79.3938 43.9258 78.8816 43.8621 78.3992 43.8271C78.3447 43.7757 78.2347 43.6728 78.1802 43.6214C78.1905 43.4321 78.2254 43.2491 78.4527 43.248C78.6728 43.5062 79.0174 43.4332 79.3177 43.428C79.365 43.3879 79.4586 43.3077 79.5049 43.2676C79.5069 43.1061 79.5069 42.9446 79.5069 42.7852C79.1871 42.6865 78.859 42.6176 78.5288 42.5661C78.6512 42.2144 79.1171 42.3244 79.3897 42.1588C79.3969 42.1064 79.4113 42.0015 79.4185 41.949C79.3712 41.8894 79.2776 41.7701 79.2303 41.7104C78.9228 41.6713 78.6399 41.7948 78.3499 41.8668C78.3272 41.7289 78.3221 41.5911 78.3129 41.4543Z" fill="#696969"/>
</svg>
