<svg width="79" height="54" viewBox="0 0 79 54" fill="none" xmlns="http://www.w3.org/2000/svg">
<g clip-path="url(#clip0_194_632)">
<path d="M70.3955 0H74.4879C75.9979 2.65336 77.5006 5.31164 78.9991 7.97155C77.6355 7.97155 76.272 7.97155 74.9092 7.97073C73.4057 5.31327 71.9047 2.65418 70.3955 0Z" fill="#696969"/>
<path d="M32.0889 20.3646C33.4483 20.3597 34.807 20.3671 36.1656 20.3613C37.6855 23.0155 39.1791 25.6844 40.6916 28.3427C39.3281 28.3451 37.9653 28.3427 36.6017 28.3443C35.0942 25.686 33.5841 23.0294 32.0889 20.3646Z" fill="#696969"/>
<path d="M7.96921 4.53518C9.71379 4.25945 11.5423 4.51227 13.1396 5.26336C14.987 6.12 16.5168 7.62954 17.3932 9.459C18.2178 11.1575 18.4713 13.1245 18.1026 14.9744C17.6599 17.3389 16.1778 19.4801 14.1345 20.7638C12.4697 21.8266 10.4412 22.2987 8.47365 22.0991C6.16537 21.8913 3.97559 20.7164 2.49928 18.945C3.34112 18.1015 4.18708 17.2604 5.03386 16.4209C5.76214 17.3839 6.80396 18.1211 7.98402 18.4197C9.2834 18.7732 10.7153 18.5997 11.8978 17.9599C13.0507 17.343 13.9551 16.29 14.3945 15.0644C12.4162 15.0586 10.438 15.0644 8.45884 15.0619C8.45802 13.878 8.45802 12.6941 8.45884 11.5102C10.438 11.5069 12.4162 11.511 14.3945 11.5085C13.9642 10.3025 13.082 9.26427 11.9571 8.64327C10.9317 8.06727 9.7105 7.85454 8.54854 8.03209C7.07223 8.24482 5.71606 9.11782 4.89726 10.3549C4.04554 9.50891 3.19547 8.66209 2.34375 7.81691C3.71637 6.07336 5.76297 4.86245 7.96921 4.53518Z" fill="#696969"/>
<path d="M58.9785 21.2619C62.1714 15.6279 65.3561 9.9898 68.5466 4.35498C71.7387 9.98898 74.9209 15.6279 78.1154 21.2603C76.7502 21.2652 75.385 21.2635 74.0206 21.2611C73.5195 20.3742 73.015 19.4889 72.518 18.6003C69.8706 18.5979 67.2233 18.5979 64.576 18.6003C64.0798 19.4889 63.5753 20.3733 63.0758 21.2603C61.7098 21.266 60.3446 21.2627 58.9785 21.2619ZM68.5416 11.5992C67.8866 12.7512 67.2373 13.9056 66.5847 15.0593C67.8932 15.0593 69.2024 15.0593 70.5117 15.0593C69.8509 13.9081 69.2164 12.7422 68.5416 11.5992Z" fill="#696969"/>
<path d="M23.5147 5.30716C25.9357 5.30634 28.3575 5.30716 30.7786 5.30634C31.4073 5.29816 32.0442 5.33007 32.6532 5.49943C33.9805 5.83489 35.168 6.6678 35.9473 7.78543C36.6443 8.77707 37.013 9.99207 36.9776 11.2022C36.9562 12.7215 36.283 14.2147 35.1705 15.2546C34.1319 16.2397 32.7132 16.8149 31.2772 16.8304C29.8775 16.8345 28.4777 16.8304 27.0771 16.8329C27.0763 18.3089 27.0779 19.7841 27.0762 21.2601C25.8888 21.2609 24.7013 21.2601 23.5138 21.2609C23.513 15.9427 23.5114 10.6253 23.5147 5.30716ZM27.0779 8.85561C27.0762 10.3308 27.0771 11.8068 27.0771 13.282C28.4744 13.2803 29.8717 13.2869 31.269 13.2787C32.1816 13.264 33.0325 12.6193 33.3049 11.7552C33.6349 10.8274 33.2234 9.71961 32.3857 9.20498C32.0105 8.96198 31.5579 8.84907 31.1118 8.8548C29.7672 8.85561 28.4225 8.85561 27.0779 8.85561Z" fill="#696969"/>
<path d="M42.7224 5.3047C43.9049 5.31043 45.0883 5.3047 46.2708 5.30716C46.2758 7.3747 46.2717 9.44143 46.2725 11.509C47.3546 11.509 48.4367 11.5082 49.5197 11.509C50.6957 9.44061 51.8494 7.35916 53.0451 5.30225C54.4045 5.32925 55.7689 5.27116 57.1267 5.3317C57.1152 6.50579 57.1251 7.67988 57.121 8.85397C56.4511 8.85888 55.7813 8.8507 55.1114 8.85806C54.3609 10.186 53.6088 11.5122 52.8591 12.841C54.4424 15.649 56.0339 18.4521 57.6164 21.2609C56.252 21.2642 54.8876 21.2642 53.5232 21.2609C52.3596 19.1925 51.1878 17.1282 50.0176 15.0632C48.7692 15.0607 47.5208 15.0615 46.2725 15.0623C46.2725 17.1282 46.2741 19.1942 46.2725 21.2609C45.0825 21.2576 43.8926 21.2666 42.7027 21.256C42.7068 17.2534 42.701 13.2509 42.7027 9.24834C42.7142 7.93352 42.6771 6.61788 42.7224 5.3047Z" fill="#696969"/>
<path d="M30.2347 24.7236C33.4194 30.3593 36.6123 35.9908 39.7961 41.6273C38.4367 41.6313 37.0772 41.6207 35.7169 41.633C35.1993 40.7543 34.7122 39.8575 34.2011 38.9747C31.5563 38.9731 28.9106 38.9731 26.2649 38.9747C25.7621 39.8575 25.2634 40.7428 24.7639 41.6273C23.3995 41.6273 22.0343 41.6281 20.6699 41.6273C23.8579 35.9924 27.0483 30.3593 30.2347 24.7236ZM28.2753 35.4181C29.5805 35.4263 30.8864 35.4279 32.1916 35.4189C31.5406 34.2661 30.8856 33.1141 30.2355 31.9604C29.5805 33.1116 28.932 34.2677 28.2753 35.4181Z" fill="#696969"/>
<path d="M5.5119 25.7856C6.27227 25.6473 7.0491 25.6931 7.81853 25.6857C10.149 25.6874 12.4804 25.6833 14.8109 25.6874C16.7653 25.6996 18.681 26.6365 19.8998 28.1526C20.9811 29.4666 21.5135 31.2085 21.3613 32.8988C21.2518 34.1637 20.7721 35.3951 19.9854 36.3966C19.0694 37.5756 17.7437 38.4355 16.2855 38.7824C15.0388 39.09 13.746 38.9354 12.4762 38.9747C12.4762 39.8591 12.4762 40.7427 12.4762 41.6272C11.2863 41.628 10.0964 41.628 8.90643 41.6272C8.9056 40.7427 8.90725 39.8583 8.9056 38.9738C7.63667 38.9362 6.34469 39.09 5.09797 38.7824C3.54512 38.4142 2.14452 37.4602 1.22532 36.1634C0.489635 35.1439 0.079 33.9134 0 32.664V32.043C0.0641875 30.7683 0.486344 29.5107 1.23849 28.4733C2.23833 27.0693 3.80599 26.0785 5.5119 25.7856ZM5.57197 29.4338C4.54991 29.8086 3.77143 30.7593 3.6052 31.8295C3.46695 32.6558 3.68255 33.5337 4.19687 34.1981C4.75152 34.9328 5.65097 35.4107 6.58004 35.4188C7.35523 35.4246 8.13124 35.4287 8.90643 35.4246C8.90643 33.3587 8.90725 31.2927 8.90643 29.2268C8.24316 29.226 7.57989 29.2276 6.91661 29.226C6.46072 29.2154 5.99742 29.2604 5.57197 29.4338ZM12.4771 29.226C12.4771 31.2952 12.4738 33.3636 12.4787 35.4327C13.3247 35.4049 14.1714 35.4606 15.0174 35.4074C15.9531 35.3305 16.8245 34.7823 17.3273 33.9993C17.8063 33.2695 17.9355 32.3343 17.7042 31.4973C17.3751 30.252 16.1901 29.2972 14.8964 29.2342C14.09 29.2162 13.2835 29.2326 12.4771 29.226Z" fill="#696969"/>
<path d="M42.7021 25.6957C45.2836 25.6728 47.8651 25.6916 50.4466 25.6867C52.2505 25.6859 54.0148 26.6006 55.0673 28.0537C55.8121 29.0658 56.2104 30.3258 56.1733 31.5809C56.1478 33.0226 55.543 34.4429 54.5242 35.4689C53.6198 36.3935 52.3928 37.0063 51.1025 37.1552C50.668 37.2141 50.2286 37.1986 49.7916 37.2002C48.6189 37.201 47.4455 37.1994 46.2728 37.2018C46.2728 38.677 46.2744 40.1522 46.272 41.6282C45.0829 41.6249 43.8929 41.6323 42.703 41.6241C42.703 36.3149 42.7038 31.0057 42.7021 25.6957ZM46.2736 29.227C46.2744 30.7022 46.2703 32.1774 46.2753 33.6526C47.6109 33.6509 48.9473 33.6509 50.2829 33.6526C51.3988 33.7286 52.4611 32.845 52.5928 31.7429C52.8109 30.4584 51.672 29.1796 50.3668 29.227C49.0024 29.2262 47.638 29.227 46.2736 29.227Z" fill="#696969"/>
<path d="M59.6361 25.6866C61.1437 25.6866 62.6521 25.6833 64.1597 25.6883C65.622 27.8695 67.0843 30.05 68.5466 32.2313C70.0106 30.05 71.4705 27.8663 72.9361 25.6866C74.4437 25.6858 75.9504 25.6858 77.458 25.6866C77.4588 30.9999 77.4597 36.314 77.458 41.6272C76.2705 41.6272 75.0831 41.6272 73.8964 41.6272C73.8931 37.97 73.8981 34.3119 73.894 30.6538C72.1115 33.3104 70.3307 35.9687 68.5466 38.6245C66.7659 35.9671 64.9818 33.3121 63.2051 30.6522C63.1977 34.3103 63.2051 37.9692 63.201 41.6272C62.0127 41.6281 60.8244 41.6281 59.6361 41.6272C59.6361 36.314 59.6353 30.9999 59.6361 25.6866Z" fill="#696969"/>
<path d="M71.8818 47.1886C72.0933 47.0798 72.3089 46.9776 72.5278 46.8818C72.6463 47.2795 73.117 47.4881 73.498 47.3269C73.7079 47.2623 73.8223 47.0676 73.9111 46.8835C74.1267 46.98 74.3399 47.0815 74.5522 47.1878C74.1416 48.2874 72.2941 48.2874 71.8818 47.1886Z" fill="#696969"/>
<path d="M7.32729 49.044C7.65316 48.6243 8.20863 48.4328 8.73036 48.5244C9.32862 48.5932 9.84871 49.0268 10.0511 49.5864C10.3104 50.2974 10.2067 51.1794 9.65285 51.7284C9.04636 52.3519 7.87042 52.4018 7.32811 51.6695C7.33716 52.446 7.32976 53.2224 7.33223 53.9997H6.34555C6.34555 52.2071 6.34555 50.4144 6.34473 48.6218C6.67472 48.6193 7.00388 48.6193 7.33387 48.6243C7.33223 48.7633 7.32976 48.9033 7.32729 49.044ZM7.83997 49.4351C7.34128 49.611 7.11169 50.2189 7.28697 50.6983C7.43838 51.2032 8.05063 51.4715 8.53698 51.2833C9.07105 51.1033 9.30311 50.439 9.08339 49.9423C8.89495 49.4719 8.30491 49.2534 7.83997 49.4351Z" fill="#696969"/>
<path d="M27.4108 48.7739C28.0386 48.3673 29.022 48.3894 29.4746 49.0447C29.473 48.9032 29.473 48.7616 29.473 48.6201C29.8021 48.6209 30.1313 48.6201 30.4605 48.6209C30.4613 49.7794 30.4613 50.938 30.4597 52.0965C30.1305 52.0965 29.8021 52.0965 29.473 52.0965C29.4722 51.9517 29.4722 51.8069 29.4746 51.6629C28.962 52.4075 27.8066 52.3387 27.1976 51.7554C26.3459 50.9781 26.4323 49.4121 27.4108 48.7739ZM28.2501 49.4342C27.7103 49.6224 27.4832 50.3088 27.7342 50.803C27.9424 51.2653 28.5439 51.4698 29.0015 51.2595C29.5125 51.046 29.7166 50.3767 29.4672 49.8981C29.2648 49.4538 28.697 49.2624 28.2501 49.4342Z" fill="#696969"/>
<path d="M40.7724 48.5697C41.2941 48.456 41.8595 48.487 42.3491 48.7112C42.9317 48.9853 43.3177 49.5957 43.3555 50.2306C43.4131 50.9506 43.0107 51.6935 42.3475 52.0045C41.8019 52.2515 41.1625 52.2638 40.593 52.0969C39.8351 51.8694 39.3093 51.0938 39.3488 50.3133C39.343 49.4967 39.9602 48.7227 40.7724 48.5697ZM40.9987 49.4353C40.6103 49.5802 40.3396 49.9868 40.37 50.4008C40.3684 50.9572 40.9255 51.4227 41.4776 51.3335C42.0932 51.2812 42.5121 50.5734 42.2759 50.0097C42.1039 49.5073 41.4908 49.239 40.9987 49.4353Z" fill="#696969"/>
<path d="M44.5298 52.0957C44.7462 50.9053 44.9569 49.7132 45.1692 48.5219C45.412 48.5186 45.6555 48.5195 45.8991 48.5227C46.2233 49.2157 46.5336 49.9161 46.8603 50.6083C47.1845 49.9136 47.4964 49.2141 47.8223 48.5203C48.0667 48.5186 48.3111 48.5195 48.5555 48.5252C48.7563 49.7165 48.976 50.9053 49.1891 52.0949C48.86 52.0949 48.53 52.0949 48.2008 52.0949C48.1054 51.469 48.0017 50.8439 47.907 50.218C47.6067 50.8668 47.3096 51.5165 47.0084 52.1645C46.908 52.1645 46.8076 52.1645 46.7089 52.1653C46.4151 51.5132 46.1065 50.8676 45.8144 50.2155C45.7156 50.8415 45.6111 51.4674 45.5189 52.0949C45.1889 52.0949 44.859 52.0949 44.5298 52.0957Z" fill="#696969"/>
<path d="M56.3384 48.7305C56.9646 48.3705 57.9044 48.4106 58.3332 49.0529C58.329 48.9081 58.3282 48.7649 58.3274 48.6217C58.6566 48.6201 58.9866 48.6201 59.3166 48.6209C59.3166 49.7794 59.3174 50.938 59.3166 52.0965C58.9866 52.0965 58.6574 52.0965 58.3274 52.0957C58.3274 51.9501 58.3282 51.8036 58.3315 51.6588C57.8279 52.4058 56.675 52.3387 56.0652 51.7652C55.1806 50.974 55.2941 49.336 56.3384 48.7305ZM57.0535 49.4563C56.6363 49.6354 56.4182 50.1231 56.512 50.5575C56.5886 51.0542 57.1054 51.4191 57.6032 51.3315C58.2303 51.2677 58.6056 50.5256 58.3562 49.9693C58.1768 49.4612 57.5325 49.2345 57.0535 49.4563Z" fill="#696969"/>
<path d="M2.79616 48.6213C3.54007 48.6221 4.28399 48.618 5.02791 48.6237C5.02873 48.8994 5.02873 49.1752 5.02791 49.4517C4.61233 49.455 4.19676 49.4525 3.78119 49.4534C3.78037 50.3346 3.78201 51.2157 3.78119 52.0978C3.45284 52.0969 3.1245 52.0969 2.79616 52.0969C2.79451 50.9384 2.79451 49.7798 2.79616 48.6213Z" fill="#696969"/>
<path d="M11.106 48.622C11.4878 48.6195 11.8696 48.6211 12.2523 48.6211C12.616 49.2749 12.9723 49.9327 13.3328 50.5889C13.6586 49.9343 13.9755 49.2749 14.3022 48.6211C14.6733 48.6211 15.0444 48.6203 15.4156 48.6211C14.4742 50.4162 13.5237 52.2064 12.579 53.9999H11.4647C11.891 53.1866 12.3354 52.3831 12.7658 51.5715C12.212 50.5889 11.6565 49.6062 11.106 48.622Z" fill="#696969"/>
<path d="M16.7202 48.6211C17.8262 48.6219 18.933 48.6186 20.039 48.6227C20.0374 49.7804 20.0374 50.9374 20.039 52.0951C19.709 52.0975 19.3799 52.0967 19.0499 52.0967C19.0482 51.2155 19.0507 50.3344 19.0491 49.4532C18.603 49.4523 18.1562 49.4532 17.7102 49.4523C17.7085 50.3344 17.7118 51.2155 17.7094 52.0967C17.3794 52.0967 17.0502 52.0967 16.7202 52.0967C16.7202 50.9382 16.7202 49.7796 16.7202 48.6211Z" fill="#696969"/>
<path d="M21.7588 48.621C22.864 48.6202 23.9683 48.621 25.0735 48.621C25.0735 49.7795 25.0735 50.9381 25.0735 52.0966C24.7443 52.0966 24.416 52.0966 24.0876 52.0966C24.0868 51.2154 24.0885 50.3342 24.0868 49.4531C23.6408 49.4522 23.1948 49.4522 22.7488 49.4531C22.7471 50.3342 22.7496 51.2154 22.7471 52.0966C22.4179 52.0966 22.0888 52.0966 21.7588 52.0966C21.7596 50.9381 21.7596 49.7795 21.7588 48.621Z" fill="#696969"/>
<path d="M35.889 49.9606C36.3211 49.5123 36.7539 49.0639 37.1901 48.6196C37.5991 48.6221 38.0089 48.6213 38.4187 48.6204C37.8937 49.1367 37.367 49.653 36.8395 50.1676C37.3933 50.8124 37.9488 51.4546 38.5043 52.0977C38.0805 52.0953 37.6575 52.1002 37.2337 52.0945C36.8338 51.6142 36.4289 51.138 36.0273 50.6602C35.9927 50.6954 35.9236 50.7649 35.889 50.8001C35.889 51.2313 35.889 51.6616 35.889 52.0928C35.5591 52.0985 35.2291 52.0969 34.8999 52.0961C34.9007 50.9384 34.8999 49.7798 34.8999 48.6221C35.2299 48.6204 35.5591 48.6188 35.889 48.6254C35.889 49.0696 35.889 49.5155 35.889 49.9606Z" fill="#696969"/>
<path d="M50.6207 48.6211C51.7243 48.6211 52.8278 48.6211 53.9322 48.6211C53.9338 49.6504 53.9297 50.6804 53.9338 51.7097C53.9198 51.8324 53.9642 51.9805 53.9083 52.0918C53.5874 52.1073 53.2664 52.0918 52.9463 52.0967C52.9463 51.2155 52.9463 50.3352 52.9463 49.454C52.5003 49.4515 52.0551 49.454 51.6091 49.4524C51.6082 50.3335 51.6099 51.2139 51.6091 52.0951C51.2791 52.0975 50.9499 52.0967 50.6207 52.0967C50.6199 50.9382 50.6199 49.7796 50.6207 48.6211Z" fill="#696969"/>
<path d="M61.0376 48.6217C61.3676 48.62 61.6984 48.62 62.0284 48.6208C62.0292 49.0283 62.0284 49.4366 62.0292 49.8448C62.4859 49.8457 62.9435 49.8448 63.401 49.8448C63.4018 49.4366 63.401 49.0291 63.401 48.6208C63.731 48.62 64.061 48.6192 64.391 48.6225C64.3893 49.7802 64.3893 50.9371 64.391 52.0948C64.061 52.0973 63.731 52.0965 63.401 52.0965C63.401 51.6252 63.401 51.1539 63.401 50.6835C62.9435 50.6818 62.4859 50.681 62.0284 50.6843C62.0284 51.1547 62.0284 51.6252 62.0284 52.0965C61.6984 52.0965 61.3684 52.0965 61.0384 52.0957C61.0376 50.9379 61.0384 49.7794 61.0376 48.6217Z" fill="#696969"/>
<path d="M66.1108 48.621C66.44 48.6201 66.7692 48.621 67.0983 48.621C67.1016 49.3328 67.0959 50.0446 67.1016 50.7572C67.639 50.043 68.1722 49.3262 68.7162 48.6177C69.0445 48.6226 69.372 48.6201 69.7004 48.621C69.702 49.7795 69.702 50.9381 69.7012 52.0966C69.3712 52.0966 69.0429 52.0966 68.7145 52.0974C68.7104 51.3848 68.7187 50.673 68.7096 49.9603C68.1747 50.6722 67.6365 51.3807 67.1041 52.0942C66.7725 52.0983 66.4417 52.0966 66.1108 52.0966C66.1108 50.9381 66.1117 49.7795 66.1108 48.621Z" fill="#696969"/>
<path d="M71.4235 48.6195C71.7518 48.6187 72.0793 48.6187 72.4077 48.6187C72.4093 49.3297 72.406 50.0407 72.4101 50.7525C72.9525 50.0464 73.4832 49.3305 74.0206 48.6211C74.3506 48.6178 74.6814 48.6187 75.0122 48.6195C75.0114 49.7788 75.0114 50.9374 75.0122 52.0967C74.6822 52.0967 74.3531 52.0967 74.0239 52.0967C74.0214 51.3849 74.0247 50.6723 74.0222 49.9605C73.4824 50.6715 72.9483 51.3866 72.4085 52.0976C72.0802 52.0959 71.7518 52.0967 71.4235 52.0967C71.4226 50.9374 71.4226 49.778 71.4235 48.6195Z" fill="#696969"/>
</g>
<defs>
<clipPath id="clip0_194_632">
<rect width="79" height="54" fill="white"/>
</clipPath>
</defs>
</svg>
