<svg width="140" height="65" viewBox="0 0 140 65" fill="none" xmlns="http://www.w3.org/2000/svg">
<path d="M14.5105 21.8058C17.5075 19.304 21.6969 19.1322 25.3759 19.6776C25.6343 23.2961 24.3571 27.2239 21.4301 29.4702C18.4225 31.7379 14.4089 31.9162 10.8273 31.39C10.6071 27.8596 11.7508 24.1036 14.5105 21.8058Z" fill="#696969"/>
<path d="M84.9681 19.6972C85.4362 19.6972 85.9043 19.6972 86.3744 19.6972C86.3744 20.5347 86.3702 21.3722 86.3639 22.2097C87.0141 21.383 87.6262 20.5261 88.2722 19.6972C88.8186 19.6972 89.3651 19.695 89.9136 19.6929C89.1744 20.5884 88.4649 21.5054 87.713 22.388C88.4946 23.4424 89.2846 24.4882 90.0852 25.5255C89.4879 25.5341 88.8906 25.5362 88.2955 25.5319C87.6537 24.6257 87.031 23.7044 86.366 22.8153C86.3681 23.7216 86.3744 24.6257 86.3787 25.5298C85.9064 25.5319 85.4341 25.5319 84.9639 25.5319C84.9766 23.5863 84.9702 21.6407 84.9681 19.6972Z" fill="#696969"/>
<path d="M91.5169 19.6989C92.684 19.6968 93.851 19.6968 95.0201 19.6968C95.0223 20.1198 95.0286 20.5407 95.035 20.9638C94.3064 20.9702 93.5756 20.9724 92.8492 20.9745C92.8534 21.3053 92.8576 21.636 92.864 21.9667C93.5079 21.9667 94.1517 21.9645 94.7977 21.9624C94.7977 22.3983 94.7977 22.8321 94.7999 23.2681C94.1496 23.2659 93.4994 23.2659 92.8513 23.2681C92.8555 23.6117 92.8619 23.9553 92.8703 24.301C93.5968 24.2989 94.3254 24.2989 95.0561 24.2989C95.054 24.709 95.0561 25.1192 95.0583 25.5315C93.8764 25.5337 92.6946 25.5358 91.5127 25.5294C91.5275 23.5859 91.5212 21.6424 91.5169 19.6989Z" fill="#696969"/>
<path d="M33.4199 19.6968C34.5488 19.6968 35.6777 19.6968 36.8066 19.6968C36.813 20.1177 36.8193 20.5386 36.8278 20.9595C36.1437 20.9702 35.4574 20.9745 34.7733 20.9767C34.8115 22.495 34.7818 24.0132 34.7924 25.5337C34.3349 25.5337 33.8774 25.5337 33.4199 25.5337C33.4199 23.588 33.4199 21.6424 33.4199 19.6968Z" fill="#696969"/>
<path d="M38.4692 19.697C38.9458 19.697 39.4245 19.697 39.9031 19.6948C39.9307 20.8824 39.8396 22.0742 39.9434 23.2597C40.727 22.042 41.5975 20.8867 42.4214 19.697C42.8302 19.697 43.2411 19.6991 43.652 19.7013C43.6329 21.6405 43.6139 23.5796 43.6583 25.5188C43.1945 25.5274 42.7328 25.5339 42.2711 25.5381C42.2668 24.3527 42.2795 23.1673 42.2711 21.9819C41.409 23.1609 40.5745 24.3592 39.704 25.5339C39.2931 25.5339 38.8801 25.5339 38.4692 25.5339C38.4714 23.5882 38.4714 21.6426 38.4692 19.697Z" fill="#696969"/>
<path d="M46.0031 19.6989C47.5874 19.6968 49.1716 19.6989 50.7559 19.6968C50.758 21.6424 50.7432 23.588 50.7622 25.5337C50.3047 25.5702 49.843 25.5702 49.3855 25.5315C49.4088 24.0111 49.3898 22.4928 49.4004 20.9724C48.7184 20.9702 48.0364 20.9702 47.3565 20.9745C47.3713 22.495 47.3586 24.0154 47.3671 25.5358C46.9117 25.5337 46.4563 25.5315 46.001 25.5315C46.0116 23.5859 46.0073 21.6424 46.0031 19.6989Z" fill="#696969"/>
<path d="M53.0835 19.6968C54.2632 19.6968 55.4408 19.6968 56.6206 19.6968C56.6206 20.1198 56.6227 20.545 56.6269 20.9681C55.8962 20.9702 55.1676 20.9702 54.439 20.9788C54.4475 21.3074 54.456 21.636 54.4644 21.9667C55.0956 21.9624 55.7289 21.9645 56.3622 21.9753C56.3622 22.4026 56.3622 22.8321 56.3622 23.2616C55.7225 23.2638 55.0808 23.2659 54.4411 23.2724C54.4517 23.616 54.4623 23.9574 54.4729 24.301C55.2206 24.2989 55.9703 24.2989 56.718 24.2946C56.7201 24.7069 56.7201 25.1192 56.7243 25.5315C55.5107 25.5358 54.2971 25.5315 53.0835 25.5337C53.0835 23.588 53.0856 21.6424 53.0835 19.6968Z" fill="#696969"/>
<path d="M58.8105 19.7076C59.9437 19.7119 61.1869 19.4263 62.229 20.0233C63.3282 20.6633 63.2859 22.4843 62.2544 23.1758C61.6656 23.6333 60.8925 23.5925 60.1936 23.5946C60.1894 24.2388 60.1872 24.8831 60.1915 25.5295C59.7298 25.5316 59.2702 25.5338 58.8105 25.5338C58.8127 23.5925 58.8127 21.649 58.8105 19.7076ZM60.1724 20.9704C60.1788 21.4149 60.1851 21.8594 60.1894 22.3061C60.6871 22.2846 61.5576 22.3834 61.583 21.6619C61.6508 20.8608 60.6998 20.9489 60.1724 20.9704Z" fill="#696969"/>
<path d="M64.627 19.6991C65.0781 19.697 65.5313 19.697 65.9846 19.697C66.5861 20.513 67.2046 21.314 67.787 22.1451C68.3462 21.3205 68.9265 20.5087 69.4984 19.6948C69.922 19.697 70.3456 19.6991 70.7692 19.7013C70.7713 21.6426 70.767 23.5839 70.7713 25.5253C70.3096 25.5296 69.8499 25.5339 69.3903 25.536C69.3903 24.3291 69.384 23.1222 69.4094 21.9153C68.7973 22.6498 68.3059 23.4744 67.7277 24.2368C67.0542 23.5367 66.5925 22.6691 65.9634 21.9347C65.9634 23.148 65.9804 24.3613 65.9613 25.5747C65.5229 25.5725 65.0844 25.5725 64.6481 25.5725C64.61 23.614 64.6481 21.6555 64.627 19.6991Z" fill="#696969"/>
<path d="M72.0376 25.5317C72.8763 23.5904 73.6685 21.6297 74.522 19.6948C74.916 19.6948 75.3078 19.6948 75.7039 19.6948C76.5532 21.6276 77.339 23.5904 78.1904 25.5231C77.6969 25.5317 77.2013 25.5339 76.7078 25.5317C76.5468 25.1301 76.3859 24.7307 76.2228 24.3334C75.4667 24.327 74.7084 24.327 73.9502 24.3313C73.7871 24.7307 73.624 25.1301 73.4651 25.5317C72.9886 25.5339 72.512 25.5339 72.0376 25.5317ZM74.4437 23.0234C74.8736 23.0234 75.3014 23.0234 75.7335 23.0234C75.509 22.5145 75.2824 22.0055 75.0452 21.503C74.8524 22.0141 74.6512 22.5188 74.4437 23.0234Z" fill="#696969"/>
<path d="M79.3662 19.7031C80.4909 19.7139 81.7299 19.424 82.7572 20.0253C83.867 20.7125 83.7759 22.5915 82.6703 23.2422C82.1006 23.6416 81.3868 23.5858 80.7302 23.5944C80.726 24.2408 80.726 24.885 80.7281 25.5314C80.2727 25.5336 79.8195 25.5336 79.3683 25.5357C79.3662 23.5923 79.3683 21.6488 79.3662 19.7031ZM80.7069 20.9702C80.7154 21.4147 80.7217 21.8614 80.7302 22.3081C81.283 22.336 82.2192 22.2973 82.09 21.4834C81.9502 20.8027 81.2004 20.9938 80.7069 20.9702Z" fill="#696969"/>
<path d="M96.5068 20.9681C96.509 20.5429 96.5111 20.1198 96.5132 19.6968C98.1292 19.6968 99.7453 19.6989 101.361 19.6968C101.366 20.1177 101.37 20.5407 101.376 20.9638C100.794 20.9702 100.211 20.9724 99.6309 20.9767C99.6542 22.495 99.6351 24.0132 99.6457 25.5315C99.1755 25.5337 98.7053 25.5337 98.2373 25.5337C98.2457 24.0154 98.2182 22.4971 98.2584 20.9788C97.6739 20.9724 97.0893 20.9702 96.5068 20.9681Z" fill="#696969"/>
<path d="M10.8105 33.4087C14.3243 32.8225 18.2426 33.0458 21.2523 35.1611C24.3086 37.3601 25.59 41.3308 25.4227 45.0073C22.468 45.5077 19.3037 45.454 16.5228 44.2213C13.7016 42.9801 11.7552 40.1669 11.1261 37.1647C10.8254 35.9363 10.8296 34.665 10.8105 33.4087Z" fill="#696969"/>
<path d="M0.916992 45.0073C0.9297 36.572 0.921228 28.1345 0.921228 19.697C3.61745 19.697 6.31578 19.6991 9.012 19.6948C9.012 28.1345 9.00776 36.5741 9.01623 45.0116C6.31578 45.0009 3.61533 45.0095 0.916992 45.0073Z" fill="#696969"/>
<path d="M87.6112 33.634C88.9371 31.959 91.0848 31.0377 93.1943 31.1644C95.0603 31.0935 96.8945 31.8237 98.2733 33.0907C97.5066 33.8788 96.7229 34.6498 95.9583 35.44C94.7892 34.3148 92.9486 33.853 91.4618 34.5918C89.7653 35.3842 88.9964 37.5532 89.5217 39.3206C89.9029 40.9806 91.4914 42.2626 93.188 42.1638C94.3465 42.181 95.3949 41.5819 96.2273 40.8088C96.8945 41.5733 97.5129 42.3786 98.1695 43.1538C97.1253 44.1052 95.8927 44.9169 94.4757 45.1123C92.3556 45.428 90.0046 45.0307 88.3886 43.5125C85.6606 41.0901 85.3386 36.4708 87.6112 33.634Z" fill="#696969"/>
<path d="M33.4222 31.3147C34.4876 31.3126 35.5529 31.3255 36.6183 31.3062C36.7115 33.1594 36.6331 35.017 36.6585 36.8725C38.1623 35.0192 39.647 33.153 41.1614 31.3083C42.5889 31.3233 44.0186 31.3169 45.4461 31.3104C43.5018 33.5374 41.5342 35.745 39.5856 37.9698C41.4727 40.2999 43.3048 42.6771 45.1962 45.005C43.7792 45.0136 42.3623 45.0007 40.9454 45.0115C39.4861 43.1453 38.0903 41.2254 36.6183 39.37C36.703 41.2469 36.6416 43.126 36.6606 45.0029C35.5783 45.0115 34.4982 45.005 33.418 45.0093C33.4243 40.4437 33.418 35.8803 33.4222 31.3147Z" fill="#696969"/>
<path d="M45.7808 45.003C47.6827 40.4503 49.5106 35.8675 51.4083 31.3148C52.3656 31.317 53.3251 31.3191 54.2845 31.3105C56.2903 35.8632 58.2071 40.4524 60.2086 45.0051C59.0352 45.0115 57.8619 45.0008 56.6885 45.0137C56.2988 44.0581 55.9112 43.1024 55.5405 42.1403C53.7826 42.1403 52.0268 42.1382 50.2688 42.1403C49.9003 43.096 49.5275 44.0473 49.1675 45.0051C48.0386 45.0073 46.9097 45.0137 45.7808 45.003ZM51.3786 39.2262C52.3762 39.2133 53.3738 39.2198 54.3714 39.2176C53.8631 37.9699 53.3569 36.7201 52.874 35.4595C52.3233 36.6943 51.8954 37.9785 51.3786 39.2262Z" fill="#696969"/>
<path d="M61.7017 45.0097C61.7207 40.4441 61.6974 35.8786 61.7144 31.313C63.807 31.3302 65.9017 31.2937 67.9943 31.3302C69.6251 31.3688 71.2136 32.2729 72.0163 33.7246C73.3867 36.0224 72.675 39.4992 70.2563 40.7684C68.6297 41.666 66.7256 41.301 64.957 41.3718C64.9316 42.583 64.9083 43.7964 64.9274 45.0097C63.8514 45.0054 62.7776 45.0075 61.7017 45.0097ZM64.9168 34.386C64.9231 35.7497 64.9231 37.1134 64.9189 38.477C66.0203 38.3976 67.1746 38.6596 68.2399 38.316C69.748 37.6438 69.7586 35.215 68.2484 34.5428C67.1725 34.2207 66.0245 34.4462 64.9168 34.386Z" fill="#696969"/>
<path d="M73.126 31.3126C74.2909 31.3147 75.4579 31.3233 76.6228 31.3083C77.667 33.241 78.709 35.1759 79.6875 37.1452C80.7338 35.2275 81.6446 33.2367 82.6697 31.3062C83.8049 31.3255 84.9402 31.3147 86.0775 31.3126C83.735 35.8782 81.4052 40.4502 79.0627 45.0157C77.8872 45.0007 76.7117 45.0072 75.5363 45.0115C76.3813 43.4567 77.165 41.8718 78.0185 40.3256C76.3877 37.3213 74.7547 34.3191 73.126 31.3126Z" fill="#696969"/>
<path d="M100.66 31.313C104.068 31.3173 107.478 31.3173 110.886 31.3151C110.894 32.2858 110.88 33.2565 110.903 34.2271C108.56 34.2443 106.216 34.2207 103.871 34.24C103.886 35.0453 103.886 35.8528 103.875 36.6581C105.642 36.6581 107.408 36.6581 109.175 36.6581C109.17 37.6008 109.172 38.5436 109.172 39.4863C107.41 39.482 105.65 39.4906 103.888 39.4799C103.88 40.3604 103.877 41.2387 103.89 42.1192C106.224 42.1106 108.558 42.117 110.894 42.1149C110.888 43.0791 110.888 44.0455 110.894 45.0097C107.478 45.0033 104.062 45.0097 100.647 45.0075C100.671 40.442 100.645 35.8786 100.66 31.313Z" fill="#696969"/>
<path d="M115.833 37.955C116.181 35.7581 116.297 33.5333 116.441 31.3171C119.47 31.3128 122.499 31.3192 125.53 31.3149C125.54 35.8784 125.519 40.4439 125.54 45.0074C124.477 45.0117 123.416 44.9988 122.355 45.0159C122.367 41.4253 122.331 37.8326 122.374 34.242C121.385 34.2248 120.398 34.2334 119.409 34.2334C119.159 36.6107 118.977 39.0159 118.307 41.3201C117.932 42.5163 117.413 43.7876 116.346 44.5156C115.312 45.2157 114.001 45.1942 112.817 45.0202C112.853 43.9852 112.917 42.9522 112.94 41.9171C113.557 41.9257 114.281 41.887 114.683 41.3351C115.423 40.3709 115.611 39.1189 115.833 37.955Z" fill="#696969"/>
<path d="M128.601 31.3149C129.664 31.3171 130.725 31.3149 131.788 31.3171C131.788 32.7495 131.797 34.1818 131.78 35.6142C133.243 35.6743 134.741 35.4725 136.177 35.8504C137.986 36.3465 139.358 38.0752 139.483 39.965C139.623 41.5155 138.947 43.1261 137.706 44.0539C136.848 44.7024 135.772 45.031 134.707 45.0116C132.665 45.0009 130.626 45.0138 128.586 45.003C128.616 40.4418 128.584 35.8784 128.601 31.3149ZM131.782 38.5112C131.801 39.7138 131.778 40.9164 131.799 42.119C132.786 42.0889 133.777 42.1662 134.762 42.0825C135.813 41.9708 136.598 40.7467 136.192 39.7395C135.948 39.0373 135.264 38.5262 134.529 38.5176C133.612 38.4919 132.697 38.5176 131.782 38.5112Z" fill="#696969"/>
</svg>
