<svg width="140" height="48" viewBox="0 0 140 48" fill="none" xmlns="http://www.w3.org/2000/svg">
<g clip-path="url(#clip0_194_236)">
<path d="M113.359 0H113.636C113.683 0.4986 113.69 0.999911 113.747 1.49716C114.191 1.94021 115.091 1.81691 115.312 2.48352C115.338 2.95096 115.494 3.56066 115.131 3.9319C114.317 4.37901 113.263 4.17307 112.501 4.73941C112.432 5.21769 112.543 5.72849 112.339 6.18237C112.009 6.12682 111.646 6.0916 111.369 5.89514C111.144 5.52932 111.144 5.07949 111.069 4.6676C110.377 4.818 109.659 4.83561 108.958 4.75703C108.829 4.28553 108.831 3.78015 108.922 3.30458C109.097 3.03225 109.38 2.85069 109.621 2.63933C109.226 2.0364 109.308 1.29528 109.341 0.613766C109.358 0.428146 109.349 0.088068 109.644 0.174781C110.362 0.304851 110.892 0.854937 111.417 1.31425C112.041 0.842743 112.749 0.493181 113.359 0ZM111.279 3.06612C111.668 3.06612 112.052 2.99025 112.424 2.8805C112.474 2.65694 112.538 2.43745 112.589 2.21254C112.123 2.44016 111.575 2.61223 111.279 3.06612Z" fill="#696969"/>
<path d="M110.268 8.65522C110.4 8.1241 110.742 7.57131 111.296 7.40195C111.966 7.24342 112.37 7.90461 112.703 8.35985C112.806 9.51422 112.744 10.6903 112.4 11.804C111.528 14.6438 110.038 17.2615 108.285 19.6556C106.401 22.177 104.229 24.5048 101.727 26.4355C100.79 27.1983 99.743 27.8039 98.7408 28.4732C98.6807 28.4868 98.559 28.5152 98.4988 28.5288C98.4975 28.4624 98.4975 28.3283 98.4961 28.2619C100.941 26.0439 103.016 23.4588 104.866 20.7409C107.295 17.0366 109.413 13.0275 110.268 8.65522Z" fill="#696969"/>
<path d="M7.44707 25.2573C9.29004 23.9945 11.5637 23.3198 13.8072 23.5433C16.4281 23.7655 18.8262 25.1367 20.6705 26.9455C23.1684 29.3951 24.8227 32.5804 25.8098 35.8972C26.1256 36.7806 25.6771 37.7412 25.0578 38.3821C24.042 35.8701 22.7199 33.4598 20.9713 31.3732C19.6998 29.8666 18.1945 28.5117 16.4008 27.6459C14.8449 26.8872 13.0389 26.6135 11.3395 26.9942C8.9332 27.5104 6.87695 29.0198 5.20625 30.7568C3.4043 32.6563 1.95781 34.8634 0.757422 37.1762C0.540039 37.6247 0.324023 38.08 0 38.4661V38.1274C0.397852 36.2373 0.933789 34.3703 1.72129 32.6021C2.97637 29.7447 4.8248 27.0417 7.44707 25.2573Z" fill="#696969"/>
<path d="M27.1333 23.7634C27.6501 23.3868 28.4281 23.3976 28.9667 23.7241C29.2908 23.9314 29.1923 24.3501 29.1171 24.659C28.8355 25.7632 28.439 26.8336 28.0999 27.9216C27.6966 26.858 27.3398 25.7768 27.0294 24.6834C26.9597 24.3813 26.8353 23.9856 27.1333 23.7634Z" fill="#696969"/>
<path d="M107.644 24.3161C109.493 23.4842 111.619 23.285 113.594 23.7443C115.614 24.2063 117.435 25.3119 118.932 26.7115C121.531 29.1503 123.245 32.3885 124.272 35.7568C124.627 36.6578 124.261 37.7431 123.542 38.3609C122.594 35.9573 121.327 33.6662 119.703 31.6447C118.241 29.8617 116.464 28.2399 114.283 27.3781C112.782 26.7671 111.085 26.6573 109.516 27.0679C107.449 27.5936 105.654 28.8536 104.147 30.3169C101.898 32.5322 100.2 35.2352 98.8218 38.0493C98.7507 38.1943 98.6481 38.3135 98.5142 38.4056C98.5347 37.7797 98.7274 37.1781 98.8669 36.5711C99.571 33.8139 100.698 31.138 102.364 28.8116C103.729 26.931 105.487 25.2645 107.644 24.3161Z" fill="#696969"/>
<path d="M30.7574 25.8691C33.2854 24.3367 36.3178 23.8557 39.2422 23.8693C42.1707 23.8137 45.2072 24.5128 47.5793 26.2742C49.2213 27.4882 50.4969 29.3566 50.5529 31.435C50.6445 33.0405 49.9268 34.6244 48.7633 35.7246C47.243 37.1946 45.1799 37.9683 43.1291 38.3788C41.3996 38.7284 39.6236 38.7487 37.8654 38.6877C35.492 38.5983 33.042 38.2786 30.9529 37.0781C30.8545 36.9846 30.5619 36.9277 30.6494 36.7502C30.9461 36.5362 31.2674 36.3532 31.6024 36.2029C32.4131 36.6798 33.2471 37.1472 34.1699 37.3789C35.991 37.8761 37.9023 37.952 39.7795 37.8775C41.6635 37.7732 43.6309 37.2692 45.05 35.9752C46.1355 35.0011 46.7713 33.5893 46.8574 32.1477C45.9701 32.3319 45.076 32.5528 44.1627 32.4986C42.8502 32.4715 41.6826 31.7764 40.3947 31.6071C38.9975 31.3984 37.592 31.7249 36.2549 32.1097C36.2549 31.7453 36.2563 31.3821 36.2563 31.019C37.1695 30.6708 38.1266 30.4093 39.1082 30.3592C40.3688 30.2698 41.5938 30.6397 42.7654 31.0556C44.0834 31.5095 45.5053 31.3605 46.8342 31.0394C46.7904 28.9122 45.5832 26.8297 43.7033 25.781C41.8631 24.7269 39.6619 24.5752 37.5852 24.7093C35.5508 24.8448 33.5356 25.4301 31.7979 26.4978C31.4109 26.5208 31.0418 26.1915 30.685 26.0384C30.7027 25.9964 30.7383 25.9111 30.7574 25.8691Z" fill="#696969"/>
<path d="M86.0084 27.3104C87.8035 26.9689 89.6437 26.9798 91.4635 27.0448C92.6434 27.1071 93.8478 27.1762 94.973 27.5691C95.5541 27.7764 96.1324 28.1138 96.4373 28.6666C96.7271 29.1774 96.7641 29.779 96.7572 30.3521C96.7545 33.0131 96.7517 35.6741 96.7586 38.3338C94.5875 38.3893 92.4137 38.3433 90.2412 38.3582C88.6908 38.3351 87.1281 38.4367 85.5887 38.2078C84.4717 38.0127 83.2877 37.655 82.518 36.7784C81.7264 35.8977 81.8016 34.4642 82.5699 33.5957C83.3424 32.6947 84.5141 32.2666 85.6475 32.0173C88.2943 31.4631 91.0178 31.8764 93.692 31.6704C93.6031 30.7979 93.7891 29.9036 93.5703 29.0473C93.3775 28.3265 92.6105 28 91.9379 27.8699C90.7471 27.6599 89.5289 27.6694 88.3272 27.7466C87.5301 27.8212 86.6592 27.916 86.0248 28.4512C85.6174 28.8116 85.5381 29.3698 85.5094 29.8792C84.5811 29.8874 83.6514 29.8684 82.7231 29.8928C82.6602 29.2546 83.0252 28.6612 83.5256 28.29C84.2434 27.7453 85.1348 27.4919 86.0084 27.3104ZM85.2893 33.8491C84.6699 34.8097 84.8121 36.2459 85.7363 36.9721C86.4568 37.5493 87.4248 37.6726 88.3217 37.6929C90.1045 37.6861 91.8859 37.7037 93.6687 37.6821C93.6633 35.9248 93.692 34.1688 93.6537 32.4129C91.875 32.4115 90.0963 32.4034 88.3189 32.4142C87.1787 32.4468 85.925 32.8478 85.2893 33.8491Z" fill="#696969"/>
<path d="M51.4238 27.221C55.282 27.2142 59.1402 27.2033 62.9984 27.2264C62.9971 27.4499 62.9957 27.6735 62.9957 27.8984C61.6025 27.9133 60.208 27.8835 58.8148 27.9133C58.823 31.3967 58.8203 34.8788 58.8176 38.3622C57.7894 38.3636 56.7613 38.3636 55.7346 38.3622C55.7332 34.8829 55.7209 31.4035 55.74 27.9255C54.3031 27.8727 52.8648 27.9174 51.4279 27.8998C51.4266 27.6735 51.4238 27.4472 51.4238 27.221Z" fill="#696969"/>
<path d="M64.7158 27.2254C65.7959 27.216 66.8787 27.1956 67.9588 27.2309C68.2869 27.4856 68.4893 27.8677 68.7586 28.1806C70.7957 30.759 72.7836 33.3794 74.8494 35.9347C76.635 33.4674 78.4287 31.007 80.2184 28.5424C80.5533 28.1129 80.824 27.6333 81.1959 27.2349C81.535 27.1929 81.8768 27.216 82.2186 27.2241C78.9865 31.7548 75.6848 36.2368 72.4254 40.75C71.9277 41.3922 71.5107 42.0995 70.9666 42.7024C70.633 42.7322 70.2994 42.7092 69.9672 42.6983C71.0268 41.1375 72.2025 39.6566 73.2566 38.093C70.3938 34.4836 67.5432 30.862 64.7158 27.2254Z" fill="#696969"/>
<path d="M126.053 27.2295C127.09 27.2376 128.127 27.2092 129.164 27.2458C129.146 28.7267 129.146 30.2062 129.164 31.6858C131.66 31.7359 134.201 31.4812 136.655 32.0584C137.81 32.3551 139.04 32.8591 139.686 33.9146C139.98 34.34 139.822 34.8765 139.863 35.3575C139.937 36.2572 139.128 36.9048 138.432 37.3302C136.459 38.4087 134.125 38.3911 131.936 38.3803C129.975 38.3789 128.014 38.383 126.053 38.3803C126.053 34.6625 126.051 30.946 126.053 27.2295ZM129.161 32.374C129.147 34.1462 129.153 35.9184 129.157 37.6893C130.494 37.6947 131.831 37.6879 133.17 37.6934C134.452 37.715 135.961 37.4495 136.709 36.2965C137.282 35.4009 137.162 34.1286 136.406 33.3726C135.714 32.6586 134.68 32.4093 133.714 32.3862C132.196 32.3564 130.677 32.3835 129.161 32.374Z" fill="#696969"/>
<path d="M102.654 40.6509C102.747 40.3488 103.115 40.4558 103.333 40.5331C103.32 41.1699 103.135 41.7836 103.001 42.4028C102.878 41.8216 102.678 41.2484 102.654 40.6509Z" fill="#696969"/>
<path d="M119.149 40.4434C119.44 40.4447 119.731 40.4434 120.024 40.4623C120.003 42.3727 120.014 44.2858 120.016 46.1962C119.984 46.4523 120.128 46.7666 120.434 46.726C120.649 46.787 121.187 46.6122 121.033 47.0159C120.416 47.1094 119.348 47.2585 119.167 46.4631C119.124 44.4579 119.161 42.45 119.149 40.4434Z" fill="#696969"/>
<path d="M98.4948 40.8283C98.8147 40.8242 99.136 40.831 99.4573 40.85C99.43 42.8078 99.4696 44.7683 99.4368 46.7275C100.252 46.7681 101.068 46.7085 101.883 46.7695C101.857 47.0012 101.656 47.0892 101.441 47.0689C100.457 47.0621 99.4683 47.1543 98.4907 46.9985C98.5099 44.9417 98.5017 42.885 98.4948 40.8283Z" fill="#696969"/>
<path d="M104.357 40.8271C105.425 40.8326 106.494 40.8217 107.565 40.8326C107.55 40.899 107.521 41.0344 107.506 41.1008C106.773 41.0941 106.042 41.1022 105.31 41.0954C105.305 41.9544 105.297 42.8148 105.316 43.6751C106.044 43.6643 106.776 43.6399 107.505 43.6792L107.58 43.9366C106.822 43.9583 106.065 43.9461 105.309 43.9448C105.299 44.8742 105.314 45.805 105.299 46.7345C106.061 46.7792 106.831 46.6762 107.587 46.7927C107.583 47.126 107.149 47.0624 106.921 47.0895C106.064 47.0637 105.201 47.1274 104.349 47.0082C104.364 44.9474 104.349 42.8879 104.357 40.8271Z" fill="#696969"/>
<path d="M117.48 41.4896C117.915 41.1577 118.464 41.8514 118.006 42.1711C117.563 42.5248 116.96 41.7864 117.48 41.4896Z" fill="#696969"/>
<path d="M112.189 43.2917C112.957 42.4638 114.283 42.3514 115.295 42.7619C116.387 43.2118 116.919 44.5626 116.504 45.6438C116.221 46.5326 115.322 47.0935 114.41 47.1504H113.654C113.146 47.0271 112.625 46.8483 112.26 46.4594C111.427 45.6275 111.4 44.1615 112.189 43.2917ZM114.048 42.8324C113.393 42.8094 112.84 43.3025 112.637 43.8946C112.353 44.7116 112.432 45.7048 113.006 46.3836C113.568 47.0448 114.726 47.0312 115.276 46.3605C115.813 45.7224 115.89 44.7983 115.655 44.0247C115.456 43.3364 114.801 42.7524 114.048 42.8324Z" fill="#696969"/>
<path d="M108.271 42.6766C109.046 42.6387 109.824 42.6779 110.602 42.6603C110.908 42.6685 111.232 42.6224 111.526 42.743C111.507 42.7931 111.467 42.8907 111.448 42.9394C111.068 42.9963 110.684 42.9679 110.304 42.9692C110.287 44.3174 110.293 45.6655 110.301 47.0136C110.008 47.0895 109.709 47.0786 109.422 46.9946C109.445 45.6519 109.441 44.3079 109.424 42.9652C109.039 42.9692 108.655 42.9855 108.272 42.957C108.272 42.8866 108.271 42.747 108.271 42.6766Z" fill="#696969"/>
<path d="M117.315 42.7007C117.595 42.6994 117.875 42.698 118.157 42.6953C118.183 44.145 118.162 45.5961 118.166 47.0459C117.875 47.0703 117.584 47.0635 117.295 47.0337C117.306 45.5894 117.291 44.145 117.315 42.7007Z" fill="#696969"/>
<path d="M121.525 43.354C121.501 43.0248 121.743 42.7091 122.084 42.6928C122.866 42.6224 123.654 42.6793 124.439 42.6657C124.424 42.7375 124.394 42.8839 124.379 42.9557C123.8 43.0085 123.216 42.9259 122.641 42.9963C122.505 43.0126 122.43 43.0871 122.419 43.2212C122.37 43.6751 122.403 44.1317 122.395 44.5856C122.981 44.6059 123.569 44.5991 124.158 44.6018C124.145 44.6682 124.119 44.7997 124.106 44.8661C123.538 44.9148 122.968 44.8769 122.399 44.885C122.404 45.4026 122.37 45.9229 122.414 46.4391C122.415 46.6057 122.588 46.7344 122.752 46.729C123.316 46.7683 123.885 46.7304 124.452 46.7426C124.44 46.8184 124.417 46.9715 124.406 47.0474C123.915 47.149 123.412 47.0691 122.917 47.0867C122.512 47.0745 122.063 47.1111 121.714 46.8726C121.488 46.6735 121.529 46.3388 121.516 46.0692C121.528 45.1641 121.505 44.2591 121.525 43.354Z" fill="#696969"/>
</g>
<defs>
<clipPath id="clip0_194_236">
<rect width="140" height="47.1503" fill="white"/>
</clipPath>
</defs>
</svg>
