<svg width="140" height="29" viewBox="0 0 140 29" fill="none" xmlns="http://www.w3.org/2000/svg">
<path d="M13.2666 0.0589497C14.1502 -0.058629 15.0711 -0.0120619 15.9116 0.30575C17.4878 0.87036 18.7579 2.23823 19.17 3.86571C19.6683 5.65733 19.1269 7.70739 17.7614 8.98213C16.5344 10.1952 15.326 11.428 14.0932 12.6364C13.1234 11.6492 12.1362 10.6783 11.1607 9.69575C10.5972 9.13463 10.0024 8.58399 9.60539 7.88666C8.80097 6.54208 8.65894 4.83078 9.22122 3.36978C9.85335 1.6515 11.4564 0.337181 13.2666 0.0589497Z" fill="#696969"/>
<path d="M35.2619 19.8424C36.3772 18.6783 38.3679 18.5397 39.6414 19.5223C39.9895 19.7737 40.2386 20.1265 40.4843 20.4711C40.0279 20.7609 39.56 21.031 39.092 21.2999C38.7194 20.7085 38.0151 20.3442 37.3166 20.5048C36.4424 20.6317 35.8568 21.5456 35.9895 22.3966C36.0466 23.2429 36.8556 23.9344 37.7008 23.8645C38.2875 23.8867 38.78 23.5071 39.1118 23.0566C39.5751 23.3255 40.0431 23.5886 40.5052 23.861C40.1443 24.4396 39.6414 24.9379 39.007 25.2056C37.7695 25.7458 36.1863 25.4943 35.248 24.4978C34.0431 23.2627 34.05 21.0694 35.2619 19.8424Z" fill="#696969"/>
<path d="M55.4133 19.8625C56.3737 18.8368 58.0256 18.5819 59.2759 19.1966C60.6182 19.831 61.2014 21.4422 60.9837 22.8497C59.397 22.8753 57.8102 22.8473 56.2235 22.8811C56.6694 24.1989 58.5565 24.3561 59.4354 23.391C59.8615 23.6494 60.2934 23.8962 60.7253 24.1465C60.1967 24.845 59.4156 25.3584 58.532 25.4492C57.4959 25.5761 56.3714 25.3642 55.5797 24.6471C54.2386 23.455 54.1851 21.1523 55.4133 19.8625ZM56.7252 20.71C56.4598 20.9253 56.3318 21.2524 56.2049 21.5598C57.2724 21.5749 58.3399 21.5738 59.4074 21.5609C59.2666 21.2408 59.1304 20.8974 58.8463 20.6762C58.248 20.1919 57.3166 20.235 56.7252 20.71Z" fill="#696969"/>
<path d="M63.5012 19.7226C63.9715 19.2395 64.5978 18.8914 65.2847 18.8751C66.3871 18.775 67.4907 19.3757 68.0588 20.3163C68.9436 21.7203 68.684 23.7738 67.3685 24.8251C66.2788 25.7447 64.4628 25.7273 63.4989 24.6283C63.4965 25.6854 63.5 26.7436 63.4965 27.8006C62.9599 27.7995 62.4244 27.7995 61.8889 27.7995C61.8889 24.8879 61.8877 21.9752 61.8877 19.0637C62.4244 19.0649 62.9599 19.066 63.4965 19.0637C63.4977 19.2826 63.4977 19.5014 63.5012 19.7226ZM65.1857 20.4386C64.6118 20.4223 64.039 20.7168 63.755 21.2197C63.2847 21.9974 63.4639 23.1475 64.2509 23.6516C65.1485 24.2674 66.5978 23.8332 66.8656 22.7354C67.2695 21.6539 66.379 20.3152 65.1857 20.4386Z" fill="#696969"/>
<path d="M78.1519 19.4458C79.2427 18.6018 80.9726 18.667 81.9051 19.724C81.9039 19.504 81.9039 19.284 81.9062 19.064C82.4592 19.064 83.0145 19.0628 83.5686 19.0651C83.5558 21.1501 83.5989 23.2351 83.5453 25.3189C82.9982 25.3224 82.4499 25.3236 81.9039 25.2898C81.9039 25.0675 81.9051 24.8463 81.9074 24.6263C81.4056 25.1618 80.6978 25.504 79.9563 25.4749C78.7921 25.5401 77.6897 24.7834 77.1984 23.7508C76.4755 22.3282 76.848 20.4039 78.1519 19.4458ZM79.401 20.5913C78.3928 21.0675 78.1682 22.5378 78.8829 23.3562C79.4883 24.0791 80.706 24.1199 81.3847 23.4773C82.0971 22.8055 82.0913 21.5285 81.3696 20.8649C80.8585 20.369 80.0343 20.3375 79.401 20.5913Z" fill="#696969"/>
<path d="M86.3725 19.7022C86.8591 19.2098 87.5122 18.8745 88.2142 18.8722C89.1676 18.8082 90.1164 19.261 90.7019 20.0096C91.7881 21.3483 91.6682 23.5195 90.3818 24.6894C89.3178 25.7325 87.3946 25.7791 86.3725 24.651C86.3841 25.6999 86.3748 26.7488 86.3783 27.7977C85.823 27.7989 85.2689 27.8 84.7147 27.7977C84.7136 24.8874 84.7136 21.9758 84.7147 19.0655C85.27 19.0643 85.8253 19.0631 86.3806 19.0655C86.376 19.2762 86.376 19.4892 86.3725 19.7022ZM87.3131 20.5823C86.2351 21.0713 86.05 22.6906 86.8882 23.4811C87.539 24.0829 88.6507 24.0794 89.2922 23.4659C89.9953 22.7919 89.9895 21.5323 89.2712 20.8699C88.759 20.3833 87.9487 20.3309 87.3131 20.5823Z" fill="#696969"/>
<path d="M99.3864 19.7168C100.658 18.5247 102.935 18.5713 104.057 19.9473C104.76 20.7354 104.913 21.839 104.783 22.8542C103.202 22.846 101.624 22.8728 100.044 22.86C100.471 24.186 102.368 24.3687 103.243 23.3932C103.681 23.6423 104.116 23.8949 104.553 24.1487C104.102 24.7308 103.488 25.1964 102.764 25.3687C101.633 25.6283 100.336 25.4642 99.4423 24.6784C98.0139 23.4537 98.0045 20.9787 99.3864 19.7168ZM100.527 20.7366C100.26 20.952 100.151 21.2861 100.034 21.5934C101.099 21.5445 102.166 21.5899 103.233 21.5562C103.095 21.2546 102.97 20.931 102.715 20.7098C102.111 20.1883 101.12 20.2127 100.527 20.7366Z" fill="#696969"/>
<path d="M40.6748 19.0671C41.2499 19.0636 41.8261 19.0647 42.4024 19.0659C42.974 20.4443 43.4944 21.8436 44.0776 23.2172C44.499 21.8238 44.9973 20.4536 45.4338 19.0647C46.0171 19.0647 46.6015 19.0636 47.1847 19.0659C46.4152 21.1707 45.6492 23.2766 44.8855 25.3826C44.5514 26.2801 43.981 27.1707 43.0718 27.5665C42.6154 27.7854 42.102 27.811 41.605 27.8086C41.6026 27.3174 41.6026 26.8261 41.6038 26.3348C42.0206 26.2603 42.5002 26.2231 42.8017 25.8843C43.031 25.6363 43.258 25.2755 43.0741 24.9367C42.2732 22.9809 41.4688 21.0263 40.6748 19.0671Z" fill="#696969"/>
<path d="M47.9483 19.0615C49.8563 19.0708 51.7643 19.058 53.6735 19.0685C53.6724 21.143 53.6735 23.2175 53.6724 25.292C53.1264 25.327 52.5792 25.3235 52.0333 25.3188C51.9611 23.7391 52.0181 22.1558 51.9972 20.5749C51.1904 20.5749 50.3848 20.5761 49.5781 20.5726C49.5385 22.1558 49.6107 23.7391 49.5513 25.3211C49.01 25.3246 48.4698 25.3176 47.9296 25.2874C47.939 23.2129 47.9064 21.1372 47.9483 19.0615Z" fill="#696969"/>
<path d="M69.4398 19.0692C69.9765 19.0751 70.5178 19.032 71.0545 19.0867C71.633 19.8969 72.1034 20.7829 72.6808 21.5943C73.3176 20.8131 73.7716 19.8969 74.3408 19.0646C74.8763 19.0646 75.4119 19.0646 75.9485 19.0646C75.9485 21.1414 75.9485 23.2183 75.9485 25.2951C75.427 25.3219 74.8996 25.351 74.3804 25.2869C74.3059 24.103 74.3746 22.9121 74.3443 21.7258C73.8158 22.578 73.2896 23.4313 72.7238 24.2602C72.0708 23.479 71.6237 22.5512 71.0335 21.7247C70.9916 22.9144 71.0242 24.1053 71.0149 25.2951C70.4898 25.3312 69.9637 25.3277 69.4398 25.2881C69.4386 23.2148 69.441 21.1426 69.4398 19.0692Z" fill="#696969"/>
<path d="M92.3102 19.0625C92.8574 19.066 93.4033 19.0625 93.9517 19.0683C93.9517 19.9053 93.9493 20.7435 93.9517 21.5817C94.1682 21.5712 94.4464 21.6562 94.5756 21.4222C95.1554 20.6492 95.6909 19.8436 96.2625 19.0637C96.9132 19.066 97.564 19.0637 98.2159 19.0672C97.4418 20.0916 96.6699 21.1161 95.9074 22.1487C96.7095 23.201 97.5128 24.2534 98.3009 25.3175C97.6746 25.3233 97.0483 25.3151 96.422 25.3244C95.8061 24.5189 95.2136 23.697 94.6199 22.8751C94.3952 22.8704 94.1717 22.8681 93.9493 22.8693C93.9528 23.6772 93.9505 24.4839 93.9517 25.2918C93.4033 25.3279 92.855 25.3233 92.3079 25.3186C92.2578 23.2348 92.2602 21.1463 92.3102 19.0625Z" fill="#696969"/>
<path d="M105.336 19.0659C107.182 19.0636 109.028 19.0647 110.874 19.0647C110.873 19.577 110.872 20.0892 110.875 20.6014C110.235 20.6002 109.595 20.6014 108.954 20.5991C108.902 22.1718 108.948 23.7458 108.925 25.3197C108.377 25.322 107.829 25.3278 107.283 25.2941C107.279 23.7295 107.288 22.1649 107.278 20.6003C106.629 20.6003 105.982 20.6014 105.335 20.6014C105.309 20.0892 105.308 19.577 105.336 19.0659Z" fill="#696969"/>
<path d="M34.5942 1.02051C37.5267 1.02516 40.4592 1.02167 43.3905 1.02167C43.4091 4.8715 43.4091 8.72249 43.3905 12.5723C42.6082 12.5712 41.8271 12.5723 41.0448 12.5712C41.0471 9.44427 41.0448 6.31853 41.0471 3.1928C39.6711 3.19397 38.2951 3.1928 36.9202 3.19397C36.9225 6.3197 36.9179 9.44543 36.9225 12.5712C36.146 12.5723 35.3696 12.5688 34.5942 12.5735C34.5977 8.72249 34.5977 4.8715 34.5942 1.02051Z" fill="#696969"/>
<path d="M97.2315 1.04707C98.1023 0.779315 98.9347 1.78397 98.5587 2.59771C98.2676 3.39748 97.079 3.5267 96.5971 2.83869C96.0895 2.23333 96.4714 1.21238 97.2315 1.04707Z" fill="#696969"/>
<path d="M100.244 1.10496C100.816 0.85118 101.577 1.14454 101.761 1.76154C101.99 2.30636 101.689 3.00136 101.133 3.20275C100.51 3.49496 99.686 3.05724 99.5801 2.37621C99.4683 1.86282 99.7675 1.31451 100.244 1.10496Z" fill="#696969"/>
<path d="M47.3992 4.2825C48.6728 3.7726 50.1955 3.80054 51.3922 4.50601C53.022 5.43384 53.7287 7.46993 53.4155 9.26388C51.2921 9.26853 49.1687 9.25922 47.0453 9.26853C47.2351 9.78658 47.5541 10.2895 48.0686 10.5316C49.1175 11.0648 50.5401 10.9216 51.3305 10.0008C51.9068 10.3465 52.4982 10.6678 53.0744 11.0159C52.4924 11.8134 51.6518 12.4327 50.6809 12.6539C49.2258 12.9961 47.5727 12.7843 46.3783 11.839C45.0011 10.768 44.5086 8.82965 44.937 7.17656C45.2432 5.89717 46.171 4.77144 47.3992 4.2825ZM47.8812 6.27435C47.4295 6.57004 47.1885 7.06597 47.0162 7.55956C48.4516 7.57237 49.887 7.57237 51.3224 7.55956C51.1629 7.11719 50.9778 6.65153 50.5971 6.35118C49.8323 5.74583 48.6844 5.74234 47.8812 6.27435Z" fill="#696969"/>
<path d="M57.1503 5.137C58.4542 3.52466 61.1096 3.58753 62.545 4.98916C64.3389 6.6015 64.4495 9.67135 62.8453 11.4537C62.0199 12.4071 60.7277 12.9298 59.4693 12.7889C58.5717 12.7412 57.7312 12.3 57.1561 11.6143C57.1561 13.0497 57.155 14.4839 57.1561 15.9193C56.4355 15.9205 55.7149 15.9182 54.9943 15.9205C54.9955 12.002 54.9967 8.08462 54.9932 4.16727C55.7138 4.16727 56.4355 4.16611 57.1573 4.16727C57.1561 4.49091 57.1562 4.81337 57.1503 5.137ZM58.9443 6.06018C58.3913 6.17892 57.8768 6.50255 57.5659 6.97868C56.8989 7.97287 57.0467 9.48043 58.0036 10.2406C58.85 10.917 60.1748 10.9042 61.0025 10.2022C62.0339 9.34074 62.0677 7.57822 61.1201 6.64458C60.5555 6.09626 59.7045 5.89719 58.9443 6.06018Z" fill="#696969"/>
<path d="M65.811 5.80351C66.9414 4.05845 69.4059 3.47172 71.2685 4.30292C72.3966 4.80117 73.2487 5.84192 73.5689 7.02702C73.7889 7.75112 73.7574 8.51946 73.6841 9.26335C71.5642 9.268 69.4443 9.25753 67.3255 9.268C67.4943 9.72319 67.7342 10.183 68.1684 10.4368C69.2312 11.0899 70.7621 10.9583 71.6108 10.0061C72.1893 10.3425 72.7702 10.6755 73.35 11.0107C72.7446 11.8617 71.8285 12.4834 70.8028 12.6918C69.3581 12.984 67.74 12.743 66.5816 11.7849C64.861 10.3681 64.5921 7.62423 65.811 5.80351ZM68.0718 6.33086C67.6631 6.62656 67.4524 7.10036 67.2871 7.5602C68.7213 7.57184 70.1556 7.56951 71.591 7.5602C71.4524 7.16206 71.2988 6.74763 70.9798 6.45659C70.2103 5.72085 68.9111 5.70921 68.0718 6.33086Z" fill="#696969"/>
<path d="M86.86 5.12882C88.1685 3.53394 90.7971 3.58632 92.236 4.97398C93.7692 6.34535 94.108 8.77609 93.1569 10.5712C92.4653 11.9589 90.9426 12.9146 89.3769 12.8029C88.4118 12.8005 87.4886 12.3488 86.8635 11.6213C86.8588 13.0543 86.8612 14.4874 86.8623 15.9204C86.1417 15.9181 85.4223 15.9204 84.7028 15.9193C84.7028 12.0019 84.704 8.08458 84.7017 4.16723C85.4223 4.16607 86.1429 4.16723 86.8635 4.16607C86.86 4.48737 86.8611 4.80751 86.86 5.12882ZM88.6272 6.06828C88.1033 6.18702 87.6132 6.48854 87.3047 6.93208C86.6353 7.87736 86.7308 9.30228 87.569 10.116C88.4351 10.9554 89.9555 10.9391 90.8239 10.109C91.7075 9.23709 91.7494 7.67946 90.9345 6.74931C90.3652 6.12067 89.4444 5.8762 88.6272 6.06828Z" fill="#696969"/>
<path d="M95.5551 5.74793C96.7775 3.92837 99.4597 3.41615 101.336 4.48367C102.973 5.40801 103.743 7.45807 103.382 9.26366C101.264 9.27181 99.1477 9.25085 97.0312 9.27413C97.2198 9.77122 97.5062 10.2625 97.9998 10.5081C99.0569 11.0739 100.507 10.9249 101.322 10.0029C101.897 10.3451 102.481 10.6746 103.058 11.0157C102.461 11.8422 101.578 12.4627 100.576 12.6781C99.1395 12.9878 97.5318 12.7631 96.3572 11.8364C94.5551 10.4301 94.2885 7.59078 95.5551 5.74793ZM97.7658 6.34398C97.3619 6.63618 97.157 7.10882 97.0021 7.56633C98.4329 7.56517 99.8624 7.57332 101.293 7.56168C101.172 7.17984 101.024 6.78868 100.734 6.50114C99.9719 5.7165 98.6191 5.69555 97.7658 6.34398Z" fill="#696969"/>
<path d="M106.879 4.38728C108.589 3.54677 110.861 3.8832 112.135 5.34188C112.345 5.57238 112.513 5.83664 112.681 6.09857C112.061 6.46877 111.436 6.82849 110.815 7.19636C110.181 5.94374 108.307 5.71208 107.327 6.67715C106.343 7.59567 106.411 9.39776 107.504 10.2022C108.104 10.6737 108.936 10.7354 109.652 10.5328C110.166 10.3815 110.553 9.98333 110.839 9.54561C111.458 9.91697 112.09 10.2674 112.717 10.6283C112.28 11.3547 111.66 11.9752 110.894 12.3489C109.841 12.8786 108.581 12.9379 107.463 12.591C106.405 12.2662 105.502 11.5002 104.981 10.5293C104.344 9.30579 104.294 7.79823 104.832 6.53047C105.23 5.60265 105.967 4.82267 106.879 4.38728Z" fill="#696969"/>
<path d="M125.053 4.08612C126.131 3.80906 127.319 3.91267 128.311 4.43188C129.415 4.99416 130.259 6.05004 130.55 7.25842C130.952 8.8079 130.474 10.5716 129.266 11.6426C127.617 13.2247 124.741 13.1828 123.126 11.5727C121.577 10.1094 121.365 7.51454 122.597 5.79044C123.186 4.9604 124.065 4.34224 125.053 4.08612ZM125.517 6.16878C124.554 6.44468 123.917 7.44585 123.974 8.42839C123.961 9.31547 124.511 10.1851 125.342 10.5134C126.132 10.8382 127.105 10.7043 127.749 10.1327C128.745 9.27938 128.765 7.55062 127.805 6.66238C127.207 6.09777 126.293 5.915 125.517 6.16878Z" fill="#696969"/>
<path d="M75.249 4.16602C75.9778 4.16718 76.7065 4.16718 77.4353 4.16718C77.4318 5.30804 77.4341 6.44891 77.4341 7.58977C77.6751 7.5886 77.9161 7.58744 78.1594 7.58628C78.9661 6.44425 79.7834 5.31154 80.5843 4.16602C81.4563 4.16834 82.3282 4.16602 83.2001 4.16718C82.1582 5.55251 81.1128 6.93319 80.0732 8.31969C81.1501 9.73645 82.2106 11.166 83.3003 12.5723C82.4504 12.57 81.6006 12.5723 80.7508 12.57C79.9464 11.4675 79.1338 10.3698 78.3317 9.26498C78.0313 9.26498 77.7321 9.26498 77.4341 9.26498C77.4341 10.3674 77.4318 11.4699 77.4353 12.5711C76.7065 12.5711 75.9778 12.5711 75.249 12.5711C75.2514 9.77022 75.2525 6.96811 75.249 4.16602Z" fill="#696969"/>
<path d="M113.666 4.16718C116.141 4.16602 118.615 4.16834 121.089 4.16602C121.086 4.86334 121.088 5.56183 121.088 6.25915C120.221 6.25682 119.354 6.26031 118.487 6.25682C118.482 8.3616 118.498 10.4675 118.479 12.5723C117.745 12.57 117.009 12.5723 116.276 12.5711C116.257 10.4664 116.273 8.3616 116.266 6.25799C115.4 6.25915 114.533 6.25799 113.667 6.25799C113.667 5.56066 113.668 4.86334 113.666 4.16718Z" fill="#696969"/>
<path d="M131.966 4.16755C132.687 4.16639 133.408 4.16755 134.129 4.16639C134.123 5.30725 134.127 6.44928 134.127 7.59014C134.37 7.58898 134.615 7.58781 134.862 7.58665C135.676 6.45044 136.484 5.30958 137.293 4.16872C138.164 4.16406 139.035 4.17221 139.907 4.16406C138.856 5.54241 137.827 6.93706 136.781 8.32006C137.852 9.73799 138.924 11.1559 140 12.5704C139.154 12.5727 138.307 12.5715 137.462 12.5715C136.653 11.4714 135.844 10.3725 135.042 9.26768C134.736 9.26418 134.431 9.26418 134.127 9.26418C134.126 10.3666 134.125 11.4691 134.128 12.5727C133.406 12.5715 132.687 12.5715 131.966 12.5715C131.969 9.76942 131.969 6.96849 131.966 4.16755Z" fill="#696969"/>
<path d="M10.7437 18.9629C11.8694 17.8384 12.9963 16.715 14.1174 15.5869C15.143 16.6172 16.1733 17.6428 17.2 18.6719C17.7099 19.1771 18.2373 19.68 18.6028 20.304C19.3339 21.5101 19.5388 23.0177 19.164 24.3762C18.7402 26.0083 17.4573 27.3785 15.8694 27.935C14.9789 28.233 14.0114 28.3401 13.0883 28.1306C11.3677 27.8093 9.86592 26.5392 9.24427 24.9059C8.73437 23.6114 8.7693 22.1073 9.35253 20.8419C9.66802 20.1201 10.1768 19.5031 10.7437 18.9629Z" fill="#696969"/>
<path d="M3.58219 9.15011C4.96403 8.66234 6.53446 8.84394 7.80804 9.54825C8.36334 9.86374 8.84064 10.2968 9.28767 10.7497C10.4006 11.8742 11.5298 12.9825 12.6392 14.1117C11.673 15.043 10.7417 16.0081 9.78476 16.9487C9.11421 17.6065 8.49838 18.3643 7.62992 18.7706C6.55775 19.3364 5.28999 19.4679 4.10955 19.2351C2.47276 18.88 1.03388 17.6973 0.404073 16.142C-0.247849 14.603 -0.104658 12.7508 0.788241 11.3364C1.44133 10.3259 2.42387 9.50634 3.58219 9.15011Z" fill="#696969"/>
<path d="M19.1209 10.5814C20.3921 9.19959 22.4247 8.55 24.2513 9.03428C26.157 9.47433 27.7193 11.0797 28.1186 12.9924C28.3479 14.1833 28.2292 15.4662 27.6436 16.5419C26.8997 17.9924 25.4375 19.0378 23.8275 19.2857C22.8741 19.3987 21.8846 19.3346 20.9963 18.9493C20.1255 18.614 19.4212 17.9784 18.7844 17.316C17.7193 16.2497 16.6541 15.1856 15.5889 14.1193C16.7612 12.9353 17.9463 11.763 19.1209 10.5814Z" fill="#696969"/>
</svg>
