<svg width="115" height="50" viewBox="0 0 115 50" fill="none" xmlns="http://www.w3.org/2000/svg">
<path d="M11.8802 0.146035C12.8697 -0.0258478 13.8813 -0.0251284 14.8807 0.0417549C17.5267 0.338055 20.0935 1.34922 22.2309 2.95082C24.0393 4.27626 25.4083 6.16194 26.268 8.23173C27.2995 10.7733 27.5421 13.6385 26.9528 16.3196C27.3217 16.4627 27.6648 16.7166 27.8175 17.0963C28.1028 17.7831 27.9858 18.5548 27.8375 19.261C27.4001 21.1186 26.5162 22.8216 25.7201 24.5412C25.5161 25.0166 25.3341 25.5545 24.879 25.8479C24.6379 26.0191 24.3332 26.0328 24.0507 25.9961C23.9737 26.0939 23.8959 26.1924 23.8196 26.2917C23.9723 27.9292 23.7169 29.5848 23.2175 31.1439C22.93 32.0717 22.5212 32.9692 21.9213 33.7366C20.884 35.0678 19.5728 36.176 18.1139 37.0124C17.8449 37.1771 17.5481 37.2986 17.3041 37.5007C17.3156 37.5245 17.3391 37.5712 17.3505 37.5949C18.0753 37.4871 18.8194 37.3778 19.5471 37.5273C19.7133 37.5647 19.8881 37.6417 19.9744 37.7999C20.0885 38.0006 20.0457 38.2408 20.0422 38.4608C20.0051 39.0211 20.05 39.5835 20.0143 40.1437C19.9979 40.422 19.7918 40.6838 19.51 40.7198C18.9835 40.7852 18.467 40.604 17.9426 40.5874C17.297 40.563 16.6478 40.5342 16.0051 40.6054C15.8788 40.6025 15.724 40.7133 15.7875 40.855C16.1085 41.8604 16.2918 42.9039 16.4302 43.9496C16.6114 45.3584 16.7213 46.7774 16.7427 48.1977C16.7349 48.799 16.7784 49.4153 16.6093 50C16.0764 49.8662 15.5335 49.7785 14.9985 49.6526C14.788 49.5922 14.5091 49.5189 14.4541 49.2708C14.4256 48.9716 14.4941 48.6746 14.4984 48.3768C14.5412 46.8989 14.4548 45.421 14.3564 43.9474C14.3478 43.7942 14.3093 43.6461 14.2629 43.5023C14.0489 43.91 13.8941 44.348 13.6544 44.7428C13.0594 45.7403 12.3296 46.6515 11.5242 47.4843C11.3801 47.6253 11.2424 47.7806 11.0669 47.8835C10.6938 47.8878 10.335 47.7562 9.97899 47.6569C9.57093 47.516 9.12078 47.3959 8.83042 47.0507C10.6175 45.3937 12.1884 43.48 13.3277 41.3116C13.4104 41.0959 13.6601 40.8197 13.4818 40.604C12.3831 40.7759 11.2681 40.7701 10.1609 40.8557C9.76283 40.8701 9.30412 40.888 8.98452 40.6054C8.74838 40.4026 8.79333 40.0588 8.80688 39.7812C8.86467 39.2196 8.79903 38.6543 8.84826 38.0941C8.88607 37.797 9.22136 37.7179 9.46249 37.6582C9.94332 37.5295 10.4441 37.5928 10.9314 37.5266C10.9963 37.3274 10.7716 37.2217 10.6389 37.1332C9.47391 36.4601 8.38741 35.6453 7.43431 34.6902C7.15038 34.3982 6.85859 34.1041 6.66384 33.7416C6.16517 32.8498 5.7407 31.9005 5.54095 30.8922C5.44108 30.3859 5.42681 29.8609 5.52882 29.3539C4.74409 27.8724 4.1641 26.1895 4.35814 24.488C3.37651 23.5602 2.54968 22.4685 1.90263 21.2797C0.982348 19.5897 0.487964 17.6249 0.723385 15.696C0.901021 14.3843 1.08365 13.0639 1.04299 11.7363C1.01873 11.1789 0.953098 10.6108 0.731232 10.0944C0.552169 9.67152 0.252542 9.3184 0 8.94083C0.129838 8.30292 0.662747 7.78296 1.3098 7.71104C2.17015 7.63121 3.05548 7.45574 3.77672 6.94872C4.03426 6.77611 4.23758 6.53735 4.40665 6.27845C3.79955 5.98143 3.18175 5.65636 2.71947 5.14862C2.53898 4.96307 2.44909 4.71568 2.40771 4.46396C3.54201 4.46253 4.76121 4.15184 5.55451 3.28452C5.81418 2.98678 6.05174 2.64661 6.11809 2.24675C6.16089 1.97706 6.4063 1.81021 6.64244 1.72031C7.14039 1.53117 7.62407 1.30463 8.12488 1.12124C9.34692 0.69117 10.6025 0.355315 11.8802 0.146035ZM9.80635 1.8023C9.31197 1.97058 8.76693 2.12808 8.42521 2.55527C8.76693 2.75161 9.18926 2.54808 9.53526 2.72644C9.67223 2.82496 9.5909 3.05438 9.44394 3.09681C9.17999 3.20181 8.90105 3.26078 8.63852 3.36866C7.87305 3.67431 7.16964 4.11588 6.49619 4.5891C6.27076 4.74588 6.07386 4.94006 5.89836 5.15078C6.07743 5.39602 6.36921 5.26944 6.61176 5.2191C7.86877 4.91561 9.17428 4.78975 10.4627 4.92208C12.1178 5.07239 13.6744 5.85054 14.905 6.95807C15.0034 7.04724 15.1097 7.20043 15.0156 7.33132C14.8372 7.51902 14.6196 7.66214 14.4277 7.83402C14.3207 7.91313 14.223 8.02245 14.0889 8.04977C13.8677 8.03179 13.6765 7.90306 13.4775 7.81604C12.3917 7.30974 11.1554 7.23351 9.98399 7.40395C9.42112 7.49385 8.90034 7.78512 8.50939 8.20008C7.69256 9.071 7.09901 10.1419 6.73233 11.2789C6.4648 12.0707 6.3478 12.9021 6.20013 13.7219C6.14448 14.1887 5.5167 14.198 5.40041 14.6281C5.32337 14.9028 5.32693 15.1948 5.35761 15.4767C5.35975 15.6335 5.51884 15.7219 5.66009 15.7004C6.13664 15.6817 6.61176 15.6414 7.08831 15.6328C8.09349 15.5997 9.09723 15.6867 10.0967 15.7795C10.9264 15.8615 11.7511 16.1376 12.4088 16.6641C12.6499 16.8403 12.859 17.0862 13.1579 17.1617C13.4511 17.197 13.725 17.038 14.0154 17.0236C14.4142 16.9582 14.803 17.1092 15.1982 17.1099C15.5228 16.9726 15.7654 16.6971 16.0807 16.5396C16.9325 16.0887 17.9241 16.0729 18.8643 16.0571C19.983 16.0513 21.1023 16.0751 22.2202 16.134C22.9279 16.1685 23.6084 16.4116 24.3161 16.439C24.3161 15.7493 24.2862 15.0143 23.9173 14.4094C23.6684 13.9894 23.3873 13.573 23.2831 13.0876C23.2011 12.7604 23.2838 12.4252 23.2674 12.0944C23.2553 11.7564 23.2339 11.4198 23.2111 11.0825C23.1997 10.8323 23.1362 10.5647 23.2738 10.3353C23.3809 10.4626 23.48 10.5985 23.5492 10.751C24.1435 12.011 24.6849 13.2983 25.1194 14.6238C25.1708 14.7273 25.185 14.9201 25.3427 14.8935C25.4604 14.8093 25.5196 14.6712 25.5496 14.5339C25.6602 14.0657 25.6787 13.5817 25.6894 13.1027C25.7179 11.2861 25.4647 9.43778 24.7285 7.76786C24.2255 6.60711 23.4807 5.5643 22.6054 4.6603C21.9676 3.96558 21.1943 3.41253 20.3882 2.935C19.2446 2.2676 18.0019 1.76993 16.7127 1.47651C15.7325 1.26795 14.7345 1.08816 13.7279 1.13706C12.4017 1.20466 11.0819 1.42904 9.80635 1.8023ZM7.98077 6.60495C6.72662 6.81207 5.66794 7.56217 4.62638 8.24467C3.9779 8.68768 3.23597 9.00484 2.45837 9.11559C2.21652 9.13717 1.83414 9.04727 1.75924 9.36802C1.86482 9.88439 2.26646 10.2835 2.39915 10.7934C2.58678 11.4608 2.35849 12.1412 2.3057 12.8107C2.19798 13.9808 2.06457 15.1775 2.32211 16.3376C2.36348 16.4749 2.38417 16.6526 2.52757 16.723C2.75157 16.7087 2.96702 16.6295 3.17033 16.5375C3.32871 16.472 3.35082 16.2779 3.35724 16.1283C3.36652 14.526 3.63476 12.9143 4.22616 11.4234C4.39809 10.9847 4.7819 10.6956 5.14002 10.418C5.61158 10.0671 5.77138 9.47087 6.10596 9.00987C6.71378 8.14686 7.48924 7.35577 8.47444 6.94584C8.63353 6.87752 8.7812 6.78546 8.92174 6.68406C8.64209 6.49492 8.29252 6.57906 7.98077 6.60495ZM3.97077 16.7597C3.97505 16.946 3.98289 17.133 3.99502 17.3192C4.32247 17.3092 4.65777 17.3516 4.98094 17.2869C5.01875 17.1042 4.98022 16.9172 4.96809 16.7345C4.63565 16.7079 4.3025 16.7281 3.97077 16.7597ZM6.4113 16.9654C5.96542 16.9891 5.56449 17.3343 5.47389 17.773C5.43466 18.0183 5.74142 18.1736 5.9376 18.0549C6.31998 17.8464 6.65385 17.5551 7.04836 17.3638C7.19104 17.2696 7.42289 17.2128 7.43431 17.0078C7.37652 16.9201 7.27736 16.8798 7.17534 16.8928C6.91923 16.8964 6.66384 16.928 6.4113 16.9654ZM22.3086 17.394C22.5811 17.4451 22.8644 17.453 23.1412 17.4307C23.3067 17.3458 23.2838 17.0948 23.2624 16.9366C22.9464 16.841 22.5947 16.8964 22.2651 16.8669C22.2758 17.0359 22.1702 17.2631 22.3086 17.394ZM20.0571 17.0438C20.4716 17.3279 20.8162 17.7047 21.2492 17.9622C21.3812 18.0319 21.5988 18.129 21.6923 17.9521C21.9362 17.5688 21.5574 17.115 21.1765 17.0316C20.8133 16.9553 20.4046 16.8697 20.0571 17.0438ZM7.73964 17.7838C7.45571 17.9643 7.11827 18.0521 6.86716 18.2851C7.13325 18.5576 7.52847 18.4145 7.83024 18.2894C8.34389 18.0463 8.87537 17.8054 9.44894 17.7651C9.70576 17.7428 9.95688 17.8162 10.2123 17.8227C10.2322 17.8075 10.2729 17.7759 10.2929 17.7608C10.2215 17.2847 9.66866 17.0603 9.24134 17.1035C8.69631 17.2099 8.2062 17.4926 7.73964 17.7838ZM17.9747 17.7435C17.8834 17.8162 17.7707 17.9377 17.8827 18.0506C18.305 18.047 18.7181 17.837 19.144 17.9442C19.5499 18.0147 19.816 18.3592 20.1599 18.5548C20.431 18.7159 20.7805 18.9079 21.0816 18.7029C20.8069 18.5023 20.5137 18.3239 20.2726 18.0808C19.9501 17.7687 19.617 17.4077 19.1533 17.3336C18.7188 17.2488 18.3008 17.4739 17.9747 17.7435ZM23.2567 17.8816C23.0598 17.9694 22.9072 18.1427 22.8636 18.3577C22.6974 19.0985 22.5483 19.8493 22.273 20.5598C21.9227 21.3596 21.1943 22.0773 20.284 22.1068C20.0329 22.1312 19.9073 21.8659 19.7711 21.7026C20.0778 21.5314 20.4574 21.5386 20.7399 21.3186C21.1708 21.0108 21.5239 20.5447 21.586 20.0039C21.6088 19.9068 21.536 19.8061 21.4454 19.7802C21.19 19.6983 20.9118 19.727 20.6607 19.6335C20.4752 19.4271 20.4031 19.0675 20.0757 19.0409C19.6962 19.0668 19.3288 19.1819 18.9514 19.2243C18.1795 19.3444 17.3591 19.2258 16.6821 18.8223C16.5301 18.7504 16.3646 18.5958 16.1912 18.7008C16.1941 18.9151 16.3318 19.0898 16.3988 19.2855C16.3675 19.4897 16.1827 19.6249 16.0179 19.7234C15.918 19.7716 15.7832 19.8522 15.6805 19.7687C15.276 19.4696 15.1347 18.951 15.0127 18.4857C14.9485 18.1319 14.5619 17.937 14.2301 17.9708C13.9041 17.996 13.5046 18.0607 13.3605 18.403C12.9888 18.9935 13.1229 19.7119 13.0573 20.3714C13.0188 21.0417 12.6992 21.6487 12.5836 22.3024C12.523 22.6231 12.6799 22.931 12.849 23.1913C13.2785 23.8421 14.0311 24.2283 14.793 24.296C15.393 24.3247 15.963 24.0716 16.473 23.7789C16.6435 23.6688 16.8383 23.5739 16.956 23.402C17.103 23.0921 16.8775 22.7735 16.8954 22.4577C16.936 22.283 17.1479 22.3096 17.2799 22.3448C17.8984 22.5081 18.4206 22.9403 18.7887 23.4581C19.1732 23.9953 19.5128 24.6009 20.0807 24.9662C20.3611 25.1482 20.7399 25.2395 20.8897 25.5725C21.0274 25.9285 20.9974 26.3211 21.0003 26.6958C20.996 27.3978 20.859 28.1644 20.3325 28.6685C19.7304 29.2014 19.9851 30.1378 19.5335 30.757C19.4465 30.8678 19.3181 30.9318 19.2039 31.0087C18.833 30.4895 19.0655 29.8056 18.9236 29.2223C18.7688 28.9763 18.4905 28.8275 18.223 28.7397C17.8392 28.7563 17.4854 28.9339 17.118 29.0303C16.2283 29.3086 15.2788 29.2993 14.3628 29.1799C13.74 29.0749 13.0573 29.2166 12.5729 29.6409C12.6806 29.7746 12.8026 29.907 12.9753 29.9501C13.1964 30.045 13.516 30.063 13.5952 30.3392C13.7143 30.7728 13.7222 31.2626 13.5203 31.674C13.2585 31.4151 13.1557 31.0317 12.874 30.7937C12.8155 30.7541 12.65 30.6707 12.6442 30.7995C12.6949 31.2022 12.7791 31.6057 12.7391 32.0149C12.7191 32.665 12.4124 33.2533 12.2975 33.8847C12.1812 34.4061 12.2269 34.9649 12.4588 35.4482C12.9674 36.5507 13.9212 37.3332 14.7837 38.1458C14.9428 38.3041 15.1597 38.3709 15.3801 38.3788C15.4194 38.025 15.4814 37.6647 15.6683 37.3555C15.9972 36.7226 16.6229 36.258 16.7891 35.5403C16.8932 35.1857 16.5865 34.7866 16.8483 34.4744C17.0045 34.6096 17.1386 34.7715 17.3056 34.8944C17.516 35.0109 17.7821 34.9887 17.9919 34.8793C18.8893 34.4406 19.7047 33.8423 20.4367 33.1619C21.0609 32.6024 21.5817 31.9264 21.9469 31.1684C22.7195 29.6092 22.9114 27.8365 22.9207 26.1162C22.8893 25.7954 23.1362 25.5725 23.2938 25.328C23.4365 25.118 23.5207 24.8742 23.6641 24.6642C23.7946 24.762 23.7925 24.9511 23.8888 25.077C23.9851 25.1388 24.1271 25.1072 24.1742 24.9971C24.2783 24.7735 24.3268 24.529 24.4103 24.2981C24.6036 23.7105 24.8897 23.1625 25.1758 22.6174C25.7315 21.4926 26.1845 20.2686 26.1802 18.9956C26.161 18.6511 26.1196 18.2426 25.8285 18.0154C25.4761 17.8198 25.0195 18.111 24.9575 18.4893C24.9767 18.823 25.3242 19.0639 25.2564 19.4156C25.1929 19.7011 24.9503 19.9291 24.6999 20.0578C24.5687 20.124 24.5166 19.9622 24.5102 19.8615C24.4609 19.1884 24.4866 18.5095 24.3982 17.8392C24.3725 17.7018 24.3197 17.499 24.1485 17.5005C23.8332 17.576 23.5464 17.7407 23.2567 17.8816ZM3.0569 17.732C2.89853 17.7996 2.62887 17.8277 2.64171 18.0557C2.67381 18.5519 2.86714 19.023 3.06475 19.4739C3.17248 19.6832 3.2588 19.9255 3.45641 20.0672C3.56841 20.0744 3.72607 19.9874 3.69754 19.8565C3.64831 19.4494 3.51205 19.0575 3.47638 18.6483C3.43429 18.3656 3.46925 18.0787 3.43287 17.796C3.38079 17.6213 3.1789 17.6925 3.0569 17.732ZM7.61052 19.5149C7.48853 19.6343 7.3965 19.7925 7.24383 19.8737C6.98201 19.9385 6.75801 19.7536 6.57324 19.594C6.44554 19.489 6.28931 19.33 6.11167 19.4293C5.91763 19.5142 5.56235 19.612 5.63655 19.8932C5.81918 20.4354 6.15233 20.9338 6.60463 21.284C6.7844 21.4279 6.99985 21.5199 7.17534 21.6702C7.29377 21.9363 7.03052 22.4254 6.69808 22.2585C6.39417 22.1845 6.18372 21.8651 5.86983 21.8579C5.87125 22.4656 6.23223 23.005 6.56254 23.4898C6.85717 23.8587 7.14752 24.3449 7.66117 24.3988C8.19336 24.4542 8.53722 23.9802 8.96668 23.758C9.2656 23.5566 9.63157 23.4862 9.92834 23.2877C10.066 22.9008 10.188 22.4959 10.4698 22.1823C10.0646 22.2873 9.64869 22.3714 9.2285 22.3736C8.94314 22.3779 8.69631 22.0895 8.73198 21.809C8.78191 21.5767 9.05657 21.6192 9.23207 21.6048C9.74999 21.6026 10.2665 21.4682 10.7166 21.21C11.1304 20.9597 11.3901 20.5023 11.4621 20.0284C11.343 19.863 11.1796 19.7105 11.1447 19.5012C11.2545 19.2811 11.4728 19.1337 11.5527 18.8935C11.2424 18.8935 10.9692 19.0726 10.6617 19.0913C10.0332 19.174 9.43039 18.8913 8.80332 18.923C8.34674 18.9453 7.91442 19.1747 7.61052 19.5149ZM11.5149 22.3081C11.1062 22.7289 11.1989 23.5351 11.7068 23.8371C11.8402 23.927 11.9979 23.8644 12.1406 23.8386C12.112 23.6099 12.045 23.3891 11.9915 23.1661C11.9216 22.8806 12.0286 22.5958 12.1242 22.3312C11.9508 22.1909 11.6883 22.1348 11.5149 22.3081ZM16.3075 24.68C16.0621 24.7792 15.7554 24.7958 15.5913 25.0324C15.4094 25.2755 15.1889 25.5286 14.8693 25.5667C14.412 25.6156 13.9498 25.5265 13.5089 25.4078C13.0195 25.2942 12.6214 24.867 12.0885 24.9497C11.5627 24.9375 11.2981 25.4538 10.9556 25.7652C10.6382 26.0996 10.1673 26.1888 9.80564 26.4556C10.0589 26.9145 10.6282 26.9562 11.0876 26.8663C13.4111 26.3679 15.8074 26.5376 18.1531 26.7598C18.5569 26.7936 18.9614 26.8749 19.3673 26.8354C19.6063 26.8195 19.7775 26.6326 19.938 26.4751C19.811 26.1593 19.4401 26.1752 19.1968 26.0018C18.5854 25.6171 18.3892 24.8591 17.8849 24.3693C17.7279 24.2219 17.5332 24.0126 17.2984 24.0737C16.9639 24.2686 16.6764 24.5469 16.3075 24.68ZM7.6947 25.9421C7.47354 25.991 7.24882 26.0817 7.10472 26.2658C6.70664 26.7491 6.5925 27.4359 6.76086 28.0349C7.05835 29.1691 7.51421 30.2845 8.254 31.2015C8.76479 31.83 9.42468 32.3759 10.2137 32.5938C10.4263 32.6377 10.6724 32.7024 10.8736 32.5888C11.0512 32.4643 10.9678 32.2227 10.9078 32.0573C10.6567 31.4208 10.544 30.7419 10.3507 30.0889C10.3336 29.9602 10.1852 29.9005 10.0946 30.0005C9.87626 30.2414 9.85843 30.606 9.64013 30.8484C9.32552 30.8455 9.20282 30.4708 9.0687 30.2392C8.51938 28.9569 8.35601 27.5459 8.23973 26.1665C8.18337 25.9314 7.89445 25.8774 7.6947 25.9421ZM12.742 27.9134C12.7812 28.1759 13.0409 28.2938 13.2542 28.3924C13.5852 28.5384 13.9548 28.4751 14.3043 28.465C14.8729 28.4204 15.4493 28.4283 16.01 28.3097C16.3546 28.232 16.7185 28.1824 17.0209 27.9846C16.6535 27.8379 16.2512 27.8688 15.8652 27.8278C14.8244 27.7444 13.7771 27.7782 12.742 27.9134Z" fill="#696969"/>
<path d="M95.7294 16.996C99.2299 14.7184 103.448 13.8044 107.568 13.8185C109.741 13.8326 111.924 14.1241 114.001 14.7833C113.51 16.5756 113.018 18.368 112.526 20.1603C112.277 20.1593 112.028 20.1584 111.78 20.1593C111.329 19.5697 110.771 19.0582 110.114 18.7187C109.076 18.1705 107.888 18.0153 106.733 18.0031C104.926 18.0088 103.086 18.3172 101.46 19.1494C100.394 19.6948 99.4299 20.4744 98.7408 21.4711C97.3875 23.397 97.1587 26.1109 98.2711 28.2041C98.964 29.5272 100.148 30.54 101.485 31.1465C103.133 31.895 104.988 32.0981 106.774 31.9101C108.319 31.7427 109.84 31.3759 111.314 30.8813C110.963 32.4 110.619 33.9196 110.268 35.4383C108.186 35.8633 106.077 36.1623 103.954 36.2432C102.214 36.3222 100.463 36.2536 98.7482 35.9357C96.9688 35.6028 95.2172 34.9916 93.7101 33.96C92.4411 33.0987 91.3675 31.9213 90.6894 30.5277C89.6047 28.3376 89.5658 25.7018 90.3967 23.4196C91.361 20.7245 93.3766 18.5259 95.7294 16.996Z" fill="#696969"/>
<path d="M58.7032 13.8338C62.7412 13.829 66.7803 13.8338 70.8193 13.8184C70.6912 14.3062 70.5649 14.7951 70.4387 15.2839C69.1923 15.3178 68.1401 16.0603 67.226 16.8211C64.1188 19.2634 61.0097 21.7037 57.9015 24.146C59.2998 26.2843 60.7089 28.4178 62.1387 30.5358C62.6387 31.2667 63.1278 32.0062 63.6603 32.7148C64.4778 33.7157 65.597 34.6566 66.9755 34.6682C66.8395 35.1929 66.7103 35.7185 66.5752 36.2442C65.0033 36.2374 63.4315 36.2713 61.8597 36.2732C60.4229 36.2596 58.9536 36.2471 57.5731 35.8095C56.2586 35.403 55.1631 34.5201 54.2618 33.5202C52.8093 31.9017 51.6329 30.0702 50.4436 28.2629C49.992 27.567 49.5443 26.87 49.1025 26.1682C48.4793 28.3849 47.8551 30.6007 47.2398 32.8193C47.1521 33.1262 47.1412 33.4747 47.3236 33.7525C47.6343 34.2549 48.2318 34.4679 48.7762 34.6324C48.6371 35.1639 48.506 35.6963 48.3659 36.2277C44.3348 36.2248 40.3046 36.2267 36.2734 36.2267C36.4066 35.7001 36.5387 35.1726 36.6728 34.6469C37.3512 34.6469 38.0455 34.4379 38.5158 33.9384C39.5335 32.9084 39.8579 31.4574 40.2632 30.1273C41.2848 26.4092 42.3281 22.6969 43.3723 18.9846C43.5065 18.4754 43.679 17.9769 43.7826 17.4619C43.8871 16.946 43.8319 16.3555 43.4591 15.9509C43.1229 15.5695 42.6121 15.4252 42.1348 15.2965C42.2581 14.8086 42.3813 14.3198 42.5066 13.8329C46.3612 13.8377 50.2168 13.83 54.0725 13.828C53.9482 14.3149 53.822 14.8018 53.6968 15.2897C52.8408 15.4446 51.9889 15.9702 51.7344 16.8289C51.0274 19.2934 50.348 21.7676 49.6449 24.2341C52.8458 21.8267 56.0555 19.4289 59.2524 17.0157C59.5522 16.795 59.85 16.4029 59.6518 16.0273C59.3984 15.5511 58.8284 15.3817 58.3295 15.2849C58.4586 14.8028 58.5789 14.3178 58.7032 13.8338Z" fill="#696969"/>
<path d="M71.2541 13.8184C78.0188 13.8203 84.7826 13.8193 91.5464 13.8184C91.0438 15.8215 90.5479 17.8267 90.0462 19.8298C89.7992 19.8308 89.5532 19.8308 89.3072 19.8347C89.1722 19.2045 88.6464 18.7478 88.0627 18.5413C87.5196 18.327 86.9272 18.3832 86.3571 18.3832C84.3591 18.3852 82.3621 18.3822 80.3641 18.3842C79.9734 19.8202 79.5904 21.2581 79.2006 22.694C81.8064 22.6911 84.4122 22.6969 87.0179 22.6901C86.5741 24.5207 86.113 26.3465 85.6769 28.179C84.9485 27.3151 83.7851 26.9893 82.6949 26.9758C81.1166 26.967 79.5383 26.9864 77.959 26.9796C77.631 28.1858 77.304 29.392 76.9779 30.5991C76.7907 31.3874 76.4974 32.1544 76.3942 32.9601C76.3305 33.8366 77.1129 34.4562 77.8703 34.6889C77.7458 35.2173 77.6194 35.7448 77.4911 36.2732C74.1155 36.2567 70.7399 36.2703 67.3643 36.2499C69.0699 30.0436 70.763 23.8333 72.4658 17.626C72.6115 17.0927 72.6095 16.4683 72.2516 16.0184C71.9246 15.584 71.393 15.3949 70.8856 15.2747C71.0119 14.7899 71.1306 14.3032 71.2541 13.8184Z" fill="#696969"/>
</svg>
