<svg width="51" height="50" viewBox="0 0 51 50" fill="none" xmlns="http://www.w3.org/2000/svg">
<g clip-path="url(#clip0_194_313)">
<path d="M24.9399 0.15764C27.4155 0.138598 29.8946 0.232348 32.3543 0.515551C34.773 0.798265 37.172 1.27825 39.4893 2.02385C41.5133 2.67961 43.4967 3.50627 45.2803 4.66741C46.5292 5.48528 47.6782 6.46428 48.6254 7.61467C49.5954 8.79826 50.3042 10.206 50.5812 11.7089C50.6272 12.0844 50.6628 12.5058 50.4521 12.8412C50.2587 13.1249 49.8813 13.1694 49.5632 13.1669C38.367 13.1674 27.1712 13.1684 15.9754 13.164C11.3917 13.1625 6.80807 13.1664 2.2244 13.1869C1.86333 13.1845 1.48544 13.2162 1.14662 13.0678C0.813738 12.9345 0.538728 12.6586 0.431889 12.3173C0.334449 12.016 0.361158 11.6884 0.456126 11.3901C0.841437 10.186 1.43696 9.04827 2.21253 8.04387C3.2453 6.69133 4.57979 5.59075 6.0142 4.67424C8.41411 3.13762 11.1375 2.1635 13.9029 1.49016C17.5082 0.59807 21.2273 0.202562 24.9399 0.15764Z" fill="#696969"/>
<path d="M1.20992 39.7269C1.50966 39.6537 1.82078 39.6889 2.12596 39.6806C7.56731 39.7025 13.0086 39.7011 18.45 39.7006C28.7535 39.7006 39.0574 39.7001 49.3609 39.7006C49.677 39.7069 50.0361 39.7431 50.2656 39.9838C50.4709 40.2064 50.4857 40.5297 50.4664 40.8153C50.3685 41.8588 49.9945 42.8734 49.405 43.7435C48.5567 44.9974 47.3285 45.9662 45.9812 46.6566C45.0177 47.1527 43.9913 47.5189 42.9541 47.8324C40.474 48.5761 37.8941 48.9183 35.3196 49.1488C32.7357 49.3764 30.1424 49.4755 27.5491 49.5043C24.8123 49.5302 22.0746 49.4926 19.3393 49.3969C16.0041 49.2665 12.659 48.9833 9.40038 48.2431C7.63754 47.8422 5.89993 47.2626 4.33643 46.3515C2.95396 45.5551 1.74313 44.431 0.976956 43.0336C0.697495 42.5297 0.471452 41.9974 0.299818 41.4491C0.191001 41.1029 0.183582 40.7108 0.351259 40.3817C0.517947 40.0492 0.848354 39.8139 1.20992 39.7269Z" fill="#696969"/>
<path d="M29.8198 14.0377C30.4757 13.9068 31.1509 13.9317 31.8137 13.9913C32.6046 14.0626 33.3964 14.3048 34.0315 14.7887C34.3377 15.0128 34.6162 15.3273 34.6577 15.7159C34.7018 16.1056 34.4836 16.4698 34.2111 16.733C34.037 16.9108 33.7926 17.0343 33.5374 17.0143C33.1971 16.9982 32.9107 16.7994 32.6036 16.6793C31.9274 16.4088 31.183 16.297 30.4574 16.3751C29.9356 16.4327 29.4296 16.7115 29.1625 17.1666C28.9112 17.6051 28.7594 18.1017 28.7237 18.6041C28.6698 19.3697 28.9963 20.15 29.5755 20.6598C30.0023 21.0328 30.5994 21.1637 31.1573 21.1026C31.4259 21.0709 31.7335 21.0397 31.9254 20.8268C32.0951 20.6319 32.0837 20.36 32.0788 20.1192C31.74 20.0504 31.3754 20.128 31.0539 19.9791C30.7834 19.8776 30.5672 19.6476 30.4985 19.3688C30.4208 19.0358 30.4233 18.6744 30.5469 18.3522C30.6414 18.0983 30.8783 17.9068 31.1494 17.8639C31.97 17.7301 32.8074 17.7369 33.6349 17.8014C33.851 17.8263 34.082 17.8131 34.2818 17.9122C34.5281 18.0338 34.6607 18.3019 34.6919 18.5621C34.814 19.6481 34.8032 20.7462 34.7042 21.8336C34.6711 22.2594 34.3728 22.6109 34.0291 22.8448C33.2154 23.4147 32.1876 23.5953 31.2072 23.5719C30.0894 23.5333 28.9592 23.2443 28.0229 22.6266C27.3833 22.2081 26.9006 21.587 26.5865 20.9015C26.1616 19.9718 26.0285 18.9195 26.1799 17.9127C26.313 17.0309 26.6735 16.172 27.2705 15.4967C27.9225 14.7462 28.8385 14.2301 29.8198 14.0377Z" fill="#696969"/>
<path d="M3.00938 14.5456C3.24927 14.2912 3.61925 14.2224 3.95658 14.2155C5.01211 14.198 6.06813 14.2068 7.12365 14.218C7.74737 14.2649 8.41264 14.3835 8.90083 14.7995C9.32621 15.1618 9.50378 15.7234 9.55027 16.2595C9.59726 16.7644 9.4746 17.2859 9.18821 17.7087C9.00767 17.9841 8.76827 18.217 8.50959 18.4211C9.06752 18.842 9.60468 19.3611 9.80748 20.0446C9.95042 20.5212 9.91481 21.0305 9.80847 21.5105C9.71844 21.9416 9.54384 22.3659 9.23866 22.6931C8.76976 23.2082 8.04959 23.405 7.37097 23.4431C6.21899 23.4939 5.06553 23.4812 3.91306 23.4524C3.57424 23.4406 3.2008 23.3576 2.97624 23.0857C2.76454 22.8303 2.71657 22.4865 2.71162 22.1672C2.70469 19.9377 2.70469 17.7087 2.71261 15.4792C2.71755 15.1516 2.77444 14.7946 3.00938 14.5456ZM5.43056 16.0896C5.43699 16.677 5.43155 17.2649 5.43303 17.8527C5.8223 17.8068 6.2452 17.9499 6.60727 17.7551C6.96043 17.5271 7.10387 17.0388 6.96933 16.6511L6.98961 16.611L6.9629 16.5652L6.91641 16.5617L6.90948 16.4958C6.90602 16.4914 6.8986 16.4826 6.89514 16.4782C6.816 16.3664 6.73092 16.2551 6.61073 16.1843C6.60875 16.1828 6.60529 16.1809 6.60331 16.1799C6.24273 15.9846 5.81983 16.1003 5.43056 16.0896ZM5.43748 19.5725C5.43699 20.2385 5.43748 20.9045 5.43748 21.5705C5.78224 21.5427 6.12996 21.615 6.47273 21.5544C6.68344 21.5183 6.87387 21.3967 6.99753 21.2248C6.99901 21.2229 7.00148 21.2194 7.00297 21.2175C7.02522 21.1814 7.06974 21.1081 7.092 21.072C7.09348 21.0695 7.09546 21.0652 7.09694 21.0627C7.23148 20.7951 7.25374 20.4748 7.14888 20.1936C7.14839 20.1911 7.14641 20.1862 7.14542 20.1838C7.11871 20.1189 7.08804 20.0564 7.05292 19.9958C7.05193 19.9939 7.04946 19.99 7.04798 19.988C6.9634 19.8508 6.84667 19.7317 6.70174 19.6565C6.69927 19.655 6.69383 19.6526 6.69086 19.6516L6.61963 19.6281L6.60826 19.5852L6.55682 19.5676L6.51972 19.594C6.16409 19.5153 5.79806 19.5984 5.43748 19.5725Z" fill="#696969"/>
<path d="M11.4484 14.2384C11.8308 14.1544 12.2482 14.1813 12.5935 14.3741C12.7804 14.4737 12.958 14.6129 13.0451 14.8097C13.1583 15.0485 13.1554 15.318 13.1598 15.5763C13.1603 17.1539 13.1598 18.732 13.1608 20.3097C13.1578 20.608 13.2335 20.9274 13.4576 21.1407C13.6737 21.3527 14.0051 21.4059 14.294 21.3385C14.5086 21.2887 14.7386 21.2076 14.8682 21.0196C14.981 20.8556 14.9949 20.6505 14.9973 20.4586C14.9973 18.879 14.9949 17.2999 14.9973 15.7203C15.0013 15.2828 15.0864 14.8033 15.4143 14.4835C15.7002 14.2032 16.133 14.1417 16.5168 14.1984C16.866 14.2521 17.2513 14.3439 17.4769 14.6368C17.7019 14.9205 17.6713 15.3004 17.691 15.6393C17.7084 17.1979 17.6812 18.7565 17.7004 20.3151C17.7004 20.6373 17.7197 20.9615 17.6723 21.2814C17.6084 21.7413 17.4121 22.1905 17.0772 22.5216C16.6118 22.9894 15.9618 23.2071 15.3357 23.3737C14.0798 23.6984 12.7102 23.5089 11.5755 22.8961C11.1052 22.6368 10.7273 22.2067 10.5734 21.6935C10.4473 21.3107 10.4592 20.9039 10.4612 20.507C10.4612 18.9122 10.4616 17.317 10.4616 15.7223C10.4621 15.357 10.4503 14.9557 10.6729 14.6427C10.8504 14.3937 11.164 14.3058 11.4484 14.2384Z" fill="#696969"/>
<path d="M18.6364 14.5907C18.8851 14.2846 19.312 14.2216 19.6859 14.2113C20.4605 14.2055 21.2351 14.205 22.0102 14.206C22.4722 14.2162 22.9445 14.1772 23.3946 14.3056C24.007 14.4613 24.5466 14.8573 24.8884 15.3813C25.2208 15.8857 25.4107 16.4862 25.3978 17.0898C25.3855 17.891 25.0506 18.7016 24.4333 19.2328C24.3047 19.3427 24.1667 19.4408 24.0317 19.5424C24.369 19.9887 24.7059 20.4355 25.0427 20.8822C25.2539 21.1703 25.5012 21.4452 25.6184 21.788C25.6991 22.0102 25.6892 22.265 25.5789 22.476C25.3528 22.9037 24.9606 23.2587 24.4823 23.3847C24.237 23.4472 23.9565 23.4862 23.7285 23.352C23.4268 23.1806 23.2512 22.8725 23.0449 22.6078C22.3876 21.7348 21.7525 20.8451 21.0768 19.9857C21.0739 20.6801 21.0803 21.3744 21.0734 22.0688C21.0669 22.5556 20.8528 23.0678 20.4185 23.3285C19.9056 23.6444 19.223 23.5238 18.7536 23.1855C18.4979 22.9955 18.3836 22.6723 18.394 22.3647C18.3584 20.1503 18.3841 17.9359 18.3762 15.7221C18.3772 15.3358 18.3851 14.9096 18.6364 14.5907ZM21.0917 16.0707C21.0922 16.7777 21.0927 17.4848 21.0917 18.1923C21.4651 18.163 21.8435 18.2211 22.2135 18.1523C22.533 18.0912 22.806 17.8554 22.9213 17.557C23.0335 17.244 23.0177 16.8876 22.8768 16.5858C22.8753 16.5839 22.8733 16.5795 22.8718 16.5771C22.7956 16.4325 22.671 16.3207 22.535 16.2318C22.533 16.2309 22.5295 16.2284 22.5276 16.227C22.4736 16.1879 22.4153 16.1669 22.3525 16.1625L22.346 16.1195L22.2985 16.0976L22.259 16.1205C21.8776 16.0209 21.4799 16.1064 21.0917 16.0707Z" fill="#696969"/>
<path d="M35.7143 14.5475C35.9235 14.3175 36.247 14.2355 36.5497 14.2238C37.7373 14.1901 38.9258 14.1954 40.1139 14.2174C40.3711 14.2189 40.6476 14.2882 40.8227 14.4865C41.0156 14.7032 41.0616 15.0045 41.0666 15.2833C41.0676 15.5651 41.0275 15.8707 40.8351 16.0924C40.6585 16.2965 40.3771 16.3707 40.1149 16.3781C39.4571 16.3903 38.7992 16.3829 38.1414 16.3839C38.1414 16.8287 38.1409 17.2731 38.1414 17.7184C38.5019 17.7203 38.8625 17.7101 39.2236 17.7179C39.5184 17.7247 39.8236 17.6954 40.108 17.7907C40.4062 17.8834 40.6625 18.11 40.7708 18.402C40.9132 18.776 40.8287 19.2086 40.615 19.5392C40.4443 19.7994 40.1199 19.9015 39.8201 19.9108C39.2617 19.923 38.7038 19.9181 38.1453 19.9176C38.1453 20.3727 38.1453 20.8278 38.1453 21.2824C38.7359 21.2833 39.3265 21.2814 39.9171 21.2833C40.245 21.2872 40.6036 21.3546 40.841 21.5968C41.0611 21.8239 41.1096 22.1583 41.0814 22.4601C41.0587 22.7213 40.9973 22.9996 40.8074 23.1954C40.6427 23.3702 40.3964 23.444 40.1604 23.4484C38.9407 23.4723 37.7195 23.485 36.4997 23.4371C36.2069 23.4215 35.8953 23.3366 35.6969 23.11C35.4838 22.8658 35.4373 22.5294 35.4348 22.2184C35.4343 19.9723 35.4348 17.7257 35.4348 15.4796C35.4338 15.153 35.4838 14.7985 35.7143 14.5475Z" fill="#696969"/>
<path d="M42.0225 14.572C42.2169 14.3361 42.5335 14.2424 42.8317 14.2321C44.0604 14.1916 45.2915 14.175 46.5197 14.2463C47.4258 14.3356 48.1623 15.029 48.5159 15.8259C48.9853 16.8381 48.8147 18.1066 48.0916 18.9601C47.9001 19.1906 47.6528 19.3639 47.4174 19.5466C47.8245 20.0866 48.232 20.6262 48.6391 21.1667C48.8869 21.4924 49.1481 21.8967 49.0224 22.322C48.785 22.9816 48.098 23.4733 47.3818 23.4396C47.0687 23.4069 46.8417 23.1603 46.6641 22.9264C45.9479 21.9806 45.2633 21.0114 44.5258 20.0817C44.4887 20.1545 44.4447 20.2292 44.4526 20.3146C44.4591 20.8674 44.4531 21.4211 44.4531 21.9743C44.4541 22.3058 44.3873 22.6467 44.2023 22.9284C44.0282 23.1999 43.7478 23.4054 43.4297 23.4782C42.9737 23.5861 42.4815 23.445 42.1136 23.1696C41.7782 22.8908 41.7431 22.4245 41.7535 22.0222C41.7545 19.8576 41.7525 17.6931 41.7545 15.5285C41.7549 15.196 41.8014 14.8376 42.0225 14.572ZM44.4838 18.1618C44.8874 18.1857 45.3034 18.2165 45.6971 18.1047L45.7357 18.1291L45.7856 18.1091L45.7945 18.0661L45.8638 18.0471C45.8667 18.0456 45.8732 18.0427 45.8766 18.0417C45.9929 17.9846 46.0992 17.9064 46.1803 17.8049C46.1813 17.8034 46.1833 17.801 46.1843 17.7995C46.2061 17.7634 46.2496 17.6906 46.2714 17.6545C46.2723 17.6525 46.2748 17.6476 46.2758 17.6457C46.3802 17.3928 46.3851 17.1091 46.346 16.842C46.3114 16.6144 46.1863 16.3972 45.985 16.2751C45.9835 16.2741 45.9805 16.2722 45.9785 16.2712C45.525 16.0246 44.9829 16.0715 44.4848 16.0974C44.4828 16.7853 44.4848 17.4738 44.4838 18.1618Z" fill="#696969"/>
<path d="M41.1798 24.4536C42.3724 24.3111 43.5886 24.3404 44.7688 24.5674C45.351 24.6831 45.9351 24.8194 46.4757 25.0679C46.9971 25.3032 47.4773 25.6245 47.8958 26.0113C48.1683 26.2574 48.3949 26.5816 48.4285 26.9541C48.4696 27.396 48.2692 27.8189 48.0224 28.1748C47.7444 28.5791 47.2998 28.9033 46.7903 28.9185C46.2878 28.9282 45.8218 28.7046 45.3727 28.5088C44.2524 27.9702 42.9639 27.8325 41.7382 28.0074C41.0957 28.1045 40.4621 28.3838 40.0333 28.878C39.5189 29.4654 39.2894 30.2417 39.1944 30.999C39.0722 32.0816 39.3685 33.2534 40.154 34.0449C40.9266 34.8286 42.1082 35.1187 43.1845 34.9556C43.5426 34.8989 43.9378 34.8198 44.1837 34.5318C44.4315 34.2476 44.4315 33.8428 44.3736 33.4922C43.7904 33.4585 43.1741 33.5108 42.63 33.2622C42.2487 33.0918 41.9771 32.7305 41.8926 32.3291C41.8025 31.9107 41.8055 31.4644 41.9386 31.0552C42.0454 30.7256 42.2922 30.4448 42.6083 30.2945C42.9387 30.1319 43.3121 30.0777 43.6786 30.0738C44.7149 30.0669 45.7516 30.0684 46.7883 30.0713C47.2206 30.063 47.6871 30.127 48.0308 30.4082C48.3716 30.6812 48.5096 31.126 48.5255 31.5449C48.569 32.9771 48.5596 34.4097 48.5309 35.8418C48.5215 36.2549 48.3385 36.6475 48.0719 36.9605C47.605 37.5049 46.9699 37.896 46.2883 38.1245C45.7338 38.3115 45.1492 38.3858 44.5714 38.4658C43.2389 38.6455 41.8673 38.667 40.5521 38.3584C39.1514 38.0376 37.8288 37.3267 36.8642 36.2652C35.8458 35.1616 35.2567 33.7085 35.1281 32.2281C35.0267 31.0772 35.1509 29.896 35.5748 28.8145C36.1322 27.3628 37.2045 26.1109 38.5652 25.3316C39.3655 24.8706 40.2603 24.5708 41.1798 24.4536Z" fill="#696969"/>
<path d="M3.30206 25.3304C3.63692 24.951 4.16469 24.8251 4.65288 24.7928C5.27462 24.7508 5.94978 24.7928 6.47902 25.1517C6.87917 25.4203 7.06861 25.9051 7.07702 26.37C7.0973 27.6 7.08246 28.8304 7.08494 30.0609C7.13786 30.0985 7.19079 30.1361 7.24371 30.1747C7.33324 30.0296 7.41683 29.8793 7.53653 29.7557C8.88141 28.3641 10.2208 26.9681 11.5761 25.5863C11.9461 25.1996 12.4091 24.8583 12.9606 24.7987C13.9063 24.6576 14.8886 25.3026 15.123 26.2162C15.215 26.5829 15.1191 26.9706 14.9331 27.2933C14.7249 27.6595 14.4276 27.9642 14.1388 28.2679C13.0926 29.3622 12.0524 30.4618 11.0048 31.5541C11.077 31.7479 11.2492 31.8729 11.3847 32.0213C12.3804 33.0741 13.38 34.1229 14.3722 35.1781C14.7372 35.5707 15.0983 36.0218 15.1616 36.5692C15.2205 37.036 14.9697 37.4794 14.6393 37.7948C14.1991 38.2455 13.5511 38.5399 12.9096 38.4266C12.3314 38.3397 11.8754 37.9427 11.4871 37.5394C10.164 36.1752 8.84876 34.8041 7.52812 33.4383C7.40545 33.3163 7.31296 33.1708 7.2175 33.0282C7.16012 33.1092 7.08494 33.1908 7.08593 33.2962C7.08889 34.4535 7.08642 35.6107 7.08049 36.7679C7.07603 37.2274 6.93408 37.7186 6.5636 38.0213C6.1313 38.3778 5.54122 38.4496 4.99763 38.4593C4.44118 38.4505 3.8318 38.3807 3.39753 38.0023C3.01667 37.6732 2.89548 37.1493 2.90241 36.6688C2.89796 33.3495 2.90241 30.0301 2.90142 26.7108C2.90092 26.2298 2.96918 25.7059 3.30206 25.3304Z" fill="#696969"/>
<path d="M17.483 24.8363C18.0355 24.7538 18.6122 24.7499 19.1543 24.8983C19.5223 25.0004 19.8626 25.2328 20.0432 25.5716C20.2509 25.9476 20.291 26.3861 20.292 26.807C20.292 29.9164 20.292 33.0257 20.292 36.1346C20.2949 36.683 20.3004 37.2752 19.9917 37.7552C19.7474 38.1439 19.2923 38.3382 18.8501 38.4066C18.2932 38.4911 17.7115 38.4803 17.1699 38.3177C16.794 38.2044 16.4487 37.9554 16.2811 37.598C16.0946 37.2196 16.0827 36.7894 16.0872 36.3768C16.0822 33.1546 16.0872 29.932 16.0867 26.7093C16.0877 26.246 16.1559 25.7484 16.4581 25.3758C16.7069 25.0648 17.0967 24.9027 17.483 24.8363Z" fill="#696969"/>
<path d="M21.8721 25.207C22.2154 24.9248 22.6714 24.8491 23.1017 24.7988C23.672 24.7334 24.2735 24.8105 24.7731 25.1035C25.1223 25.3013 25.4062 25.5903 25.6545 25.8999C26.946 27.4658 28.3185 28.9639 29.659 30.4883C29.747 30.5957 29.8261 30.7222 29.9681 30.7656C29.9864 30.7168 30.0012 30.668 30.0136 30.6182C30.0032 29.2505 30.0121 27.8818 30.0141 26.5142C30.0121 26.0498 30.1338 25.5444 30.5072 25.2324C30.9465 24.8691 31.5469 24.7773 32.1034 24.7739C32.6564 24.7852 33.2628 24.853 33.6946 25.231C34.073 25.561 34.1912 26.0835 34.1912 26.563C34.1932 29.9331 34.1922 33.3027 34.1932 36.6728C34.1966 37.0752 34.1195 37.4985 33.8667 37.8247C33.6461 38.1152 33.3014 38.2905 32.9472 38.3667C32.3096 38.5068 31.6137 38.5107 31.0137 38.229C30.6047 38.0435 30.2659 37.7378 29.9839 37.3965C28.7578 35.9556 27.497 34.5444 26.2431 33.127C26.0166 32.8682 25.7866 32.6118 25.5501 32.3618C25.5477 33.7671 25.5521 35.1728 25.5462 36.5781C25.5467 37.0439 25.4774 37.5518 25.1416 37.9062C24.7493 38.3223 24.1434 38.4297 23.5939 38.4653C23.0543 38.4741 22.484 38.4102 22.0141 38.1294C21.5912 37.8765 21.3607 37.3896 21.3557 36.9106C21.3389 33.397 21.3434 29.8828 21.3557 26.3691C21.3538 25.9341 21.5209 25.4834 21.8721 25.207Z" fill="#696969"/>
<path opacity="0.8" d="M22.2588 16.1206L22.2984 16.0977L22.3459 16.1196L22.3524 16.1627C22.3291 16.1524 22.2821 16.1314 22.2588 16.1206Z" fill="#696969"/>
<path opacity="0.78" d="M6.60303 16.1797C6.60543 16.1809 6.60964 16.1833 6.61204 16.1851C6.60964 16.1833 6.60543 16.1809 6.60303 16.1797Z" fill="#696969"/>
<path opacity="0.78" d="M22.5278 16.2271C22.5302 16.2289 22.5344 16.2319 22.5368 16.2331C22.5344 16.2319 22.5302 16.2289 22.5278 16.2271Z" fill="#696969"/>
<path opacity="0.85" d="M45.978 16.271C45.9804 16.2722 45.9839 16.2745 45.9856 16.2757C45.9839 16.2745 45.9804 16.2722 45.978 16.271Z" fill="#696969"/>
<path opacity="0.77" d="M6.89502 16.478C6.89858 16.4825 6.90622 16.4915 6.90979 16.496C6.90622 16.4915 6.89858 16.4825 6.89502 16.478Z" fill="#696969"/>
<path opacity="0.8" d="M6.9165 16.5615L6.96304 16.5649L6.98977 16.6109L6.96948 16.651C6.9566 16.6285 6.92987 16.584 6.9165 16.5615Z" fill="#696969"/>
<path opacity="0.76" d="M22.8716 16.5771C22.8733 16.58 22.8756 16.5851 22.8773 16.5874C22.8756 16.5851 22.8733 16.58 22.8716 16.5771Z" fill="#696969"/>
<path opacity="0.75" d="M46.271 17.6557C46.2721 17.6535 46.275 17.6478 46.2761 17.6455C46.275 17.6478 46.2721 17.6535 46.271 17.6557Z" fill="#696969"/>
<path opacity="0.81" d="M46.1797 17.806C46.1809 17.8042 46.1833 17.8011 46.1845 17.7993C46.1833 17.8011 46.1809 17.8042 46.1797 17.806Z" fill="#696969"/>
<path opacity="0.75" d="M45.8633 18.0474C45.8665 18.0458 45.8735 18.0426 45.8773 18.0415C45.8735 18.0426 45.8665 18.0458 45.8633 18.0474Z" fill="#696969"/>
<path opacity="0.78" d="M45.6968 18.1045C45.721 18.0948 45.7701 18.0752 45.7943 18.0659L45.7854 18.1089L45.7354 18.129L45.6968 18.1045Z" fill="#696969"/>
<path opacity="0.78" d="M6.51953 19.5938L6.55666 19.5674L6.60815 19.585L6.61954 19.628C6.59478 19.6197 6.54478 19.6021 6.51953 19.5938Z" fill="#696969"/>
<path opacity="0.76" d="M6.69092 19.6514C6.69414 19.6525 6.70004 19.6552 6.70272 19.6568C6.70004 19.6552 6.69414 19.6525 6.69092 19.6514Z" fill="#696969"/>
<path opacity="0.76" d="M7.04785 19.9878C7.04967 19.9901 7.05271 19.9949 7.05392 19.9972C7.05271 19.9949 7.04967 19.9901 7.04785 19.9878Z" fill="#696969"/>
<path opacity="0.75" d="M7.14551 20.1836C7.14668 20.1865 7.14902 20.1923 7.1496 20.1953C7.14902 20.1923 7.14668 20.1865 7.14551 20.1836Z" fill="#696969"/>
<path opacity="0.76" d="M7.0918 21.0735C7.09354 21.0706 7.09588 21.0654 7.09762 21.0625C7.09588 21.0654 7.09354 21.0706 7.0918 21.0735Z" fill="#696969"/>
<path opacity="0.76" d="M6.99756 21.2264C6.99941 21.2239 7.00249 21.2197 7.00433 21.2173C7.00249 21.2197 6.99941 21.2239 6.99756 21.2264Z" fill="#696969"/>
</g>
<defs>
<clipPath id="clip0_194_313">
<rect width="50.6493" height="50" fill="white"/>
</clipPath>
</defs>
</svg>
