<svg width="148" height="55" viewBox="0 0 148 55" fill="none" xmlns="http://www.w3.org/2000/svg">
<path d="M73.0171 0.955758C74.1365 0.849848 75.2581 0.950463 76.3755 1.01825C76.8976 1.06167 77.3848 1.28196 77.9091 1.31797C78.7616 1.48955 79.6524 1.57428 80.4424 1.96403C81.0091 2.14513 81.581 2.32095 82.101 2.61856C82.7312 2.8272 83.2628 3.22648 83.8623 3.50079C84.2637 3.72638 84.5814 4.08012 85.0157 4.25593C85.3556 4.50694 85.6787 4.78761 85.9953 5.07039C86.2093 5.32245 86.5418 5.4326 86.7452 5.69632C87.1074 6.07866 87.4103 6.51395 87.8043 6.86769C88.4493 7.4968 88.7713 8.35785 89.3146 9.06216C91.0611 12.4418 91.0674 16.6464 89.3442 20.0366C88.7702 20.7536 88.4588 21.6645 87.7725 22.2946C87.2906 22.802 86.8966 23.4067 86.3057 23.8007C85.8863 24.1152 85.5399 24.523 85.1004 24.809C84.6884 24.9699 84.4035 25.3216 84.0169 25.526C83.0796 26.0778 82.1158 26.602 81.08 26.9452C80.1692 27.4197 79.1239 27.4864 78.1738 27.8486C75.5187 28.2977 72.784 28.303 70.131 27.8391C69.3038 27.5012 68.3898 27.4557 67.5743 27.086C66.9992 26.798 66.3489 26.6804 65.8067 26.3235C65.1511 26.0121 64.5039 25.6711 63.9108 25.2495C63.5836 24.9212 63.1038 24.8153 62.803 24.4552C62.4196 24.1671 62.1061 23.7996 61.7005 23.5423C61.1964 23.1271 60.8829 22.5255 60.3724 22.1178C59.9148 21.5956 59.6141 20.9633 59.254 20.3755C58.7615 19.7623 58.5359 18.9945 58.2764 18.2647C57.7606 16.746 57.6801 15.1277 57.768 13.5369C57.7712 12.7955 57.9724 12.0785 58.1281 11.3594C58.3717 10.6159 58.5846 9.84908 58.9796 9.16807C59.4859 8.49342 59.7761 7.67049 60.3756 7.06574C60.8945 6.52878 61.3298 5.91026 61.9049 5.42837C62.2851 5.1763 62.5806 4.8215 62.9524 4.55672C63.2775 4.23264 63.7297 4.08966 64.0665 3.7804C64.3938 3.47114 64.8524 3.38111 65.2072 3.11422C65.5948 2.8325 66.0746 2.73188 66.4866 2.49464C67.0606 2.15255 67.7469 2.0943 68.3326 1.77763C69.2466 1.47578 70.2157 1.3847 71.1562 1.1877C71.7557 0.991768 72.3932 0.996004 73.0171 0.955758ZM72.2916 3.44148C71.4189 3.5368 70.5165 3.56116 69.6936 3.89584C68.9967 4.06106 68.2786 4.1765 67.6326 4.50271C66.4527 4.88928 65.3809 5.52051 64.3154 6.13903C63.6376 6.73424 62.8157 7.16636 62.2438 7.8802C61.6772 8.34409 61.2398 8.94036 60.8702 9.56841C60.6361 9.99841 60.2696 10.3469 60.1002 10.8139C59.4277 12.4598 59.0898 14.3016 59.4499 16.0629C59.5802 17.0108 59.8799 17.9343 60.3268 18.7795C60.8479 19.4636 61.2292 20.2537 61.8276 20.8776C62.3349 21.2472 62.6855 21.7905 63.1854 22.1686C63.6143 22.3953 63.9384 22.7649 64.3504 23.018C64.7613 23.3855 65.3099 23.5221 65.7653 23.8208C66.2769 24.1777 66.9166 24.2678 67.4451 24.5961C68.1695 24.8884 68.9522 25.0112 69.6809 25.2961C72.5796 25.9062 75.5981 25.8988 78.5043 25.3353C79.1059 25.1468 79.7043 24.9477 80.3185 24.7973C80.8576 24.6914 81.2982 24.3398 81.8203 24.1841C82.2874 24.0633 82.6464 23.7244 83.087 23.5433C83.7585 23.2786 84.3008 22.7839 84.8674 22.3518C85.5187 22.0034 85.9254 21.3542 86.4984 20.903C86.9591 20.4274 87.2811 19.8386 87.6444 19.29C88.2809 18.5052 88.5923 17.5043 88.802 16.5289C89.3125 14.4202 88.9439 12.1452 87.9483 10.2335C87.422 9.579 87.0428 8.81327 86.4751 8.1884C85.8778 7.77111 85.4668 7.13353 84.8346 6.75754C84.4554 6.55314 84.1769 6.21105 83.8019 6.00346C83.2893 5.74927 82.8318 5.39765 82.2991 5.18159C81.6678 4.80879 80.9519 4.63298 80.291 4.32584C79.6333 4.04835 78.9025 4.02823 78.2437 3.75604C78.0171 3.67237 77.7767 3.63954 77.5394 3.60988C75.8046 3.34828 74.0391 3.33134 72.2916 3.44148Z" fill="#696969"/>
<path d="M70.097 6.86631C72.767 6.46279 75.5058 6.4755 78.1748 6.87796C79.3737 7.2836 80.6955 7.26242 81.8414 7.83116C82.2629 7.94766 82.6908 8.04616 83.0975 8.21138C83.0996 10.1697 83.1844 12.1248 83.1717 14.082C82.5786 13.8861 81.9622 13.7399 81.4093 13.4423C80.8808 13.1892 80.275 13.1818 79.7412 12.9413C79.2593 12.7136 78.7234 12.6533 78.2023 12.5791C78.196 15.9238 78.2161 19.2685 78.1928 22.6131C75.5948 22.6173 72.9968 22.6301 70.3988 22.6068C70.4041 19.1911 70.4073 15.7755 70.3967 12.3599C69.6998 12.4669 68.9902 12.5643 68.324 12.8005C67.8284 13.0907 67.2416 13.1489 66.7417 13.4264C66.245 13.7685 65.6244 13.884 65.1753 14.3044C65.1615 12.3663 65.1584 10.4281 65.1774 8.49098C65.7155 8.00697 66.4812 8.00273 67.0817 7.63099C68.0561 7.27089 69.1131 7.20205 70.097 6.86631Z" fill="#696969"/>
<path d="M120.265 41.0316C121.898 40.8389 123.557 40.9077 125.172 41.2223C125.47 41.2668 125.73 41.4288 126.012 41.5273C126.444 41.6957 126.933 41.7285 127.314 42.0124C127.69 42.3036 128.204 42.3513 128.543 42.6987C129.202 43.1996 129.906 43.6752 130.361 44.3848C130.568 44.7682 130.93 45.0457 131.083 45.4587C131.73 46.862 131.675 48.5513 130.98 49.9271C130.441 50.6452 129.961 51.4427 129.2 51.9563C128.797 52.2148 128.482 52.6066 128.024 52.7729C127.794 52.8534 127.588 52.9816 127.391 53.1203C126.951 53.4158 126.396 53.4317 125.935 53.6837C125.469 53.9252 124.932 53.94 124.428 54.0438C123.266 54.2059 122.082 54.3213 120.912 54.172C120.255 54.1222 119.604 54.0216 118.957 53.9051C118.507 53.832 118.128 53.5524 117.685 53.4592C117.103 53.3226 116.625 52.9551 116.084 52.7221C115.734 52.5621 115.492 52.2433 115.156 52.0633C114.588 51.7657 114.254 51.1927 113.831 50.7373C113.281 50.1876 112.992 49.4314 112.839 48.6826C112.554 47.4032 112.781 46.019 113.45 44.8942C114.02 44.2651 114.457 43.4856 115.212 43.0503C115.591 42.8459 115.865 42.4869 116.272 42.328C116.52 42.2263 116.769 42.1204 116.993 41.9679C117.456 41.6639 118.031 41.647 118.522 41.4076C119.064 41.1407 119.681 41.1365 120.265 41.0316ZM121.216 44.7417C120.61 44.8116 119.997 44.945 119.494 45.3073C118.787 45.5826 118.268 46.2181 118.041 46.9298C117.801 47.6532 118.002 48.4772 118.476 49.0618C118.975 49.746 119.787 50.0912 120.578 50.3147C121.353 50.6219 122.213 50.6049 123.028 50.5001C123.733 50.2787 124.489 50.1262 125.087 49.6623C125.756 49.2959 126.171 48.5735 126.298 47.8364C126.393 46.9902 125.956 46.1461 125.306 45.6271C124.818 45.4238 124.429 45.0255 123.907 44.9069C123.029 44.6898 122.113 44.6358 121.216 44.7417Z" fill="#696969"/>
<path d="M22.1946 41.1457C23.6244 41.0016 25.0817 41.0292 26.4914 41.3151C27.2264 41.6329 28.0684 41.6445 28.7547 42.084C29.243 42.2736 29.7249 42.4854 30.1231 42.8339C30.6283 43.0341 30.9916 43.4386 31.3728 43.8093C31.6302 44.1535 32.0358 44.3579 32.236 44.7509C33.6097 46.6827 33.4296 49.5317 31.8251 51.275C31.2648 51.742 30.8062 52.3436 30.139 52.6719C29.7175 52.8731 29.3891 53.2428 28.9252 53.355C28.5609 53.4461 28.2389 53.641 27.9032 53.7999C27.1788 54.0117 26.4311 54.1345 25.6886 54.2733C25.1252 54.448 24.53 54.4565 23.9453 54.4565C23.3162 54.4565 22.6755 54.4766 22.0633 54.3114C21.108 54.0699 20.0701 54.0594 19.2048 53.5414C18.7239 53.3921 18.2431 53.228 17.8555 52.8933C17.1903 52.62 16.6576 52.118 16.1651 51.6065C15.5 51.1108 15.0954 50.3461 14.7872 49.592C14.2799 48.7511 14.2873 47.6973 14.4526 46.7568C14.4939 46.3565 14.7639 46.0377 14.891 45.6649C15.1791 45.075 15.4746 44.4511 15.9925 44.0254C16.2816 43.749 16.5771 43.481 16.8652 43.2035C17.131 42.9599 17.4837 42.8487 17.7665 42.6284C18.1647 42.3266 18.6593 42.2027 19.0914 41.9612C19.6898 41.636 20.391 41.617 21.0095 41.3469C21.3886 41.2071 21.7985 41.1986 22.1946 41.1457ZM22.5039 44.9415C21.9669 45.0294 21.4893 45.2995 21.0137 45.5473C20.3137 45.9784 19.6178 46.6392 19.621 47.5225C19.5458 48.1824 19.746 48.874 20.2247 49.3421C20.6113 49.591 20.8962 49.9881 21.3399 50.146C21.7964 50.3006 22.219 50.5632 22.7041 50.6257C23.4486 50.7274 24.209 50.7136 24.9536 50.6194C25.4164 50.5717 25.7956 50.2805 26.2341 50.1544C26.7626 49.9913 27.1089 49.5391 27.4912 49.1705C28.2019 48.4641 28.2114 47.2694 27.6522 46.4719C27.2635 46.1563 26.9956 45.6924 26.5147 45.5007C26.1123 45.3387 25.7384 45.1046 25.319 44.987C24.3986 44.7784 23.4306 44.7742 22.5039 44.9415Z" fill="#696969"/>
<path d="M2.97519 42.0935C4.12115 41.6476 5.36983 41.6137 6.57933 41.5025C7.49122 41.4029 8.40523 41.5099 9.31395 41.5755C10.2936 41.6889 11.2955 41.7588 12.2233 42.1157C12.7603 42.3106 13.3396 42.3625 13.867 42.5828C14.0799 42.6431 14.0301 42.9047 14.0482 43.0742C14.0577 44.3779 14.081 45.6817 14.0767 46.9865C13.3979 46.7726 12.7709 46.4178 12.0761 46.2547C11.5487 46.1488 11.035 45.9952 10.5298 45.8162C10.5192 48.3856 10.5319 50.955 10.5234 53.5244C8.63824 53.5371 6.75303 53.5424 4.86782 53.5223C4.85829 50.8967 4.87205 48.2712 4.8604 45.6457C4.43888 45.7008 4.00888 45.7569 3.61701 45.9359C3.11817 46.1647 2.55473 46.225 2.07919 46.5078C1.72015 46.7217 1.3304 46.8721 0.962891 47.0702V42.9005C1.54646 42.443 2.29101 42.3275 2.97519 42.0935Z" fill="#696969"/>
<path d="M69.2433 41.6279C71.5755 41.289 73.9669 41.4372 76.2631 41.9456C76.9578 42.2453 77.7172 42.3385 78.4183 42.616C78.4491 44.0501 78.4374 45.4851 78.4565 46.9192C78.0752 46.8217 77.696 46.7063 77.3486 46.5188C76.7259 46.2022 76.0025 46.199 75.3724 45.9067C75.1934 45.8347 75.0059 45.7944 74.8206 45.7478C74.7888 48.3267 74.8269 50.9067 74.8015 53.4867C72.947 53.5036 71.0925 53.4952 69.2391 53.4909C69.2232 50.8718 69.2348 48.2526 69.2338 45.6334C68.4236 45.6345 67.6981 46.0147 66.944 46.253C66.388 46.4331 65.9114 46.7826 65.3733 47.005C65.296 45.7319 65.3585 44.4536 65.3394 43.1795C65.2738 42.7717 65.6889 42.5694 66.0088 42.4625C66.4928 42.3184 66.9842 42.1924 67.4449 41.9827C68.0274 41.7973 68.6375 41.702 69.2433 41.6279Z" fill="#696969"/>
<path d="M135.277 41.9139C136.651 41.5496 138.085 41.6258 139.494 41.6195C140.864 41.6322 142.263 41.5241 143.598 41.9118C144.584 42.2719 145.635 42.6087 146.367 43.4072C146.96 43.8711 147.276 44.6199 147.331 45.3581V46.9118C147.119 47.3768 146.943 47.8873 146.55 48.2346C146.208 48.6 145.862 48.9686 145.449 49.2535C145.064 49.4516 144.642 49.5638 144.246 49.7343C144.566 50.0965 144.838 50.5064 145.216 50.8157C145.52 51.0752 145.753 51.4056 146.013 51.7096C146.281 52.0718 146.669 52.3281 146.9 52.721C146.427 52.9339 146.021 53.2643 145.56 53.4984C145.127 53.7748 144.657 53.9909 144.238 54.2864C143.849 54.5734 143.368 54.6984 142.989 55.0002C142.528 54.5257 142.006 54.1148 141.575 53.6117C141.281 53.2686 140.947 52.9625 140.601 52.6744C140.266 52.3387 139.951 51.9839 139.612 51.6534C138.875 51.0021 138.244 50.2395 137.46 49.6411C137.446 50.8559 137.461 52.0697 137.454 53.2845C135.6 53.3003 133.745 53.3215 131.892 53.3184C131.905 50.1188 131.929 46.9192 131.942 43.7197C132.602 43.2251 133.23 42.6468 134.027 42.3778C134.448 42.2369 134.853 42.0484 135.277 41.9139ZM139.134 44.6887C138.708 44.7671 138.292 44.908 137.912 45.1145C137.682 45.3041 137.491 45.5477 137.353 45.8125C137.219 46.1906 137.284 46.6364 137.528 46.9574C137.877 47.5483 138.625 47.6299 139.222 47.829C139.84 48.0578 140.459 47.7612 141.06 47.6288C141.7 47.4615 142.305 46.8504 142.227 46.1535C142.27 45.6737 141.854 45.3496 141.549 45.0478C140.819 44.6697 139.942 44.5574 139.134 44.6887Z" fill="#696969"/>
<path d="M33.9616 41.8397C40.1891 41.8217 46.4188 41.8366 52.6474 41.8323C53.4237 41.845 54.2181 41.7815 54.9796 41.9668C55.4202 42.1501 55.8682 42.3163 56.3077 42.5049C56.7959 42.8152 57.1783 43.26 57.532 43.7133C57.8963 44.0586 58.0404 44.5532 58.1262 45.0329C58.4185 46.0899 58.6864 47.1543 58.9682 48.2145C59.414 49.1645 59.5613 50.2141 59.8525 51.216C60.0241 51.9171 60.2529 52.6045 60.3715 53.3183C58.5509 53.3173 56.7292 53.3289 54.9097 53.312C54.5718 52.8481 54.4638 52.2793 54.2784 51.7487C54.0507 51.0857 53.8209 50.4238 53.5964 49.7608C53.5201 49.4822 53.3263 49.2588 53.231 48.9887C52.8412 47.8555 52.4705 46.7148 52.0649 45.5869C50.7919 45.5932 49.5188 45.5922 48.2458 45.5879C48.4639 46.2266 48.6376 46.8779 48.8473 47.5187C48.9649 47.8798 49.1735 48.2018 49.2858 48.564C49.6152 49.6379 49.9276 50.7172 50.2909 51.7794C50.4995 52.2486 50.7442 52.7125 50.7993 53.2325C48.8961 53.2241 46.9918 53.2527 45.0886 53.2177C44.989 52.7845 44.8407 52.3577 44.6056 51.9775C44.075 50.7203 43.7806 49.3647 43.1409 48.1531C42.839 47.345 42.5891 46.5167 42.2788 45.7118C42.2491 45.6832 42.1898 45.6271 42.1601 45.5985C41.2874 45.5816 40.4147 45.589 39.5431 45.5964C39.5463 48.1404 39.5505 50.6843 39.541 53.2283C38.0847 53.2431 36.6284 53.222 35.1722 53.2389C34.7676 53.276 34.3619 53.276 33.9595 53.2167C33.9669 49.424 33.9637 45.6313 33.9616 41.8397Z" fill="#696969"/>
<path d="M85.0592 42.1613C85.3791 42.0744 85.6618 41.8436 86.0092 41.8669C88.622 41.8658 91.2349 41.87 93.8477 41.8647C93.9176 43.2924 93.8583 44.7243 93.8784 46.1541C93.8752 48.5392 93.8826 50.9254 93.8742 53.3105C92.0949 53.3243 90.3145 53.3285 88.5341 53.3084C88.5257 52.3891 88.5437 51.4698 88.5246 50.5515C86.7527 50.559 84.9798 50.5494 83.2079 50.5558C83.1486 51.4751 83.1804 52.3965 83.1676 53.3169C82.2791 53.3412 81.3905 53.3264 80.5019 53.337C79.5296 53.3116 78.5552 53.4535 77.5872 53.3253C77.5692 52.5151 77.512 51.6901 77.6889 50.8936C77.8636 50.4075 77.8869 49.8875 78.0363 49.395C78.2364 48.5361 78.5224 47.692 78.9344 46.9103C79.4068 46.2558 79.7997 45.5441 80.3557 44.9542C80.8535 44.5761 81.2602 44.092 81.7601 43.715C81.9942 43.5572 82.2674 43.464 82.4856 43.2797C82.8605 42.9705 83.3498 42.8688 83.7608 42.6209C84.16 42.3848 84.6155 42.2778 85.0592 42.1613ZM85.7572 45.3672C84.8834 45.8184 84.231 46.6508 83.9768 47.5977C85.4934 47.604 87.0111 47.5956 88.5288 47.6019C88.5331 46.8309 88.5405 46.0588 88.5246 45.2878C87.7907 45.2719 87.0556 45.2867 86.3217 45.2793C86.13 45.2804 85.9277 45.2645 85.7572 45.3672Z" fill="#696969"/>
<path d="M95.8897 41.8647C97.7506 41.869 99.6125 41.8679 101.474 41.8658C101.541 43.1516 101.485 44.4426 101.503 45.7305C101.502 48.2575 101.506 50.7845 101.501 53.3116C99.6156 53.3211 97.7294 53.3328 95.8442 53.3052C95.8389 49.7212 95.8452 46.1361 95.841 42.551C95.8357 42.3202 95.8632 42.0925 95.8897 41.8647Z" fill="#696969"/>
<path d="M103.263 41.8361C105.12 41.8234 106.977 41.8393 108.835 41.8276C108.86 44.4161 108.839 47.0045 108.845 49.593C110.09 49.6025 111.337 49.5803 112.582 49.6036C112.641 50.8364 112.596 52.0724 112.608 53.3062C109.491 53.3306 106.373 53.3232 103.256 53.3094C103.258 49.485 103.244 45.6605 103.263 41.8361Z" fill="#696969"/>
</svg>
