<svg width="79" height="64" viewBox="0 0 79 64" fill="none" xmlns="http://www.w3.org/2000/svg">
<path d="M40.6152 0.000976562C40.9062 0.189867 41.1762 0.416534 41.3875 0.693573C43.0791 2.90568 44.5875 5.35286 45.1779 8.10785C45.4298 9.11387 45.3892 10.1591 45.3402 11.1861C44.9219 14.5735 42.8119 17.4278 40.5718 19.8764C39.4189 21.277 37.9987 22.4285 36.8402 23.8235C35.2563 25.5067 33.8039 27.3494 32.7783 29.4314C31.7793 31.526 31.2658 33.92 31.6632 36.2301C31.7513 37.1745 32.0871 38.0714 32.262 39.0005C31.6464 38.68 31.305 38.049 30.881 37.5299C29.0131 34.9988 27.5034 32.0185 27.4614 28.8116C27.5314 26.9255 28.0827 25.0534 29.0607 23.4359C29.875 22.0213 30.8572 20.7061 31.957 19.5014C33.2289 17.9847 34.7372 16.6891 36.0384 15.1975C37.8084 13.2722 39.4944 11.1889 40.4668 8.73469C41.3497 6.60093 41.6156 4.19294 41.0699 1.93745C40.9356 1.28823 40.6893 0.662791 40.6152 0.000976562Z" fill="#696969"/>
<path d="M33.3843 55.2095C34.2882 55.2081 35.1921 55.1956 36.0945 55.2067C36.4429 55.19 36.7004 55.46 36.9718 55.6349C38.788 56.9613 40.6293 58.2542 42.4482 59.5792C42.4692 58.1226 42.4496 56.6661 42.458 55.2095C43.3395 55.2011 44.221 55.2053 45.1025 55.2067C45.0927 58.1324 45.0955 61.0581 45.1025 63.9852C44.1594 63.9684 43.208 64.0454 42.2705 63.9545C40.1452 62.4433 38.1499 60.7475 36.026 59.2294C35.9994 60.8161 36.0246 62.4028 36.012 63.9894C35.1361 63.9922 34.2616 63.9922 33.3857 63.988C33.3801 61.0609 33.3843 58.1352 33.3843 55.2095Z" fill="#696969"/>
<path d="M47.1841 55.2139C50.5925 55.2041 53.9995 55.2041 57.4079 55.2139C57.4121 55.8659 57.4107 56.5179 57.4093 57.17C55.2728 57.1727 53.1348 57.1741 50.9969 57.1686C50.9927 57.6667 50.9913 58.1634 50.9941 58.6615C52.6619 58.6657 54.3283 58.6559 55.9962 58.6685C55.9948 59.2897 55.9934 59.911 55.9962 60.5322C54.3283 60.5896 52.6563 60.486 50.9913 60.591C50.9941 61.0835 50.9941 61.5746 50.9871 62.0671C53.1488 62.0643 55.3091 62.0601 57.4709 62.0699C57.5353 62.7051 57.5199 63.3446 57.5171 63.9826C54.0737 63.9938 50.6303 63.9938 47.1855 63.984C47.1855 61.0611 47.1897 58.1382 47.1841 55.2139Z" fill="#696969"/>
<path d="M59.2074 55.2069C65.68 55.2027 72.1541 55.1957 78.6267 55.2111C78.6575 55.8618 78.6687 56.518 78.6085 57.1686C77.4612 57.1784 76.3152 57.1756 75.1679 57.1728C75.1679 59.4451 75.1735 61.7174 75.1651 63.9896C73.8988 63.9868 72.6312 63.9882 71.3663 63.9868C71.2572 61.7174 71.3495 59.4423 71.3173 57.1714C68.5469 57.177 65.7752 57.177 63.0048 57.17C63.0048 57.7297 63.002 58.2907 63.0062 58.8504C64.404 58.849 65.8017 58.8434 67.2009 58.8532C67.2009 59.4954 67.2037 60.1377 67.1981 60.7813C65.8004 60.7883 64.4012 60.7855 63.0034 60.7785C63.0034 61.8475 63.002 62.9165 63.0062 63.9854C61.7399 63.9896 60.4723 63.9896 59.206 63.9868C59.206 61.0611 59.2032 58.134 59.2074 55.2069Z" fill="#696969"/>
<path d="M48.4281 10.3799C50.1617 12.3038 51.593 14.5145 52.5207 16.9379C53.2231 18.8715 53.4092 21.0081 52.9167 23.0131C52.2702 25.5275 50.7283 27.685 49.0829 29.6467C47.1618 31.87 44.9357 33.8134 43.1098 36.1235C41.4084 38.1705 40.0036 40.5561 39.5237 43.2034C39.1851 45.13 39.3949 47.1183 39.9378 48.989C39.8021 49.003 39.6678 49.0184 39.5335 49.0352C37.8558 46.9784 36.4427 44.6459 35.7305 42.0728C35.473 41.2179 35.4534 40.3224 35.3247 39.4465C35.4464 38.0739 35.6423 36.679 36.223 35.4127C37.3731 32.8564 39.2074 30.6877 41.1229 28.6714C42.9027 26.8987 44.6545 25.0881 46.1796 23.0873C47.6921 20.9759 48.9682 18.5791 49.1822 15.9472C49.1836 15.1567 49.213 14.3634 49.1585 13.5742C48.9724 12.4982 48.7359 11.4279 48.4281 10.3799Z" fill="#696969"/>
<path d="M0.100385 55.2197C3.64312 55.2029 7.18726 55.2127 10.7314 55.2141C10.7314 55.8661 10.7314 56.5181 10.7314 57.1701C9.58966 57.1561 8.44932 57.1715 7.30759 57.1617C7.31178 59.1416 7.30619 61.1214 7.31178 63.0999C7.30619 63.4007 7.26561 63.6987 7.22224 63.9968C5.98676 63.9744 4.74988 63.9814 3.5144 63.9954C3.513 61.7189 3.5144 59.441 3.513 57.1645C2.37406 57.1631 1.23512 57.1715 0.0975865 57.1575C0.0961873 56.5111 0.0905904 55.8647 0.100385 55.2197Z" fill="#696969"/>
<path d="M13.885 55.7082C14.0166 55.5123 14.1047 55.1919 14.3999 55.2297C15.669 55.2031 16.9395 55.2311 18.2085 55.2199C19.8008 58.1344 21.4392 61.0251 22.9616 63.9774C21.6421 63.9802 20.3213 63.9872 19.0033 63.9802C18.8032 64.0137 18.7038 63.8011 18.6143 63.6667C18.3918 63.282 18.2085 62.8762 18.0168 62.476C16.2343 62.469 14.4531 62.4886 12.6719 62.4662C12.3949 62.9657 12.1193 63.4653 11.8632 63.976C11.0447 63.9802 10.2248 63.9914 9.40625 63.9718C10.8726 61.2028 12.4075 58.4716 13.885 55.7082ZM15.3038 57.3956C14.7232 58.4758 14.1733 59.5727 13.5982 60.6571C14.7483 60.6781 15.8985 60.6599 17.05 60.6683C16.5981 59.742 16.1167 58.8298 15.6746 57.8993C15.5669 57.723 15.5109 57.4823 15.3038 57.3956Z" fill="#696969"/>
<path d="M21.7162 55.2129C25.1792 55.2199 28.6422 55.2059 32.1066 55.2199C32.1052 55.8663 32.1024 56.5141 32.101 57.1606C31.0418 57.1634 29.9826 57.1662 28.9248 57.1606C28.9164 59.4356 28.943 61.7107 28.9109 63.9858C27.6488 63.9802 26.3881 63.9956 25.1261 63.976C25.1191 61.7051 25.1219 59.4342 25.1247 57.162C23.9871 57.1703 22.851 57.155 21.7148 57.1676C21.7204 56.5169 21.7162 55.8649 21.7162 55.2129Z" fill="#696969"/>
</svg>
