<svg width="147" height="49" viewBox="0 0 147 49" fill="none" xmlns="http://www.w3.org/2000/svg">
<path d="M65.3108 0.0964612C65.5133 0.0033743 65.7507 0.050273 65.9688 0.0268237C66.3973 0.0275343 66.8265 0.00408489 67.2557 0.00195312C67.3864 0.00479547 67.5804 -0.00231039 67.6245 0.156861C67.7595 0.514997 67.7197 0.907952 67.795 1.27817C67.8043 1.36628 67.9336 1.46718 68.0075 1.38262C68.4815 1.00033 68.8808 0.532762 69.3469 0.141228C69.4962 0.021139 69.7008 0.0460095 69.8806 0.0389036C70.2615 0.0460095 70.6423 -0.000178634 71.0232 0.0289554C71.0872 0.122042 71.0772 0.205892 70.9948 0.279082C70.6182 0.647877 70.2117 0.985406 69.8373 1.35562C69.7243 1.44942 69.7541 1.60291 69.8515 1.69528C70.4526 2.38313 71.0232 3.09869 71.5732 3.82846C71.6528 3.93008 71.7004 4.05088 71.7452 4.17097C71.3956 4.27116 71.0282 4.2335 70.6701 4.25908C70.1691 4.26476 69.6681 4.30527 69.1679 4.27898C69.0442 4.27827 68.9426 4.19726 68.8808 4.09636C68.6193 3.71619 68.3756 3.32466 68.1183 2.94236C68.0594 2.84785 67.9592 2.79314 67.8739 2.72919C67.6678 3.16122 67.8817 3.67427 67.719 4.11909C67.6536 4.30669 67.4348 4.32516 67.2678 4.34151C66.7185 4.37917 66.1657 4.38841 65.6164 4.36212C65.4352 4.36709 65.2682 4.21644 65.2703 4.0324C65.1723 3.03616 65.1481 2.03423 65.1211 1.03444C65.1381 0.720357 65.1154 0.3608 65.3108 0.0964612Z" fill="#696969"/>
<path d="M78.6451 0.0506944C78.8164 -0.0281807 79.0139 0.00948036 79.1972 0.00592743C79.7366 0.0379038 80.278 0.0208498 80.8159 0.0727226C81.1421 0.121043 81.0568 0.55379 81.0789 0.789705C81.4072 0.430858 81.8292 0.144492 82.3146 0.0563791C82.9107 -0.0537619 83.5673 0.00876978 84.0896 0.334219C84.3824 0.516129 84.5778 0.812444 84.7035 1.12723C84.9835 0.643324 85.4646 0.292294 86.0139 0.182153C86.691 0.0478521 87.4691 0.12957 88.0049 0.600689C88.3552 0.897003 88.5279 1.36315 88.5201 1.81508C88.5151 2.62089 88.4917 3.42669 88.4561 4.23179C88.454 4.37675 88.4064 4.57998 88.2259 4.57927C87.6027 4.60911 86.9795 4.5615 86.3571 4.56576C86.1752 4.56008 85.8845 4.54871 85.8987 4.29503C85.9101 3.53968 85.9556 2.78432 85.9712 2.02897C85.9734 1.80442 85.8561 1.56567 85.6351 1.48608C85.294 1.33544 84.84 1.58059 84.8037 1.95862C84.759 2.71753 84.7867 3.48141 84.7178 4.23889C84.7099 4.48476 84.4214 4.48831 84.2395 4.48263C83.6256 4.45278 83.0095 4.47268 82.3977 4.42791C82.2591 4.42507 82.1639 4.3 82.1774 4.16712C82.1881 3.4274 82.2328 2.68768 82.2485 1.94725C82.2492 1.76676 82.2002 1.56496 82.0481 1.45197C81.7717 1.22458 81.3126 1.3333 81.1442 1.64099C81.0781 1.75966 81.0753 1.89751 81.0689 2.02897C81.0448 2.65073 81.0398 3.27463 80.9751 3.89426C80.963 4.09465 80.8358 4.32203 80.6113 4.32345C79.9952 4.3668 79.3749 4.32701 78.7609 4.27087C78.5549 4.26874 78.3858 4.08825 78.4014 3.88147C78.3751 2.81275 78.3957 1.74189 78.4774 0.676011C78.5094 0.466388 78.5009 0.220525 78.6451 0.0506944Z" fill="#696969"/>
<path d="M54.7891 0.51761C55.6382 0.402495 56.5442 0.359859 57.35 0.702362C57.8943 0.926908 58.3413 1.39234 58.4948 1.96579C58.6937 2.68348 58.6411 3.54471 58.111 4.11176C57.5731 4.6781 56.778 4.88275 56.0326 5.00141C55.2005 5.11369 54.3243 5.15988 53.5199 4.87777C53.0026 4.70013 52.5635 4.29367 52.3787 3.77423C52.1123 3.05014 52.1173 2.15551 52.6296 1.53801C53.1561 0.895642 53.996 0.635567 54.7891 0.51761ZM55.1252 1.77109C54.8196 1.88052 54.7699 2.24576 54.7713 2.52786C54.7862 2.87889 54.8139 3.25053 54.9937 3.56177C55.1173 3.78631 55.4144 3.91635 55.6538 3.79555C55.9573 3.67901 56.0262 3.31519 56.029 3.02669C56.0219 2.66358 55.9935 2.27987 55.8109 1.95726C55.6744 1.72632 55.3597 1.67374 55.1252 1.77109Z" fill="#696969"/>
<path d="M96.9141 0.93046C97.6701 0.809661 98.4475 0.865087 99.195 1.01786C99.8765 1.1614 100.574 1.45416 101.001 2.02903C101.34 2.47243 101.426 3.06151 101.347 3.60298C101.284 4.14516 101.043 4.69373 100.591 5.01918C100.037 5.4235 99.3251 5.50735 98.6585 5.51232C97.8243 5.50167 96.9702 5.39934 96.2014 5.05755C95.6684 4.82092 95.2001 4.37752 95.058 3.79697C94.9088 3.17449 94.9671 2.48238 95.289 1.92173C95.635 1.35468 96.2724 1.03207 96.9141 0.93046ZM97.9771 2.20028C97.7561 2.29052 97.6794 2.53923 97.6246 2.74956C97.5458 3.13186 97.4996 3.54329 97.631 3.9199C97.7291 4.20342 98.0929 4.36331 98.3601 4.2084C98.6202 4.06841 98.7054 3.75575 98.7566 3.48644C98.8056 3.16312 98.8433 2.82204 98.7431 2.50441C98.645 2.20099 98.2549 2.07237 97.9771 2.20028Z" fill="#696969"/>
<path d="M43.5937 1.80856C44.0435 1.71973 44.4969 1.64725 44.9502 1.57832C45.0931 1.55203 45.2437 1.60746 45.3538 1.69912C45.4121 1.82845 45.4292 1.97128 45.4569 2.10913C45.6509 3.17715 45.8676 4.24089 46.0516 5.31033C46.2996 5.21937 46.5469 5.12842 46.7921 5.03036C46.9569 5.208 46.9804 5.46879 46.9775 5.70044C46.7303 5.84327 46.419 5.80205 46.1461 5.86814C46.2634 6.62278 46.4602 7.39235 46.3053 8.15765C46.2115 8.64085 45.9955 9.13471 45.5855 9.4296C44.877 9.89859 44.0016 10.1537 43.1539 9.99878C42.4717 9.94122 41.8748 9.39336 41.7341 8.72825C41.6631 8.40067 41.6439 8.05604 41.7092 7.72561C41.808 7.26018 42.1306 6.89067 42.4376 6.54462C41.857 6.77698 41.1635 6.82885 40.6107 6.49346C40.0721 6.19714 39.812 5.59314 39.6834 5.02041C39.5327 4.36169 39.5086 3.61203 39.8894 3.02366C40.3542 2.37418 41.1784 2.03879 41.9643 2.0665C42.3779 2.08071 42.7453 2.30668 43.0203 2.60299C43.0125 2.42392 42.9258 2.21146 43.053 2.05655C43.1802 1.88885 43.4012 1.85119 43.5937 1.80856ZM42.2607 3.25247C41.9587 3.36758 41.8748 3.73282 41.9103 4.02203C41.948 4.36169 42.0148 4.73475 42.2706 4.98204C42.6195 5.29185 43.2413 4.97919 43.2349 4.523C43.2072 4.21673 43.1425 3.91402 43.0722 3.61558C42.9805 3.28516 42.5662 3.11888 42.2607 3.25247ZM43.3301 6.58441C42.9371 6.745 42.5733 7.11948 42.6017 7.57C42.6529 7.89118 42.7318 8.24221 42.9791 8.47315C43.2263 8.70693 43.6769 8.58969 43.7969 8.27703C43.922 7.95726 43.8531 7.60695 43.7962 7.28008C43.7479 7.05056 43.728 6.81251 43.642 6.59223C43.561 6.49914 43.4253 6.54675 43.3301 6.58441Z" fill="#696969"/>
<path d="M108.117 2.87681C108.131 2.64516 108.411 2.55207 108.608 2.59684C109.064 2.67145 109.518 2.76169 109.975 2.83559C110.141 2.87255 110.337 2.88178 110.459 3.01751C110.591 3.15607 110.529 3.36001 110.53 3.52984C111.162 3.0907 111.99 2.99761 112.726 3.18734C113.303 3.33585 113.762 3.83113 113.888 4.41026C114.004 4.94462 113.941 5.50172 113.814 6.02897C113.686 6.53207 113.436 7.04085 112.991 7.33361C112.353 7.7024 111.524 7.69672 110.872 7.36772C110.574 7.22773 110.422 6.92005 110.173 6.72037C110.099 6.82199 110.028 6.92787 110.015 7.05506C109.892 7.73367 109.768 8.41228 109.618 9.08521C109.573 9.23017 109.54 9.41634 109.388 9.48669C109.103 9.50587 108.825 9.41989 108.547 9.38081C108.134 9.30123 107.714 9.25646 107.306 9.15484C107.079 9.09871 107.109 8.81234 107.133 8.63469C107.43 6.71043 107.777 4.79397 108.117 2.87681ZM110.835 4.31433C110.631 4.37473 110.477 4.55166 110.44 4.75986C110.385 5.03344 110.33 5.30773 110.305 5.58628C110.291 6.0105 110.835 6.33666 111.199 6.10714C111.395 5.98989 111.485 5.76179 111.546 5.55146C111.617 5.24662 111.68 4.91477 111.564 4.61206C111.449 4.3392 111.107 4.21271 110.835 4.31433Z" fill="#696969"/>
<path d="M16.092 4.44346C18.1718 3.31008 20.6546 3.03721 22.9662 3.46641C23.5517 3.61634 24.0178 4.13294 24.123 4.72557C24.2275 5.24856 24.0534 5.81916 23.6689 6.19009C23.3108 6.5532 22.775 6.72587 22.2719 6.64131C20.7747 6.41321 19.1894 6.53543 17.8173 7.21191C19.2427 8.28205 20.3384 9.78495 20.9247 11.4683C21.4285 12.9314 21.5621 14.5793 21.0156 16.0509C20.6262 17.1168 19.8318 18.0292 18.8192 18.5458C17.7576 19.0652 16.5716 19.39 15.3828 19.3004C14.3567 19.2286 13.3576 18.7995 12.6158 18.0839C11.6686 17.1793 11.1477 15.9067 10.9665 14.6262C10.7014 12.6877 11.0766 10.6909 11.9066 8.92869C8.70327 9.3458 5.67759 11.3241 4.20739 14.2304C3.36747 15.8661 3.10953 17.7634 3.34047 19.5783C3.49111 20.7927 3.79453 21.9978 4.32676 23.1028C4.82275 24.1289 5.52766 25.0576 6.40097 25.7909C7.43203 26.672 8.69048 27.2597 10.0001 27.5908C11.8455 28.0428 13.8351 28.0882 15.6429 27.4494C17.5835 26.7765 19.2036 25.4065 20.4805 23.8269C21.8697 22.1321 22.8049 20.1261 24.1365 18.3909C24.7696 17.5645 25.5996 16.8276 26.6264 16.5554C27.8891 16.1923 29.348 16.4559 30.3257 17.3577C31.2509 18.1869 31.749 19.3658 32.1256 20.5233C32.4419 19.8135 32.7943 19.1128 33.2633 18.4896C33.8367 17.7073 34.6035 17.0351 35.5379 16.7309C36.7153 16.338 38.037 16.5774 39.1029 17.1765C40.0863 17.73 40.733 18.7312 41.0734 19.7857C41.5786 18.9998 42.2288 18.2793 43.0666 17.8437C44.1886 17.2497 45.555 17.2497 46.7389 17.6547C47.8218 18.0349 48.6304 18.9657 49.0369 20.0188C49.5642 21.2822 49.5947 22.6722 49.9571 23.9789C50.7999 23.5924 51.4451 22.8967 52.047 22.211C52.9231 21.187 53.6721 20.06 54.3478 18.8961C54.7131 18.2729 55.5253 17.9709 56.2117 18.1926C56.5379 18.2793 56.8008 18.5024 57.031 18.7405C57.4659 17.8373 58.1218 17.0216 58.9858 16.4979C60.0503 15.8434 61.3457 15.6544 62.575 15.7752C63.7652 15.8647 64.8986 16.4169 65.7485 17.2475C66.6822 18.1379 67.3011 19.3402 67.5314 20.6065C68.2903 20.1382 69.052 19.6721 69.8422 19.2578C70.2543 19.0496 70.6942 18.8186 71.1724 18.8769C71.8901 18.9295 72.5303 19.5108 72.6312 20.227C72.7492 21.133 72.8153 22.0639 73.1571 22.9209C73.2899 23.2406 73.4932 23.608 73.8726 23.6613C74.2507 23.7629 74.5711 23.4737 74.8298 23.2399C75.4707 22.5883 75.9163 21.774 76.295 20.949C76.8315 19.7438 77.2167 18.4726 77.4462 17.1736C77.5776 16.4282 78.2975 15.8519 79.0528 15.8818C79.73 15.8676 80.3745 16.3394 80.5791 16.9825C81.11 18.7739 81.6521 20.5901 82.6008 22.2131C82.8985 22.6729 83.2026 23.1852 83.7036 23.4467C84.2017 23.544 84.7005 23.3643 85.1667 23.2023C84.7752 22.3069 84.5059 21.3583 84.368 20.3905C84.1548 19.1015 84.535 17.7641 85.2605 16.694C85.824 15.8576 86.6334 15.1648 87.5969 14.8408C88.5093 14.5338 89.5446 14.6105 90.3952 15.0653C91.2344 15.513 91.9137 16.2357 92.3699 17.0649C92.9931 18.2509 92.8361 19.6983 92.2854 20.8808C91.7418 22.0781 90.8784 23.0985 89.9205 23.986C90.3796 24.2312 90.8876 24.3925 91.4113 24.4102C91.7681 24.4209 92.1504 24.4429 92.4751 24.2653C93.1139 23.9356 93.5751 23.3579 93.9808 22.7809C94.6736 21.7562 95.1625 20.6043 95.51 19.4205C95.6336 19.0325 95.6422 18.6069 95.8461 18.2459C96.119 17.7499 96.6718 17.4188 97.2403 17.4273C97.8151 17.401 98.3822 17.7265 98.67 18.221C98.7801 18.4143 98.8405 18.6303 98.9109 18.8407C99.1496 19.5768 99.4602 20.2874 99.7806 20.9916C100.23 20.1609 100.702 19.331 101.333 18.6225C101.896 17.9759 102.601 17.4167 103.439 17.1843C104.385 16.9207 105.41 17.1345 106.254 17.6078C107.134 18.096 107.789 18.9174 108.195 19.8277C108.751 19.1441 109.394 18.5223 110.143 18.0533C110.972 17.5374 111.966 17.2369 112.946 17.374C114.265 17.5467 115.453 18.4236 116.054 19.6031C116.614 20.6676 116.72 21.8855 116.894 23.0559C116.965 23.4154 117.005 23.8084 117.225 24.1146C117.418 24.2539 117.733 24.3037 117.92 24.1232C118.216 23.8617 118.407 23.505 118.586 23.1582C118.949 22.4142 119.198 21.6226 119.47 20.8424C119.6 20.4743 119.697 20.0764 119.96 19.7744C120.135 19.5605 120.38 19.4233 120.623 19.2997C121.047 18.2736 121.751 17.3527 122.681 16.7366C123.894 15.9109 125.441 15.6366 126.875 15.9067C129.129 16.3188 131.008 18.1471 131.577 20.3514C132.1 19.8959 132.624 19.4425 133.16 19.0027C133.229 17.9446 133.374 16.8922 133.595 15.8548C133.303 15.7432 133.011 15.6309 132.725 15.503C130.703 14.6191 128.942 13.0032 128.155 10.9134C127.894 10.1928 128.226 9.31738 128.907 8.96138C129.517 8.61603 130.342 8.72475 130.838 9.22074C131.178 9.53695 131.267 10.0138 131.514 10.3918C132.173 11.506 133.305 12.2514 134.491 12.7104C135.399 10.2113 136.816 7.78038 139.023 6.2178C140.068 5.4994 141.334 4.93022 142.63 5.11994C143.413 5.27982 144.162 5.63085 144.779 6.14035C145.613 6.82038 146.119 7.85641 146.2 8.92371V9.57745C146.115 10.784 145.615 11.9259 144.935 12.9122C144.311 13.787 143.588 14.6176 142.692 15.2195C140.955 16.3358 138.816 16.6208 136.791 16.5035C136.725 16.802 136.669 17.1026 136.616 17.4039C137.767 17.0969 138.965 16.9143 140.158 17.0109C141.216 17.0869 142.269 17.4081 143.142 18.0214C144.005 18.6211 144.666 19.5086 144.985 20.5113C145.388 21.7455 145.296 23.1127 144.82 24.3136C144.299 25.6346 143.301 26.7602 142.053 27.4388C140.902 28.0783 139.529 28.2922 138.236 28.057C137.109 27.8445 136.046 27.3016 135.207 26.5214C134.237 25.6097 133.726 24.3257 133.433 23.0523C132.503 23.8411 131.574 24.6312 130.639 25.4136C130.155 25.8094 129.702 26.25 129.148 26.5491C127.846 27.4899 126.104 27.8658 124.56 27.3563C123.266 26.9314 122.129 26.0879 121.297 25.015C120.808 25.8826 120.139 26.6998 119.224 27.1361C117.754 27.8566 115.817 27.4707 114.743 26.2329C114.082 25.4719 113.813 24.4678 113.666 23.4929C113.531 22.7375 113.512 21.9509 113.22 21.2325C113.093 20.8936 112.772 20.5852 112.391 20.6058C111.944 20.6953 111.581 21.0037 111.259 21.3085C110.083 22.4703 109.322 23.9917 108.825 25.5522C108.58 26.2024 107.875 26.6308 107.185 26.5605C106.408 26.5193 105.725 25.8407 105.699 25.0604C105.689 23.8126 105.717 22.5244 105.288 21.3334C105.128 20.8687 104.807 20.4182 104.299 20.3095C103.782 20.674 103.425 21.2083 103.1 21.7406C102.458 22.8178 101.971 23.9768 101.506 25.1386C101.338 25.5408 101.236 25.9941 100.916 26.3104C100.526 26.7197 99.9128 26.8966 99.3642 26.7609C98.7759 26.6273 98.2806 26.1348 98.1612 25.5408C98.0276 24.8117 97.6567 24.1594 97.354 23.4922C96.8452 24.4429 96.2263 25.3447 95.4453 26.0943C94.6495 26.876 93.6333 27.47 92.517 27.6242C91.6878 27.7294 90.84 27.6782 90.0264 27.4906C88.93 27.2363 87.9167 26.6763 87.0846 25.9231C85.9604 26.4596 84.7141 26.8277 83.4577 26.7097C82.5453 26.6301 81.7118 26.1547 81.0623 25.5266C80.2175 24.7009 79.627 23.6599 79.121 22.6025C78.5298 23.8396 77.7787 25.032 76.7192 25.9224C76.0662 26.4575 75.2704 26.8461 74.4226 26.92C73.2217 27.0245 71.9604 26.6074 71.1291 25.7199C70.4178 24.9922 70.0319 24.0216 69.7811 23.0516C68.7969 23.6464 67.8312 24.2717 66.835 24.8465C66.5863 24.9737 66.4697 25.2395 66.3035 25.4477C65.676 26.267 64.8624 26.9414 63.9535 27.4281C62.9246 27.9682 61.7273 28.1955 60.5754 28.0158C59.285 27.8218 58.1019 27.1545 57.161 26.2656C56.3368 25.4882 55.6788 24.5453 55.175 23.5334C54.7074 24.1338 54.2171 24.7194 53.6714 25.2509C52.9053 26.0119 52.0256 26.6969 50.9974 27.0614C50.1525 27.3443 49.174 27.389 48.3718 26.9534C47.6811 26.5882 47.1993 25.9181 46.9364 25.1954C46.498 24.0166 46.471 22.7375 46.1207 21.5359C46.0169 21.2453 45.9238 20.8999 45.6439 20.7301C45.2537 20.5894 44.767 20.5596 44.4266 20.8346C44.05 21.1337 43.8013 21.5587 43.5704 21.9736C42.982 23.0971 42.5848 24.3065 42.2032 25.5117C41.9829 26.2265 41.2141 26.7062 40.475 26.6045C39.8725 26.5441 39.3296 26.1149 39.1335 25.5415C38.7277 24.3058 38.501 23.0225 38.2282 21.7541C38.1031 21.2446 38.0036 20.7124 37.7265 20.259C37.5375 19.9449 37.1559 19.8405 36.8162 19.7992C36.4823 19.7566 36.2286 20.0273 36.0246 20.2519C35.5329 20.8509 35.216 21.5686 34.9225 22.2799C34.4123 23.5718 34.0279 24.9084 33.6413 26.2407C33.5212 26.6301 33.4559 27.0515 33.2079 27.3869C32.8753 27.8502 32.2827 28.1039 31.7178 28.0371C31.2218 27.9902 30.7563 27.696 30.5019 27.2682C30.3094 26.9584 30.2703 26.5889 30.185 26.2421C29.8582 24.8075 29.5654 23.3628 29.1554 21.9488C28.9735 21.3512 28.7845 20.7472 28.4718 20.2022C28.3496 20.006 28.2174 19.7921 27.9993 19.6934C27.7392 19.6117 27.4393 19.6671 27.2297 19.8433C26.9 20.1069 26.6548 20.458 26.4104 20.7983C25.341 22.3488 24.4669 24.0315 23.303 25.5181C22.0985 27.0757 20.6553 28.4705 18.9556 29.4789C17.1159 30.5867 14.9728 31.1864 12.8247 31.1821C10.2666 31.1949 7.67292 30.5597 5.50705 29.1747C3.86986 28.1423 2.52472 26.6678 1.6173 24.9602C0.509491 22.8782 0.00639528 20.5056 0 18.1571C0.0177647 15.8853 0.670083 13.6193 1.89656 11.705C3.4904 9.18734 6.00304 7.305 8.80488 6.32794C10.5543 5.73247 12.4417 5.44965 14.2814 5.71328C14.8356 5.22511 15.4418 4.79449 16.092 4.44346ZM140.577 9.12765C139.27 10.2113 138.39 11.7199 137.764 13.2789C138.757 13.2469 139.777 13.1041 140.664 12.6316C140.938 12.4916 141.181 12.2983 141.396 12.0794C141.957 11.5046 142.468 10.8601 142.767 10.1076C142.899 9.7615 143.004 9.37991 142.923 9.00899C142.82 8.63166 142.425 8.43128 142.074 8.3453C141.51 8.44407 141.022 8.78444 140.577 9.12765ZM15.3267 9.47797C14.4775 10.8224 13.9979 12.444 14.1734 14.0385C14.2601 14.6795 14.4441 15.373 14.9621 15.8036C15.4176 16.161 16.0465 16.0864 16.5673 15.9351C17.047 15.7873 17.5899 15.6153 17.8499 15.1456C18.2116 14.4791 18.1555 13.6719 17.9729 12.9606C17.5934 11.5124 16.6277 10.2241 15.3267 9.47797ZM88.3231 18.1173C87.8875 18.4989 87.5976 19.0595 87.5656 19.6394C87.6047 20.232 87.7582 20.8118 87.9465 21.3739C88.5981 20.6932 89.2618 19.9456 89.4942 19.0084C89.6256 18.5778 89.2583 18.2281 88.9477 17.9951C88.7466 17.8181 88.4901 17.9745 88.3231 18.1173ZM60.1135 19.8916C59.8321 20.3038 59.7852 20.8417 59.4335 21.2105C59.059 21.6262 58.4707 21.7988 57.9242 21.7157C58.3889 22.7795 59.0853 23.7864 60.0794 24.4166C60.7069 24.821 61.5297 24.9588 62.2233 24.6405C63.0298 24.2703 63.7262 23.6236 64.1141 22.8214C64.6876 21.6148 64.2385 20.038 63.1222 19.3075C62.6077 18.9586 61.9461 18.9608 61.3535 19.0418C60.8334 19.1078 60.3679 19.4361 60.1135 19.8916ZM125.036 19.1818C124.407 19.38 123.904 19.8859 123.665 20.4942C123.541 20.8268 123.293 21.0904 123.011 21.2965C123.327 22.265 123.848 23.215 124.7 23.8098C125.179 24.131 125.748 24.4294 126.345 24.2994C127.449 24.05 128.321 23.0424 128.469 21.9289C128.565 21.2083 128.228 20.5077 127.765 19.9762C127.111 19.2187 125.996 18.8563 125.036 19.1818ZM136.41 20.9191C136.5 21.904 136.648 22.9216 137.158 23.7878C137.361 24.1502 137.718 24.3861 138.073 24.5858C138.676 24.9141 139.416 24.9929 140.068 24.7634C141.22 24.3697 142.075 23.171 141.973 21.9431C141.935 21.3711 141.589 20.8388 141.081 20.5738C140.471 20.2554 139.756 20.2064 139.082 20.2583C138.162 20.3286 137.263 20.5759 136.41 20.9191Z" fill="#696969"/>
<path d="M44.6583 38.8248C44.8935 38.7438 45.1394 38.7019 45.3874 38.6806C46.3474 38.5896 47.3152 38.5882 48.2773 38.6564C48.6156 38.6841 48.9588 38.7111 49.2814 38.8276C50.3522 41.8526 51.4281 44.8762 52.5074 47.8983C52.0548 48.1079 51.5425 48.0944 51.0557 48.1264C50.3245 48.1264 49.5706 48.1584 48.8671 47.9274C48.661 47.2588 48.4436 46.5937 48.2333 45.9264C47.3429 45.925 46.4532 45.9257 45.5629 45.9257C45.3511 46.5936 45.1479 47.2644 44.9354 47.9324C44.276 48.1548 43.5661 48.1271 42.879 48.1271C42.41 48.0987 41.919 48.1029 41.4834 47.9047C42.5379 44.8769 43.6024 41.8526 44.6583 38.8248ZM45.9644 43.811C46.5911 43.8117 47.2185 43.8117 47.8453 43.811C47.5291 42.8716 47.2264 41.9279 46.8995 40.9928C46.5705 41.9258 46.277 42.8716 45.9644 43.811Z" fill="#696969"/>
<path d="M55.9297 38.6844C57.8078 38.592 59.6894 38.5864 61.5682 38.651C62.2795 38.6908 63.0014 38.683 63.6992 38.8429C63.7021 41.8693 63.7042 44.895 63.6978 47.9213C63.064 48.1523 62.3747 48.1231 61.711 48.1281C61.2172 48.1082 60.707 48.1033 60.2408 47.9178C60.2316 45.7199 60.2401 43.5221 60.2373 41.3242C59.4968 41.3242 58.7564 41.3242 58.0167 41.3242C58.0124 43.5235 58.0245 45.7221 58.0103 47.9213C57.5377 48.1033 57.0226 48.1104 56.523 48.1288C55.865 48.1239 55.1829 48.1487 54.5554 47.9206C54.5483 44.8942 54.554 41.8686 54.5526 38.8422C55.0031 38.7299 55.4692 38.7164 55.9297 38.6844Z" fill="#696969"/>
<path d="M65.4954 38.8417C66.2323 38.6811 66.9926 38.689 67.7423 38.6499C69.6573 38.5881 71.5745 38.593 73.4881 38.6804C73.9926 38.7103 74.5014 38.7273 74.9974 38.8368C75.0024 39.7371 74.9981 40.6374 74.9995 41.5377C73.9926 41.5377 72.9857 41.537 71.9795 41.5384C71.9774 43.6659 71.9852 45.7941 71.9753 47.9223C71.5134 48.0986 71.011 48.1099 70.5235 48.1284C69.8961 48.1277 69.2523 48.1433 68.6455 47.9671C68.524 47.9493 68.5041 47.8243 68.5147 47.7241C68.5161 45.662 68.5147 43.5998 68.5154 41.5377C67.5085 41.537 66.5016 41.5377 65.4954 41.5377C65.4954 40.6388 65.4947 39.7406 65.4954 38.8417Z" fill="#696969"/>
<path d="M76.9728 38.8329C77.4894 38.7121 78.0209 38.6922 78.5489 38.6617C80.0191 38.5942 81.4914 38.5906 82.9623 38.6489C83.5834 38.683 84.2122 38.6922 84.8219 38.8329C84.8248 39.557 84.8226 40.2804 84.8233 41.0045C83.3546 41.0052 81.8865 41.0045 80.4177 41.0045C80.417 41.4308 80.417 41.8572 80.4177 42.2835C81.8211 42.2835 83.2245 42.2828 84.6279 42.2835C84.6279 42.9764 84.6279 43.6692 84.6279 44.362C83.2245 44.362 81.8211 44.362 80.4177 44.362C80.417 44.8175 80.4177 45.2737 80.4177 45.7299C81.9156 45.7299 83.4143 45.7292 84.9122 45.7299C84.9114 46.4561 84.9143 47.1823 84.9107 47.9086C83.9301 48.1224 82.919 48.0585 81.9256 48.1459H80.039C79.0172 48.0613 77.9776 48.1281 76.9714 47.905C76.9728 44.8814 76.9693 41.8572 76.9728 38.8329Z" fill="#696969"/>
<path d="M88.0759 38.8301C88.6401 38.6056 89.2612 38.6333 89.8573 38.6099C90.4201 38.6404 91.0106 38.6084 91.54 38.8358C91.5414 40.0282 91.5308 41.222 91.5457 42.4144C92.2797 41.2554 92.9576 40.0602 93.6782 38.8927C93.7471 38.7612 93.9134 38.7577 94.0413 38.7243C94.8378 38.5971 95.65 38.5957 96.4544 38.6369C96.8531 38.6674 97.2652 38.6816 97.6382 38.8429C96.6413 40.2698 95.6095 41.6725 94.5962 43.0873C95.7026 44.6875 96.8161 46.2821 97.9189 47.8845C97.6468 48.0365 97.3291 48.0507 97.0279 48.0834C96.3187 48.1431 95.6053 48.1438 94.8961 48.1026C94.5259 48.0742 94.1471 48.055 93.7983 47.9186C93.0557 46.6161 92.301 45.32 91.545 44.026C91.5286 45.3235 91.5464 46.6217 91.5357 47.92C91.0682 48.1019 90.5587 48.1097 90.0648 48.1282C89.4019 48.1246 88.7147 48.1502 88.0816 47.9235C88.066 44.8922 88.0773 41.8608 88.0759 38.8301Z" fill="#696969"/>
<path d="M102.351 38.7024C103.367 38.5865 104.393 38.5851 105.413 38.6555C105.718 38.6832 106.028 38.6995 106.322 38.7919C106.42 38.8026 106.448 38.8971 106.48 38.9759C107.536 41.9526 108.597 44.9278 109.654 47.9038C109.124 48.1248 108.534 48.1084 107.97 48.129C107.316 48.1233 106.642 48.1383 106.015 47.9265C105.809 47.2586 105.588 46.5949 105.383 45.9269C104.491 45.9234 103.6 45.9269 102.708 45.9255C102.508 46.5636 102.316 47.206 102.11 47.8427C102.082 47.977 101.915 47.9784 101.81 48.016C101.149 48.1461 100.469 48.1411 99.7986 48.1177C99.4042 48.085 98.9892 48.0821 98.6304 47.8967C99.6273 45.0572 100.619 42.2155 101.614 39.3753C101.678 39.1991 101.725 39.015 101.809 38.8466C101.963 38.7336 102.169 38.7358 102.351 38.7024ZM104.05 40.9919C103.72 41.9256 103.42 42.8693 103.115 43.8108C103.741 43.8122 104.368 43.8115 104.994 43.8115C104.68 42.8714 104.375 41.9284 104.05 40.9919Z" fill="#696969"/>
</svg>
