<svg width="140" height="15" viewBox="0 0 140 15" fill="none" xmlns="http://www.w3.org/2000/svg">
<path d="M64.7947 0.200853C66.5615 -0.179947 68.4907 -0.0455467 70.0951 0.830853C72.4639 2.02925 74.0711 4.64445 73.9283 7.31565C73.9843 10.7289 71.1311 13.8593 67.7599 14.2261C66.4859 14.2177 65.1559 14.3885 63.9519 13.8593C60.9923 12.7785 58.9455 9.60605 59.3263 6.45325C59.5755 3.48245 61.9107 0.881253 64.7947 0.200853ZM65.3547 3.82125C63.8399 4.46525 62.9215 6.24045 63.2659 7.85325C63.5515 9.52205 65.1559 10.9305 66.8891 10.7429C69.0367 10.6169 70.5543 8.19485 69.9131 6.17885C69.4651 4.26365 67.1943 2.96725 65.3547 3.82125Z" fill="#696969"/>
<path d="M5.06519 0.304428C6.56599 0.298828 8.06399 0.304428 9.56199 0.298828C11.6116 4.87683 13.692 9.43803 15.7248 14.0216C14.2268 14.0216 12.7288 14.0216 11.2336 14.0216C9.17839 9.44923 7.10919 4.88243 5.06519 0.304428Z" fill="#696969"/>
<path d="M23.3352 0.301758C24.2564 0.301758 25.1776 0.301758 26.0988 0.301758C28.1596 4.87416 30.2288 9.44096 32.2728 14.0218C30.8812 14.0218 29.4868 14.0218 28.0952 14.0218C27.006 11.387 25.8216 8.79136 24.7352 6.15376C23.5816 8.77176 22.4896 11.415 21.322 14.0246C19.9388 14.019 18.5556 14.0246 17.1752 14.019C19.2136 9.44096 21.2968 4.88256 23.3352 0.301758Z" fill="#696969"/>
<path d="M34.1599 0.301758C35.5375 0.301758 36.9123 0.301758 38.2899 0.301758C38.2899 1.88936 38.2899 3.47416 38.2899 5.06176C39.6059 5.10376 40.9387 4.96096 42.2463 5.16536C44.1755 5.49856 45.7127 7.25136 45.8247 9.20296C46.0627 11.5354 44.1839 13.8062 41.8403 13.9826C39.2811 14.075 36.7191 13.9966 34.1599 14.0218C34.1599 9.44936 34.1599 4.87416 34.1599 0.301758ZM38.2899 8.14456C38.2899 9.14696 38.2899 10.1466 38.2899 11.149C39.0907 11.1266 39.9083 11.233 40.7007 11.065C41.6779 10.827 42.1511 9.48296 41.4399 8.72696C40.6391 7.84776 39.3343 8.21736 38.2899 8.14456Z" fill="#696969"/>
<path d="M45.85 0.301725C49.9352 0.301725 54.0176 0.298925 58.1028 0.304525C58.0972 1.44693 58.1028 2.58933 58.1 3.73173C56.7448 3.73173 55.3924 3.73173 54.0428 3.73173C54.0372 7.16173 54.04 10.5917 54.04 14.0217C52.6624 14.0217 51.2848 14.0217 49.91 14.0189C49.91 10.5917 49.91 7.16173 49.91 3.73173C48.5576 3.73173 47.2024 3.73453 45.85 3.73173C45.85 2.58933 45.85 1.44413 45.85 0.301725Z" fill="#696969"/>
<path d="M75.8799 0.301725C77.2575 0.301725 78.6323 0.298925 80.0099 0.304525C80.0099 1.95933 80.0099 3.61413 80.0099 5.27173C81.5723 5.27173 83.1375 5.27173 84.6999 5.26893C84.6971 3.61413 84.6999 1.95933 84.6999 0.304525C86.0747 0.298925 87.4523 0.301725 88.8299 0.301725C88.8299 4.87413 88.8299 9.44932 88.8299 14.0217C87.4299 14.0217 86.0299 14.0217 84.6299 14.0189C84.6299 12.3641 84.6299 10.7093 84.6299 9.05173C83.0899 9.05173 81.5499 9.05173 80.0099 9.05173C80.0099 10.7093 80.0099 12.3641 80.0099 14.0189C78.6323 14.0217 77.2575 14.0217 75.8799 14.0217C75.8799 9.44932 75.8799 4.87413 75.8799 0.301725Z" fill="#696969"/>
<path d="M92.0499 0.301628C93.4275 0.301628 94.8023 0.301628 96.1799 0.301628C96.1855 2.74883 96.1715 5.19603 96.1883 7.64323C98.1203 5.19603 100.041 2.74043 101.982 0.298828C103.13 0.304428 104.275 0.298828 105.42 0.304428C105.42 4.87683 105.42 9.44923 105.42 14.0216C104.042 14.0216 102.668 14.0216 101.29 14.0216C101.293 11.5604 101.284 9.09923 101.293 6.63803C99.3523 9.09643 97.4175 11.5632 95.4715 14.0216C94.3319 14.0216 93.1895 14.0216 92.0499 14.0216C92.0499 9.44923 92.0499 4.87403 92.0499 0.301628Z" fill="#696969"/>
<path d="M108.71 0.30446C110.085 0.30166 111.462 0.30166 112.84 0.30166C112.843 2.14406 112.832 3.98926 112.848 5.83166C114.45 3.98646 116.096 2.18046 117.67 0.312861C119.302 0.293261 120.932 0.29886 122.564 0.30726C120.635 2.53326 118.686 4.73966 116.74 6.94886C118.91 9.31206 121.092 11.6613 123.267 14.0189C121.542 14.0133 119.815 14.0441 118.09 14.0077C116.284 12.0925 114.587 10.0597 112.84 8.08566C112.84 10.0625 112.84 12.0421 112.84 14.0217C111.462 14.0217 110.085 14.0217 108.71 14.0189C108.71 9.44646 108.71 4.87686 108.71 0.30446Z" fill="#696969"/>
<path d="M129.402 0.304525C130.903 0.298925 132.401 0.301725 133.902 0.301725C135.934 4.80973 137.956 9.32613 140 13.8313V14.0217C138.524 14.0217 137.052 14.0217 135.576 14.0217C133.515 9.44932 131.446 4.88253 129.402 0.304525Z" fill="#696969"/>
<path d="M3.0408 7.09155C4.5388 7.09155 6.0368 7.09155 7.5376 7.09435C6.5128 9.40995 5.4656 11.7116 4.424 14.0188C2.9484 14.0244 1.4756 14.0216 0 14.0216V13.834C1.022 11.5912 2.0244 9.33995 3.0408 7.09155Z" fill="#696969"/>
<path d="M127.4 7.08893C128.892 7.10573 130.388 7.06373 131.88 7.11693C130.836 9.41573 129.808 11.7229 128.766 14.0217C127.271 14.0217 125.773 14.0217 124.278 14.0217C125.294 11.7005 126.342 9.39053 127.4 7.08893Z" fill="#696969"/>
</svg>
