<svg width="128" height="39" viewBox="0 0 128 39" fill="none" xmlns="http://www.w3.org/2000/svg">
<path d="M0 0.0219334C27.9526 -0.0243457 55.9052 0.0201529 83.8578 0.000573304C98.3396 0.0201529 112.821 -0.0243453 127.301 0.0237137C127.275 12.5956 127.3 25.1675 127.289 37.7394C124.815 37.7537 122.339 37.7483 119.865 37.7412C119.863 26.3441 119.865 14.9487 119.863 3.55161C116.467 3.56229 113.069 3.53559 109.673 3.56584C107.599 10.433 105.49 17.2894 103.398 24.1511C103.151 24.9735 102.861 25.7852 102.695 26.6289C101.643 23.3252 100.737 19.9718 99.7368 16.6504C98.4713 12.2841 97.1719 7.93032 95.9206 3.5605C63.9506 3.54449 31.9824 3.55516 0.0142401 3.55339C0.00712019 2.37683 0.0249195 1.20027 0 0.0219334Z" fill="#696969"/>
<path d="M92.2432 37.743C92.2503 29.6477 92.2272 21.5507 92.2556 13.4536C94.566 21.5507 96.8818 29.6477 99.1975 37.743C96.88 37.7484 94.5625 37.7484 92.2432 37.743Z" fill="#696969"/>
<path d="M112.643 15.239C112.834 14.6516 112.992 14.0535 113.11 13.4465C113.222 14.3597 113.168 15.2817 113.177 16.2001C113.177 23.3823 113.177 30.5627 113.177 37.7449C110.789 37.7484 108.402 37.7484 106.013 37.7449C108.211 30.2405 110.433 22.7415 112.643 15.239Z" fill="#696969"/>
<path d="M36.2047 9.89207C38.3087 8.89351 40.4055 7.88071 42.5094 6.88037C42.5254 9.07329 42.5005 11.2662 42.5236 13.4591C43.6272 13.4502 44.729 13.4467 45.8344 13.4573C45.8255 14.8689 45.8308 16.2804 45.8326 17.6937C44.7237 17.6954 43.6147 17.6794 42.5076 17.7008C42.5254 22.1845 42.5076 26.6683 42.5165 31.1502C42.5165 31.9494 42.7479 32.8127 43.3495 33.3716C44.0704 33.8825 45.0138 33.6155 45.8361 33.6653C45.8166 35.0003 45.8468 36.3352 45.8219 37.6702C43.3673 37.9817 40.692 38.0992 38.4511 36.8817C37.0218 36.1323 36.2083 34.525 36.2137 32.9409C36.1994 27.8608 36.2012 22.7808 36.2119 17.699C35.2774 17.683 34.3429 17.6937 33.4084 17.6972C33.3888 16.2839 33.412 14.8706 33.4031 13.4573C34.3376 13.4467 35.2738 13.4609 36.2083 13.4484C36.2065 12.263 36.2065 11.0775 36.2047 9.89207Z" fill="#696969"/>
<path d="M22.6948 13.4505C24.4071 13.0268 26.3135 13.2386 27.8033 14.2141C29.3501 15.218 30.4252 16.9962 30.3878 18.8633C30.3914 25.1573 30.3878 31.4495 30.3878 37.7434C28.2483 37.7523 26.1088 37.7523 23.9692 37.7434C23.9657 31.9852 23.9675 26.2288 23.9675 20.4706C23.9408 19.4027 23.5189 18.2688 22.6218 17.6369C22.0504 17.2703 21.3331 17.1012 20.6621 17.2311C19.7311 17.5604 18.9159 18.3311 18.6222 19.2816C18.5866 25.435 18.6187 31.5901 18.6062 37.7452C16.4685 37.7506 14.3289 37.7523 12.1912 37.7434C12.1894 29.6481 12.1876 21.5529 12.1912 13.4576C14.3307 13.4505 16.4685 13.4505 18.608 13.4576C18.6151 14.2764 18.5831 15.0969 18.6293 15.9157C19.7596 14.7872 21.1213 13.8278 22.6948 13.4505Z" fill="#696969"/>
<path d="M51.5605 15.3904C53.5719 13.6585 56.3522 13.1957 58.9295 13.3114C61.2577 13.4022 63.6892 14.1302 65.3161 15.8763C66.8985 17.5281 67.6336 19.8368 67.7244 22.0884C67.7386 23.6299 67.7119 25.1713 67.7279 26.7145C63.5824 26.7003 59.4386 26.6985 55.2949 26.7145C55.334 28.7953 55.0314 31.0968 56.3041 32.9035C57.2332 34.3755 59.7377 34.2936 60.5618 32.7629C61.142 31.8106 61.0975 30.6572 61.1011 29.5856C63.2851 29.5856 65.4674 29.5696 67.6514 29.5945C67.7368 31.9654 66.8913 34.4645 65.0242 36.006C63.1498 37.5901 60.6134 38.0761 58.2211 38.0992C55.8538 38.1188 53.3476 37.6524 51.4679 36.1234C49.6239 34.6372 48.6057 32.2538 48.6449 29.9042C48.6396 27.4087 48.6609 24.915 48.6271 22.4213C48.6734 19.8332 49.5491 17.1205 51.5605 15.3904ZM55.7238 18.7011C55.0403 20.0343 55.3554 21.5633 55.2931 22.9962C57.3027 23.0033 59.3105 22.9926 61.32 23.0015C61.272 21.5366 61.5408 19.9578 60.7736 18.6228C59.8071 16.7485 56.6192 16.7788 55.7238 18.7011Z" fill="#696969"/>
<path d="M79.1286 16.5208C80.2589 14.3154 82.7758 13.1851 85.1805 13.2563C85.1787 15.1734 85.1805 17.0904 85.1805 19.0056C83.7814 18.8828 82.3094 19.0839 81.1115 19.8582C80.2411 20.4047 79.5914 21.2519 79.1749 22.1811C79.0734 22.6688 79.1357 23.1743 79.1251 23.6691C79.1286 28.3611 79.1268 33.0531 79.1268 37.7451C76.9802 37.7505 74.8336 37.7487 72.6869 37.7469C72.6869 29.6498 72.6834 21.5545 72.6887 13.4575C74.8353 13.4521 76.982 13.4468 79.1286 13.4593C79.1268 14.481 79.1286 15.5009 79.1286 16.5208Z" fill="#696969"/>
<path d="M0.0197963 13.4627C2.15754 13.4485 4.29349 13.4449 6.43123 13.4645C6.42411 21.558 6.43301 29.6515 6.42767 37.745C4.28993 37.7504 2.15398 37.7504 0.0162383 37.745C0.0162383 29.6515 0.0108964 21.5562 0.0197963 13.4627Z" fill="#696969"/>
</svg>
