<svg width="140" height="25" viewBox="0 0 140 25" fill="none" xmlns="http://www.w3.org/2000/svg">
<path d="M8.86274 0C9.64821 1.08611 10.4381 2.16779 11.2147 3.25979C9.21053 7.79726 7.21516 12.3377 5.22568 16.8796C10.5 16.8869 15.7758 16.8884 21.0501 16.8973C20.9853 16.8059 20.8556 16.6261 20.7907 16.5347C21.7 17.7269 22.5724 18.9486 23.4331 20.1762C15.9659 20.1851 8.49874 20.1526 1.03305 20.1585C0.686737 20.163 0.341895 20.1349 0 20.0907V20.0171C0.324211 19.5425 0.504 18.9928 0.741263 18.4756C3.45284 12.3185 6.13789 6.14968 8.86274 0Z" fill="#696969"/>
<path d="M8.90103 14.641C10.2244 11.6332 11.5684 8.63424 12.9006 5.62939C13.7097 6.68308 14.4701 7.77213 15.2482 8.84939C14.3979 10.7843 13.5402 12.7163 12.6737 14.6439C11.4166 14.641 10.1581 14.6454 8.90103 14.641Z" fill="#696969"/>
<path d="M12.9006 5.62939C19.2773 5.63382 25.6539 5.62792 32.0305 5.63234C30.7234 8.62834 29.4088 11.6199 28.1002 14.6159C26.6177 14.6262 25.1352 14.6248 23.6526 14.6351C26.1137 18.0363 28.5821 21.4317 31.0432 24.833C29.6358 24.8359 28.2284 24.833 26.8225 24.8344C25.6922 23.2827 24.5752 21.7206 23.4331 20.1761C22.5724 18.9486 21.7 17.7269 20.7907 16.5347C19.544 14.8296 18.3032 13.1201 17.0667 11.4062C19.9728 11.393 22.8775 11.393 25.7836 11.3856C26.155 10.5412 26.5234 9.69529 26.8918 8.84939C23.0101 8.85087 19.1299 8.8435 15.2482 8.84939C14.4701 7.77213 13.7097 6.68308 12.9006 5.62939Z" fill="#696969"/>
<path d="M37.9902 5.75632C41.3384 5.75632 44.6866 5.75042 48.0348 5.75927C49.2152 5.76958 50.4752 5.92727 51.4361 6.67442C53.3857 8.1879 53.5257 11.5022 51.7337 13.1837C51.0352 13.7511 50.1392 13.978 49.2771 14.1607C50.7228 16.1679 52.1641 18.1765 53.6068 20.1852C52.2038 20.1866 50.8024 20.1822 49.3994 20.1866C48.1335 18.2546 46.8706 16.3197 45.6121 14.3833C44.2533 14.3774 42.8946 14.3818 41.5358 14.3803C41.5344 16.3153 41.5373 18.2502 41.5344 20.1866C40.3539 20.1837 39.1721 20.1881 37.9902 20.1837C37.9902 15.3736 37.9887 10.565 37.9902 5.75632ZM41.5358 8.29106C41.5358 9.46853 41.5358 10.6475 41.5358 11.8264C43.5106 11.825 45.4838 11.8323 47.4571 11.825C48.0923 11.8235 48.8306 11.654 49.1607 11.0542C49.4643 10.4574 49.451 9.69695 49.143 9.10453C48.7819 8.46495 47.9847 8.28958 47.3068 8.29253C45.3822 8.28663 43.459 8.29106 41.5358 8.29106Z" fill="#696969"/>
<path d="M55.1128 5.75464C56.2947 5.75464 57.4766 5.75464 58.6585 5.75464C58.6629 8.72116 58.6526 11.6877 58.6629 14.6527C58.6585 15.593 59.0815 16.5774 59.9156 17.0652C61.1608 17.8035 62.6905 17.8551 64.0876 17.6458C64.9305 17.469 65.8413 17.1904 66.3939 16.4831C66.777 16.0115 66.917 15.3911 66.9038 14.7927C66.9008 11.7805 66.9023 8.76832 66.9023 5.75464C68.0842 5.75464 69.2661 5.75464 70.448 5.75464C70.4495 8.66959 70.4465 11.5845 70.4495 14.4995C70.504 15.8612 70.2299 17.3113 69.3088 18.3635C67.9442 19.9079 65.8221 20.5077 63.8297 20.6433C61.46 20.7803 58.8943 20.4812 56.9594 18.9883C55.7568 18.0805 55.1202 16.573 55.1173 15.086C55.1055 11.9751 55.1158 8.86559 55.1128 5.75464Z" fill="#696969"/>
<path d="M73.4042 5.75473C76.6419 5.75768 79.8796 5.74736 83.1173 5.76063C84.1518 5.75326 85.2188 5.95073 86.1103 6.49452C87.3733 7.35073 87.7004 9.13241 87.223 10.5118C86.8884 11.4535 85.9998 12.0518 85.0891 12.3598C86.2828 12.625 87.4897 13.3354 87.9082 14.5467C88.4152 16.0735 88.1794 17.9524 86.9828 19.1034C86.1501 19.9817 84.871 20.1497 83.7215 20.1792C80.2819 20.1939 76.8438 20.1806 73.4057 20.1865C73.4028 15.3764 73.4042 10.5648 73.4042 5.75473ZM76.9308 8.2482C76.9293 9.30484 76.9293 10.3615 76.9308 11.4166C78.6948 11.4181 80.4573 11.4181 82.2213 11.4181C82.768 11.424 83.4017 11.3179 83.7362 10.8345C84.0737 10.3128 84.0767 9.61578 83.8556 9.04841C83.6213 8.46778 82.9552 8.24231 82.3745 8.25115C80.5604 8.24231 78.7449 8.25115 76.9308 8.2482ZM76.9308 13.9307C76.9293 15.1716 76.9293 16.4109 76.9308 17.6503C78.795 17.6503 80.6592 17.6533 82.5249 17.6503C83.1866 17.6518 83.9426 17.4749 84.3169 16.8752C84.672 16.2577 84.7015 15.4619 84.4421 14.8046C84.1828 14.1813 83.468 13.9352 82.8402 13.9366C80.8714 13.9234 78.9011 13.9352 76.9308 13.9307Z" fill="#696969"/>
<path d="M90.7893 5.75623C95.2088 5.75476 99.6284 5.75476 104.048 5.75623C104.048 6.62128 104.048 7.48634 104.048 8.35139C100.816 8.35286 97.5859 8.35139 94.3556 8.35286C94.3541 9.43455 94.3556 10.5177 94.3541 11.6009C97.4783 11.6023 100.601 11.6023 103.725 11.6009C103.727 12.4585 103.725 13.3177 103.725 14.1754C100.603 14.1754 97.4783 14.1739 94.3541 14.1769C94.3556 15.3204 94.3541 16.464 94.3556 17.6076C97.72 17.6105 101.086 17.6076 104.452 17.6091C104.45 18.4682 104.452 19.3274 104.45 20.1851C99.8966 20.1851 95.3429 20.1851 90.7893 20.1866C90.7878 15.3764 90.7878 10.5663 90.7893 5.75623Z" fill="#696969"/>
<path d="M107.044 8.30706C107.045 7.45674 107.043 6.60495 107.047 5.75464C111.688 5.75611 116.328 5.75464 120.969 5.75464C120.97 6.60495 120.967 7.45527 120.972 8.30411C117.699 11.3915 114.412 14.4641 111.138 17.5485C114.414 17.55 117.691 17.5485 120.969 17.55C120.969 18.4283 120.97 19.3066 120.969 20.1864C116.092 20.1835 111.216 20.1864 106.34 20.1835C106.34 19.3066 106.34 18.4298 106.338 17.553C109.607 14.47 112.883 11.393 116.151 8.31148C113.116 8.30706 110.08 8.3159 107.044 8.30706Z" fill="#696969"/>
<path d="M124.248 5.75485C125.437 5.75485 126.625 5.75485 127.814 5.75632C127.816 7.60874 127.813 9.46264 127.816 11.3165C130.676 11.3165 133.538 11.3165 136.398 11.3165C136.401 9.46264 136.398 7.60874 136.401 5.75632C137.599 5.75632 138.8 5.75042 140 5.75927V20.1734C138.8 20.1969 137.599 20.1807 136.4 20.1837C136.4 18.1191 136.401 16.0559 136.398 13.9913C133.538 13.9913 130.677 13.9913 127.816 13.9913C127.813 16.0559 127.816 18.1191 127.814 20.1837C126.626 20.1866 125.437 20.1837 124.249 20.1866C124.246 15.3751 124.248 10.565 124.248 5.75485Z" fill="#696969"/>
</svg>
