<svg width="140" height="36" viewBox="0 0 140 36" fill="none" xmlns="http://www.w3.org/2000/svg">
<path d="M9.81367 3.3673C13.1137 1.63045 16.729 0.577647 20.4031 0.0191824C22.2923 -0.0128826 24.1841 0.00315021 26.0759 0.0111664C29.7019 0.591008 33.2906 1.60105 36.5558 3.32454C36.2539 3.99791 35.9893 4.6873 35.7809 5.3954C39.3348 6.88108 42.8299 9.03745 44.874 12.4016C46.3143 14.7236 46.7124 17.6923 45.7558 20.2735C44.6362 23.3838 42.0683 25.7379 39.2867 27.3973C36.1657 29.2464 32.6493 30.3686 29.0767 30.9431C27.3185 32.7922 25.3224 34.4115 23.1313 35.7235C20.9749 34.3821 18.9762 32.7922 17.2233 30.9485C12.451 30.1576 7.68402 28.4421 4.00457 25.2169C1.95776 23.3945 0.33046 20.9282 0.049892 18.1519C-0.254725 15.4558 0.864876 12.773 2.60707 10.7556C4.71 8.27858 7.59317 6.62456 10.5485 5.36601C10.3427 4.68463 10.0916 4.01928 9.81367 3.3673ZM11.9754 4.49491C12.2052 5.50496 12.28 6.63258 11.6761 7.5304C11.2031 8.39081 10.2572 8.7836 9.34605 8.98935C9.73618 12.3588 10.4737 15.7016 11.7349 18.86C14.0195 24.7012 17.8272 30.0827 23.126 33.5458C25.0205 32.3273 26.76 30.871 28.2697 29.201C33.2638 23.643 36.1764 16.3883 36.9513 8.99469C36.2218 8.78093 35.4469 8.54311 34.9553 7.92052C34.1055 6.99064 33.996 5.61184 34.4075 4.46018C32.0961 3.39669 29.6512 2.62179 27.1341 2.23166C22.001 1.4247 16.6649 2.27976 11.9754 4.49491ZM1.08399 16.6662C1.96577 17.8553 3.51558 18.1626 4.81955 18.6703C4.44012 15.4104 5.55437 12.0703 7.68669 9.59591C7.64661 9.12295 7.59851 8.65 7.54774 8.17704C4.29583 9.84976 1.60237 12.9601 1.08399 16.6662ZM38.7737 8.06748C38.7175 8.57785 38.6668 9.08822 38.608 9.59858C40.6895 12.1077 41.8973 15.4104 41.4511 18.6863C42.7417 18.2027 44.0831 17.7538 45.1653 16.8613C44.8954 12.9788 41.9133 10.0047 38.7737 8.06748ZM7.46224 11.8405C6.15025 13.9835 5.58911 16.5834 6.03 19.0711C7.50232 19.504 8.96127 19.9956 10.471 20.2949C9.25787 17.4331 8.42419 14.4244 7.91916 11.3595C7.74548 11.5011 7.59317 11.6614 7.46224 11.8405ZM38.3595 11.3675C37.9266 14.4377 36.9887 17.4091 35.8664 20.2869C37.3575 19.9689 38.8111 19.5067 40.27 19.0658C40.4998 17.2995 40.4303 15.4585 39.749 13.7911C39.3829 12.9387 39.097 11.9821 38.3595 11.3675ZM41.2106 19.9582C40.4784 22.812 38.6614 25.3184 36.3394 27.098C36.0134 27.3465 35.65 27.5924 35.5698 28.0252C37.4536 27.229 39.276 26.2536 40.8686 24.963C42.9234 23.3117 44.703 21.0484 45.0424 18.363C43.7945 18.9642 42.5226 19.5147 41.2106 19.9582ZM1.21225 18.3603C1.44204 19.8006 2.04326 21.1607 2.89031 22.3444C4.87567 25.0432 7.83633 26.8549 10.9039 28.084C10.7916 27.8088 10.618 27.587 10.3801 27.4187C7.84434 25.6204 5.86434 22.983 5.0734 19.9556C3.75339 19.5013 2.46812 18.9642 1.21225 18.3603ZM6.33729 20.3724C7.78289 24.45 11.3929 27.4614 15.4063 28.8563C13.6962 26.593 12.2426 24.1561 11.0054 21.6042C9.42889 21.2756 7.89511 20.7705 6.33729 20.3724ZM35.3106 21.6016C34.2204 23.7232 33.1115 25.8528 31.6686 27.7607C31.4041 28.0974 31.1823 28.4635 31.0246 28.8616C34.9312 27.3358 38.5358 24.4553 39.9387 20.3831C38.3889 20.7732 36.8711 21.2702 35.3106 21.6016Z" fill="#696969"/>
<path d="M17.7417 9.75092C18.4766 9.35278 19.4252 9.6574 20.2348 9.65206C20.192 12.0462 20.2268 14.4431 20.2134 16.8373C20.1894 17.7511 20.4058 18.7211 21.0525 19.3998C21.8728 20.3404 23.3237 20.466 24.4246 20.001C25.6271 19.4693 26.1374 18.0611 26.1027 16.8239C26.092 14.411 26.1134 11.9981 26.0893 9.58526C26.9043 9.56388 27.7193 9.57456 28.5343 9.64404C28.4888 12.2199 28.5236 14.7931 28.5156 17.369C28.5263 18.9856 27.8636 20.6343 26.6024 21.6764C24.625 23.3785 21.3865 23.2903 19.4893 21.5081C18.2762 20.3885 17.7364 18.7184 17.7551 17.0965C17.7391 14.6488 17.7204 12.1985 17.7417 9.75092Z" fill="#696969"/>
<path d="M54.8248 11.0174C55.6959 11.0174 56.5644 11.0174 57.4355 11.0121C57.4194 13.0856 57.4274 15.1565 57.4301 17.23C57.8256 17.2327 58.2237 17.2354 58.6219 17.238C58.5845 15.405 58.8917 13.3609 60.3373 12.0783C61.791 10.7128 63.9473 10.6754 65.8151 10.9079C67.429 11.119 68.888 12.2413 69.4678 13.767C70.1733 15.4985 69.9568 17.4064 69.9835 19.2314C69.9862 20.9389 69.54 22.804 68.1612 23.9316C66.8599 25.0272 65.0509 25.126 63.4289 25.0138C61.8257 24.9443 60.2118 24.108 59.4288 22.6731C58.7581 21.5588 58.6406 20.2308 58.6165 18.9615C58.2184 18.9615 57.8229 18.9615 57.4248 18.9642C57.4275 20.9228 57.4275 22.8815 57.4275 24.8401C56.559 24.8401 55.6933 24.8401 54.8275 24.8401C54.8248 20.2308 54.8275 15.6241 54.8248 11.0174ZM63.5438 12.6822C62.5311 12.9307 61.7722 13.7937 61.5077 14.7851C61.0882 16.2333 61.2672 17.7591 61.2405 19.2474C61.2539 20.6637 61.6787 22.3765 63.0976 23.0071C64.3855 23.6484 66.1839 23.162 66.8198 21.8287C67.4584 20.5274 67.3783 19.039 67.3916 17.6308C67.3783 16.407 67.3916 15.1084 66.7958 13.9968C66.2026 12.8639 64.7543 12.3027 63.5438 12.6822Z" fill="#696969"/>
<path d="M71.3303 11.0122C72.2014 11.0176 73.0698 11.0176 73.9409 11.0176C73.9382 12.9521 73.9409 14.8867 73.9382 16.8213C75.8755 16.824 77.8101 16.824 79.7473 16.824C79.7473 14.8867 79.7447 12.9521 79.7473 11.0149C80.6131 11.0149 81.4815 11.0149 82.3473 11.0176C82.3499 15.6242 82.3473 20.2309 82.3499 24.8402C81.4815 24.8402 80.6131 24.8402 79.7473 24.8402C79.7473 22.7426 79.75 20.6477 79.7446 18.5501C77.8101 18.5528 75.8755 18.5528 73.9409 18.5501C73.9382 20.6477 73.9409 22.7426 73.9382 24.8402C73.0725 24.8402 72.204 24.8402 71.3383 24.8402C71.3329 20.2309 71.349 15.6215 71.3303 11.0122Z" fill="#696969"/>
<path d="M84.4849 11.0176C85.356 11.0176 86.2244 11.0176 87.0955 11.0122C87.0822 14.1679 87.0795 17.3237 87.0955 20.4794C88.966 17.3237 90.8525 14.1786 92.7202 11.0202C93.5833 11.0149 94.4518 11.0149 95.3175 11.0176C95.3148 15.6269 95.3175 20.2335 95.3148 24.8402C94.4491 24.8402 93.5807 24.8402 92.7149 24.8402C92.7096 21.7059 92.7283 18.5688 92.7069 15.4345C90.8391 18.5662 88.9767 21.7005 87.1196 24.8402C86.2405 24.8402 85.364 24.8402 84.4876 24.8402C84.4849 20.2309 84.4876 15.6242 84.4849 11.0176Z" fill="#696969"/>
<path d="M96.1833 11.0122C99.8333 11.0176 103.483 11.0202 107.133 11.0122C107.128 11.592 107.128 12.1692 107.133 12.7491C105.752 12.741 104.373 12.7464 102.994 12.7464C102.994 16.7759 102.994 20.808 102.994 24.8402C102.126 24.8402 101.26 24.8402 100.392 24.8402C100.392 20.808 100.394 16.7759 100.392 12.7464C98.989 12.7437 97.5861 12.741 96.1833 12.7491C96.186 12.1692 96.186 11.592 96.1833 11.0122Z" fill="#696969"/>
<path d="M108.205 11.0122C111.232 11.0176 114.26 11.0176 117.287 11.0122C117.282 11.592 117.282 12.1692 117.287 12.7491C115.128 12.741 112.972 12.7464 110.816 12.7464C110.813 14.1038 110.816 15.4639 110.813 16.8213C112.683 16.8266 114.554 16.824 116.424 16.824C116.424 17.3985 116.424 17.9756 116.427 18.5528C114.554 18.5528 112.686 18.5528 110.816 18.5501C110.813 20.0706 110.813 21.5936 110.816 23.114C112.996 23.106 115.176 23.1221 117.357 23.1034C117.351 23.6832 117.351 24.2604 117.351 24.8402C114.305 24.8402 111.259 24.8402 108.213 24.8402C108.208 20.2309 108.224 15.6215 108.205 11.0122Z" fill="#696969"/>
<path d="M119.941 12.1022C121.587 10.5871 124.061 10.6138 126.121 11.0494C128.152 11.525 129.261 13.6413 129.218 15.6106C128.347 15.6133 127.473 15.6106 126.602 15.6186C126.434 14.7662 126.362 13.7696 125.643 13.1683C124.414 12.0674 122.281 12.5671 121.504 13.9673C120.796 15.1457 120.852 16.5779 120.82 17.9006C120.841 19.3034 120.798 20.8185 121.568 22.053C122.402 23.4238 124.478 23.6883 125.688 22.6783C126.348 22.0396 126.426 21.0723 126.613 20.2253C127.481 20.2253 128.35 20.2253 129.218 20.228C129.191 21.6923 128.692 23.2822 127.425 24.1372C126.06 25.0938 124.304 25.1205 122.704 24.9976C121.063 24.8694 119.54 23.8139 118.864 22.3149C118.001 20.6154 118.265 18.6541 118.223 16.8211C118.177 15.1136 118.618 13.2726 119.941 12.1022Z" fill="#696969"/>
<path d="M129.05 11.0122C132.7 11.0202 136.35 11.0176 140 11.0122C139.995 11.592 139.995 12.1692 140 12.7491C138.619 12.741 137.24 12.7464 135.861 12.7464C135.858 16.7759 135.861 20.808 135.861 24.8402C134.993 24.8402 134.127 24.8402 133.258 24.8402C133.258 20.808 133.261 16.7786 133.258 12.7464C131.856 12.7437 130.453 12.741 129.05 12.7491C129.05 12.1692 129.053 11.592 129.05 11.0122Z" fill="#696969"/>
</svg>
