<svg width="140" height="39" viewBox="0 0 140 39" fill="none" xmlns="http://www.w3.org/2000/svg">
<path d="M119.4 0.00896984C120.345 -0.00278143 121.29 -0.000431339 122.237 0.00191892C121.113 6.35466 119.99 12.7097 118.869 19.0625C118.507 20.8792 118.298 22.7406 117.849 24.5292C116.921 24.5809 115.992 24.5245 115.066 24.5456C116.514 16.3667 117.959 8.18786 119.4 0.00896984Z" fill="#696969"/>
<path d="M114.267 2.85742C115.104 2.85977 115.943 2.85977 116.782 2.86212C115.633 9.23366 114.528 15.6099 113.393 21.9838C113.209 22.8275 113.165 23.7065 112.899 24.5291C112.077 24.5761 111.254 24.5268 110.431 24.5526C111.717 17.3209 112.991 10.0892 114.267 2.85742Z" fill="#696969"/>
<path d="M119.811 24.541C121.099 17.5513 122.27 10.5429 123.553 3.55322C124.594 3.59083 125.638 3.57908 126.679 3.57203C125.421 10.5664 124.235 17.5725 122.944 24.5598C121.901 24.5316 120.855 24.5457 119.811 24.541Z" fill="#696969"/>
<path d="M109.127 5.71997C109.858 5.72467 110.589 5.72467 111.32 5.72232C110.199 11.9881 109.075 18.2539 108.006 24.5291C107.266 24.5479 106.523 24.5502 105.785 24.5408C106.937 18.275 108.013 11.9928 109.127 5.71997Z" fill="#696969"/>
<path d="M127.659 7.15845C128.815 7.1655 129.974 7.16315 131.133 7.16315C130.065 12.9471 129.076 18.7476 128.04 24.5386C126.881 24.5456 125.722 24.5456 124.564 24.5386C125.645 18.7546 126.629 12.9518 127.659 7.15845Z" fill="#696969"/>
<path d="M103.98 8.60137C104.605 8.59197 105.228 8.59197 105.853 8.59432C104.875 13.913 103.994 19.248 103 24.5596C102.386 24.5455 101.775 24.5408 101.164 24.5432C102.119 19.2316 103.056 13.9177 103.98 8.60137Z" fill="#696969"/>
<path d="M131.802 10.7498C133.062 10.7568 134.319 10.7451 135.579 10.7592C134.801 14.7781 134.141 18.8205 133.41 22.8489C133.283 23.4059 133.29 24.0099 133.05 24.5317C131.814 24.5787 130.575 24.5199 129.339 24.5458C130.185 19.951 130.956 15.3445 131.802 10.7498Z" fill="#696969"/>
<path d="M96.532 24.5433C97.3335 20.186 98.0597 15.8145 98.8682 11.4595C99.3712 11.4642 99.8741 11.4665 100.377 11.4712C99.6038 15.8286 98.8376 20.1883 98.0621 24.5457C97.5521 24.5457 97.042 24.5433 96.532 24.5433Z" fill="#696969"/>
<path d="M93.7211 14.3407C94.1206 14.3384 94.5225 14.3384 94.9244 14.3384C94.2781 17.7392 93.7352 21.1588 93.0865 24.5596C92.6846 24.5502 92.2828 24.5408 91.8809 24.5338C92.5554 21.1471 93.0842 17.7345 93.7211 14.3407Z" fill="#696969"/>
<path d="M135.908 14.3503C137.271 14.3268 138.635 14.3409 140 14.3409C139.349 17.7393 138.825 21.1637 138.148 24.5551C136.799 24.5316 135.452 24.5457 134.108 24.5433C134.712 21.1472 135.325 17.7511 135.908 14.3503Z" fill="#696969"/>
<path d="M24.0431 28.2261C25.6177 27.7984 27.277 27.7514 28.8987 27.8266C29.961 27.9182 31.169 28.0969 31.8929 28.9688C32.7719 30.1392 32.1138 31.9513 30.8565 32.5553C30.4781 32.7292 30.0292 32.7715 29.7119 33.0653C30.33 33.2322 31.0468 33.3403 31.4487 33.8973C32.0504 34.6588 31.7825 35.7493 31.2724 36.4849C30.4898 37.6037 29.0914 38.0478 27.8011 38.2382C25.8904 38.4709 23.9326 38.3863 22.0688 37.8951C22.2404 37.0866 22.3814 36.2711 22.5295 35.4555C23.7986 35.8997 25.1571 36.2241 26.5085 36.0431C27.1383 35.9632 27.8387 35.5425 27.8763 34.8468C27.8458 34.3579 27.4039 34.0101 26.9456 33.9443C26.1465 33.8268 25.3357 33.8926 24.5343 33.8808C24.64 33.2674 24.7528 32.6564 24.8774 32.0476C25.8904 32.003 26.9973 32.2568 27.9398 31.7891C28.5415 31.5118 28.7036 30.527 27.9915 30.2803C26.5813 29.7961 25.0466 30.1839 23.6506 30.5505C23.7963 29.7773 23.9373 29.0041 24.0431 28.2261Z" fill="#696969"/>
<path d="M38.1563 27.9089C39.5712 27.6974 41.0871 27.735 42.408 28.339C43.5643 28.8631 44.3563 30.0477 44.448 31.3074C44.6383 33.4743 43.7711 35.7987 41.9849 37.1008C40.6617 38.0855 38.9672 38.4216 37.3455 38.3511C36.2197 38.3112 35.0329 38.062 34.1445 37.3264C33.3313 36.666 32.8847 35.6272 32.8542 34.5931C32.7743 32.7176 33.4441 30.7645 34.8354 29.4742C35.7426 28.6187 36.9342 28.1064 38.1563 27.9089ZM38.5794 30.1652C37.5664 30.5788 37.1951 31.7187 36.9906 32.7011C36.8379 33.5848 36.624 34.5484 36.9812 35.4086C37.3737 36.2406 38.5559 36.2805 39.2022 35.7329C39.9637 35.1125 40.2058 34.1019 40.3867 33.1806C40.5113 32.3603 40.6899 31.4555 40.3045 30.6799C39.9754 30.0806 39.1811 29.9255 38.5794 30.1652Z" fill="#696969"/>
<path d="M72.5171 28.877C74.5924 27.6267 77.1542 27.6149 79.4668 28.0709C79.3376 28.9099 79.1848 29.7443 79.0532 30.5833C77.8005 30.1861 76.3363 30.0216 75.1823 30.7784C73.8027 31.5798 73.0976 33.6175 74.0518 34.9783C75.0977 36.1652 76.8769 35.8455 78.2235 35.4554C78.0567 36.3038 77.918 37.157 77.73 38.0031C75.8286 38.4214 73.7557 38.6 71.9178 37.8244C70.7004 37.3215 69.7932 36.1558 69.6334 34.8443C69.3443 32.5246 70.5077 30.0827 72.5171 28.877Z" fill="#696969"/>
<path d="M96.6895 27.9419C98.1608 27.688 99.7472 27.7115 101.124 28.3437C102.267 28.8632 103.052 30.0312 103.155 31.2745C103.338 33.2769 102.629 35.411 101.11 36.7671C99.9399 37.8176 98.3582 38.3088 96.8047 38.3535C95.5449 38.3911 94.2076 38.2524 93.1336 37.5379C92.217 36.9386 91.6553 35.881 91.5777 34.7999C91.439 33.0114 92.0031 31.1453 93.2135 29.8056C94.116 28.8091 95.3757 28.1839 96.6895 27.9419ZM97.3123 30.1605C96.337 30.5295 95.9445 31.6106 95.733 32.546C95.5614 33.4861 95.3123 34.5132 95.7001 35.4321C96.0784 36.1959 97.1572 36.2735 97.8012 35.8152C98.6238 35.2394 98.8893 34.1982 99.0821 33.2722C99.2113 32.4802 99.357 31.6459 99.1056 30.8632C98.847 30.1581 97.9774 29.8855 97.3123 30.1605Z" fill="#696969"/>
<path d="M105.623 29.7702C107.719 27.6785 110.979 27.4975 113.729 28.0827C113.578 28.9171 113.419 29.7514 113.268 30.5857C111.985 30.1533 110.462 30.0311 109.303 30.8537C107.999 31.6998 107.327 33.721 108.333 35.0277C109.393 36.1582 111.125 35.8386 112.455 35.4578C112.241 36.2875 112.243 37.1853 111.933 37.9796C110.232 38.4332 108.384 38.5296 106.683 38.0243C105.376 37.6506 104.253 36.6024 103.952 35.2557C103.538 33.3026 104.231 31.1827 105.623 29.7702Z" fill="#696969"/>
<path d="M1.83555 27.9817C4.85798 27.9794 7.88041 27.9794 10.9052 27.9817C10.7618 28.7667 10.6208 29.5541 10.4845 30.3414C8.71945 30.3508 6.9544 30.332 5.18936 30.3485C5.07655 30.9102 4.96609 31.4695 4.86268 32.0336C6.52666 32.144 8.39276 31.6834 9.87577 32.6517C11.3094 33.6976 10.8958 35.9491 9.7089 37.0232C8.67479 37.9868 7.18943 38.1842 5.83098 38.1819C3.88732 38.1795 1.94366 38.1866 0 38.1795C0.662772 34.7904 1.20098 31.3755 1.83555 27.9817ZM4.45608 33.855C4.30567 34.6682 4.1576 35.4814 3.99778 36.2922C4.81097 36.2664 5.78633 36.4967 6.4397 35.8739C6.9027 35.4885 7.10482 34.7058 6.64652 34.2381C6.07306 33.6647 5.18231 33.8973 4.45608 33.855Z" fill="#696969"/>
<path d="M11.7043 38.1793C12.3577 34.7856 12.8935 31.3683 13.5398 27.9722C16.5012 27.991 19.4625 27.9745 22.4214 27.9816C22.2875 28.7172 22.1559 29.4528 22.0313 30.1885C20.325 30.2049 18.6211 30.1908 16.9148 30.1932C16.7926 30.776 16.6798 31.3612 16.5858 31.9511C18.2239 31.9511 19.862 31.9488 21.5025 31.9488C21.3709 32.6656 21.2393 33.3848 21.0983 34.0993C19.4719 34.0875 17.8455 34.0852 16.2215 34.0969C16.0946 34.7174 15.9817 35.3426 15.876 35.9677C17.6269 35.9701 19.3755 35.9654 21.1241 35.9677C20.9831 36.7034 20.8515 37.4437 20.7199 38.1817C17.7139 38.1793 14.7079 38.184 11.7043 38.1793Z" fill="#696969"/>
<path d="M46.5633 27.9865C50.0275 27.9724 53.4942 27.9818 56.9608 27.9818C56.3544 31.3803 55.7434 34.7741 55.1652 38.1749C53.9055 38.1913 52.6481 38.1749 51.3907 38.1866C51.8302 35.646 52.2979 33.1101 52.7303 30.5695C51.7761 30.5648 50.8219 30.5601 49.8677 30.5859C49.4259 33.1195 48.9652 35.6484 48.5328 38.1843C47.2754 38.1819 46.0157 38.1796 44.7559 38.1866C45.3717 34.7882 45.964 31.3873 46.5633 27.9865Z" fill="#696969"/>
<path d="M61.5649 27.9839C63.283 27.9933 65.001 27.9487 66.719 27.998C66.7496 28.0544 66.8107 28.1673 66.8412 28.2237C67.4382 31.5446 68.0305 34.8655 68.6321 38.1864C67.3019 38.1746 65.9716 38.1934 64.6414 38.1723C64.5027 37.0606 64.3547 35.949 64.1949 34.8396C63.9316 35.211 63.6754 35.5847 63.4146 35.9584C62.6225 35.9302 61.8305 35.9254 61.0385 35.9254C60.5919 36.6493 60.378 37.5354 59.8187 38.1746C58.5989 38.2146 57.3768 38.1582 56.157 38.1911C57.9996 34.8091 59.7529 31.3824 61.5649 27.9839ZM61.7764 33.7162C62.6437 33.7233 63.5133 33.7233 64.3829 33.7115C64.082 32.5105 64.129 31.2226 63.6707 30.0733C62.9962 31.2649 62.4392 32.5176 61.7764 33.7162Z" fill="#696969"/>
<path d="M80.8253 27.984C82.0804 27.977 83.3354 27.9817 84.5928 27.9793C84.3648 29.1803 84.1603 30.3836 83.9394 31.5823C84.9195 31.587 85.8995 31.5917 86.8796 31.5729C87.0747 30.3766 87.2979 29.185 87.5 27.9887C88.7574 27.9723 90.0148 27.9817 91.2722 27.9817C90.6705 31.3778 90.0548 34.7716 89.479 38.1724C88.2216 38.1935 86.9618 38.1747 85.7045 38.1865C85.923 36.9009 86.1675 35.62 86.379 34.3321C85.406 34.3297 84.433 34.3227 83.46 34.3462C83.2273 35.6247 83.0087 36.9056 82.7807 38.1841C81.5187 38.1818 80.2566 38.1818 78.9968 38.1818C79.6478 34.7904 80.2002 31.3801 80.8253 27.984Z" fill="#696969"/>
<path d="M114.462 27.9865C118.07 27.9748 121.677 27.9842 125.285 27.9818C125.118 28.9266 124.954 29.8738 124.775 30.8186C123.605 30.8233 122.434 30.8115 121.264 30.8256C120.782 33.2769 120.418 35.7541 119.924 38.2054C118.674 38.1631 117.426 38.1866 116.178 38.1866C116.636 35.74 117.04 33.2863 117.496 30.8397C116.314 30.7998 115.132 30.8256 113.95 30.8186C114.124 29.8761 114.293 28.9313 114.462 27.9865Z" fill="#696969"/>
<path d="M126.43 27.9841C127.685 27.9771 128.94 27.9771 130.195 27.9818C129.849 30.0312 129.407 32.0642 129.156 34.1277C130.653 32.2099 131.76 30.0171 133.1 27.9865C134.594 27.9747 136.087 27.9794 137.582 27.9818C136.975 31.3803 136.374 34.7787 135.781 38.1772C134.524 38.1866 133.267 38.1819 132.011 38.1842C132.195 37.0514 132.437 35.928 132.618 34.7952C132.648 34.5837 132.672 34.3698 132.691 34.1559C132.862 33.4955 132.98 32.821 133.034 32.1394C131.506 34.0008 130.503 36.2406 129.045 38.1513C127.572 38.2501 126.089 38.1443 124.611 38.1866C125.243 34.7905 125.812 31.3826 126.43 27.9841Z" fill="#696969"/>
<path d="M2.41138 24.5668C4.51486 20.6771 6.49377 16.7193 8.6419 12.8555C10.6114 12.9189 12.5856 12.8719 14.5575 12.8837C15.279 16.771 15.9371 20.6677 16.6774 24.5527C15.1545 24.5621 13.6338 24.5315 12.1109 24.5715C11.9017 23.3212 11.7466 22.0638 11.5797 20.8064C11.2718 21.1895 10.9969 21.5961 10.7242 22.0027C9.81703 21.9815 8.90983 21.9862 8.00263 21.9839C7.56549 22.83 7.15419 23.6901 6.7382 24.5456C5.29514 24.5644 3.85443 24.5362 2.41138 24.5668ZM8.86518 19.4197C9.82878 19.4315 10.7947 19.4291 11.7607 19.4244C11.4928 18.066 11.3776 16.6817 11.058 15.3373C10.1837 16.6135 9.65721 18.0918 8.86518 19.4197Z" fill="#696969"/>
<path d="M32.551 15.2387C34.6333 13.9813 37.2139 13.9625 39.536 14.4372C39.3809 15.2786 39.2304 16.12 39.0918 16.9661C37.8485 16.5384 36.3796 16.3926 35.228 17.1494C33.8484 17.9462 33.1456 19.9885 34.1069 21.3446C35.1621 22.5268 36.9295 22.1954 38.2809 21.8076C38.1023 22.6561 37.966 23.5116 37.7897 24.3624C35.9377 24.7901 33.9283 24.9546 32.1186 24.2636C30.8847 23.8006 29.9093 22.6866 29.6978 21.3775C29.3194 19.0108 30.4922 16.4725 32.551 15.2387Z" fill="#696969"/>
<path d="M19.2345 14.3268C21.197 14.3268 23.1594 14.3268 25.1219 14.3245C26.0855 14.3339 27.1126 14.4373 27.9257 15.0013C28.6355 15.4855 29.0727 16.3245 29.0821 17.1824C29.1408 18.9333 27.8905 20.5573 26.2759 21.152C24.8281 21.716 23.2487 21.4951 21.7352 21.5374C21.5472 22.548 21.3944 23.5657 21.1805 24.5692C19.9208 24.534 18.6587 24.5622 17.3966 24.5504C18.0641 21.152 18.6046 17.7323 19.2345 14.3268ZM22.5202 16.5149C22.3462 17.4597 22.1841 18.4069 22.0055 19.3517C22.8445 19.3258 23.7752 19.4645 24.5202 18.9897C25.1383 18.609 25.5073 17.6759 25.0373 17.0508C24.4004 16.3551 23.3592 16.5596 22.5202 16.5149Z" fill="#696969"/>
<path d="M40.9532 14.3339C43.9286 14.3151 46.9017 14.3362 49.8771 14.3245C49.7338 15.0624 49.6022 15.8051 49.4987 16.5502C47.776 16.5995 46.0509 16.5267 44.3282 16.5878C44.2365 17.1589 44.1355 17.73 44.0321 18.3011C45.6725 18.2987 47.313 18.3058 48.9535 18.294C48.8172 19.0156 48.6879 19.7371 48.5633 20.461C46.9276 20.4586 45.2941 20.4539 43.6631 20.4586C43.5385 21.0767 43.4304 21.6996 43.3411 22.3271C45.0873 22.3012 46.8359 22.3224 48.5821 22.313C48.4317 23.058 48.2978 23.8054 48.1615 24.5528C45.1578 24.5551 42.1519 24.5434 39.1459 24.5598C39.7616 21.1543 40.361 17.7441 40.9532 14.3339Z" fill="#696969"/>
<path d="M51.527 14.3362C52.7914 14.3151 54.0559 14.3339 55.3226 14.3245C55.0947 15.5301 54.8925 16.7405 54.6669 17.9462C55.6376 17.9415 56.6082 17.9439 57.5789 17.9415C57.8045 16.7382 57.9996 15.5278 58.2323 14.3245C59.492 14.3292 60.7541 14.3268 62.0138 14.3268C61.3745 17.7323 60.8081 21.1496 60.1877 24.5598C58.9209 24.5457 57.6517 24.5575 56.385 24.5504C56.6552 23.2695 56.8832 21.9816 57.0853 20.6913C56.1241 20.6937 55.1605 20.6937 54.1992 20.6913C53.9571 21.9722 53.7268 23.2554 53.5247 24.5434C52.2579 24.5669 50.9888 24.541 49.722 24.5598C50.3354 21.1543 50.9394 17.7464 51.527 14.3362Z" fill="#696969"/>
<path d="M66.719 14.322C68.4582 14.3314 70.1974 14.3244 71.9366 14.3267C72.5618 17.7346 73.1446 21.1495 73.7886 24.5527C72.456 24.5503 71.1211 24.5574 69.7885 24.548C69.6381 23.4387 69.4641 22.3317 69.3419 21.22C69.0764 21.582 68.8202 21.9509 68.5616 22.3176C67.7767 22.2964 66.9893 22.2988 66.2043 22.28C65.7813 23.0203 65.4358 23.8006 65.0457 24.5574C63.7883 24.548 62.5332 24.5527 61.2782 24.5574C63.142 21.173 64.8764 17.7181 66.719 14.322ZM68.7708 16.4702C68.148 17.6711 67.5675 18.8956 66.9118 20.0801C67.7767 20.0754 68.6439 20.0778 69.5111 20.0707C69.3302 19.1001 69.1727 18.1224 69.0481 17.1423C69.0317 16.8861 68.9612 16.6464 68.7708 16.4702Z" fill="#696969"/>
<path d="M77.7582 14.3292C80.837 14.3221 83.9182 14.3315 86.9971 14.3245C86.4024 17.7253 85.7561 21.1167 85.2179 24.5269C83.9441 24.5833 82.6679 24.5363 81.3917 24.5551C81.8758 22.0216 82.2918 19.4715 82.7595 16.9332C82.0333 16.9332 81.3071 16.9332 80.5809 16.9356C80.1179 19.0555 80.0638 21.3611 78.8863 23.2484C78.0496 24.5786 76.3433 24.8372 74.8979 24.7196C74.7311 23.8453 74.5807 22.9687 74.4067 22.0968C74.8744 22.1085 75.4103 22.179 75.7887 21.8312C76.5173 21.2154 76.6841 20.2095 76.8792 19.3258C77.1753 17.6595 77.4503 15.9908 77.7582 14.3292Z" fill="#696969"/>
</svg>
