<svg width="102" height="55" viewBox="0 0 102 55" fill="none" xmlns="http://www.w3.org/2000/svg">
<path d="M35.1089 2.32499C45.2114 -0.769616 56.2345 -0.781505 66.3335 2.32838C55.9253 2.32838 45.5171 2.33348 35.1089 2.32499Z" fill="#696969"/>
<path d="M30.1427 4.13033C30.3822 4.02673 30.6335 3.93841 30.9002 3.9503C44.1482 3.95709 57.3963 3.9486 70.6443 3.95369C70.8617 3.9503 71.0655 4.03013 71.2642 4.11165C72.5058 4.64157 73.7338 5.20716 74.9363 5.8271C58.7941 5.8271 42.6553 5.8271 26.5148 5.8254C27.702 5.21735 28.9147 4.65686 30.1427 4.13033Z" fill="#696969"/>
<path d="M41.3831 7.24207C44.2076 6.39284 47.1494 6.00559 50.0911 5.89519C53.714 5.84763 57.3334 6.39623 60.8033 7.4306C66.4592 7.48835 72.1219 7.42211 77.7795 7.46287C78.8495 7.94693 79.8007 8.69595 80.7977 9.32609C75.6904 9.32778 70.5831 9.32609 65.4741 9.32609C66.3811 9.78127 67.2728 10.267 68.1356 10.7987C68.3174 10.9311 68.5416 10.9617 68.7624 10.9532C73.5181 10.9481 78.2755 10.9532 83.0329 10.9515C83.8158 11.5579 84.5853 12.1829 85.3394 12.8249C80.5905 12.8283 75.8433 12.8232 71.096 12.8283C71.7618 13.3497 72.4107 13.8916 73.0459 14.4504C77.5672 14.447 82.0885 14.4571 86.6098 14.4453C86.8306 14.4673 87.1075 14.3875 87.2773 14.5811C87.8837 15.1399 88.4561 15.7361 89.0352 16.3238C84.3475 16.3272 79.6614 16.3221 74.9753 16.3272C75.4696 16.8571 75.952 17.3989 76.4224 17.9509C81.1255 17.9475 85.8285 17.9509 90.5333 17.9492C90.8033 18.26 91.0734 18.5742 91.3434 18.8867C91.0734 19.1993 90.8033 19.5135 90.5316 19.8243C85.8268 19.8226 81.1238 19.826 76.4207 19.8243C75.9502 20.3746 75.4696 20.9164 74.977 21.448C79.6631 21.4497 84.3492 21.448 89.0352 21.448C88.4187 22.0867 87.7869 22.7117 87.1448 23.3231C82.4486 23.3214 77.7523 23.3265 73.0561 23.3197C72.414 23.8751 71.7635 24.4203 71.096 24.9452C75.8433 24.9503 80.5905 24.9435 85.3394 24.9486C84.5853 25.5906 83.8158 26.2156 83.0329 26.822C78.2755 26.8203 73.5181 26.8254 68.7607 26.8186C68.5297 26.8033 68.3038 26.8542 68.1135 26.9884C67.2575 27.5149 66.3743 27.9939 65.4758 28.4457C70.5831 28.4474 75.6887 28.444 80.796 28.4474C79.9094 29.0453 79.016 29.6346 78.0971 30.1849C77.951 30.2817 77.7914 30.3276 77.6165 30.3208C72.5771 30.3208 67.5378 30.3208 62.4984 30.3208C61.7477 30.3446 60.9732 30.2223 60.2496 30.4788C57.1398 31.4435 53.8838 31.8104 50.6414 31.9055C54.305 31.9938 57.972 31.9208 61.6373 31.9445C66.072 31.9462 70.5067 31.9411 74.9414 31.9479C73.7219 32.5679 72.4837 33.1454 71.2234 33.677C70.7275 33.908 70.1653 33.801 69.6388 33.8213C57.0107 33.8196 44.3826 33.8179 31.7545 33.8213C31.2636 33.8027 30.7439 33.8978 30.2802 33.6957C29.0013 33.164 27.7461 32.5747 26.513 31.9462C33.9863 31.9428 41.4578 31.9462 48.9311 31.9445C49.5748 31.9411 50.2236 31.9921 50.8588 31.846C47.8525 31.8902 44.8463 31.4758 41.9453 30.6962C41.3797 30.5535 40.8277 30.3021 40.2332 30.3174C34.8593 30.3276 29.4853 30.3123 24.1114 30.3259C23.8787 30.3106 23.6223 30.3548 23.4184 30.2206C22.4758 29.6635 21.5654 29.0572 20.6567 28.4474C25.764 28.444 30.8713 28.4474 35.9786 28.4457C35.1769 28.0381 34.3769 27.622 33.6109 27.1481C33.3511 27.0037 33.0963 26.7897 32.7787 26.822C28.3593 26.8254 23.9399 26.8186 19.5205 26.8237C19.1468 26.8152 18.7646 26.8576 18.3978 26.7829C17.5978 26.2207 16.8658 25.5685 16.115 24.9469C20.8622 24.9452 25.6112 24.9486 30.3584 24.9452C29.696 24.4237 29.0438 23.8887 28.417 23.3265C23.7106 23.3163 19.0058 23.3299 14.3011 23.3197C13.6642 22.7049 13.0323 22.0866 12.4175 21.4497C17.1035 21.4446 21.7913 21.4514 26.4774 21.448C25.9746 20.9147 25.5025 20.3559 25.0099 19.8158C20.3136 19.8362 15.6157 19.8192 10.9194 19.8243C10.6494 19.5118 10.3793 19.1993 10.111 18.8867C10.3793 18.5742 10.6477 18.2634 10.916 17.9509C15.6259 17.9441 20.3357 17.9577 25.0456 17.9441C25.5041 17.387 25.9882 16.8537 26.4774 16.3255C21.7913 16.3238 17.1052 16.3272 12.4175 16.3238C13.0357 15.6851 13.6658 15.0601 14.3113 14.4487C19.0075 14.4521 23.7038 14.447 28.4 14.4521C29.0421 13.8967 29.6909 13.3497 30.3584 12.8266C25.6112 12.8249 20.8622 12.8266 16.115 12.8266C16.7503 12.2865 17.3923 11.7549 18.0462 11.2386C18.2262 11.1095 18.4029 10.9209 18.6474 10.9532C23.3556 10.9481 28.0637 10.9515 32.7719 10.9532C33.0776 10.9821 33.3256 10.7885 33.5753 10.6458C34.3532 10.1651 35.165 9.74051 35.9803 9.32609C30.8713 9.32609 25.764 9.32778 20.6567 9.32609C21.6215 8.69256 22.5675 8.01827 23.5883 7.47476C29.2 7.41701 34.8168 7.47306 40.432 7.44758C40.7581 7.44079 41.0706 7.33209 41.3831 7.24207ZM40.2553 9.89677C35.1888 11.6836 30.6352 14.8376 27.1109 18.885C31.7341 24.2301 38.1985 27.9582 45.1673 29.1811C51.3548 30.2987 57.8769 29.514 63.6024 26.9069C67.711 25.0573 71.3831 22.2786 74.3435 18.8867C70.7377 14.7425 66.0482 11.5392 60.8424 9.77278C54.2252 7.49853 46.8437 7.5427 40.2553 9.89677Z" fill="#696969"/>
<path d="M37.7094 24.7667C39.3416 17.842 44.279 11.8142 50.7264 8.81641C57.1755 11.8142 62.1129 17.842 63.7434 24.7667C61.3061 25.9726 58.699 26.8303 56.0256 27.3297C57.1466 26.0728 57.8497 24.4389 57.9024 22.7489C58.023 20.4016 56.868 18.0493 54.9692 16.6735C53.1314 15.3062 50.6177 14.9054 48.4504 15.6544C46.3579 16.3423 44.6391 18.0493 43.9325 20.1367C43.0629 22.5723 43.6862 25.4274 45.4272 27.328C42.7538 26.832 40.1483 25.9726 37.7094 24.7667Z" fill="#696969"/>
<path d="M49.6665 17.0829C52.3959 16.4766 55.353 18.3228 56.0222 21.0335C56.7474 23.5099 55.4277 26.3565 53.0821 27.4215C50.8215 28.5458 47.8542 27.8257 46.363 25.7909C44.7987 23.8139 44.8904 20.7618 46.5719 18.885C47.3651 17.961 48.4725 17.3139 49.6665 17.0829Z" fill="#696969"/>
<path d="M35.1175 35.4434C45.524 35.4434 55.9288 35.4434 66.3353 35.4434C56.2379 38.5515 45.2149 38.5499 35.1175 35.4434Z" fill="#696969"/>
<path d="M41.9045 44.9393C43.7253 43.4634 46.4836 43.3037 48.4606 44.5657C48.4453 45.6289 48.4793 46.6905 48.4368 47.7537C47.6487 46.9299 46.5668 46.1707 45.3626 46.4357C43.7457 46.7142 42.9695 48.591 43.2497 50.0738C43.3941 51.4631 44.8208 52.4992 46.183 52.2971C47.0662 52.2105 47.7846 51.6432 48.4368 51.0929C48.4793 52.1306 48.447 53.1718 48.4606 54.2113C46.1694 55.5836 42.8812 55.1437 41.1572 53.0563C40.0379 51.7264 39.8273 49.8683 40.0583 48.2004C40.2197 46.9282 40.8583 45.7037 41.9045 44.9393Z" fill="#696969"/>
<path d="M51.7064 45.0687C53.7683 43.2428 57.1024 43.3209 59.2289 44.9939C59.2272 45.3931 59.2272 45.7922 59.2306 46.1931C58.0349 45.0432 56.3534 44.3604 54.6838 44.6237C52.7679 44.8479 51.3956 46.6143 51.027 48.4113C50.6669 50.2439 51.4176 52.2481 52.9004 53.3844C54.8367 54.7686 57.5848 54.1011 59.2306 52.564C59.2272 52.9597 59.2255 53.3589 59.2272 53.7563C57.5797 54.9435 55.3717 55.2883 53.4354 54.6922C52.0902 54.2777 51.0338 53.206 50.4257 51.961C49.3642 49.7242 49.7107 46.6822 51.7064 45.0687Z" fill="#696969"/>
<path d="M3.79267 44.0256C5.05293 44.0222 6.31319 44.0239 7.57176 44.0239C8.83202 47.5787 10.0906 51.1319 11.3491 54.6868C10.2316 54.6885 9.11396 54.6885 7.99807 54.6868C7.80445 54.072 7.61082 53.4588 7.41889 52.844C6.26054 52.844 5.10389 52.844 3.94553 52.8457C3.74851 53.4588 3.54979 54.0737 3.35107 54.6868C2.23518 54.6868 1.11759 54.6885 0 54.6868C1.26366 51.1319 2.52901 47.5787 3.79267 44.0256ZM5.68136 46.738C5.30261 47.9915 4.92045 49.2432 4.5417 50.4967C5.30261 50.4984 6.06182 50.4984 6.82273 50.4967C6.44398 49.2432 6.06522 47.9898 5.68136 46.738Z" fill="#696969"/>
<path d="M12.2035 44.024C13.8476 44.0291 15.4934 44.0122 17.1375 44.0325C18.0955 44.0495 19.1043 44.3332 19.7481 45.0856C21.1697 46.5123 21.0253 49.1211 19.4576 50.3848C18.3264 51.3716 16.7248 51.1406 15.3405 51.1695C15.3405 52.3414 15.3422 53.5134 15.3405 54.687C14.2943 54.6887 13.248 54.6887 12.2035 54.687C12.2018 51.1321 12.2018 47.5789 12.2035 44.024ZM15.3405 46.3679C15.3405 47.1866 15.3405 48.0052 15.3405 48.8256C15.8603 48.8035 16.4157 48.8868 16.9031 48.6626C17.7507 48.2702 17.7099 46.8265 16.8352 46.4902C16.3562 46.3255 15.8382 46.3798 15.3405 46.3679Z" fill="#696969"/>
<path d="M22.1191 44.0239C24.3016 44.0239 26.4858 44.0239 28.6684 44.0239C28.6701 44.8766 28.6701 45.7292 28.6701 46.5835C27.5321 46.5852 26.3941 46.5801 25.2578 46.5869C25.2578 49.2858 25.2578 51.9863 25.2578 54.6869C24.2116 54.6886 23.1653 54.6886 22.1191 54.6869C22.1174 51.132 22.1174 47.5788 22.1191 44.0239Z" fill="#696969"/>
<path d="M28.8841 44.0239C30.107 44.0222 31.3299 44.0239 32.5528 44.0222C33.222 45.4523 33.881 46.8858 34.5502 48.3159C35.0988 46.8858 35.644 45.4523 36.196 44.0222C37.3272 44.0239 38.4583 44.0222 39.5895 44.0239C37.9913 47.5788 36.3947 51.1354 34.7914 54.6886C33.6755 54.6869 32.5579 54.6886 31.442 54.6869C31.9226 53.7069 32.4067 52.7269 32.8874 51.7468C31.5541 49.172 30.2174 46.5988 28.8841 44.0239Z" fill="#696969"/>
<path d="M60.9935 44.0239C63.7298 44.0239 66.4677 44.0222 69.2039 44.0239C69.2039 47.5788 69.2073 51.1337 69.2039 54.6886C68.8574 54.6869 68.5126 54.6869 68.1678 54.6869C68.1678 51.4174 68.1678 48.1478 68.1678 44.8783C66.1229 44.8766 64.0762 44.8783 62.0296 44.8783C62.0296 48.1478 62.0313 51.4174 62.0296 54.6869C61.6831 54.6869 61.3383 54.6869 60.9935 54.6869C60.9935 51.1337 60.9935 47.5788 60.9935 44.0239Z" fill="#696969"/>
<path d="M71.8858 44.0239C73.7898 44.0239 75.6938 44.0239 77.5977 44.0239C77.5977 44.3076 77.5977 44.5912 77.5977 44.8783C76.0402 44.8783 74.4811 44.8766 72.9219 44.8783C72.9219 46.0145 72.9202 47.1525 72.9236 48.2888C74.425 48.2888 75.9281 48.2888 77.4296 48.2888C77.4313 48.5724 77.4296 48.8561 77.4313 49.1414C75.9281 49.1431 74.425 49.1414 72.9236 49.1431C72.9219 50.7057 72.9219 52.2683 72.9219 53.8326C74.4811 53.836 76.0402 53.8326 77.5977 53.8343C77.5977 54.1179 77.5977 54.4015 77.5977 54.6869C75.6938 54.6886 73.7898 54.6886 71.8858 54.6869C71.8841 51.132 71.8841 47.5788 71.8858 44.0239Z" fill="#696969"/>
<path d="M79.7922 44.0239C80.1353 44.0239 80.4817 44.0239 80.8265 44.0239C80.8299 45.6714 80.8265 47.3206 80.8299 48.9698C82.4299 47.324 84.0044 45.6527 85.6145 44.0171C86.034 44.0239 86.4518 44.0239 86.8731 44.0256C85.1899 45.7478 83.5033 47.4667 81.8201 49.1889C83.539 51.0216 85.2612 52.8508 86.9801 54.6868C86.5181 54.6868 86.0578 54.6868 85.5975 54.6885C84.0061 52.9646 82.4214 51.2356 80.8299 49.5133C80.8265 51.239 80.8299 52.9629 80.8282 54.6868C80.4817 54.6868 80.137 54.6868 79.7922 54.6868C79.7905 51.1337 79.7905 47.5788 79.7922 44.0239Z" fill="#696969"/>
<path d="M87.3181 44.0239C89.5617 44.0239 91.8054 44.0239 94.0491 44.0239C94.0491 44.3076 94.0491 44.5912 94.0508 44.8766C93.1014 44.8783 92.1519 44.8783 91.2025 44.8766C91.2008 48.1478 91.2025 51.4173 91.2008 54.6869C90.856 54.6869 90.5095 54.6869 90.1664 54.6869C90.163 51.4173 90.1664 48.1478 90.1647 44.8766C89.2153 44.8783 88.2658 44.8783 87.3164 44.8766C87.3147 44.5912 87.3164 44.3076 87.3181 44.0239Z" fill="#696969"/>
<path d="M95.5573 44.0256C96.7428 44.0391 97.9301 43.9865 99.1139 44.0544C100.235 44.1207 101.454 44.8442 101.64 46.0297C101.809 47.0607 101.75 48.3515 100.811 49.0122C99.6166 49.96 98.0014 49.6033 96.5951 49.6763C96.5934 51.3459 96.5951 53.0172 96.5934 54.6868C96.2469 54.6868 95.9021 54.6868 95.559 54.6868C95.5573 51.1336 95.5573 47.5787 95.5573 44.0256ZM96.5951 44.8782C96.5917 46.1911 96.5951 47.5057 96.5934 48.8203C97.3866 48.8101 98.1814 48.856 98.9729 48.7881C99.6812 48.7337 100.398 48.2547 100.564 47.5363C100.763 46.704 100.646 45.6238 99.8069 45.1839C98.8252 44.6608 97.6583 44.9546 96.5951 44.8782Z" fill="#696969"/>
</svg>
