<svg width="140" height="27" viewBox="0 0 140 27" fill="none" xmlns="http://www.w3.org/2000/svg">
<path d="M29.7836 0C34.4164 0.503336 39.1343 1.41785 43.2283 3.75375C45.0326 4.82423 46.8439 6.27398 47.4606 8.36885C47.9923 10.0596 47.3047 11.8922 46.1881 13.186C44.4406 15.2312 41.9629 16.4541 39.5278 17.4785C35.7102 18.9283 31.6623 19.7471 27.593 20.0342C26.9904 22.1681 26.3099 24.2771 25.7108 26.411C24.4489 26.4181 23.1835 26.4181 21.9181 26.4039C24.5234 17.5955 27.157 8.79775 29.7836 0ZM32.1656 4.6151C30.7088 9.71935 29.1279 14.7917 27.6746 19.8995C31.8997 19.4954 36.1675 18.5774 39.9106 16.5108C41.6333 15.5148 43.441 14.058 43.6643 11.9418C43.7671 10.1376 42.367 8.72686 40.9988 7.76981C38.351 6.04713 35.2494 5.16806 32.1656 4.6151Z" fill="#696969"/>
<path d="M20.3194 5.36646C21.7904 5.37354 23.265 5.37 24.7396 5.38772C22.6801 12.399 20.5215 19.3783 18.4939 26.3967C17.271 26.4215 16.0517 26.4215 14.8323 26.4286C14.9458 25.6523 15.0592 24.8796 15.1655 24.1033C13.6555 23.8339 12.1562 23.5185 10.6426 23.2916C9.98685 24.3195 9.34882 25.3581 8.70724 26.3931C8.29252 26.4073 7.8778 26.425 7.46308 26.4428C8.14364 25.2589 8.84548 24.0891 9.51896 22.9052C6.28626 21.7851 2.71683 20.5162 0.767288 17.4997C-0.569034 15.5147 -0.0727888 12.7605 1.58255 11.1194C3.38322 9.31516 5.6376 7.79098 8.16137 7.27701C7.09798 8.63105 5.35403 9.31871 4.48914 10.85C3.64552 12.1757 3.85111 14.0118 4.91095 15.1567C6.71162 17.2551 9.44452 18.1413 12.0037 18.9175C14.8146 14.4265 17.5582 9.89294 20.3194 5.36646ZM13.1699 19.2153C14.3113 19.4563 15.4633 19.63 16.6259 19.7434C17.7637 15.8337 18.9087 11.9275 20.0394 8.01783C17.7496 11.7503 15.4101 15.4544 13.1699 19.2153Z" fill="#696969"/>
<path d="M109.25 5.7351C111.771 5.18568 114.585 5.30265 116.807 6.73468C118.676 7.91149 119.643 10.1517 119.711 12.3033C119.845 16.3193 118.13 20.2893 115.319 23.125C113.118 25.2589 110.105 26.6874 106.985 26.4676C104.394 26.6519 101.601 25.6133 100.219 23.3164C98.5421 20.6615 98.9426 17.2977 99.9067 14.462C101.271 10.212 104.837 6.68151 109.25 5.7351ZM109.605 9.31162C106.039 10.1588 104.05 13.8558 103.671 17.2622C103.494 19.07 103.671 21.3881 105.447 22.3771C107.496 23.3838 110.098 22.8343 111.788 21.3633C114.004 19.4882 115.074 16.5639 115.248 13.7282C115.276 12.399 114.957 10.9067 113.869 10.0383C112.682 9.08831 111.037 9.06349 109.605 9.31162Z" fill="#696969"/>
<path d="M52.6854 7.27718C53.0895 6.73485 53.3624 5.83452 54.1777 5.85933C55.6097 5.75654 57.0453 5.8487 58.4773 5.85579C59.2146 12.6544 60.2531 19.4211 60.9089 26.2303C59.4095 26.2338 57.9101 26.2267 56.4143 26.2232C56.2265 24.816 56.0811 23.4052 55.9464 21.9944C53.3978 21.9555 50.8457 21.959 48.2971 21.9838C47.5457 23.4052 46.7588 24.8089 45.9967 26.2232C44.5008 26.2338 43.005 26.2409 41.5092 26.1948C45.185 19.8606 49.0061 13.6114 52.6854 7.27718ZM50.3495 18.5136C52.0792 18.5243 53.809 18.5172 55.5388 18.5172C55.3616 15.9261 55.1099 13.3385 54.8405 10.758C53.171 13.2392 51.8878 15.9544 50.3495 18.5136Z" fill="#696969"/>
<path d="M66.91 5.84148C70.3518 5.83793 73.7901 5.80603 77.2319 5.85566C78.7313 5.90528 80.4575 6.10732 81.4606 7.36921C82.7332 8.9572 82.485 11.2222 81.7478 12.991C81.1487 14.5223 79.7415 15.5006 78.3804 16.3052C79.0503 17.0708 79.9613 17.9109 79.7521 19.0381C79.4827 21.4449 78.6639 23.795 78.8766 26.2443C77.3843 26.2195 75.892 26.2301 74.3997 26.223C74.343 24.0289 75.0874 21.927 75.215 19.7541C75.3213 18.8431 74.4317 18.3363 73.6483 18.2654C71.8866 18.0456 70.1037 18.1838 68.3314 18.1803C67.7323 20.8636 67.0766 23.5291 66.4882 26.2124C65.0809 26.2301 63.6702 26.2266 62.263 26.223C63.6773 19.3997 65.407 12.6471 66.91 5.84148ZM70.3341 9.56687C69.9583 11.2612 69.5613 12.9555 69.1502 14.6428C71.0997 14.6321 73.0563 14.7491 74.9988 14.5506C76.126 14.4336 77.2425 13.7318 77.5438 12.5869C77.8664 11.6724 78.0365 10.1943 76.8633 9.83627C74.74 9.29748 72.5034 9.64131 70.3341 9.56687Z" fill="#696969"/>
<path d="M84.0197 5.84146C89.5564 5.82019 95.0931 5.83792 100.63 5.83083C100.396 7.07499 100.112 8.31206 99.8393 9.54559C97.787 9.55622 95.7382 9.54913 93.6894 9.5704C92.3673 15.1248 91.1586 20.7041 89.7655 26.2408C88.3548 26.223 86.944 26.2337 85.5368 26.223C86.7881 20.6651 88.1705 15.1355 89.3721 9.56685C87.3233 9.5385 85.2745 9.55977 83.2257 9.54914C83.4738 8.31206 83.7539 7.07853 84.0197 5.84146Z" fill="#696969"/>
<path d="M123.255 5.83449C124.68 5.83449 126.105 5.83095 127.534 5.82031C129.203 10.5098 130.89 15.1958 132.659 19.8499C133.893 15.21 134.85 10.4992 135.977 5.83095C137.317 5.83449 138.657 5.83094 140 5.82386C138.568 12.6508 136.842 19.4139 135.346 26.2267C134.063 26.2196 132.773 26.3082 131.496 26.1735C131.068 25.9502 130.997 25.4114 130.791 25.0215C129.139 20.7538 127.672 16.4116 125.889 12.1971C124.751 16.8618 123.73 21.5549 122.628 26.2302C121.281 26.2338 119.937 26.2373 118.594 26.2232C120.047 19.4033 121.735 12.6366 123.255 5.83449Z" fill="#696969"/>
</svg>
