<svg width="140" height="33" viewBox="0 0 140 33" fill="none" xmlns="http://www.w3.org/2000/svg">
<path d="M126.627 0.0148369C127.262 -0.059831 127.848 0.152506 128.345 0.535179C128.9 0.18284 129.488 -0.0994984 130.169 0.0498374C129.889 0.831517 129.301 1.71353 128.345 1.57586C127.416 1.66686 126.851 0.796517 126.627 0.0148369Z" fill="#696969"/>
<path d="M57.0743 2.06816C57.247 1.97482 57.422 1.88149 57.597 1.78815C57.8793 1.79748 58.164 1.80448 58.4487 1.81382C58.5537 3.29551 58.465 4.77953 58.5117 6.26356C59.4753 4.79353 60.054 3.08084 61.2044 1.73682C61.622 1.79748 62.0397 1.86282 62.4551 1.93749C62.4714 4.08652 62.4761 6.23322 62.4527 8.37993C62.0467 8.42659 61.6384 8.4616 61.2347 8.4966C61.1414 6.9939 61.209 5.48655 61.1857 3.98385C60.376 5.32088 59.683 6.72557 58.8733 8.06259C58.5163 8.75093 57.6576 8.37759 57.065 8.31226C57.0813 6.23089 57.0673 4.14952 57.0743 2.06816Z" fill="#696969"/>
<path d="M67.3901 1.79983C68.8462 1.87917 70.3325 1.63416 71.7652 1.9795C71.7489 2.36917 71.7349 2.75885 71.7209 3.15085C70.6545 3.17652 69.5882 3.16719 68.5218 3.17652C68.5218 3.57319 68.5218 3.96987 68.5218 4.36654C69.3292 4.39454 70.1552 4.28721 70.9485 4.46688C72.0989 4.73521 72.8526 6.24024 72.2062 7.27859C71.8492 8.01827 71.0489 8.43128 70.2485 8.44994C69.2008 8.50128 68.1415 8.50361 67.1055 8.32861C67.1195 6.30091 67.1218 4.27554 67.1055 2.25017C67.1755 2.13817 67.3178 1.91183 67.3901 1.79983ZM68.5195 5.6919C68.5218 6.16557 68.5242 6.63925 68.5265 7.11292C69.2172 7.11525 69.9079 7.12225 70.6009 7.13392C71.0605 6.74891 71.0302 6.2169 70.7922 5.71523C70.0339 5.68956 69.2778 5.68723 68.5195 5.6919Z" fill="#696969"/>
<path d="M76.6513 1.99129C77.1039 1.89562 77.5613 1.81628 78.021 1.75562C78.1143 3.28397 78.0326 4.81467 78.077 6.34303C78.9193 4.81233 79.659 3.21864 80.674 1.79528C81.1173 1.80228 81.563 1.80695 82.0087 1.81162C82.0904 4.02365 82.074 6.24269 82.018 8.45706C81.6237 8.46173 81.2317 8.46873 80.8397 8.47573C80.5643 7.08737 80.6577 5.66168 80.8163 4.26632C80.7347 4.28966 80.5737 4.33866 80.4943 4.36432C79.939 5.46801 79.3183 6.53436 78.7256 7.61705C78.5226 7.92972 78.3756 8.34273 77.986 8.46173C77.5356 8.49206 77.0946 8.39173 76.6559 8.32406C76.6629 6.21236 76.6676 4.10299 76.6513 1.99129Z" fill="#696969"/>
<path d="M109.466 2.11009C109.928 1.65042 110.63 1.84176 111.213 1.76709C111.197 1.95609 111.183 2.1451 111.169 2.33643C110.453 2.98978 109.741 3.65712 109.111 4.39447C108.88 4.60447 109.095 4.91481 109.228 5.10848C109.991 6.17716 110.791 7.21785 111.54 8.2982C111.036 8.37753 110.534 8.46854 110.028 8.5362C109.172 7.63319 108.591 6.52017 107.79 5.57049C107.26 6.4455 107.48 7.48385 107.417 8.4522C106.959 8.4592 106.504 8.46387 106.049 8.4662C105.965 6.2845 106.024 4.10046 106.014 1.91643C106.493 1.79742 106.976 1.86509 107.449 1.97709C107.438 2.74711 107.435 3.51479 107.449 4.2848C108.131 3.56845 108.733 2.77744 109.466 2.11009Z" fill="#696969"/>
<path d="M115.621 1.80211C116.067 1.80678 116.512 1.81145 116.96 1.82078C117.012 3.31647 116.96 4.8145 116.998 6.31019C117.798 4.7795 118.559 3.21847 119.525 1.78345C119.994 1.79745 120.467 1.81145 120.939 1.82545C121.009 3.99548 120.943 6.16552 120.978 8.33556C120.514 8.39156 120.045 8.41722 119.581 8.35656C119.581 6.90287 119.597 5.44917 119.581 3.99782C118.925 5.2345 118.253 6.46186 117.579 7.68921C117.399 7.97155 117.247 8.30522 116.93 8.45689C116.475 8.49189 116.022 8.42422 115.574 8.36589C115.591 6.17719 115.514 3.98848 115.621 1.80211Z" fill="#696969"/>
<path d="M46.7538 4.90792C46.7375 3.48923 47.7898 2.37155 48.9775 1.7532C49.7288 1.74154 50.5409 1.62253 51.2292 2.00754C51.9525 2.32255 52.4192 2.98756 52.8532 3.61523C52.8392 3.7249 52.8136 3.94424 52.8019 4.05391C52.3959 4.05157 51.9899 4.04691 51.5839 4.03991C51.1405 3.51956 50.5689 3.14623 49.9295 2.91055C49.3415 3.15323 48.6555 3.3819 48.3848 4.01424C47.7711 5.15293 48.2542 7.02896 49.6938 7.19463C50.4919 7.3533 51.0519 6.71628 51.5255 6.18661C51.9922 6.19361 52.4612 6.20761 52.9279 6.22628C52.4939 7.5003 51.3482 8.58765 49.9342 8.51765C48.0488 8.60632 46.5485 6.72095 46.7538 4.90792Z" fill="#696969"/>
<path d="M95.7569 6.06772C95.0546 4.08202 96.7649 1.55031 98.9326 1.71598C100.244 1.73465 101.567 2.71466 101.719 4.07269C101.243 3.99802 100.652 4.19402 100.272 3.82068C99.817 3.40067 99.2803 3.09967 98.6946 2.906C98.088 3.20934 97.3809 3.53834 97.1919 4.25936C96.6063 5.44704 97.4533 7.33941 98.9186 7.1994C99.579 7.22507 99.9827 6.64873 100.382 6.21706C100.83 6.20072 101.28 6.19605 101.73 6.19605C101.436 7.84108 99.5743 8.9051 97.9923 8.41743C96.9073 8.10009 96.0346 7.1574 95.7569 6.06772Z" fill="#696969"/>
<path d="M125.617 2.00284C125.906 1.91651 126.196 1.83251 126.49 1.75317C126.625 1.83484 126.893 2.00284 127.026 2.08685C127.038 3.4892 126.996 4.89156 127.05 6.29392C127.719 4.81456 128.604 3.4472 129.292 1.97718C129.857 1.93984 130.424 1.93051 130.991 1.93051C131.014 4.06788 130.986 6.20525 131.01 8.34495C130.541 8.42195 130.065 8.43128 129.596 8.36362C129.6 7.05926 129.584 5.75491 129.619 4.45055C129.53 4.47389 129.353 4.52055 129.264 4.54389C128.622 5.87858 127.862 7.15026 127.162 8.45229C126.66 8.45929 126.158 8.46162 125.657 8.46162C125.575 6.31025 125.643 4.15655 125.617 2.00284Z" fill="#696969"/>
<path d="M86.7035 1.9516C87.7418 1.9306 88.7802 1.8886 89.8162 1.94693C90.8429 1.9586 91.7295 2.94562 91.6432 3.96997C91.6945 4.75865 91.2582 5.54966 90.5582 5.91833C89.7905 6.27534 88.9272 6.14934 88.1105 6.168C88.1105 6.89835 88.1128 7.62636 88.1035 8.35671C87.6368 8.36137 87.1701 8.36137 86.7058 8.35437C86.6965 6.21934 86.6988 4.0843 86.7035 1.9516ZM88.1035 4.83331C88.7078 4.82631 89.3192 4.87298 89.9212 4.77265C90.3785 4.47164 90.1522 3.85096 90.2152 3.39129C89.5315 3.19062 88.8175 3.16962 88.1105 3.17895C88.1081 3.72963 88.1058 4.28264 88.1035 4.83331Z" fill="#696969"/>
<path d="M72.1129 15.4198C75.1019 14.4421 78.665 15.7091 80.3263 18.3925C80.8304 19.1649 81.1267 20.0469 81.388 20.9242C80.1117 21.1739 78.8097 21.0152 77.5193 21.0899C76.824 20.2149 76.1916 19.1182 75.0156 18.8499C73.7556 18.5068 72.3929 19.0085 71.6159 20.0422C70.0968 21.9019 70.1948 24.884 71.8842 26.6037C73.0346 27.8053 75.1906 27.8543 76.3759 26.676C76.7773 26.2956 77.02 25.7916 77.2836 25.318C78.644 25.2223 80.0113 25.2503 81.374 25.2993C80.9914 26.7717 80.2937 28.1903 79.1643 29.2334C77.2533 31.1071 74.2386 31.6927 71.7419 30.7664C69.0702 29.8214 67.1661 27.2383 66.7695 24.4686C66.5268 23.3183 66.7158 22.1492 66.9025 21.0106C67.6305 18.4695 69.5018 16.1501 72.1129 15.4198Z" fill="#696969"/>
<path d="M53.9825 15.4922C56.2879 15.5109 58.5956 15.4782 60.901 15.5062C62.6067 15.5155 64.303 16.4395 65.1291 17.9516C65.7964 19.1112 65.8384 20.5066 65.6727 21.8016C65.3344 23.8177 63.6147 25.4744 61.5963 25.7614C60.3293 25.9014 59.053 25.8034 57.7813 25.8267C57.7696 27.5231 57.7976 29.2217 57.7626 30.9204C56.5003 30.9414 55.2379 30.9298 53.9779 30.9344C53.8752 30.1971 53.8262 29.4551 53.8449 28.7131C53.8799 25.444 53.7982 22.175 53.8985 18.9082C53.8449 17.7696 53.7889 16.6239 53.9825 15.4922ZM57.7743 19.2349C57.7789 20.1939 57.7813 21.1553 57.7743 22.1143C58.997 22.119 60.2243 22.14 61.4447 22.0536C62.084 21.2206 62.1307 19.9956 61.321 19.2583C60.138 19.2279 58.955 19.2303 57.7743 19.2349Z" fill="#696969"/>
<path d="M82.6994 15.5061C86.5284 15.4874 90.3598 15.4967 94.1912 15.5037C94.2239 16.7451 94.2356 17.9911 94.1749 19.2348C91.6105 19.2418 89.0485 19.2161 86.4864 19.2488C86.5098 19.8695 86.5424 20.4902 86.6194 21.1062C88.7591 21.0712 90.8988 21.0992 93.0385 21.0875C93.2159 22.3312 93.2299 23.6005 93.0035 24.8372C90.8382 24.8279 88.6751 24.8186 86.5098 24.8419C86.5168 25.6329 86.5168 26.4239 86.5098 27.2149C89.1371 27.2476 91.7645 27.2079 94.3919 27.2359C94.4269 28.4633 94.4222 29.6906 94.3989 30.918C90.4998 30.9413 86.5984 30.9367 82.697 30.9227C82.6667 25.7846 82.6667 20.6442 82.6994 15.5061Z" fill="#696969"/>
<path d="M128.79 15.5271C131.22 15.4711 133.653 15.4874 136.082 15.5178C136.787 18.1988 137.459 20.8892 138.178 23.5679C138.728 26.0319 139.55 28.4376 140 30.9203C138.665 30.939 137.331 30.946 135.998 30.9087C135.014 27.0189 133.936 23.1525 133.005 19.2488C132.608 19.2465 132.211 19.2511 131.817 19.2581C130.914 23.1642 129.827 27.0283 128.83 30.911C127.502 30.9437 126.175 30.9367 124.849 30.9227C124.915 30.4257 124.975 29.9263 125.113 29.4433C126.023 26.0063 126.942 22.5715 127.834 19.1298C128.172 17.9351 128.461 16.7264 128.79 15.5271Z" fill="#696969"/>
<path d="M43.3307 15.4991C44.7214 15.4944 46.1121 15.4991 47.5028 15.4944C49.3882 20.6021 51.1288 25.7659 52.9232 30.9086C51.5395 30.9413 50.1535 30.96 48.7721 30.8876C48.5131 29.9426 48.1865 29.0186 47.8645 28.0946C46.2194 28.1063 44.5744 28.0736 42.9317 28.1156C42.675 29.0606 42.353 29.987 42.0194 30.9086C40.6893 30.946 39.3593 30.9366 38.0293 30.9226C38.1856 29.9053 38.6033 28.9603 38.9323 27.9919C40.407 23.8315 41.814 19.6455 43.3307 15.4991ZM44.2827 24.3915C45.0597 24.3915 45.8391 24.3915 46.6208 24.3892C46.1984 23.2085 45.8134 22.0138 45.3958 20.8331C44.9897 22.0068 44.6397 23.2015 44.2827 24.3915Z" fill="#696969"/>
<path d="M96.0229 15.5131C97.2876 15.4851 98.5523 15.5014 99.8193 15.4897C100.078 17.3728 99.8846 19.2838 99.936 21.1785C101.581 21.1645 103.228 21.1738 104.873 21.1692C104.873 19.2838 104.855 17.3961 104.885 15.5084C106.147 15.4897 107.407 15.4991 108.67 15.4921C108.758 15.9261 108.805 16.3694 108.817 16.8128C108.803 20.6978 108.812 24.5829 108.81 28.4656C108.826 29.2916 108.849 30.127 108.667 30.939C107.405 30.925 106.143 30.9413 104.883 30.918C104.857 28.909 104.876 26.8999 104.871 24.8909C103.228 24.8886 101.586 24.8979 99.943 24.8862C99.8846 26.9023 100.062 28.9276 99.838 30.9343C98.5663 30.9297 97.2923 30.9437 96.0206 30.9133C96.0019 25.7799 95.9972 20.6465 96.0229 15.5131Z" fill="#696969"/>
<path d="M115.028 15.5271C116.447 15.4735 117.866 15.4945 119.284 15.5085C121.074 20.6349 122.927 25.7427 124.583 30.9111C123.244 30.9461 121.905 30.9344 120.568 30.9227C120.225 30.0034 119.91 29.0747 119.676 28.125C118.031 28.0644 116.386 28.1134 114.741 28.09C114.417 29.0444 114.1 29.9987 113.719 30.9321C112.385 30.9274 111.048 30.9461 109.71 30.9134C111.395 25.7566 113.292 20.6676 115.028 15.5271ZM115.959 24.3893C116.743 24.3916 117.527 24.3916 118.314 24.3916C117.94 23.1923 117.527 22.0093 117.135 20.8169C116.802 22.0279 116.34 23.1946 115.959 24.3893Z" fill="#696969"/>
<path d="M13.5499 1.87004C14.1706 1.36603 14.8309 0.857356 15.6173 0.652019C16.0769 0.631019 16.5016 0.852689 16.896 1.06269C18.4733 1.99604 19.7613 3.32606 20.9747 4.67942C23.5414 7.71514 25.4478 11.2432 27.1045 14.8389C28.6305 18.2503 29.9185 21.7737 30.8798 25.3858C31.1132 26.3168 31.3815 27.3061 31.1272 28.2582C30.5975 29.3502 29.5498 30.0642 28.5091 30.6172C26.0311 31.8842 23.2474 32.3112 20.5313 32.7452C18.7533 32.9412 16.959 32.8852 15.1739 32.9039C13.4822 32.8852 11.7835 32.9389 10.1012 32.7312C7.35012 32.2692 4.48707 31.8375 2.05803 30.3675C1.13402 29.7398 0.144669 28.9115 0 27.7285V27.0238C0.686011 23.9787 1.58903 20.9757 2.77671 18.0893C8.40014 18.0613 14.0236 18.0753 19.647 18.0823C20.305 19.4077 21.1147 20.6747 21.53 22.105C19.78 21.468 17.9576 20.9874 16.0886 20.894C12.9409 20.754 9.7185 20.8637 6.70845 21.8857C5.75876 22.266 4.59674 22.7677 4.36341 23.8807C4.51741 24.7628 5.31776 25.3158 6.07143 25.6751C7.75146 26.4405 9.59949 26.7578 11.4265 26.9258C14.3619 27.0308 17.3603 27.0215 20.2 26.1814C21.2594 25.8618 22.3514 25.3601 22.9861 24.4104C23.4271 23.8154 23.1751 23.0384 23.0537 22.378C21.964 17.9423 20.466 13.5649 18.1886 9.58883C17.5026 8.45482 16.7909 7.28346 15.7223 6.46912C15.1856 6.03744 14.4016 6.07944 13.8252 6.40378C12.7589 6.99879 11.9609 7.95081 11.2189 8.89582C9.33582 11.3435 7.90313 14.0946 6.60578 16.8853C5.51609 16.883 4.41474 16.9343 3.33439 16.75C4.73908 13.6606 6.43077 10.7065 8.34647 7.90881C9.86083 5.72244 11.5245 3.6084 13.5499 1.87004Z" fill="#696969"/>
</svg>
