<svg width="126" height="46" viewBox="0 0 126 46" fill="none" xmlns="http://www.w3.org/2000/svg">
<path d="M81.8969 0.0246373C83.787 -0.00821243 85.6797 -0.00821243 87.5723 0.0246373C87.6153 1.36137 87.5673 2.6981 87.6228 4.03483C100.341 4.04494 113.059 4.03483 125.777 4.03988C125.764 13.3818 125.802 22.7213 125.756 32.0632C83.9917 32.0935 42.2296 32.0632 0.46496 32.0784C0.462433 22.7314 0.46496 13.3844 0.46496 4.03736C27.5912 4.03736 54.7201 4.04241 81.8489 4.03483C81.8944 2.6981 81.8464 1.36137 81.8969 0.0246373ZM81.9045 4.03988C81.9095 10.1828 81.9045 16.3282 81.907 22.4711C83.7921 22.4534 85.6771 22.4534 87.5622 22.4711C87.5647 16.3282 87.5597 10.1853 87.5673 4.04241C85.6797 4.03483 83.7921 4.03483 81.9045 4.03988ZM40.7514 8.76014C39.2504 8.93449 37.5826 9.10127 36.4253 10.1828C35.2402 11.335 35.1745 13.1014 35.0557 14.6428C34.9749 16.9195 34.9749 19.2038 35.0582 21.4806C35.177 23.0144 35.2478 24.7807 36.4405 25.9153C37.7165 27.065 39.5334 27.1661 41.1557 27.343C44.567 27.5502 47.9884 27.5072 51.4048 27.4415C53.2444 27.348 55.1572 27.3177 56.878 26.5824C57.9772 26.125 58.7075 25.0637 58.9526 23.9215C59.4201 21.8798 59.2836 19.7623 59.3216 17.6826C59.2912 15.7849 59.3948 13.8518 58.9198 11.9971C58.6544 10.9257 57.9318 9.95789 56.9058 9.51315C55.5337 8.89659 54.005 8.78541 52.5242 8.68433C48.6024 8.50997 44.6706 8.48976 40.7514 8.76014ZM8.5182 8.81573C8.5182 14.9561 8.5182 21.0939 8.5182 27.2343C14.1759 27.2318 19.8337 27.2318 25.4914 27.2343C26.7801 27.2293 28.1295 27.1737 29.2969 26.5697C30.2799 26.082 30.9167 25.0864 31.1314 24.0302C31.417 22.653 31.4372 21.1647 30.904 19.8457C30.5351 18.9158 29.7164 18.2866 28.8825 17.7963C29.82 17.1115 30.477 16.0806 30.5882 14.9131C30.7575 13.2302 30.6058 11.282 29.3525 10.016C28.1977 8.89659 26.487 8.85616 24.9759 8.81573C19.49 8.81067 14.0041 8.81067 8.5182 8.81573ZM63.4076 8.8132C63.3974 14.9561 63.4025 21.099 63.405 27.2394C69.5707 27.2293 75.7388 27.2217 81.9045 27.2444C81.9095 25.655 81.907 24.0656 81.9045 22.4787C77.6214 22.4484 73.3358 22.4534 69.0527 22.4762C69.0476 17.9202 69.0577 13.3667 69.0476 8.81067C67.1676 8.8132 65.2876 8.8132 63.4076 8.8132ZM93.1366 8.8132C93.134 14.9561 93.1366 21.099 93.1366 27.2419C98.2965 27.2192 103.459 27.2394 108.621 27.2343C110.615 27.2116 112.773 27.2267 114.519 26.1225C116.202 25.0031 116.579 22.84 116.743 20.9701C116.872 18.6226 116.912 16.2524 116.586 13.9201C116.366 12.3787 115.785 10.7286 114.39 9.8745C112.743 8.86879 110.731 8.88648 108.864 8.81573C103.623 8.80815 98.3799 8.81573 93.1366 8.8132Z" fill="#696969"/>
<path d="M14.1911 13.2808C17.4533 13.2808 20.7181 13.2859 23.9803 13.2783C24.4756 13.296 25.077 13.2682 25.4156 13.7079C25.8199 14.2663 25.7466 15.2165 25.1048 15.5778C24.6802 15.7926 24.185 15.7446 23.7251 15.7648C20.5488 15.7496 17.3699 15.7597 14.1936 15.7572C14.1986 14.9334 14.1987 14.1071 14.1911 13.2808Z" fill="#696969"/>
<path d="M42.4999 13.5334C44.9788 13.1822 47.4981 13.3666 49.9947 13.3515C51.1141 13.4551 52.5797 13.3237 53.2822 14.3976C53.8053 15.4943 53.6284 16.7552 53.6764 17.9327C53.6334 19.1381 53.7977 20.4041 53.3479 21.5513C52.8728 22.5266 51.6448 22.6025 50.6947 22.6732C48.3623 22.7414 46.0275 22.7389 43.6951 22.6757C42.7374 22.61 41.4993 22.5443 41.009 21.5639C40.5946 20.5835 40.7134 19.4868 40.678 18.4482C40.7184 17.2075 40.5643 15.9239 40.9231 14.716C41.1253 14.0186 41.8252 13.6395 42.4999 13.5334Z" fill="#696969"/>
<path d="M98.8094 13.584C102.079 13.6067 105.349 13.541 108.619 13.6118C109.771 13.6067 110.812 14.4608 110.969 15.6131C111.267 17.3566 111.302 19.1988 110.832 20.9145C110.537 21.9733 109.412 22.4989 108.381 22.4534C105.192 22.4812 102.001 22.4408 98.812 22.4711C98.8094 19.5096 98.817 16.5455 98.8094 13.584Z" fill="#696969"/>
<path d="M14.1936 19.8683C17.3699 19.8733 20.5488 19.8733 23.7251 19.8657C24.3416 19.8708 25.125 19.8657 25.4737 20.4823C25.7618 21.1039 25.7592 21.9757 25.1856 22.4381C24.7005 22.8146 24.0536 22.7818 23.4749 22.7969C20.382 22.7843 17.2891 22.7919 14.1936 22.7919C14.1986 21.8165 14.1986 20.8436 14.1936 19.8683Z" fill="#696969"/>
<path d="M0.492735 38.9517C1.04107 36.6219 4.90723 36.5613 5.72342 38.7218C5.79923 39.2676 5.78659 39.821 5.80175 40.3718C5.20541 40.3668 4.60653 40.3668 4.01018 40.3845C3.90911 39.7932 3.79287 39.1994 3.53513 38.651C3.32034 38.6485 2.89076 38.6434 2.67598 38.6409C2.25146 40.2885 2.53953 42.0194 2.46877 43.6998C2.31716 44.334 3.03733 44.4578 3.48711 44.5716C3.84088 43.9171 3.92174 43.1818 3.94195 42.4515C4.55599 42.449 5.1675 42.449 5.78154 42.449C5.72848 43.3789 6.00391 44.4932 5.23068 45.2058C3.90658 46.5324 0.942524 46.2039 0.500316 44.1698C0.427036 42.4338 0.43967 40.6877 0.492735 38.9517Z" fill="#696969"/>
<path d="M14.6232 37.4126C16.0383 36.7935 18.2569 37.2888 18.5828 38.997C18.6713 39.4392 18.6511 39.8915 18.6688 40.3413C18.0067 40.364 17.3447 40.3691 16.6826 40.3691C16.6548 39.9041 16.6321 39.4417 16.6119 38.9793C16.3491 38.8479 16.0863 38.719 15.8235 38.5902C15.5885 38.7974 15.3535 39.0096 15.121 39.2194C15.1412 40.7001 15.0553 42.1859 15.1538 43.6642C15.2145 44.3085 15.8386 44.4955 16.3819 44.5688C16.6599 43.8941 16.6548 43.1613 16.6649 42.4462C17.3346 42.4462 18.0042 42.4487 18.6738 42.4563C18.6966 43.6162 18.646 45.2005 17.3649 45.6882C16.0686 46.2315 14.0294 46.0875 13.4406 44.6193C13.0161 43.0906 13.1778 41.4885 13.1652 39.9244C13.1803 38.9161 13.5316 37.7133 14.6232 37.4126Z" fill="#696969"/>
<path d="M64.9212 37.6705C66.2832 36.6445 68.7419 37.3748 68.9314 39.1891C69.1083 40.0634 68.4942 40.7861 67.9181 41.3522C69.4924 42.0167 69.6389 44.387 68.3729 45.4129C67.208 46.2215 65.4948 46.1558 64.4588 45.1652C64.0342 44.622 63.9382 43.9094 63.8144 43.2524C64.3931 43.2322 64.9743 43.2195 65.5554 43.2018C65.7045 43.6516 65.8738 44.0938 66.0482 44.536C66.4297 44.4628 66.8795 44.4956 67.1423 44.1494C67.203 43.5758 67.1802 42.9997 67.1903 42.4236C66.781 42.2846 66.3641 42.1683 65.9496 42.0521C65.9446 41.6453 65.937 41.241 65.9269 40.8367C66.3742 40.6749 66.9276 40.5562 67.0893 40.0382C67.4279 39.3685 66.7431 38.757 66.1872 38.5018C65.9395 38.9592 65.7146 39.4317 65.5378 39.9219C64.9616 39.9194 64.3855 39.9118 63.8119 39.8992C63.9458 39.0754 64.1859 38.1607 64.9212 37.6705Z" fill="#696969"/>
<path d="M72.0849 37.2533C73.1613 36.983 74.5107 37.2811 75.1753 38.2287C75.7868 39.2749 75.4153 40.5434 75.5113 41.688C75.4381 42.8934 75.8398 44.3767 74.824 45.299C73.4822 46.4083 70.9149 46.1708 70.263 44.3868C70.1038 42.7291 70.2049 41.0563 70.1922 39.3936C70.0785 38.3045 71.0741 37.4125 72.0849 37.2533ZM72.4942 38.5471C71.9989 39.4341 72.1733 40.465 72.148 41.4354C72.1885 42.4865 71.9737 43.6034 72.4917 44.5763C72.8303 44.4702 73.2043 44.4146 73.4671 44.1492C73.5201 42.4259 73.5201 40.6975 73.4671 38.9742C73.2043 38.7088 72.8328 38.6532 72.4942 38.5471Z" fill="#696969"/>
<path d="M89.9299 37.9054C91.0873 36.8618 93.0001 36.9451 94.1524 37.9559C94.7614 38.5977 94.7235 39.5352 94.7386 40.359C94.0766 40.364 93.4145 40.3666 92.755 40.3565C92.7222 39.8915 92.6994 39.424 92.6817 38.9591C92.3911 38.8226 92.098 38.6887 91.8074 38.5573C91.4031 38.9995 91.1277 39.5377 91.2237 40.1543C91.3501 41.6275 90.8927 43.2321 91.6786 44.5764C92.0222 44.4728 92.4012 44.4222 92.6691 44.1544C92.7272 43.5858 92.7095 43.0148 92.7222 42.4462C93.3893 42.4487 94.0589 42.4487 94.7285 42.4513C94.7487 43.5302 94.7791 44.8645 93.7582 45.5316C92.4265 46.2719 90.1877 46.1885 89.5004 44.6219C89.1845 43.1613 89.3083 41.6502 89.2881 40.1669C89.3412 39.3887 89.2679 38.4588 89.9299 37.9054Z" fill="#696969"/>
<path d="M104.187 37.2661C105.448 36.8972 107.095 37.4228 107.573 38.7166C107.745 40.6042 107.732 42.5196 107.558 44.4046C106.883 46.2417 104.166 46.4211 102.86 45.1703C101.996 44.1241 102.375 42.6762 102.294 41.4355C102.365 40.3717 102.067 39.2017 102.638 38.2314C102.974 37.6856 103.598 37.4354 104.187 37.2661ZM104.341 38.9693C104.293 40.6977 104.295 42.4336 104.341 44.1646C104.619 44.3516 104.94 44.4602 105.25 44.5815C106.019 43.6895 105.731 42.5019 105.774 41.433C105.758 40.4475 105.968 39.366 105.263 38.5498C104.942 38.6559 104.596 38.7317 104.341 38.9693Z" fill="#696969"/>
<path d="M108.657 38.9564C109.028 37.2659 111.222 36.7985 112.634 37.4226C113.802 37.88 114.128 39.1687 114.087 40.3109C113.46 40.3589 112.834 40.3715 112.21 40.4044C112.167 39.7221 112.015 39.06 111.55 38.5395C111.244 38.6608 110.931 38.772 110.658 38.959C110.608 40.6899 110.605 42.4259 110.658 44.1568C110.918 44.3969 111.27 44.4676 111.598 44.5763C112.063 43.9547 112.164 43.1941 112.184 42.441C112.824 42.4461 113.463 42.4511 114.105 42.4789C113.973 43.4139 114.09 44.4929 113.438 45.2585C112.52 46.0267 111.191 46.1606 110.087 45.7639C109.107 45.5062 108.563 44.4373 108.614 43.4771C108.634 41.971 108.553 40.4599 108.657 38.9564Z" fill="#696969"/>
<path d="M7.03486 37.3924C7.6211 37.3924 8.20987 37.3924 8.79611 37.3924C8.82138 39.045 8.84917 40.7001 8.57121 42.3376C9.45057 40.8113 9.66031 39.0071 10.3325 37.3899C10.9591 37.3924 11.5883 37.3949 12.2175 37.3975C12.2125 40.1745 12.2125 42.9491 12.2175 45.7261C11.5858 45.7287 10.9541 45.7287 10.3224 45.7337C10.1884 44.1519 10.479 42.6004 10.5776 41.0337C9.8852 42.5422 9.4531 44.1544 8.93761 45.7312C8.30336 45.7287 7.66911 45.7287 7.03738 45.7312C7.03233 42.9516 7.03486 40.172 7.03486 37.3924Z" fill="#696969"/>
<path d="M19.4167 37.3926C21.0162 37.3951 22.6158 37.3926 24.2153 37.3926C24.2128 37.9359 24.2128 38.4791 24.2128 39.0224C23.7276 39.0148 23.2399 39.0022 22.7548 39.0047C22.6284 41.2436 22.7295 43.49 22.6966 45.7314C22.1079 45.7288 21.5216 45.7288 20.9354 45.7314C20.9253 43.49 20.9556 41.2461 20.9177 39.0047C20.4148 39.0098 19.9145 39.0199 19.4142 39.0325C19.4142 38.4842 19.4167 37.9384 19.4167 37.3926Z" fill="#696969"/>
<path d="M25.0719 37.3976C26.6386 37.3901 28.2052 37.3926 29.7744 37.3951C29.7719 37.898 29.7719 38.4008 29.7744 38.9037C28.8521 38.9037 27.9273 38.8961 27.0075 38.9542C26.9999 39.5051 27.0075 40.0585 27.0454 40.6093C27.8692 40.6902 28.6955 40.6851 29.5218 40.6851C29.5218 41.1855 29.5218 41.6858 29.5218 42.1861C28.6778 42.1861 27.8313 42.1836 26.9873 42.1886C26.9898 42.8532 26.9974 43.5203 27.0252 44.1849C27.9399 44.2228 28.8572 44.2203 29.7744 44.2203C29.7719 44.7231 29.7719 45.2234 29.7744 45.7288C28.2052 45.7314 26.6386 45.7339 25.0719 45.7263C25.0744 42.9492 25.0744 40.1747 25.0719 37.3976Z" fill="#696969"/>
<path d="M30.7852 37.395C31.6949 37.3925 32.6021 37.395 33.5092 37.3925C33.8933 39.2523 34.2925 41.1121 34.4492 43.0098C34.9369 41.1803 35.0658 39.275 35.4777 37.4253C36.4303 37.3798 37.3855 37.3899 38.3406 37.395C38.3381 40.1721 38.3406 42.9517 38.3381 45.7287C37.6761 45.7287 37.014 45.7287 36.352 45.7313C36.3343 43.8285 36.309 41.9182 36.6148 40.0331C36.3065 40.1695 36.1422 40.3995 36.1195 40.7229C35.8921 42.4033 35.4549 44.0483 35.2427 45.7287C34.7802 45.7287 34.3203 45.7313 33.863 45.7338C33.3399 43.7123 33.2009 41.6099 32.5894 39.6162C32.4984 41.6528 32.5768 43.692 32.549 45.7313C31.9627 45.7287 31.374 45.7287 30.7877 45.7313C30.7852 42.9517 30.7877 40.1721 30.7852 37.395Z" fill="#696969"/>
<path d="M39.6319 37.3926C40.3041 37.3951 40.9737 37.3951 41.6458 37.3926C41.6458 38.4842 41.6458 39.5733 41.6484 40.6624C42.5682 40.675 43.632 40.5638 44.3648 41.2461C45.0546 41.9663 44.9814 43.0276 44.9258 43.9448C44.8601 44.8722 44.0818 45.653 43.1519 45.7111C41.9794 45.7718 40.8044 45.7137 39.6319 45.7288C39.6319 42.9492 39.6294 40.1722 39.6319 37.3926ZM41.661 42.1204C41.6433 42.8431 41.6433 43.5658 41.661 44.291C42.088 44.2051 42.6212 44.291 42.9017 43.8741C42.9624 43.4293 42.9624 42.977 42.8992 42.5348C42.6212 42.1154 42.088 42.2038 41.661 42.1204Z" fill="#696969"/>
<path d="M45.8784 37.3948C46.5379 37.3923 47.1975 37.3948 47.857 37.3974C47.8545 40.1744 47.8545 42.949 47.857 45.726C47.1975 45.7286 46.5379 45.7286 45.8784 45.7286C45.8734 42.9515 45.8734 40.1719 45.8784 37.3948Z" fill="#696969"/>
<path d="M52.0592 37.395C53.5602 37.3924 55.0587 37.3924 56.5597 37.395C56.5571 37.8953 56.5571 38.3981 56.5597 38.901C55.7157 38.8959 54.8742 38.8934 54.0328 38.901C54.0302 39.4872 54.0302 40.076 54.0302 40.6673C55.1016 40.6446 56.5066 40.5485 57.0878 41.668C57.6867 42.9819 57.5957 45.15 55.9557 45.6402C54.6746 45.8525 53.3556 45.6807 52.0592 45.7262C52.0668 42.9491 52.0668 40.172 52.0592 37.395ZM54.0328 42.1784C54.0328 42.8632 54.0328 43.548 54.0328 44.2328C54.3638 44.2277 54.6948 44.2227 55.0258 44.2201C55.2179 43.8866 55.4099 43.5505 55.602 43.2169C55.4074 42.8708 55.2153 42.5296 55.0182 42.1885C54.6898 42.1834 54.3613 42.1809 54.0328 42.1784Z" fill="#696969"/>
<path d="M58.5836 37.3949C60.0973 37.3949 61.6134 37.3924 63.1295 37.3949C63.127 37.8978 63.1295 38.4006 63.1295 38.906C62.2552 38.906 61.3809 38.906 60.5091 38.9212C60.494 39.5024 60.4965 40.081 60.5218 40.6622C61.3076 40.6799 62.091 40.6799 62.8769 40.6824C62.8769 41.1827 62.8769 41.6831 62.8769 42.1859C62.0834 42.1834 61.2874 42.1834 60.494 42.196C60.4915 42.8657 60.494 43.5353 60.5142 44.2049C61.386 44.2176 62.2578 44.2176 63.1295 44.2176C63.1295 44.7204 63.127 45.2233 63.1295 45.7286C61.6134 45.7312 60.0973 45.7286 58.5836 45.7286C58.5836 42.9516 58.5836 40.172 58.5836 37.3949Z" fill="#696969"/>
<path d="M76.7218 37.395C78.4956 37.3924 80.2695 37.3924 82.0434 37.395C82.0409 40.172 82.0434 42.9516 82.0434 45.7287C81.3814 45.7287 80.7218 45.7287 80.0623 45.7312C80.0295 43.4873 80.1255 41.2409 80.0067 38.9995C79.5291 39.0476 78.9328 38.7949 78.5689 39.2143C78.4956 41.3849 78.5664 43.5581 78.5411 45.7312C77.9347 45.7287 77.3282 45.7287 76.7218 45.7287C76.7344 42.9516 76.7344 40.172 76.7218 37.395Z" fill="#696969"/>
<path d="M84.588 37.3949C85.3713 37.3924 86.1522 37.3924 86.938 37.3899C87.5824 40.1619 88.1762 42.9465 88.7751 45.7312C88.1535 45.7287 87.5344 45.7312 86.9153 45.7312C86.7637 45.1829 86.6575 44.6219 86.4832 44.0811C86.0157 43.9472 85.5255 43.9598 85.0504 43.9118C84.9013 44.5031 84.8255 45.1096 84.7371 45.711C84.0851 45.7287 83.4332 45.7312 82.7838 45.7261C83.3372 42.939 83.9386 40.1619 84.588 37.3949ZM85.1818 42.6256C85.5255 42.6534 85.8691 42.6762 86.2128 42.6964C86.185 41.4911 85.9803 40.3009 85.7352 39.1208C85.4446 40.2706 85.336 41.4532 85.1818 42.6256Z" fill="#696969"/>
<path d="M95.7772 37.3951C96.4316 37.3951 97.0886 37.3926 97.7456 37.3926C97.7481 38.4564 97.7077 39.5228 97.8189 40.5815C98.3015 40.5689 98.7842 40.5436 99.2668 40.4981C99.2643 39.4621 99.2643 38.4261 99.2693 37.3926C99.9086 37.3926 100.548 37.3951 101.187 37.3976C101.185 40.1747 101.185 42.9518 101.187 45.7288C100.545 45.7288 99.9061 45.7288 99.2693 45.7314C99.2643 44.5614 99.2794 43.3914 99.239 42.2215C98.7412 42.2038 98.246 42.1912 97.7507 42.1811C97.7431 43.3662 97.7456 44.5488 97.7431 45.7314C97.0886 45.7288 96.4316 45.7288 95.7772 45.7288C95.7847 42.9518 95.7847 40.1722 95.7772 37.3951Z" fill="#696969"/>
<path d="M114.699 37.3975C116.371 37.39 118.047 37.39 119.719 37.3975C119.712 37.9257 119.707 38.4512 119.697 38.9794C119.199 39.0046 118.704 39.0097 118.208 39.0122C118.203 41.2511 118.208 43.4924 118.203 45.7313C117.612 45.7287 117.018 45.7287 116.427 45.7287C116.427 43.5076 116.414 41.289 116.437 39.0703C115.863 39.0122 115.287 39.0046 114.714 38.9667C114.704 38.4437 114.701 37.9206 114.699 37.3975Z" fill="#696969"/>
<path d="M120.495 37.3926C121.135 37.3926 121.776 37.3951 122.418 37.3976C122.497 39.0224 122.209 40.6295 122.224 42.2518C122.878 40.675 123.252 38.9946 123.843 37.3926C124.485 37.3926 125.13 37.3926 125.774 37.3951C125.776 40.1722 125.776 42.9518 125.774 45.7314C125.112 45.7288 124.45 45.7288 123.79 45.7288C123.664 44.1874 124.025 42.6763 124.048 41.1425C123.394 42.6283 122.989 44.2076 122.438 45.7314C121.789 45.7314 121.14 45.7288 120.493 45.7314C120.493 42.9518 120.49 40.1722 120.495 37.3926Z" fill="#696969"/>
</svg>
