<svg width="110" height="51" viewBox="0 0 110 51" fill="none" xmlns="http://www.w3.org/2000/svg">
<path d="M16.567 5.35308C32.5375 3.57858 48.5038 1.74704 64.4764 0C63.68 2.59204 62.7969 5.15873 61.9794 7.74443C61.6921 8.71196 61.2865 9.64779 61.1281 10.6512C65.9361 10.4062 70.7252 9.86749 75.5269 9.52316C83.9769 8.82181 92.429 8.11623 100.879 7.42122C102.277 7.31982 103.676 7.07899 105.081 7.19096C106.669 7.42333 108.159 8.37184 108.997 9.74919C109.487 10.5541 109.544 11.5913 109.211 12.468C105.858 21.3215 102.533 30.1855 99.1869 39.0411C98.4982 40.972 97.537 42.8753 96.0097 44.2822C95.1985 45.0237 94.1803 45.5751 93.0754 45.6849C77.5908 47.4341 62.104 49.1537 46.6215 50.9028C46.1589 50.9451 45.6941 50.9704 45.2315 51C46.3722 47.4362 47.5658 43.8872 48.6685 40.3107C34.5232 41.4874 20.3779 42.662 6.23261 43.8281C4.46023 44.1492 2.60123 43.4415 1.37175 42.1507C0.446475 41.2529 -0.0203892 39.8206 0.490836 38.5912C3.77578 29.8961 7.05227 21.1989 10.3309 12.5018C10.935 10.816 11.6301 9.11967 12.7898 7.73176C13.7257 6.54875 15.0227 5.51785 16.567 5.35308ZM35.5372 17.6309C34.7176 17.9943 34.0648 18.8308 34.1261 19.7603C34.0859 21.6531 33.7564 23.6748 34.5549 25.462C34.8 26.0831 35.3619 26.5647 36.0273 26.664C36.9484 26.8034 37.8166 27.209 38.7567 27.228C41.805 27.2323 44.8512 27.2196 47.8996 27.2323C47.8932 28.2399 47.8911 29.2497 47.9123 30.2574C47.3313 30.3609 46.7419 30.3883 46.1547 30.3693C44.828 30.3313 43.4971 30.439 42.1768 30.2848C42.1895 30.1074 42.217 29.7546 42.2296 29.5792C39.8721 29.518 37.5103 29.5454 35.1528 29.5581C34.4324 29.5285 33.8113 30.251 33.9655 30.9566C34.1134 31.6791 34.2993 32.3952 34.519 33.0987C34.6817 33.669 35.2542 34.0049 35.814 34.0704C37.3582 34.2014 38.9046 33.9669 40.4509 33.9859C43.9661 33.988 47.4834 33.9796 51.0007 33.9901C52.3908 34.0324 53.7047 33.2444 54.5244 32.1565C55.1603 31.0939 55.7665 29.9257 55.7602 28.6561C55.7771 27.3252 55.5785 25.9732 55.0948 24.7289C54.7251 23.753 53.766 23.0051 52.6992 23.0368C49.1438 23.0284 45.5885 23.0558 42.0311 23.0305C42.0268 22.346 42.0268 21.6637 42.0332 20.9814C43.5964 20.9729 45.1618 20.9877 46.7271 20.9645C46.7863 21.3616 46.8264 21.763 46.8539 22.1644C49.5811 22.1369 52.3105 22.1939 55.0377 22.1369C55.5743 22.1644 55.87 21.5095 55.6842 21.0637C55.3187 20.2399 55.0715 19.323 54.4251 18.6618C53.6266 17.7577 52.3992 17.3542 51.2204 17.3394C46.8581 17.331 42.4958 17.3415 38.1335 17.331C37.2631 17.3394 36.3717 17.3584 35.5372 17.6309ZM14.3953 17.4978C14.3911 23.0009 14.3911 28.504 14.3932 34.0092C19.9301 34.0535 25.4669 34.0282 31.0017 34.0155C31.0038 32.5325 30.9869 31.0517 31.0101 29.5708C28.5596 29.5116 26.1091 29.5687 23.6607 29.5391C23.646 28.7976 23.6481 28.0582 23.6607 27.3189C26.1091 27.2977 28.5575 27.3337 31.0059 27.2935C31.008 26.138 30.9806 24.9803 31.027 23.8248C30.7165 23.753 30.3996 23.7065 30.0806 23.7107C27.9259 23.7276 25.769 23.7255 23.6122 23.7065C23.6122 23.191 23.6122 22.6756 23.6122 22.1601C26.1007 22.1306 28.5871 22.2404 31.0735 22.2003C31.1052 20.6286 31.0756 19.059 31.0989 17.4873C25.5303 17.4809 19.9596 17.4239 14.3953 17.4978ZM57.5009 17.5105C57.4713 23.0263 57.4988 28.5399 57.4882 34.0556C60.0824 34.0894 62.6765 34.0746 65.2707 34.062C65.2622 31.6453 65.2559 29.2286 65.2812 26.8119C66.4241 29.2201 67.5395 31.641 68.6486 34.0641C70.2921 34.0831 71.9356 34.0725 73.5791 34.0683C74.6544 31.6854 75.7276 29.3004 76.8282 26.9302C76.843 29.3088 76.9169 31.6854 76.881 34.0641C79.4181 34.0746 81.9552 34.0852 84.4923 34.0535C84.4881 28.5399 84.4944 23.0241 84.4902 17.5105C81.1461 17.5 77.802 17.5021 74.4579 17.5084C73.3616 19.5258 72.3159 21.5686 71.2132 23.5818C70.0999 21.575 69.0457 19.5322 67.9641 17.5084C64.4764 17.5063 60.9886 17.5 57.5009 17.5105ZM87.0273 17.5105C87.0125 23.0305 87.0273 28.5505 87.0189 34.0683C90.1919 34.0683 93.3648 34.0894 96.5357 34.0577C96.5294 28.5462 96.542 23.0326 96.5294 17.519C93.3627 17.4894 90.194 17.5063 87.0273 17.5105Z" fill="#696969"/>
</svg>
