<svg width="100" height="51" viewBox="0 0 100 51" fill="none" xmlns="http://www.w3.org/2000/svg">
<path d="M99.2415 14.19L99.2427 14.1933V14.1967C100.764 20.6265 96.6861 27.6757 88.8649 33.8747C81.2245 39.9306 69.9635 45.2244 56.8933 48.3206L56.8865 48.3228L56.8798 48.324H56.8753C53.3236 49.1674 49.7293 49.8202 46.1078 50.2797C42.5984 50.7216 39.1906 50.9569 35.9345 50.9945C18.9163 51.1938 5.89723 45.9785 3.72252 36.808H3.72195L3.72139 36.8047V36.8013C2.20083 30.3715 6.27793 23.3223 14.0992 17.1233C21.7401 11.0669 33.0017 5.77356 46.0708 2.67741L46.0775 2.67573L46.0848 2.67404H46.0882C59.1567 -0.419294 71.5941 -0.73767 81.1386 1.24838C90.9099 3.28216 97.717 7.75512 99.2415 14.1861V14.19ZM97.4649 14.6145H97.4638L97.4627 14.6111V14.6083C96.1162 8.92867 89.834 4.92232 80.7668 3.03509C71.4722 1.1007 59.3179 1.42076 46.506 4.4529V4.45346L46.4987 4.45514L46.4919 4.45683C33.6817 7.49121 22.6745 12.6554 15.2345 18.5523C7.97593 24.305 4.15768 30.7039 5.49912 36.3841H5.49968L5.50025 36.3875V36.3908C7.45822 44.6596 19.7569 49.356 35.9126 49.1662C39.1075 49.1292 42.4485 48.8984 45.8866 48.4655C49.442 48.0148 52.9707 47.3741 56.4575 46.5462V46.5451L56.4654 46.5434L56.4721 46.5417C69.2823 43.5074 80.2901 38.3426 87.7301 32.4457C94.9876 26.693 98.8064 20.2947 97.4649 14.6145Z" fill="#696969"/>
<path fill-rule="evenodd" clip-rule="evenodd" d="M45.8086 15.4192L43.2829 20.0174H33.36L31.8136 22.8367H40.2103L37.6847 27.4349H29.2885L27.5961 30.5276H37.9143L35.3892 35.1258H18.3986L29.2138 15.4192H45.8086ZM53.6017 20.0174H54.8741C57.6726 20.0174 58.7485 20.7018 58.0129 22.9462C57.5019 24.506 54.9903 30.5276 49.2511 30.5276H47.8373L53.6017 20.0174ZM38.6398 35.1258H47.4032C59.6727 35.1258 64.2765 24.533 65.0576 22.1522C66.5658 17.554 63.9576 15.4192 58.3885 15.4192H49.4555L38.6398 35.1258ZM67.9566 35.1258H61.2842L72.0994 15.4192H78.7718L67.9566 35.1258ZM82.5092 28.4203L88.4151 21.3582L86.7216 28.4203H82.5092ZM88.355 15.4192L70.2464 35.1264H76.7773L78.9874 32.526H85.63L84.9753 35.1264H91.619L95.1403 15.4192H88.355ZM6.30208 31.5631C6.72939 30.5866 8.19492 27.9127 8.76035 26.888H2.8651C1.90268 28.5304 1.48492 29.4602 1.22438 30.2542C0.111471 33.6479 1.577 35.6463 6.24144 35.6463L6.25379 35.6458C5.90509 34.4498 5.85119 32.5929 6.30208 31.5631ZM18.5839 15.4192L11.4657 28.4203C11.3145 28.6883 11.1468 28.9468 10.9637 29.1941L10.9671 29.1997C10.9671 29.1997 7.88272 33.5822 7.73055 34.8776C7.70458 35.1045 7.70101 35.3334 7.71988 35.561C12.3984 35.0697 16.0352 32.2301 18.6316 27.5174L25.2557 15.4192H18.5839Z" fill="#696969"/>
</svg>
