<svg width="140" height="38" viewBox="0 0 140 38" fill="none" xmlns="http://www.w3.org/2000/svg">
<path d="M7.40355 1.48981C8.58545 0.85741 9.76972 0.0568448 11.1529 0C10.4732 0.916623 9.2818 1.59166 9.22732 2.85882C9.20364 4.351 10.3713 5.495 11.4348 6.38794C14.0828 8.47462 17.2401 9.78442 20.3855 10.9213C19.7507 11.6721 19.0165 12.3282 18.3035 13.0009C16.1505 12.1908 14.0733 11.1724 12.1146 9.95969C10.8853 9.17334 9.68445 8.29461 8.7323 7.17666C7.9341 6.25293 7.43197 5.03551 7.51724 3.8015C7.57645 3.0483 8.01463 2.40406 8.32728 1.74087C7.15012 2.65276 6.21455 4.16388 6.59114 5.70106C7.10985 7.83985 8.85546 9.38414 10.5916 10.5945C12.6143 12.0179 14.881 13.0269 17.0695 14.1615C16.4158 14.8981 15.6863 15.5589 14.945 16.2055C11.9914 14.8057 9.06152 13.1809 6.7522 10.8266C5.06581 9.1236 4.03786 6.44478 4.99238 4.12125C4.0497 5.1113 3.36283 6.47794 3.6589 7.87064C4.15392 10.4476 6.08428 12.4419 8.10937 13.9672C9.8763 15.2889 11.7972 16.395 13.7915 17.3306C13.0951 18.0601 12.368 18.7612 11.6361 19.4575C9.04494 18.0624 6.50114 16.4708 4.48315 14.3036C3.31546 13.0412 2.36804 11.4756 2.18804 9.73468C2.09093 8.98148 2.18093 8.22355 2.20935 7.46799C1.37326 8.7541 1.13641 10.3908 1.59827 11.8545C2.31357 14.351 4.29366 16.2079 6.26428 17.7735C7.58356 18.8251 9.02836 19.6991 10.459 20.5873C9.7934 21.2008 9.1989 21.8947 8.48834 22.4584C8.20175 22.5248 7.972 22.2571 7.72804 22.1458C5.20792 20.4973 2.81333 18.5148 1.19088 15.9426C-0.417353 13.4959 -0.327348 10.1729 1.04403 7.63852C2.42963 4.96682 4.80053 2.93461 7.40355 1.48981Z" fill="#696969"/>
<path d="M10.5158 3.44868C13.3983 1.72675 16.8066 0.883555 20.1605 1.06593C23.5617 1.23884 26.8942 2.49653 29.5706 4.59742C32.3608 6.75989 34.4261 9.8532 35.3143 13.2757C35.9112 15.4974 35.9965 17.8446 35.6862 20.1208C35.6696 20.4405 35.4446 20.6845 35.2883 20.9427C35.2196 20.5211 35.1959 20.0947 35.2243 19.6708C35.4138 15.6395 34.123 11.5538 31.6289 8.37997C29.0259 5.04981 25.1107 2.78312 20.9279 2.18151C18.2775 1.77176 15.5442 2.0773 13.0051 2.91576C12.0198 3.23788 11.1056 3.74474 10.1084 4.03134C10.2102 3.88686 10.4139 3.59553 10.5158 3.44868Z" fill="#696969"/>
<path d="M52.6212 2.43728C56.0698 1.4946 59.7671 1.47092 63.2465 2.27148C62.8533 3.20942 62.4199 4.12841 61.9627 5.03793C63.5165 5.02609 65.0703 5.03793 66.624 5.02846C67.0788 6.75985 67.5193 8.49599 67.9551 10.2321C69.6747 8.53389 71.3066 6.74801 73.0143 5.03793C74.7978 5.03556 76.5813 5.01424 78.3648 5.05214C75.3923 7.96307 72.1569 10.604 69.1726 13.5031C68.4809 15.1255 67.9622 16.8214 67.3298 18.4699C65.7832 18.4652 64.2365 18.4723 62.6899 18.4652C63.1991 16.8972 63.8197 15.3695 64.355 13.811C64.5421 13.4178 64.3644 13.0057 64.2271 12.6315C63.2868 10.2227 62.3559 7.80911 61.4369 5.39084C59.6866 4.77028 57.7989 4.69449 55.9632 4.82713C55.004 4.91713 53.9524 5.14451 53.2892 5.90481C52.9955 6.23167 52.7468 6.74564 53.0168 7.1625C53.2797 7.59595 53.7747 7.79727 54.2295 7.96307C55.9988 8.55283 57.9504 8.69258 59.5492 9.72526C60.3592 10.2084 60.8069 11.1843 60.6932 12.1151C60.4943 13.811 59.5208 15.379 58.1636 16.3998C56.5104 17.693 54.419 18.2496 52.3749 18.5315C49.3882 18.8868 46.3375 18.7375 43.4053 18.0649C43.9808 16.9256 44.5516 15.784 45.0727 14.6163C47.4199 15.5945 50.0419 15.8835 52.5478 15.4666C53.6184 15.2937 54.5042 14.5405 54.8382 13.5078C54.6037 13.0886 54.3858 12.6101 53.9168 12.4041C51.9533 11.4093 49.5161 11.4827 47.7752 10.0237C46.7402 9.10234 46.9107 7.52963 47.4341 6.38326C48.3366 4.26815 50.4919 3.03178 52.6212 2.43728Z" fill="#696969"/>
<path d="M79.6581 5.611C82.6803 4.60674 86.0152 4.54042 89.0943 5.33151C88.6704 6.30024 88.218 7.25713 87.7561 8.20928C85.9963 7.58162 84.0683 7.44188 82.2351 7.78532C81.5174 7.91322 80.9892 8.43193 80.66 9.05722C82.0953 10.4736 84.4307 10.0425 86.0247 11.2268C86.9366 11.7763 87.209 12.9843 86.8655 13.9482C86.2924 16.2102 84.1583 17.6621 81.9982 18.1998C78.9949 18.9387 75.8045 18.8369 72.8083 18.1121C73.3317 17.0889 73.7841 16.0326 74.3384 15.0259C76.2711 15.8383 78.4691 16.1794 80.5273 15.6939C81.2758 15.547 81.7708 14.9312 81.9864 14.2348C80.9987 13.1003 79.3715 13.1358 78.0617 12.6242C76.9532 12.2855 75.705 11.5134 75.7311 10.2012C75.7926 7.9748 77.6591 6.27893 79.6581 5.611Z" fill="#696969"/>
<path d="M88.8291 7.68583C89.0991 6.78579 89.4733 5.92128 89.7765 5.03308C94.073 5.04018 98.3672 5.0165 102.664 5.04492C102.353 5.9947 102.001 6.93264 101.657 7.87058C100.288 7.86584 98.9191 7.88005 97.5524 7.85874C96.2473 11.3831 94.9754 14.9217 93.6964 18.4556C92.1403 18.4792 90.5865 18.4721 89.0304 18.4579C90.3 14.9264 91.5813 11.3997 92.8746 7.87532C91.5553 7.84216 90.236 7.90848 88.9191 7.85163C88.8978 7.81137 88.8528 7.72847 88.8291 7.68583Z" fill="#696969"/>
<path d="M103.353 5.04739C107.36 5.04029 111.37 4.98818 115.378 5.07345C115.027 5.95691 114.712 6.85222 114.374 7.74042C111.934 7.73805 109.495 7.74516 107.055 7.73568C106.738 8.59072 106.432 9.4505 106.103 10.3032C108.412 10.3079 110.721 10.2866 113.033 10.315C112.73 11.1985 112.403 12.0748 112.079 12.9512C109.769 12.9559 107.462 12.9512 105.155 12.9536C104.81 13.8915 104.476 14.8342 104.113 15.7674C106.645 15.7698 109.175 15.7366 111.707 15.784C111.411 16.684 111.074 17.5722 110.759 18.4651C106.676 18.458 102.59 18.4959 98.5069 18.4462C100.096 13.9697 101.754 9.51919 103.353 5.04739Z" fill="#696969"/>
<path d="M116.209 5.04262C118.445 5.0213 120.681 5.03551 122.917 5.03551C123.106 7.90618 123.168 10.7863 123.331 13.6593C125.387 10.7318 127.659 7.96065 129.743 5.05209C132.218 5.02841 134.696 4.99761 137.173 5.06867C135.69 9.5381 134.137 13.9838 132.661 18.4533C131.133 18.4817 129.608 18.4698 128.08 18.4627C129.279 15.1965 130.492 11.9374 131.704 8.67595C129.253 11.9232 126.887 15.2463 124.381 18.4462C122.839 18.5054 121.292 18.4604 119.75 18.458C119.705 15.1421 119.492 11.8332 119.43 8.51726C118.239 11.8332 117.088 15.161 115.897 18.4769C114.383 18.4509 112.867 18.4983 111.354 18.4438C112.953 13.9696 114.599 9.51204 116.209 5.04262Z" fill="#696969"/>
<path d="M25.6365 17.3378C26.321 16.6936 26.9037 15.9214 27.7043 15.4146C30.736 17.2028 33.6043 19.5547 35.2907 22.7025C36.6384 25.1871 36.231 28.2828 34.8383 30.6561C33.0595 33.7873 29.9804 35.9047 26.7853 37.4135C26.1884 37.6693 25.5418 38.0388 24.8739 37.7972C25.7952 37.0393 26.8777 36.144 26.8587 34.8365C26.7308 33.4083 25.6152 32.3567 24.5873 31.4803C21.9487 29.4126 18.8057 28.1288 15.684 26.9896C16.359 26.279 17.0245 25.5282 17.8204 24.9574C20.6484 25.9877 23.3675 27.397 25.7668 29.2302C27.2235 30.3458 28.6256 31.9446 28.5522 33.8962C28.5996 34.7418 28.088 35.4666 27.7422 36.1937C28.8791 35.2652 29.8644 33.7802 29.4973 32.2501C29.1041 30.4737 27.773 29.1094 26.4063 27.9986C24.1491 26.2411 21.5437 25.0119 18.981 23.7731C19.6394 23.0341 20.3902 22.3875 21.1221 21.722C24.2107 23.1218 27.2993 24.7655 29.6536 27.2572C31.2334 28.9057 32.1074 31.4898 31.07 33.6499C31.9937 32.7499 32.7043 31.4614 32.4508 30.135C32.015 27.8186 30.4162 25.9095 28.6256 24.4624C26.7048 22.9086 24.5518 21.658 22.323 20.5969C22.9814 19.8603 23.6564 19.1213 24.4381 18.5126C25.62 18.9958 26.6669 19.749 27.7493 20.4145C29.8739 21.8617 31.9866 23.5315 33.1874 25.8574C33.924 27.288 34.1112 28.9507 33.8459 30.5282C35.2102 28.5362 34.8099 25.8456 33.5024 23.9365C31.5508 21.0517 28.5451 19.1379 25.6365 17.3378Z" fill="#696969"/>
<path d="M1.17666 18.9695C1.22166 18.5361 1.16008 17.9653 1.70721 17.8279C1.86354 19.2466 1.92512 20.6843 2.29698 22.0699C3.23018 25.8691 5.53003 29.3248 8.72044 31.6009C12.5764 34.4029 17.5859 35.5445 22.2756 34.6871C23.4219 34.5497 24.4807 34.0026 25.6413 33.9529C25.5228 34.1968 25.4044 34.4645 25.1344 34.5782C22.1666 36.3404 18.6067 37.0912 15.1818 36.6554C10.9374 36.1532 6.96536 33.8558 4.36471 30.4711C1.85406 27.2452 0.745587 23.0173 1.17666 18.9695Z" fill="#696969"/>
<path d="M54.0139 21.2482C56.2404 19.974 58.8481 19.5595 61.3801 19.4766C63.3294 19.4339 65.2976 19.5405 67.1948 20.0284C66.7235 21.1014 66.1929 22.1483 65.724 23.2236C63.7368 22.5296 61.6098 22.4325 59.5302 22.6172C58.4999 22.7617 57.2659 23.1383 56.8751 24.2207C56.6004 24.8176 57.2304 25.3079 57.7136 25.5187C59.5942 26.3358 61.7851 26.3358 63.5212 27.5035C64.3052 28.008 64.76 28.9554 64.6179 29.8839C64.4071 31.7693 63.2015 33.4462 61.643 34.4836C59.959 35.5897 57.9575 36.0871 55.9774 36.3216C53.1068 36.6129 50.1864 36.4637 47.3726 35.8218C47.8818 34.6447 48.481 33.5125 49.0447 32.3614C51.347 33.3112 53.9334 33.6973 56.3943 33.2307C57.4341 33.0577 58.526 32.4017 58.6871 31.2719C58.6255 30.6182 58.0333 30.18 57.4673 29.9573C55.7122 29.2468 53.7226 29.1378 52.1096 28.0838C51.4346 27.6575 50.9325 26.9019 50.9775 26.0824C50.9135 24.0431 52.3228 22.243 54.0139 21.2482Z" fill="#696969"/>
<path d="M96.4084 25.753C97.7182 23.7634 100.165 23.0031 102.408 22.7C104.63 22.4655 106.937 22.4394 109.094 23.0955C108.606 24.024 108.289 25.0448 107.709 25.9188C105.852 25.3575 103.834 25.0875 101.937 25.6133C101.349 25.798 100.601 26.3215 100.84 27.032C101.823 27.8089 103.142 27.8326 104.291 28.2187C105.326 28.5337 106.562 29.0026 106.901 30.1443C107.233 31.4399 106.536 32.7544 105.759 33.7563C104.262 35.4901 101.903 36.1059 99.7125 36.3546C97.4055 36.5038 95.0441 36.473 92.8058 35.8359C93.3009 34.8055 93.8101 33.7823 94.3241 32.7591C96.2236 33.5763 98.3956 33.9316 100.43 33.4602C101.174 33.2968 102.072 32.6431 101.806 31.7786C100.267 30.4735 97.8721 30.8619 96.3752 29.4456C95.3307 28.4816 95.7476 26.8189 96.4084 25.753Z" fill="#696969"/>
<path d="M116.7 22.7047C119.063 22.4536 121.678 22.3542 123.791 23.6261C125.113 24.4172 125.674 26.0325 125.463 27.5152C125.12 30.348 123.457 33.0055 121.053 34.5521C118.41 36.2764 115.108 36.6743 112.029 36.3167C110.425 36.0822 108.649 35.4356 107.905 33.8771C107.005 31.9207 107.796 29.7085 108.713 27.9107C110.276 24.9501 113.436 23.1168 116.7 22.7047ZM117.775 25.348C114.928 25.4783 112.9 28.1523 112.472 30.7862C112.325 31.6767 112.51 32.7568 113.346 33.2565C114.464 33.915 115.861 33.6947 116.998 33.2021C118.95 32.2665 120.167 30.2319 120.563 28.1571C120.712 27.4465 120.591 26.6388 120.11 26.0751C119.518 25.4522 118.597 25.3054 117.775 25.348Z" fill="#696969"/>
<path d="M63.1967 36.177C64.7978 31.7218 66.4558 27.2855 68.0262 22.8185C72.0313 22.8066 76.0389 22.79 80.0441 22.8279C79.7338 23.6901 79.4117 24.5498 79.1275 25.4238C76.6713 25.4688 74.2175 25.4262 71.7637 25.4452C71.4392 26.3168 71.1266 27.1908 70.795 28.0553C73.1019 28.0553 75.4089 28.0387 77.7158 28.0648C77.4292 28.9459 77.1 29.8127 76.7921 30.6867C74.4804 30.7104 72.1664 30.6962 69.8547 30.6938C69.5018 31.6436 69.1725 32.6052 68.7983 33.5479C71.3421 33.5337 73.8835 33.5384 76.4273 33.5455C76.1029 34.4243 75.7807 35.303 75.4586 36.1817C71.3705 36.1817 67.2848 36.1888 63.1967 36.177Z" fill="#696969"/>
<path d="M76.1337 36.1747C77.7041 31.7005 79.3478 27.2524 80.9774 22.7996C82.6022 22.8209 84.227 22.7996 85.8518 22.8138C86.7756 26.2055 87.704 29.5973 88.668 32.9772C89.8783 29.5902 91.0744 26.1984 92.28 22.8114C93.7083 22.8138 95.1389 22.7925 96.5694 22.8256C94.9304 27.2642 93.3198 31.7147 91.7211 36.1676C89.8168 36.2007 87.9101 36.177 86.0058 36.1818C85.1626 33.2709 84.3668 30.3457 83.5188 27.4348C82.3701 30.3007 81.4511 33.2637 80.4184 36.177C78.9902 36.1865 77.562 36.1889 76.1337 36.1747Z" fill="#696969"/>
<path d="M128.078 22.8137C130.71 22.7995 133.341 22.8161 135.972 22.8042C137.183 22.7758 138.502 23.0955 139.35 24.0122C140.338 25.1159 140.103 26.8426 139.293 27.9747C138.511 28.9932 137.221 29.4172 136.001 29.6114C136.439 29.9903 136.804 30.4569 136.951 31.0278C137.46 32.7307 137.832 34.4692 138.327 36.177C136.678 36.1817 135.027 36.2078 133.379 36.1604C133.097 34.699 132.979 33.1784 132.415 31.7904C131.96 30.7814 130.702 30.9851 129.802 30.9283C129.139 32.6597 128.578 34.4361 127.867 36.1485C126.328 36.2314 124.781 36.1651 123.242 36.177C124.826 31.7123 126.475 27.2713 128.078 22.8137ZM131.773 25.4522C131.448 26.4091 131.1 27.3589 130.738 28.3016C132.048 28.2732 133.455 28.4342 134.66 27.8113C135.323 27.4987 135.612 26.7478 135.624 26.0515C134.468 25.3385 133.071 25.4451 131.773 25.4522Z" fill="#696969"/>
</svg>
